<?xml version="1.0" encoding="UTF-8" standalone="no"?><svg xmlns="http://www.w3.org/2000/svg" xmlns:xlink="http://www.w3.org/1999/xlink" contentScriptType="application/ecmascript" contentStyleType="text/css" height="2155.5px" preserveAspectRatio="none" style="width:3132px;height:2155px;" version="1.1" viewBox="0 0 3132 2155" width="3132px" zoomAndPan="magnify"><defs><filter height="300%" id="fohs891anmwcj" width="300%" x="-1" y="-1"><feGaussianBlur result="blurOut" stdDeviation="3.0"/><feColorMatrix in="blurOut" result="blurOut2" type="matrix" values="0 0 0 0 0 0 0 0 0 0 0 0 0 0 0 0 0 0 .4 0"/><feOffset dx="6.0" dy="6.0" in="blurOut2" result="blurOut3"/><feBlend in="SourceGraphic" in2="blurOut3" mode="normal"/></filter></defs><g><!--MD5=[d5b1ed220e36a9b6b1af384f72e2be5b]
cluster story--><polygon fill="#FFFFFF" filter="url(#fohs891anmwcj)" points="24,711,85.5,711,96,746.4141,1999.5,746.4141,1999.5,2145,24,2145,24,711" style="stroke:#000000;stroke-width:2.25;"/><line style="stroke:#000000;stroke-width:2.25;" x1="24" x2="96" y1="746.4141" y2="746.4141"/><text fill="#000000" font-family="sans-serif" font-size="21" font-weight="bold" lengthAdjust="spacing" textLength="52.5" x="30" y="735.7998">story</text><!--MD5=[dbcec57f23c0b4e0af29ccd09b41b3c2]
cluster tqmanager--><polygon fill="#FFFFFF" filter="url(#fohs891anmwcj)" points="2035.5,861.75,2157,861.75,2167.5,897.1641,3106.5,897.1641,3106.5,1426.5,2035.5,1426.5,2035.5,861.75" style="stroke:#000000;stroke-width:2.25;"/><line style="stroke:#000000;stroke-width:2.25;" x1="2035.5" x2="2167.5" y1="897.1641" y2="897.1641"/><text fill="#000000" font-family="sans-serif" font-size="21" font-weight="bold" lengthAdjust="spacing" textLength="112.5" x="2041.5" y="886.5498">tqmanager</text><!--MD5=[c52f45833d539af9e29a9d34b8b7302b]
cluster utils--><polygon fill="#FFFFFF" filter="url(#fohs891anmwcj)" points="424.5,442.5,478.5,442.5,489,477.9141,1024.5,477.9141,1024.5,675,424.5,675,424.5,442.5" style="stroke:#000000;stroke-width:2.25;"/><line style="stroke:#000000;stroke-width:2.25;" x1="424.5" x2="489" y1="477.9141" y2="477.9141"/><text fill="#000000" font-family="sans-serif" font-size="21" font-weight="bold" lengthAdjust="spacing" textLength="45" x="430.5" y="467.2998">utils</text><!--MD5=[a65b64adc23078244faca9a369f7e410]
class TQStory--><rect codeLine="3" fill="#FEFECE" filter="url(#fohs891anmwcj)" height="410.5547" id="TQStory" style="stroke:#A80036;stroke-width:2.25;" width="409.5" x="518.25" y="771"/><ellipse cx="684.375" cy="795" fill="#ADD1B2" rx="16.5" ry="16.5" style="stroke:#A80036;stroke-width:1.5;"/><path d="M687.375,789.75 Q687.6797,789 688.0313,788.625 Q688.3828,788.25 688.7813,788.25 Q689.4844,788.25 689.9297,788.6719 Q690.375,789.0938 690.375,790.0781 L690.375,792.4219 Q690.375,793.4063 689.9531,793.8281 Q689.5313,794.25 688.875,794.25 Q688.2891,794.25 687.9141,793.9922 Q687.5391,793.7344 687.375,793.0547 Q687.3047,792.5859 687.0469,792.3281 Q686.5781,791.8359 685.7344,791.5547 Q684.8906,791.25 684.0469,791.25 Q682.9922,791.25 682.1016,791.6719 Q681.2344,792.0938 680.5547,793.0313 Q679.875,793.9688 679.875,795.2578 L679.875,796.6406 Q679.875,798.1875 681.1406,799.2188 Q682.4063,800.25 684.6563,800.25 Q685.9922,800.25 686.9297,799.9453 Q687.4688,799.7813 688.0781,799.2422 Q688.4766,798.9375 688.6875,798.8438 Q688.8984,798.75 689.1563,798.75 Q689.6484,798.75 690,799.1484 Q690.375,799.5234 690.375,800.0625 Q690.375,800.5781 689.8594,801.1875 Q689.1094,802.0781 687.9141,802.5703 Q686.3438,803.25 684.4219,803.25 Q682.1719,803.25 680.3672,802.3594 Q678.9141,801.6563 677.8828,800.1328 Q676.875,798.6094 676.875,796.8047 L676.875,795.1641 Q676.875,793.2891 677.7656,791.6484 Q678.6797,790.0078 680.25,789.1406 Q681.8438,788.25 683.625,788.25 Q684.7031,788.25 685.6406,788.625 Q686.5781,789 687.375,789.75 Z " fill="#000000"/><text fill="#000000" font-family="sans-serif" font-size="18" lengthAdjust="spacing" textLength="64.5" x="715.125" y="802.3652">TQStory</text><line style="stroke:#A80036;stroke-width:2.25;" x1="519.75" x2="926.25" y1="819" y2="819"/><rect fill="none" height="9" style="stroke:#C82930;stroke-width:1.5;" width="9" x="530.25" y="831"/><text fill="#000000" font-family="sans-serif" font-size="16.5" lengthAdjust="spacing" textLength="123" x="548.25" y="842.1284">TQQuest tqquest</text><rect fill="none" height="9" style="stroke:#C82930;stroke-width:1.5;" width="9" x="530.25" y="851.7539"/><text fill="#000000" font-family="sans-serif" font-size="16.5" lengthAdjust="spacing" textLength="207" x="548.25" y="862.8823">TwPassage currentPassage</text><rect fill="none" height="9" style="stroke:#C82930;stroke-width:1.5;" width="9" x="530.25" y="872.5078"/><text fill="#000000" font-family="sans-serif" font-size="16.5" lengthAdjust="spacing" textLength="234" x="548.25" y="883.6362">String currentPassageCleanText</text><rect fill="none" height="9" style="stroke:#C82930;stroke-width:1.5;" width="9" x="530.25" y="893.2617"/><text fill="#000000" font-family="sans-serif" font-size="16.5" lengthAdjust="spacing" textLength="370.5" x="548.25" y="904.3901">MathExpressionEvaluator mathExpressionEvaluator</text><line style="stroke:#A80036;stroke-width:2.25;" x1="519.75" x2="926.25" y1="914.0156" y2="914.0156"/><ellipse cx="534.75" cy="930.5156" fill="#84BE84" rx="4.5" ry="4.5" style="stroke:#038048;stroke-width:1.5;"/><text fill="#000000" font-family="sans-serif" font-size="16.5" lengthAdjust="spacing" textLength="174" x="548.25" y="937.144">Story(TQQuest tqquest)</text><line style="stroke:#A80036;stroke-width:1.5;stroke-dasharray:1.0,2.0;" x1="519.75" x2="926.25" y1="946.7695" y2="946.7695"/><ellipse cx="534.75" cy="963.2695" fill="#84BE84" rx="4.5" ry="4.5" style="stroke:#038048;stroke-width:1.5;"/><text fill="#000000" font-family="sans-serif" font-size="16.5" lengthAdjust="spacing" textLength="271.5" x="548.25" y="969.8979">TwPassage getPassageByPid(int pid)</text><ellipse cx="534.75" cy="984.0234" fill="#84BE84" rx="4.5" ry="4.5" style="stroke:#038048;stroke-width:1.5;"/><text fill="#000000" font-family="sans-serif" font-size="16.5" lengthAdjust="spacing" textLength="334.5" x="548.25" y="990.6519">TwPassage getPassageByName(String name)</text><line style="stroke:#A80036;stroke-width:1.5;stroke-dasharray:1.0,2.0;" x1="519.75" x2="926.25" y1="1000.2773" y2="1000.2773"/><ellipse cx="534.75" cy="1016.7773" fill="#84BE84" rx="4.5" ry="4.5" style="stroke:#038048;stroke-width:1.5;"/><text fill="#000000" font-family="sans-serif" font-size="16.5" lengthAdjust="spacing" textLength="193.5" x="548.25" y="1023.4058">int getCurrentPassagePid()</text><ellipse cx="534.75" cy="1037.5313" fill="#84BE84" rx="4.5" ry="4.5" style="stroke:#038048;stroke-width:1.5;"/><text fill="#000000" font-family="sans-serif" font-size="16.5" lengthAdjust="spacing" textLength="238.5" x="548.25" y="1044.1597">String getCurrentPassageName()</text><line style="stroke:#A80036;stroke-width:1.5;stroke-dasharray:1.0,2.0;" x1="519.75" x2="926.25" y1="1053.7852" y2="1053.7852"/><ellipse cx="534.75" cy="1070.2852" fill="#84BE84" rx="4.5" ry="4.5" style="stroke:#038048;stroke-width:1.5;"/><text fill="#000000" font-family="sans-serif" font-size="16.5" lengthAdjust="spacing" textLength="235.5" x="548.25" y="1076.9136">String processCurrentPassage()</text><ellipse cx="534.75" cy="1091.0391" fill="#84BE84" rx="4.5" ry="4.5" style="stroke:#038048;stroke-width:1.5;"/><text fill="#000000" font-family="sans-serif" font-size="16.5" lengthAdjust="spacing" textLength="255" x="548.25" y="1097.6675">TwLink[] getCurrentPassageLinks()</text><ellipse cx="534.75" cy="1111.793" fill="#84BE84" rx="4.5" ry="4.5" style="stroke:#038048;stroke-width:1.5;"/><text fill="#000000" font-family="sans-serif" font-size="16.5" lengthAdjust="spacing" textLength="270" x="548.25" y="1118.4214">String getCurrentPassageCleanText()</text><ellipse cx="534.75" cy="1132.5469" fill="#84BE84" rx="4.5" ry="4.5" style="stroke:#038048;stroke-width:1.5;"/><text fill="#000000" font-family="sans-serif" font-size="16.5" lengthAdjust="spacing" textLength="232.5" x="548.25" y="1139.1753">goByLinkNumber(int linkNumber)</text><line style="stroke:#A80036;stroke-width:1.5;stroke-dasharray:1.0,2.0;" x1="519.75" x2="926.25" y1="1148.8008" y2="1148.8008"/><ellipse cx="534.75" cy="1165.3008" fill="#84BE84" rx="4.5" ry="4.5" style="stroke:#038048;stroke-width:1.5;"/><text fill="#000000" font-family="sans-serif" font-size="16.5" lengthAdjust="spacing" textLength="112.5" x="548.25" y="1171.9292">boolean isEnd()</text><!--MD5=[94a077c37636dc349e828f87cb4f5477]
class TQQuest--><rect codeLine="28" fill="#FEFECE" filter="url(#fohs891anmwcj)" height="217.2773" id="TQQuest" style="stroke:#A80036;stroke-width:2.25;" width="292.5" x="578.25" y="1276.5"/><ellipse cx="681.375" cy="1300.5" fill="#ADD1B2" rx="16.5" ry="16.5" style="stroke:#A80036;stroke-width:1.5;"/><path d="M684.375,1295.25 Q684.6797,1294.5 685.0313,1294.125 Q685.3828,1293.75 685.7813,1293.75 Q686.4844,1293.75 686.9297,1294.1719 Q687.375,1294.5938 687.375,1295.5781 L687.375,1297.9219 Q687.375,1298.9063 686.9531,1299.3281 Q686.5313,1299.75 685.875,1299.75 Q685.2891,1299.75 684.9141,1299.4922 Q684.5391,1299.2344 684.375,1298.5547 Q684.3047,1298.0859 684.0469,1297.8281 Q683.5781,1297.3359 682.7344,1297.0547 Q681.8906,1296.75 681.0469,1296.75 Q679.9922,1296.75 679.1016,1297.1719 Q678.2344,1297.5938 677.5547,1298.5313 Q676.875,1299.4688 676.875,1300.7578 L676.875,1302.1406 Q676.875,1303.6875 678.1406,1304.7188 Q679.4063,1305.75 681.6563,1305.75 Q682.9922,1305.75 683.9297,1305.4453 Q684.4688,1305.2813 685.0781,1304.7422 Q685.4766,1304.4375 685.6875,1304.3438 Q685.8984,1304.25 686.1563,1304.25 Q686.6484,1304.25 687,1304.6484 Q687.375,1305.0234 687.375,1305.5625 Q687.375,1306.0781 686.8594,1306.6875 Q686.1094,1307.5781 684.9141,1308.0703 Q683.3438,1308.75 681.4219,1308.75 Q679.1719,1308.75 677.3672,1307.8594 Q675.9141,1307.1563 674.8828,1305.6328 Q673.875,1304.1094 673.875,1302.3047 L673.875,1300.6641 Q673.875,1298.7891 674.7656,1297.1484 Q675.6797,1295.5078 677.25,1294.6406 Q678.8438,1293.75 680.625,1293.75 Q681.7031,1293.75 682.6406,1294.125 Q683.5781,1294.5 684.375,1295.25 Z " fill="#000000"/><text fill="#000000" font-family="sans-serif" font-size="18" lengthAdjust="spacing" textLength="73.5" x="712.125" y="1307.8652">TQQuest</text><line style="stroke:#A80036;stroke-width:2.25;" x1="579.75" x2="869.25" y1="1324.5" y2="1324.5"/><ellipse cx="594.75" cy="1341" fill="none" rx="4.5" ry="4.5" style="stroke:#038048;stroke-width:1.5;"/><text fill="#000000" font-family="sans-serif" font-size="16.5" lengthAdjust="spacing" textLength="70.5" x="608.25" y="1347.6284">String title</text><ellipse cx="594.75" cy="1361.7539" fill="none" rx="4.5" ry="4.5" style="stroke:#038048;stroke-width:1.5;"/><text fill="#000000" font-family="sans-serif" font-size="16.5" lengthAdjust="spacing" textLength="93" x="608.25" y="1368.3823">String author</text><ellipse cx="594.75" cy="1382.5078" fill="none" rx="4.5" ry="4.5" style="stroke:#038048;stroke-width:1.5;"/><text fill="#000000" font-family="sans-serif" font-size="16.5" lengthAdjust="spacing" textLength="168" x="608.25" y="1389.1362">TQCharacter character</text><ellipse cx="594.75" cy="1403.2617" fill="none" rx="4.5" ry="4.5" style="stroke:#038048;stroke-width:1.5;"/><text fill="#000000" font-family="sans-serif" font-size="16.5" lengthAdjust="spacing" textLength="207" x="608.25" y="1409.8901">List&lt;TwPassage&gt; passages</text><ellipse cx="594.75" cy="1424.0156" fill="none" rx="4.5" ry="4.5" style="stroke:#038048;stroke-width:1.5;"/><text fill="#000000" font-family="sans-serif" font-size="16.5" lengthAdjust="spacing" textLength="85.5" x="608.25" y="1430.644">String name</text><ellipse cx="594.75" cy="1444.7695" fill="none" rx="4.5" ry="4.5" style="stroke:#038048;stroke-width:1.5;"/><text fill="#000000" font-family="sans-serif" font-size="16.5" lengthAdjust="spacing" textLength="90" x="608.25" y="1451.3979">int startnode</text><ellipse cx="594.75" cy="1465.5234" fill="none" rx="4.5" ry="4.5" style="stroke:#038048;stroke-width:1.5;"/><text fill="#000000" font-family="sans-serif" font-size="16.5" lengthAdjust="spacing" textLength="253.5" x="608.25" y="1472.1519">String creator, creator_version, ifid</text><line style="stroke:#A80036;stroke-width:2.25;" x1="579.75" x2="869.25" y1="1481.7773" y2="1481.7773"/><!--MD5=[6dab1e00aa7953c4af806a73a2ba0a17]
class TwPassage--><rect codeLine="75" fill="#FEFECE" filter="url(#fohs891anmwcj)" height="175.7695" id="TwPassage" style="stroke:#A80036;stroke-width:2.25;" width="178.5" x="212.25" y="1591.5"/><ellipse cx="248.925" cy="1615.5" fill="#ADD1B2" rx="16.5" ry="16.5" style="stroke:#A80036;stroke-width:1.5;"/><path d="M251.925,1610.25 Q252.2297,1609.5 252.5812,1609.125 Q252.9328,1608.75 253.3312,1608.75 Q254.0344,1608.75 254.4797,1609.1719 Q254.925,1609.5938 254.925,1610.5781 L254.925,1612.9219 Q254.925,1613.9063 254.5031,1614.3281 Q254.0812,1614.75 253.425,1614.75 Q252.8391,1614.75 252.4641,1614.4922 Q252.0891,1614.2344 251.925,1613.5547 Q251.8547,1613.0859 251.5969,1612.8281 Q251.1281,1612.3359 250.2844,1612.0547 Q249.4406,1611.75 248.5969,1611.75 Q247.5422,1611.75 246.6516,1612.1719 Q245.7844,1612.5938 245.1047,1613.5313 Q244.425,1614.4688 244.425,1615.7578 L244.425,1617.1406 Q244.425,1618.6875 245.6906,1619.7188 Q246.9562,1620.75 249.2062,1620.75 Q250.5422,1620.75 251.4797,1620.4453 Q252.0187,1620.2813 252.6281,1619.7422 Q253.0266,1619.4375 253.2375,1619.3438 Q253.4484,1619.25 253.7062,1619.25 Q254.1984,1619.25 254.55,1619.6484 Q254.925,1620.0234 254.925,1620.5625 Q254.925,1621.0781 254.4094,1621.6875 Q253.6594,1622.5781 252.4641,1623.0703 Q250.8937,1623.75 248.9719,1623.75 Q246.7219,1623.75 244.9172,1622.8594 Q243.4641,1622.1563 242.4328,1620.6328 Q241.425,1619.1094 241.425,1617.3047 L241.425,1615.6641 Q241.425,1613.7891 242.3156,1612.1484 Q243.2297,1610.5078 244.8,1609.6406 Q246.3937,1608.75 248.175,1608.75 Q249.2531,1608.75 250.1906,1609.125 Q251.1281,1609.5 251.925,1610.25 Z " fill="#000000"/><text fill="#000000" font-family="sans-serif" font-size="18" lengthAdjust="spacing" textLength="99" x="273.075" y="1622.8652">TwPassage</text><line style="stroke:#A80036;stroke-width:2.25;" x1="213.75" x2="389.25" y1="1639.5" y2="1639.5"/><ellipse cx="228.75" cy="1656" fill="none" rx="4.5" ry="4.5" style="stroke:#038048;stroke-width:1.5;"/><text fill="#000000" font-family="sans-serif" font-size="16.5" lengthAdjust="spacing" textLength="73.5" x="242.25" y="1662.6284">String text</text><ellipse cx="228.75" cy="1676.7539" fill="none" rx="4.5" ry="4.5" style="stroke:#038048;stroke-width:1.5;"/><text fill="#000000" font-family="sans-serif" font-size="16.5" lengthAdjust="spacing" textLength="132" x="242.25" y="1683.3823">List&lt;TwLink&gt; links</text><ellipse cx="228.75" cy="1697.5078" fill="none" rx="4.5" ry="4.5" style="stroke:#038048;stroke-width:1.5;"/><text fill="#000000" font-family="sans-serif" font-size="16.5" lengthAdjust="spacing" textLength="85.5" x="242.25" y="1704.1362">String name</text><ellipse cx="228.75" cy="1718.2617" fill="none" rx="4.5" ry="4.5" style="stroke:#038048;stroke-width:1.5;"/><text fill="#000000" font-family="sans-serif" font-size="16.5" lengthAdjust="spacing" textLength="42" x="242.25" y="1724.8901">int pid</text><ellipse cx="228.75" cy="1739.0156" fill="none" rx="4.5" ry="4.5" style="stroke:#038048;stroke-width:1.5;"/><text fill="#000000" font-family="sans-serif" font-size="16.5" lengthAdjust="spacing" textLength="139.5" x="242.25" y="1745.644">TwPosition position</text><line style="stroke:#A80036;stroke-width:2.25;" x1="213.75" x2="389.25" y1="1755.2695" y2="1755.2695"/><!--MD5=[886e4d387024dd8b2c4536c0cc7e7e37]
class TQCharacter--><rect codeLine="41" fill="#FEFECE" filter="url(#fohs891anmwcj)" height="134.2617" id="TQCharacter" style="stroke:#A80036;stroke-width:2.25;" width="657" x="468" y="1611.75"/><ellipse cx="737.625" cy="1635.75" fill="#ADD1B2" rx="16.5" ry="16.5" style="stroke:#A80036;stroke-width:1.5;"/><path d="M740.625,1630.5 Q740.9297,1629.75 741.2813,1629.375 Q741.6328,1629 742.0313,1629 Q742.7344,1629 743.1797,1629.4219 Q743.625,1629.8438 743.625,1630.8281 L743.625,1633.1719 Q743.625,1634.1563 743.2031,1634.5781 Q742.7813,1635 742.125,1635 Q741.5391,1635 741.1641,1634.7422 Q740.7891,1634.4844 740.625,1633.8047 Q740.5547,1633.3359 740.2969,1633.0781 Q739.8281,1632.5859 738.9844,1632.3047 Q738.1406,1632 737.2969,1632 Q736.2422,1632 735.3516,1632.4219 Q734.4844,1632.8438 733.8047,1633.7813 Q733.125,1634.7188 733.125,1636.0078 L733.125,1637.3906 Q733.125,1638.9375 734.3906,1639.9688 Q735.6563,1641 737.9063,1641 Q739.2422,1641 740.1797,1640.6953 Q740.7188,1640.5313 741.3281,1639.9922 Q741.7266,1639.6875 741.9375,1639.5938 Q742.1484,1639.5 742.4063,1639.5 Q742.8984,1639.5 743.25,1639.8984 Q743.625,1640.2734 743.625,1640.8125 Q743.625,1641.3281 743.1094,1641.9375 Q742.3594,1642.8281 741.1641,1643.3203 Q739.5938,1644 737.6719,1644 Q735.4219,1644 733.6172,1643.1094 Q732.1641,1642.4063 731.1328,1640.8828 Q730.125,1639.3594 730.125,1637.5547 L730.125,1635.9141 Q730.125,1634.0391 731.0156,1632.3984 Q731.9297,1630.7578 733.5,1629.8906 Q735.0938,1629 736.875,1629 Q737.9531,1629 738.8906,1629.375 Q739.8281,1629.75 740.625,1630.5 Z " fill="#000000"/><text fill="#000000" font-family="sans-serif" font-size="18" lengthAdjust="spacing" textLength="105" x="768.375" y="1643.1152">TQCharacter</text><line style="stroke:#A80036;stroke-width:2.25;" x1="469.5" x2="1123.5" y1="1659.75" y2="1659.75"/><ellipse cx="484.5" cy="1676.25" fill="none" rx="4.5" ry="4.5" style="stroke:#038048;stroke-width:1.5;"/><text fill="#000000" font-family="sans-serif" font-size="16.5" lengthAdjust="spacing" textLength="241.5" x="498" y="1682.8784">TQCharacterProperty[] properties</text><ellipse cx="484.5" cy="1697.0039" fill="none" rx="4.5" ry="4.5" style="stroke:#038048;stroke-width:1.5;"/><text fill="#000000" font-family="sans-serif" font-size="16.5" lengthAdjust="spacing" textLength="262.5" x="498" y="1703.6323">TQCharacterParameter[] parameters</text><line style="stroke:#A80036;stroke-width:2.25;" x1="469.5" x2="1123.5" y1="1713.2578" y2="1713.2578"/><ellipse cx="484.5" cy="1729.7578" fill="#84BE84" rx="4.5" ry="4.5" style="stroke:#038048;stroke-width:1.5;"/><text fill="#000000" font-family="sans-serif" font-size="16.5" lengthAdjust="spacing" textLength="618" x="498" y="1736.3862">TQCharacter(TQCharacterProperty[] properties, TQCharacterParameter[] parameters)</text><!--MD5=[2fd640dc82e375cd627fb262b2d3691a]
class TQCharacterProperty--><rect codeLine="50" fill="#FEFECE" filter="url(#fohs891anmwcj)" height="155.0156" id="TQCharacterProperty" style="stroke:#A80036;stroke-width:2.25;" width="427.5" x="417.75" y="1912.5"/><ellipse cx="538.875" cy="1936.5" fill="#ADD1B2" rx="16.5" ry="16.5" style="stroke:#A80036;stroke-width:1.5;"/><path d="M541.875,1931.25 Q542.1797,1930.5 542.5313,1930.125 Q542.8828,1929.75 543.2813,1929.75 Q543.9844,1929.75 544.4297,1930.1719 Q544.875,1930.5938 544.875,1931.5781 L544.875,1933.9219 Q544.875,1934.9063 544.4531,1935.3281 Q544.0313,1935.75 543.375,1935.75 Q542.7891,1935.75 542.4141,1935.4922 Q542.0391,1935.2344 541.875,1934.5547 Q541.8047,1934.0859 541.5469,1933.8281 Q541.0781,1933.3359 540.2344,1933.0547 Q539.3906,1932.75 538.5469,1932.75 Q537.4922,1932.75 536.6016,1933.1719 Q535.7344,1933.5938 535.0547,1934.5313 Q534.375,1935.4688 534.375,1936.7578 L534.375,1938.1406 Q534.375,1939.6875 535.6406,1940.7188 Q536.9063,1941.75 539.1563,1941.75 Q540.4922,1941.75 541.4297,1941.4453 Q541.9688,1941.2813 542.5781,1940.7422 Q542.9766,1940.4375 543.1875,1940.3438 Q543.3984,1940.25 543.6563,1940.25 Q544.1484,1940.25 544.5,1940.6484 Q544.875,1941.0234 544.875,1941.5625 Q544.875,1942.0781 544.3594,1942.6875 Q543.6094,1943.5781 542.4141,1944.0703 Q540.8438,1944.75 538.9219,1944.75 Q536.6719,1944.75 534.8672,1943.8594 Q533.4141,1943.1563 532.3828,1941.6328 Q531.375,1940.1094 531.375,1938.3047 L531.375,1936.6641 Q531.375,1934.7891 532.2656,1933.1484 Q533.1797,1931.5078 534.75,1930.6406 Q536.3438,1929.75 538.125,1929.75 Q539.2031,1929.75 540.1406,1930.125 Q541.0781,1930.5 541.875,1931.25 Z " fill="#000000"/><text fill="#000000" font-family="sans-serif" font-size="18" lengthAdjust="spacing" textLength="172.5" x="569.625" y="1943.8652">TQCharacterProperty</text><line style="stroke:#A80036;stroke-width:2.25;" x1="419.25" x2="843.75" y1="1960.5" y2="1960.5"/><ellipse cx="434.25" cy="1977" fill="none" rx="4.5" ry="4.5" style="stroke:#038048;stroke-width:1.5;"/><text fill="#000000" font-family="sans-serif" font-size="16.5" lengthAdjust="spacing" textLength="127.5" x="447.75" y="1983.6284">String tqKeyword</text><ellipse cx="434.25" cy="1997.7539" fill="none" rx="4.5" ry="4.5" style="stroke:#038048;stroke-width:1.5;"/><text fill="#000000" font-family="sans-serif" font-size="16.5" lengthAdjust="spacing" textLength="85.5" x="447.75" y="2004.3823">String value</text><line style="stroke:#A80036;stroke-width:2.25;" x1="419.25" x2="843.75" y1="2014.0078" y2="2014.0078"/><ellipse cx="434.25" cy="2030.5078" fill="#84BE84" rx="4.5" ry="4.5" style="stroke:#038048;stroke-width:1.5;"/><text fill="#000000" font-family="sans-serif" font-size="16.5" lengthAdjust="spacing" textLength="166.5" x="447.75" y="2037.1362">TQCharacterProperty()</text><ellipse cx="434.25" cy="2051.2617" fill="#84BE84" rx="4.5" ry="4.5" style="stroke:#038048;stroke-width:1.5;"/><text fill="#000000" font-family="sans-serif" font-size="16.5" lengthAdjust="spacing" textLength="388.5" x="447.75" y="2057.8901">TQCharacterProperty(String tqKeyword, String value)</text><!--MD5=[c55939318167f167309c174db0d4610d]
class TQCharacterParameter--><rect codeLine="58" fill="#FEFECE" filter="url(#fohs891anmwcj)" height="262.0313" id="TQCharacterParameter" style="stroke:#A80036;stroke-width:2.25;" width="1077" x="898.5" y="1858.5"/><ellipse cx="1334.625" cy="1882.5" fill="#ADD1B2" rx="16.5" ry="16.5" style="stroke:#A80036;stroke-width:1.5;"/><path d="M1337.625,1877.25 Q1337.9297,1876.5 1338.2813,1876.125 Q1338.6328,1875.75 1339.0313,1875.75 Q1339.7344,1875.75 1340.1797,1876.1719 Q1340.625,1876.5938 1340.625,1877.5781 L1340.625,1879.9219 Q1340.625,1880.9063 1340.2031,1881.3281 Q1339.7813,1881.75 1339.125,1881.75 Q1338.5391,1881.75 1338.1641,1881.4922 Q1337.7891,1881.2344 1337.625,1880.5547 Q1337.5547,1880.0859 1337.2969,1879.8281 Q1336.8281,1879.3359 1335.9844,1879.0547 Q1335.1406,1878.75 1334.2969,1878.75 Q1333.2422,1878.75 1332.3516,1879.1719 Q1331.4844,1879.5938 1330.8047,1880.5313 Q1330.125,1881.4688 1330.125,1882.7578 L1330.125,1884.1406 Q1330.125,1885.6875 1331.3906,1886.7188 Q1332.6563,1887.75 1334.9063,1887.75 Q1336.2422,1887.75 1337.1797,1887.4453 Q1337.7188,1887.2813 1338.3281,1886.7422 Q1338.7266,1886.4375 1338.9375,1886.3438 Q1339.1484,1886.25 1339.4063,1886.25 Q1339.8984,1886.25 1340.25,1886.6484 Q1340.625,1887.0234 1340.625,1887.5625 Q1340.625,1888.0781 1340.1094,1888.6875 Q1339.3594,1889.5781 1338.1641,1890.0703 Q1336.5938,1890.75 1334.6719,1890.75 Q1332.4219,1890.75 1330.6172,1889.8594 Q1329.1641,1889.1563 1328.1328,1887.6328 Q1327.125,1886.1094 1327.125,1884.3047 L1327.125,1882.6641 Q1327.125,1880.7891 1328.0156,1879.1484 Q1328.9297,1877.5078 1330.5,1876.6406 Q1332.0938,1875.75 1333.875,1875.75 Q1334.9531,1875.75 1335.8906,1876.125 Q1336.8281,1876.5 1337.625,1877.25 Z " fill="#000000"/><text fill="#000000" font-family="sans-serif" font-size="18" lengthAdjust="spacing" textLength="192" x="1365.375" y="1889.8652">TQCharacterParameter</text><line style="stroke:#A80036;stroke-width:2.25;" x1="900" x2="1974" y1="1906.5" y2="1906.5"/><ellipse cx="915" cy="1923" fill="none" rx="4.5" ry="4.5" style="stroke:#038048;stroke-width:1.5;"/><text fill="#000000" font-family="sans-serif" font-size="16.5" lengthAdjust="spacing" textLength="85.5" x="928.5" y="1929.6284">String name</text><ellipse cx="915" cy="1943.7539" fill="none" rx="4.5" ry="4.5" style="stroke:#038048;stroke-width:1.5;"/><text fill="#000000" font-family="sans-serif" font-size="16.5" lengthAdjust="spacing" textLength="60" x="928.5" y="1950.3823">int value</text><line style="stroke:#A80036;stroke-width:2.25;" x1="900" x2="1974" y1="1960.0078" y2="1960.0078"/><ellipse cx="915" cy="1976.5078" fill="#84BE84" rx="4.5" ry="4.5" style="stroke:#038048;stroke-width:1.5;"/><text fill="#000000" font-family="sans-serif" font-size="16.5" lengthAdjust="spacing" textLength="178.5" x="928.5" y="1983.1362">TQCharacterParameter()</text><ellipse cx="915" cy="1997.2617" fill="#84BE84" rx="4.5" ry="4.5" style="stroke:#038048;stroke-width:1.5;"/><text fill="#000000" font-family="sans-serif" font-size="16.5" lengthAdjust="spacing" textLength="1038" x="928.5" y="2003.8901">TQCharacterParameter(String name, int startValue, String minValue, String minValPassageName, String maxValue, String maxValPassageName)</text><line style="stroke:#A80036;stroke-width:1.5;stroke-dasharray:1.0,2.0;" x1="900" x2="1974" y1="2013.5156" y2="2013.5156"/><ellipse cx="915" cy="2030.0156" fill="#84BE84" rx="4.5" ry="4.5" style="stroke:#038048;stroke-width:1.5;"/><text fill="#000000" font-family="sans-serif" font-size="16.5" lengthAdjust="spacing" textLength="75" x="928.5" y="2036.644">getName()</text><ellipse cx="915" cy="2050.7695" fill="#84BE84" rx="4.5" ry="4.5" style="stroke:#038048;stroke-width:1.5;"/><text fill="#000000" font-family="sans-serif" font-size="16.5" lengthAdjust="spacing" textLength="75" x="928.5" y="2057.3979">setName()</text><line style="stroke:#A80036;stroke-width:1.5;stroke-dasharray:1.0,2.0;" x1="900" x2="1974" y1="2067.0234" y2="2067.0234"/><ellipse cx="915" cy="2083.5234" fill="#84BE84" rx="4.5" ry="4.5" style="stroke:#038048;stroke-width:1.5;"/><text fill="#000000" font-family="sans-serif" font-size="16.5" lengthAdjust="spacing" textLength="76.5" x="928.5" y="2090.1519">getValue()</text><ellipse cx="915" cy="2104.2773" fill="#84BE84" rx="4.5" ry="4.5" style="stroke:#038048;stroke-width:1.5;"/><text fill="#000000" font-family="sans-serif" font-size="16.5" lengthAdjust="spacing" textLength="76.5" x="928.5" y="2110.9058">setValue()</text><!--MD5=[b0082cdfa4dcce96baa042831b0a3d46]
class TwLink--><rect codeLine="86" fill="#FEFECE" filter="url(#fohs891anmwcj)" height="134.2617" id="TwLink" style="stroke:#A80036;stroke-width:2.25;" width="124.5" x="240.75" y="1922.25"/><ellipse cx="271.35" cy="1946.25" fill="#ADD1B2" rx="16.5" ry="16.5" style="stroke:#A80036;stroke-width:1.5;"/><path d="M274.35,1941 Q274.6547,1940.25 275.0063,1939.875 Q275.3578,1939.5 275.7563,1939.5 Q276.4594,1939.5 276.9047,1939.9219 Q277.35,1940.3438 277.35,1941.3281 L277.35,1943.6719 Q277.35,1944.6563 276.9281,1945.0781 Q276.5063,1945.5 275.85,1945.5 Q275.2641,1945.5 274.8891,1945.2422 Q274.5141,1944.9844 274.35,1944.3047 Q274.2797,1943.8359 274.0219,1943.5781 Q273.5531,1943.0859 272.7094,1942.8047 Q271.8656,1942.5 271.0219,1942.5 Q269.9672,1942.5 269.0766,1942.9219 Q268.2094,1943.3438 267.5297,1944.2813 Q266.85,1945.2188 266.85,1946.5078 L266.85,1947.8906 Q266.85,1949.4375 268.1156,1950.4688 Q269.3813,1951.5 271.6313,1951.5 Q272.9672,1951.5 273.9047,1951.1953 Q274.4438,1951.0313 275.0531,1950.4922 Q275.4516,1950.1875 275.6625,1950.0938 Q275.8734,1950 276.1313,1950 Q276.6234,1950 276.975,1950.3984 Q277.35,1950.7734 277.35,1951.3125 Q277.35,1951.8281 276.8344,1952.4375 Q276.0844,1953.3281 274.8891,1953.8203 Q273.3188,1954.5 271.3969,1954.5 Q269.1469,1954.5 267.3422,1953.6094 Q265.8891,1952.9063 264.8578,1951.3828 Q263.85,1949.8594 263.85,1948.0547 L263.85,1946.4141 Q263.85,1944.5391 264.7406,1942.8984 Q265.6547,1941.2578 267.225,1940.3906 Q268.8188,1939.5 270.6,1939.5 Q271.6781,1939.5 272.6156,1939.875 Q273.5531,1940.25 274.35,1941 Z " fill="#000000"/><text fill="#000000" font-family="sans-serif" font-size="18" lengthAdjust="spacing" textLength="58.5" x="294.15" y="1953.6152">TwLink</text><line style="stroke:#A80036;stroke-width:2.25;" x1="242.25" x2="363.75" y1="1970.25" y2="1970.25"/><ellipse cx="257.25" cy="1986.75" fill="none" rx="4.5" ry="4.5" style="stroke:#038048;stroke-width:1.5;"/><text fill="#000000" font-family="sans-serif" font-size="16.5" lengthAdjust="spacing" textLength="85.5" x="270.75" y="1993.3784">String name</text><ellipse cx="257.25" cy="2007.5039" fill="none" rx="4.5" ry="4.5" style="stroke:#038048;stroke-width:1.5;"/><text fill="#000000" font-family="sans-serif" font-size="16.5" lengthAdjust="spacing" textLength="69" x="270.75" y="2014.1323">String link</text><ellipse cx="257.25" cy="2028.2578" fill="none" rx="4.5" ry="4.5" style="stroke:#038048;stroke-width:1.5;"/><text fill="#000000" font-family="sans-serif" font-size="16.5" lengthAdjust="spacing" textLength="42" x="270.75" y="2034.8862">int pid</text><line style="stroke:#A80036;stroke-width:2.25;" x1="242.25" x2="363.75" y1="2044.5117" y2="2044.5117"/><!--MD5=[fe85196431279e9b6e8bfad9ac70314f]
class TwPosition--><rect codeLine="94" fill="#FEFECE" filter="url(#fohs891anmwcj)" height="92.7539" id="TwPosition" style="stroke:#A80036;stroke-width:2.25;" width="139.5" x="48.75" y="1943.25"/><ellipse cx="71.25" cy="1967.25" fill="#ADD1B2" rx="16.5" ry="16.5" style="stroke:#A80036;stroke-width:1.5;"/><path d="M74.25,1962 Q74.5547,1961.25 74.9063,1960.875 Q75.2578,1960.5 75.6563,1960.5 Q76.3594,1960.5 76.8047,1960.9219 Q77.25,1961.3438 77.25,1962.3281 L77.25,1964.6719 Q77.25,1965.6563 76.8281,1966.0781 Q76.4063,1966.5 75.75,1966.5 Q75.1641,1966.5 74.7891,1966.2422 Q74.4141,1965.9844 74.25,1965.3047 Q74.1797,1964.8359 73.9219,1964.5781 Q73.4531,1964.0859 72.6094,1963.8047 Q71.7656,1963.5 70.9219,1963.5 Q69.8672,1963.5 68.9766,1963.9219 Q68.1094,1964.3438 67.4297,1965.2813 Q66.75,1966.2188 66.75,1967.5078 L66.75,1968.8906 Q66.75,1970.4375 68.0156,1971.4688 Q69.2813,1972.5 71.5313,1972.5 Q72.8672,1972.5 73.8047,1972.1953 Q74.3438,1972.0313 74.9531,1971.4922 Q75.3516,1971.1875 75.5625,1971.0938 Q75.7734,1971 76.0313,1971 Q76.5234,1971 76.875,1971.3984 Q77.25,1971.7734 77.25,1972.3125 Q77.25,1972.8281 76.7344,1973.4375 Q75.9844,1974.3281 74.7891,1974.8203 Q73.2188,1975.5 71.2969,1975.5 Q69.0469,1975.5 67.2422,1974.6094 Q65.7891,1973.9063 64.7578,1972.3828 Q63.75,1970.8594 63.75,1969.0547 L63.75,1967.4141 Q63.75,1965.5391 64.6406,1963.8984 Q65.5547,1962.2578 67.125,1961.3906 Q68.7188,1960.5 70.5,1960.5 Q71.5781,1960.5 72.5156,1960.875 Q73.4531,1961.25 74.25,1962 Z " fill="#000000"/><text fill="#000000" font-family="sans-serif" font-size="18" lengthAdjust="spacing" textLength="91.5" x="92.25" y="1974.6152">TwPosition</text><line style="stroke:#A80036;stroke-width:2.25;" x1="50.25" x2="186.75" y1="1991.25" y2="1991.25"/><ellipse cx="65.25" cy="2007.75" fill="none" rx="4.5" ry="4.5" style="stroke:#038048;stroke-width:1.5;"/><text fill="#000000" font-family="sans-serif" font-size="16.5" lengthAdjust="spacing" textLength="63" x="78.75" y="2014.3784">float x, y</text><line style="stroke:#A80036;stroke-width:2.25;" x1="50.25" x2="186.75" y1="2024.0039" y2="2024.0039"/><!--MD5=[b51a5a65ccb90c6d6d2650764e5090ad]
class TQManager--><rect codeLine="107" fill="#FEFECE" filter="url(#fohs891anmwcj)" height="113.5078" id="TQManager" style="stroke:#A80036;stroke-width:2.25;" width="358.5" x="2225.25" y="915.75"/><ellipse cx="2350.125" cy="939.75" fill="#ADD1B2" rx="16.5" ry="16.5" style="stroke:#A80036;stroke-width:1.5;"/><path d="M2353.125,934.5 Q2353.4297,933.75 2353.7813,933.375 Q2354.1328,933 2354.5313,933 Q2355.2344,933 2355.6797,933.4219 Q2356.125,933.8438 2356.125,934.8281 L2356.125,937.1719 Q2356.125,938.1563 2355.7031,938.5781 Q2355.2813,939 2354.625,939 Q2354.0391,939 2353.6641,938.7422 Q2353.2891,938.4844 2353.125,937.8047 Q2353.0547,937.3359 2352.7969,937.0781 Q2352.3281,936.5859 2351.4844,936.3047 Q2350.6406,936 2349.7969,936 Q2348.7422,936 2347.8516,936.4219 Q2346.9844,936.8438 2346.3047,937.7813 Q2345.625,938.7188 2345.625,940.0078 L2345.625,941.3906 Q2345.625,942.9375 2346.8906,943.9688 Q2348.1563,945 2350.4063,945 Q2351.7422,945 2352.6797,944.6953 Q2353.2188,944.5313 2353.8281,943.9922 Q2354.2266,943.6875 2354.4375,943.5938 Q2354.6484,943.5 2354.9063,943.5 Q2355.3984,943.5 2355.75,943.8984 Q2356.125,944.2734 2356.125,944.8125 Q2356.125,945.3281 2355.6094,945.9375 Q2354.8594,946.8281 2353.6641,947.3203 Q2352.0938,948 2350.1719,948 Q2347.9219,948 2346.1172,947.1094 Q2344.6641,946.4063 2343.6328,944.8828 Q2342.625,943.3594 2342.625,941.5547 L2342.625,939.9141 Q2342.625,938.0391 2343.5156,936.3984 Q2344.4297,934.7578 2346,933.8906 Q2347.5938,933 2349.375,933 Q2350.4531,933 2351.3906,933.375 Q2352.3281,933.75 2353.125,934.5 Z " fill="#000000"/><text fill="#000000" font-family="sans-serif" font-size="18" lengthAdjust="spacing" textLength="96" x="2380.875" y="947.1152">TQManager</text><line style="stroke:#A80036;stroke-width:2.25;" x1="2226.75" x2="2582.25" y1="963.75" y2="963.75"/><line style="stroke:#A80036;stroke-width:2.25;" x1="2226.75" x2="2582.25" y1="975.75" y2="975.75"/><ellipse cx="2241.75" cy="992.25" fill="#84BE84" rx="4.5" ry="4.5" style="stroke:#038048;stroke-width:1.5;"/><text fill="#000000" font-family="sans-serif" font-size="16.5" lengthAdjust="spacing" text-decoration="underline" textLength="319.5" x="2255.25" y="998.8784">void addQuest(String title, String author, file)</text><ellipse cx="2241.75" cy="1013.0039" fill="#84BE84" rx="4.5" ry="4.5" style="stroke:#038048;stroke-width:1.5;"/><text fill="#000000" font-family="sans-serif" font-size="16.5" lengthAdjust="spacing" text-decoration="underline" textLength="261" x="2255.25" y="1019.6323">TQQuest getQuest([some identifier])</text><path d="M2059.5,1363.5 L2059.5,1403.0273 A0,0 0 0 0 2059.5,1403.0273 L3082.5,1403.0273 A0,0 0 0 0 3082.5,1403.0273 L3082.5,1378.5 L3067.5,1363.5 L2569.575,1363.5 L2427.3,1030.02 L2557.575,1363.5 L2059.5,1363.5 A0,0 0 0 0 2059.5,1363.5 " fill="#FBFB77" filter="url(#fohs891anmwcj)" style="stroke:#A80036;stroke-width:1.5;"/><path d="M3067.5,1363.5 L3067.5,1378.5 L3082.5,1378.5 L3067.5,1363.5 " fill="#FBFB77" style="stroke:#A80036;stroke-width:1.5;"/><text fill="#000000" font-family="sans-serif" font-size="19.5" lengthAdjust="spacing" textLength="991.5" x="2068.5" y="1391.2427">Умеет управлять хранящимися квестами (json, знает где их искать), добавляет новые квесты в "библиотеку".</text><!--MD5=[a14c15983673cdc294675f282256a1fb]
class MathExpressionEvaluator--><rect codeLine="115" fill="#FEFECE" filter="url(#fohs891anmwcj)" height="155.0156" id="MathExpressionEvaluator" style="stroke:#A80036;stroke-width:2.25;" width="550.5" x="449.25" y="496.5"/><ellipse cx="613.875" cy="520.5" fill="#ADD1B2" rx="16.5" ry="16.5" style="stroke:#A80036;stroke-width:1.5;"/><path d="M616.875,515.25 Q617.1797,514.5 617.5313,514.125 Q617.8828,513.75 618.2813,513.75 Q618.9844,513.75 619.4297,514.1719 Q619.875,514.5938 619.875,515.5781 L619.875,517.9219 Q619.875,518.9063 619.4531,519.3281 Q619.0313,519.75 618.375,519.75 Q617.7891,519.75 617.4141,519.4922 Q617.0391,519.2344 616.875,518.5547 Q616.8047,518.0859 616.5469,517.8281 Q616.0781,517.3359 615.2344,517.0547 Q614.3906,516.75 613.5469,516.75 Q612.4922,516.75 611.6016,517.1719 Q610.7344,517.5938 610.0547,518.5313 Q609.375,519.4688 609.375,520.7578 L609.375,522.1406 Q609.375,523.6875 610.6406,524.7188 Q611.9063,525.75 614.1563,525.75 Q615.4922,525.75 616.4297,525.4453 Q616.9688,525.2813 617.5781,524.7422 Q617.9766,524.4375 618.1875,524.3438 Q618.3984,524.25 618.6563,524.25 Q619.1484,524.25 619.5,524.6484 Q619.875,525.0234 619.875,525.5625 Q619.875,526.0781 619.3594,526.6875 Q618.6094,527.5781 617.4141,528.0703 Q615.8438,528.75 613.9219,528.75 Q611.6719,528.75 609.8672,527.8594 Q608.4141,527.1563 607.3828,525.6328 Q606.375,524.1094 606.375,522.3047 L606.375,520.6641 Q606.375,518.7891 607.2656,517.1484 Q608.1797,515.5078 609.75,514.6406 Q611.3438,513.75 613.125,513.75 Q614.2031,513.75 615.1406,514.125 Q616.0781,514.5 616.875,515.25 Z " fill="#000000"/><text fill="#000000" font-family="sans-serif" font-size="18" lengthAdjust="spacing" textLength="208.5" x="644.625" y="527.8652">MathExpressionEvaluator</text><line style="stroke:#A80036;stroke-width:2.25;" x1="450.75" x2="998.25" y1="544.5" y2="544.5"/><rect fill="none" height="9" style="stroke:#C82930;stroke-width:1.5;" width="9" x="461.25" y="556.5"/><text fill="#000000" font-family="sans-serif" font-size="16.5" lengthAdjust="spacing" textLength="471" x="479.25" y="567.6284">final com.fathzer.soft.javaluator.DoubleEvaluator doubleEvaluator</text><rect fill="none" height="9" style="stroke:#C82930;stroke-width:1.5;" width="9" x="461.25" y="577.2539"/><text fill="#000000" font-family="sans-serif" font-size="16.5" lengthAdjust="spacing" textLength="511.5" x="479.25" y="588.3823">final com.fathzer.soft.javaluator.StaticVariableSet&lt;Double&gt; variableSet</text><line style="stroke:#A80036;stroke-width:2.25;" x1="450.75" x2="998.25" y1="598.0078" y2="598.0078"/><ellipse cx="465.75" cy="614.5078" fill="#84BE84" rx="4.5" ry="4.5" style="stroke:#038048;stroke-width:1.5;"/><text fill="#000000" font-family="sans-serif" font-size="16.5" lengthAdjust="spacing" textLength="186" x="479.25" y="621.1362">double evaluate(Strint ex)</text><ellipse cx="465.75" cy="635.2617" fill="#84BE84" rx="4.5" ry="4.5" style="stroke:#038048;stroke-width:1.5;"/><text fill="#000000" font-family="sans-serif" font-size="16.5" lengthAdjust="spacing" textLength="315" x="479.25" y="641.8901">void setVariable(String name, double value)</text><!--MD5=[5db00888549904919e3a09c35d77129e]
class MainActivity--><rect fill="#FEFECE" filter="url(#fohs891anmwcj)" height="72" id="MainActivity" style="stroke:#A80036;stroke-width:2.25;" width="139.5" x="2013.75" y="10.5"/><ellipse cx="2036.25" cy="34.5" fill="#ADD1B2" rx="16.5" ry="16.5" style="stroke:#A80036;stroke-width:1.5;"/><path d="M2039.25,29.25 Q2039.5547,28.5 2039.9063,28.125 Q2040.2578,27.75 2040.6563,27.75 Q2041.3594,27.75 2041.8047,28.1719 Q2042.25,28.5938 2042.25,29.5781 L2042.25,31.9219 Q2042.25,32.9063 2041.8281,33.3281 Q2041.4063,33.75 2040.75,33.75 Q2040.1641,33.75 2039.7891,33.4922 Q2039.4141,33.2344 2039.25,32.5547 Q2039.1797,32.0859 2038.9219,31.8281 Q2038.4531,31.3359 2037.6094,31.0547 Q2036.7656,30.75 2035.9219,30.75 Q2034.8672,30.75 2033.9766,31.1719 Q2033.1094,31.5938 2032.4297,32.5313 Q2031.75,33.4688 2031.75,34.7578 L2031.75,36.1406 Q2031.75,37.6875 2033.0156,38.7188 Q2034.2813,39.75 2036.5313,39.75 Q2037.8672,39.75 2038.8047,39.4453 Q2039.3438,39.2813 2039.9531,38.7422 Q2040.3516,38.4375 2040.5625,38.3438 Q2040.7734,38.25 2041.0313,38.25 Q2041.5234,38.25 2041.875,38.6484 Q2042.25,39.0234 2042.25,39.5625 Q2042.25,40.0781 2041.7344,40.6875 Q2040.9844,41.5781 2039.7891,42.0703 Q2038.2188,42.75 2036.2969,42.75 Q2034.0469,42.75 2032.2422,41.8594 Q2030.7891,41.1563 2029.7578,39.6328 Q2028.75,38.1094 2028.75,36.3047 L2028.75,34.6641 Q2028.75,32.7891 2029.6406,31.1484 Q2030.5547,29.5078 2032.125,28.6406 Q2033.7188,27.75 2035.5,27.75 Q2036.5781,27.75 2037.5156,28.125 Q2038.4531,28.5 2039.25,29.25 Z " fill="#000000"/><text fill="#000000" font-family="sans-serif" font-size="18" lengthAdjust="spacing" textLength="91.5" x="2057.25" y="41.8652">MainActivity</text><line style="stroke:#A80036;stroke-width:2.25;" x1="2015.25" x2="2151.75" y1="58.5" y2="58.5"/><line style="stroke:#A80036;stroke-width:2.25;" x1="2015.25" x2="2151.75" y1="70.5" y2="70.5"/><!--MD5=[134c270b0e89de66451b70565dcb7313]
class GamesActivity--><rect fill="#FEFECE" filter="url(#fohs891anmwcj)" height="72" id="GamesActivity" style="stroke:#A80036;stroke-width:2.25;" width="162" x="1867.5" y="172.5"/><ellipse cx="1890" cy="196.5" fill="#ADD1B2" rx="16.5" ry="16.5" style="stroke:#A80036;stroke-width:1.5;"/><path d="M1893,191.25 Q1893.3047,190.5 1893.6563,190.125 Q1894.0078,189.75 1894.4063,189.75 Q1895.1094,189.75 1895.5547,190.1719 Q1896,190.5938 1896,191.5781 L1896,193.9219 Q1896,194.9063 1895.5781,195.3281 Q1895.1563,195.75 1894.5,195.75 Q1893.9141,195.75 1893.5391,195.4922 Q1893.1641,195.2344 1893,194.5547 Q1892.9297,194.0859 1892.6719,193.8281 Q1892.2031,193.3359 1891.3594,193.0547 Q1890.5156,192.75 1889.6719,192.75 Q1888.6172,192.75 1887.7266,193.1719 Q1886.8594,193.5938 1886.1797,194.5313 Q1885.5,195.4688 1885.5,196.7578 L1885.5,198.1406 Q1885.5,199.6875 1886.7656,200.7188 Q1888.0313,201.75 1890.2813,201.75 Q1891.6172,201.75 1892.5547,201.4453 Q1893.0938,201.2813 1893.7031,200.7422 Q1894.1016,200.4375 1894.3125,200.3438 Q1894.5234,200.25 1894.7813,200.25 Q1895.2734,200.25 1895.625,200.6484 Q1896,201.0234 1896,201.5625 Q1896,202.0781 1895.4844,202.6875 Q1894.7344,203.5781 1893.5391,204.0703 Q1891.9688,204.75 1890.0469,204.75 Q1887.7969,204.75 1885.9922,203.8594 Q1884.5391,203.1563 1883.5078,201.6328 Q1882.5,200.1094 1882.5,198.3047 L1882.5,196.6641 Q1882.5,194.7891 1883.3906,193.1484 Q1884.3047,191.5078 1885.875,190.6406 Q1887.4688,189.75 1889.25,189.75 Q1890.3281,189.75 1891.2656,190.125 Q1892.2031,190.5 1893,191.25 Z " fill="#000000"/><text fill="#000000" font-family="sans-serif" font-size="18" lengthAdjust="spacing" textLength="114" x="1911" y="203.8652">GamesActivity</text><line style="stroke:#A80036;stroke-width:2.25;" x1="1869" x2="2028" y1="220.5" y2="220.5"/><line style="stroke:#A80036;stroke-width:2.25;" x1="1869" x2="2028" y1="232.5" y2="232.5"/><!--MD5=[45dd4569e34e7361ee400c0f63bf8a03]
class ManagerActivity--><rect fill="#FEFECE" filter="url(#fohs891anmwcj)" height="72" id="ManagerActivity" style="stroke:#A80036;stroke-width:2.25;" width="172.5" x="1997.25" y="334.5"/><ellipse cx="2019.75" cy="358.5" fill="#ADD1B2" rx="16.5" ry="16.5" style="stroke:#A80036;stroke-width:1.5;"/><path d="M2022.75,353.25 Q2023.0547,352.5 2023.4063,352.125 Q2023.7578,351.75 2024.1563,351.75 Q2024.8594,351.75 2025.3047,352.1719 Q2025.75,352.5938 2025.75,353.5781 L2025.75,355.9219 Q2025.75,356.9063 2025.3281,357.3281 Q2024.9063,357.75 2024.25,357.75 Q2023.6641,357.75 2023.2891,357.4922 Q2022.9141,357.2344 2022.75,356.5547 Q2022.6797,356.0859 2022.4219,355.8281 Q2021.9531,355.3359 2021.1094,355.0547 Q2020.2656,354.75 2019.4219,354.75 Q2018.3672,354.75 2017.4766,355.1719 Q2016.6094,355.5938 2015.9297,356.5313 Q2015.25,357.4688 2015.25,358.7578 L2015.25,360.1406 Q2015.25,361.6875 2016.5156,362.7188 Q2017.7813,363.75 2020.0313,363.75 Q2021.3672,363.75 2022.3047,363.4453 Q2022.8438,363.2813 2023.4531,362.7422 Q2023.8516,362.4375 2024.0625,362.3438 Q2024.2734,362.25 2024.5313,362.25 Q2025.0234,362.25 2025.375,362.6484 Q2025.75,363.0234 2025.75,363.5625 Q2025.75,364.0781 2025.2344,364.6875 Q2024.4844,365.5781 2023.2891,366.0703 Q2021.7188,366.75 2019.7969,366.75 Q2017.5469,366.75 2015.7422,365.8594 Q2014.2891,365.1563 2013.2578,363.6328 Q2012.25,362.1094 2012.25,360.3047 L2012.25,358.6641 Q2012.25,356.7891 2013.1406,355.1484 Q2014.0547,353.5078 2015.625,352.6406 Q2017.2188,351.75 2019,351.75 Q2020.0781,351.75 2021.0156,352.125 Q2021.9531,352.5 2022.75,353.25 Z " fill="#000000"/><text fill="#000000" font-family="sans-serif" font-size="18" lengthAdjust="spacing" textLength="124.5" x="2040.75" y="365.8652">ManagerActivity</text><line style="stroke:#A80036;stroke-width:2.25;" x1="1998.75" x2="2168.25" y1="382.5" y2="382.5"/><line style="stroke:#A80036;stroke-width:2.25;" x1="1998.75" x2="2168.25" y1="394.5" y2="394.5"/><!--MD5=[09a1c4250b0891a3ea876bbf4174533e]
class ShareActivity--><rect fill="#FEFECE" filter="url(#fohs891anmwcj)" height="72" id="ShareActivity" style="stroke:#A80036;stroke-width:2.25;" width="150" x="2137.5" y="172.5"/><ellipse cx="2160" cy="196.5" fill="#ADD1B2" rx="16.5" ry="16.5" style="stroke:#A80036;stroke-width:1.5;"/><path d="M2163,191.25 Q2163.3047,190.5 2163.6563,190.125 Q2164.0078,189.75 2164.4063,189.75 Q2165.1094,189.75 2165.5547,190.1719 Q2166,190.5938 2166,191.5781 L2166,193.9219 Q2166,194.9063 2165.5781,195.3281 Q2165.1563,195.75 2164.5,195.75 Q2163.9141,195.75 2163.5391,195.4922 Q2163.1641,195.2344 2163,194.5547 Q2162.9297,194.0859 2162.6719,193.8281 Q2162.2031,193.3359 2161.3594,193.0547 Q2160.5156,192.75 2159.6719,192.75 Q2158.6172,192.75 2157.7266,193.1719 Q2156.8594,193.5938 2156.1797,194.5313 Q2155.5,195.4688 2155.5,196.7578 L2155.5,198.1406 Q2155.5,199.6875 2156.7656,200.7188 Q2158.0313,201.75 2160.2813,201.75 Q2161.6172,201.75 2162.5547,201.4453 Q2163.0938,201.2813 2163.7031,200.7422 Q2164.1016,200.4375 2164.3125,200.3438 Q2164.5234,200.25 2164.7813,200.25 Q2165.2734,200.25 2165.625,200.6484 Q2166,201.0234 2166,201.5625 Q2166,202.0781 2165.4844,202.6875 Q2164.7344,203.5781 2163.5391,204.0703 Q2161.9688,204.75 2160.0469,204.75 Q2157.7969,204.75 2155.9922,203.8594 Q2154.5391,203.1563 2153.5078,201.6328 Q2152.5,200.1094 2152.5,198.3047 L2152.5,196.6641 Q2152.5,194.7891 2153.3906,193.1484 Q2154.3047,191.5078 2155.875,190.6406 Q2157.4688,189.75 2159.25,189.75 Q2160.3281,189.75 2161.2656,190.125 Q2162.2031,190.5 2163,191.25 Z " fill="#000000"/><text fill="#000000" font-family="sans-serif" font-size="18" lengthAdjust="spacing" textLength="102" x="2181" y="203.8652">ShareActivity</text><line style="stroke:#A80036;stroke-width:2.25;" x1="2139" x2="2286" y1="220.5" y2="220.5"/><line style="stroke:#A80036;stroke-width:2.25;" x1="2139" x2="2286" y1="232.5" y2="232.5"/><!--MD5=[bb5ceb834fa242de0c41830e5ec59898]
class PlayActivity--><rect fill="#FEFECE" filter="url(#fohs891anmwcj)" height="72" id="PlayActivity" style="stroke:#A80036;stroke-width:2.25;" width="135" x="1867.5" y="537.75"/><ellipse cx="1890" cy="561.75" fill="#ADD1B2" rx="16.5" ry="16.5" style="stroke:#A80036;stroke-width:1.5;"/><path d="M1893,556.5 Q1893.3047,555.75 1893.6563,555.375 Q1894.0078,555 1894.4063,555 Q1895.1094,555 1895.5547,555.4219 Q1896,555.8438 1896,556.8281 L1896,559.1719 Q1896,560.1563 1895.5781,560.5781 Q1895.1563,561 1894.5,561 Q1893.9141,561 1893.5391,560.7422 Q1893.1641,560.4844 1893,559.8047 Q1892.9297,559.3359 1892.6719,559.0781 Q1892.2031,558.5859 1891.3594,558.3047 Q1890.5156,558 1889.6719,558 Q1888.6172,558 1887.7266,558.4219 Q1886.8594,558.8438 1886.1797,559.7813 Q1885.5,560.7188 1885.5,562.0078 L1885.5,563.3906 Q1885.5,564.9375 1886.7656,565.9688 Q1888.0313,567 1890.2813,567 Q1891.6172,567 1892.5547,566.6953 Q1893.0938,566.5313 1893.7031,565.9922 Q1894.1016,565.6875 1894.3125,565.5938 Q1894.5234,565.5 1894.7813,565.5 Q1895.2734,565.5 1895.625,565.8984 Q1896,566.2734 1896,566.8125 Q1896,567.3281 1895.4844,567.9375 Q1894.7344,568.8281 1893.5391,569.3203 Q1891.9688,570 1890.0469,570 Q1887.7969,570 1885.9922,569.1094 Q1884.5391,568.4063 1883.5078,566.8828 Q1882.5,565.3594 1882.5,563.5547 L1882.5,561.9141 Q1882.5,560.0391 1883.3906,558.3984 Q1884.3047,556.7578 1885.875,555.8906 Q1887.4688,555 1889.25,555 Q1890.3281,555 1891.2656,555.375 Q1892.2031,555.75 1893,556.5 Z " fill="#000000"/><text fill="#000000" font-family="sans-serif" font-size="18" lengthAdjust="spacing" textLength="87" x="1911" y="569.1152">PlayActivity</text><line style="stroke:#A80036;stroke-width:2.25;" x1="1869" x2="2001" y1="585.75" y2="585.75"/><line style="stroke:#A80036;stroke-width:2.25;" x1="1869" x2="2001" y1="597.75" y2="597.75"/><!--MD5=[b038f74214102a615b1d9ad560618bc1]
class ManageQuestActivity--><rect fill="#FEFECE" filter="url(#fohs891anmwcj)" height="72" id="ManageQuestActivity" style="stroke:#A80036;stroke-width:2.25;" width="216" x="2055" y="537.75"/><ellipse cx="2077.5" cy="561.75" fill="#ADD1B2" rx="16.5" ry="16.5" style="stroke:#A80036;stroke-width:1.5;"/><path d="M2080.5,556.5 Q2080.8047,555.75 2081.1563,555.375 Q2081.5078,555 2081.9063,555 Q2082.6094,555 2083.0547,555.4219 Q2083.5,555.8438 2083.5,556.8281 L2083.5,559.1719 Q2083.5,560.1563 2083.0781,560.5781 Q2082.6563,561 2082,561 Q2081.4141,561 2081.0391,560.7422 Q2080.6641,560.4844 2080.5,559.8047 Q2080.4297,559.3359 2080.1719,559.0781 Q2079.7031,558.5859 2078.8594,558.3047 Q2078.0156,558 2077.1719,558 Q2076.1172,558 2075.2266,558.4219 Q2074.3594,558.8438 2073.6797,559.7813 Q2073,560.7188 2073,562.0078 L2073,563.3906 Q2073,564.9375 2074.2656,565.9688 Q2075.5313,567 2077.7813,567 Q2079.1172,567 2080.0547,566.6953 Q2080.5938,566.5313 2081.2031,565.9922 Q2081.6016,565.6875 2081.8125,565.5938 Q2082.0234,565.5 2082.2813,565.5 Q2082.7734,565.5 2083.125,565.8984 Q2083.5,566.2734 2083.5,566.8125 Q2083.5,567.3281 2082.9844,567.9375 Q2082.2344,568.8281 2081.0391,569.3203 Q2079.4688,570 2077.5469,570 Q2075.2969,570 2073.4922,569.1094 Q2072.0391,568.4063 2071.0078,566.8828 Q2070,565.3594 2070,563.5547 L2070,561.9141 Q2070,560.0391 2070.8906,558.3984 Q2071.8047,556.7578 2073.375,555.8906 Q2074.9688,555 2076.75,555 Q2077.8281,555 2078.7656,555.375 Q2079.7031,555.75 2080.5,556.5 Z " fill="#000000"/><text fill="#000000" font-family="sans-serif" font-size="18" lengthAdjust="spacing" textLength="168" x="2098.5" y="569.1152">ManageQuestActivity</text><line style="stroke:#A80036;stroke-width:2.25;" x1="2056.5" x2="2269.5" y1="585.75" y2="585.75"/><line style="stroke:#A80036;stroke-width:2.25;" x1="2056.5" x2="2269.5" y1="597.75" y2="597.75"/><!--MD5=[6c20ce9809655cad7865c6e66051ce1f]
reverse link TQStory to TQQuest--><path codeLine="24" d="M949.605,836.01 C1074.975,853.35 985.395,1045.38 928.5,1180.5 C914.61,1213.485 892.395,1243.83 867.63,1270.38 " fill="none" id="TQStory-backto-TQQuest" style="stroke:#A80036;stroke-width:1.5;"/><polygon fill="#FFFFFF" points="930,834.75,938.592,841.3209,947.9621,835.9171,939.3701,829.3462,930,834.75" style="stroke:#A80036;stroke-width:1.5;"/><!--MD5=[bad8de41d83fed82b091e69bb17dcbf1]
reverse link TQStory to TwPassage--><path codeLine="25" d="M497.82,855.03 C219.645,877.35 258.51,1376.715 287.07,1585.26 " fill="none" id="TQStory-backto-TwPassage" style="stroke:#A80036;stroke-width:1.5;stroke-dasharray:7.0,7.0;"/><polygon fill="#FFFFFF" points="517.5,854.25,508.2699,848.6105,499.5141,854.9615,508.7442,860.6011,517.5,854.25" style="stroke:#A80036;stroke-width:1.5;"/><!--MD5=[2ddf84ec1af096f7139501a709656b09]
reverse link TQQuest to TQCharacter--><path codeLine="37" d="M892.635,1382.685 C954.39,1402.32 891.555,1525.26 842.475,1605.465 " fill="none" id="TQQuest-backto-TQCharacter" style="stroke:#A80036;stroke-width:1.5;"/><polygon fill="#FFFFFF" points="873,1380,881.099,1387.1698,890.8323,1382.4514,882.7333,1375.2816,873,1380" style="stroke:#A80036;stroke-width:1.5;"/><!--MD5=[f8fecb4fb81a3f628e3ad9afdbdc6275]
reverse link TQQuest to TwPassage--><path codeLine="38" d="M557.82,1402.185 C461.025,1413.93 388.005,1510.23 345.15,1585.245 " fill="none" id="TQQuest-backto-TwPassage" style="stroke:#A80036;stroke-width:1.5;"/><polygon fill="#FFFFFF" points="577.5,1401,568.1541,1395.5545,559.5329,1402.0871,568.8788,1407.5326,577.5,1401" style="stroke:#A80036;stroke-width:1.5;"/><!--MD5=[2228a28a69403f033973eedbd1bf2e05]
reverse link TQCharacter to TQCharacterProperty--><path codeLine="47" d="M450.45,1686.66 C448.08,1701.225 461.31,1727.31 468,1748.25 C487.335,1808.76 527.25,1867.845 562.8,1912.245 " fill="none" id="TQCharacter-backto-TQCharacterProperty" style="stroke:#A80036;stroke-width:1.5;"/><polygon fill="#FFFFFF" points="466.5,1675.5,455.6855,1675.7175,451.7269,1685.7838,462.5414,1685.5663,466.5,1675.5" style="stroke:#A80036;stroke-width:1.5;"/><!--MD5=[bfc3706618e28b240995db7b885d46bd]
reverse link TQCharacter to TQCharacterParameter--><path codeLine="48" d="M1146.465,1697.58 C1238.775,1707.615 1313.535,1785.525 1364.085,1858.155 " fill="none" id="TQCharacter-backto-TQCharacterParameter" style="stroke:#A80036;stroke-width:1.5;"/><polygon fill="#FFFFFF" points="1126.5,1696.5,1135.1569,1702.9852,1144.4728,1697.4886,1135.816,1691.0034,1126.5,1696.5" style="stroke:#A80036;stroke-width:1.5;"/><!--MD5=[bf96f5c28184c4ba9ba8fafc20bc98fd]
reverse link TwPassage to TwLink--><path codeLine="82" d="M409.17,1685.085 C423.735,1722.27 371.73,1844.565 335.415,1921.995 " fill="none" id="TwPassage-backto-TwLink" style="stroke:#A80036;stroke-width:1.5;"/><polygon fill="#FFFFFF" points="393,1674,397.032,1684.0371,407.8478,1684.1757,403.8158,1674.1386,393,1674" style="stroke:#A80036;stroke-width:1.5;"/><!--MD5=[f9a186672d74db6dfde672b916f8b68d]
reverse link TwPassage to TwPosition--><path codeLine="83" d="M191.97,1737.99 C122.64,1756.695 114.855,1876.185 116.07,1943.07 " fill="none" id="TwPassage-backto-TwPosition" style="stroke:#A80036;stroke-width:1.5;"/><polygon fill="#FFFFFF" points="211.5,1735.5,201.8141,1730.6851,193.6442,1737.774,203.3301,1742.5889,211.5,1735.5" style="stroke:#A80036;stroke-width:1.5;"/><!--MD5=[67da77d2dbca7824eb838dfc1ded96c4]
reverse link MathExpressionEvaluator to TQStory--><path codeLine="122" d="M843.675,656.505 C877.515,686.31 910.14,723.12 928.5,765 C982.185,887.415 1063.665,1065.75 930,1065.75 " fill="none" id="MathExpressionEvaluator-backto-TQStory" style="stroke:#A80036;stroke-width:1.5;stroke-dasharray:7.0,7.0;"/><polygon fill="#A80036" points="837.795,651.405,844.0614,664.7834,843.4605,656.3194,851.9245,655.7185,837.795,651.405" style="stroke:#A80036;stroke-width:1.5;"/><!--MD5=[6d5544fde2baddb46808497b299398c6]
link MathExpressionEvaluator to TQStory--><path codeLine="123" d="M837.09,651.03 C873.165,681.75 908.835,720.54 928.5,765 C948.24,809.595 977.025,871.74 949.245,888.78 " fill="none" id="MathExpressionEvaluator-to-TQStory" style="stroke:#A80036;stroke-width:1.5;"/><polygon fill="#FFFFFF" points="930,893.25,940.125,897.0559,947.5323,889.1736,937.4074,885.3677,930,893.25" style="stroke:#A80036;stroke-width:1.5;"/><!--MD5=[51ec0894925e81de188cd26de7373fc0]
link MainActivity to GamesActivity--><path codeLine="127" d="M2054.205,82.5 C2033.295,107.13 2005.095,140.34 1983.09,166.26 " fill="none" id="MainActivity-to-GamesActivity" style="stroke:#A80036;stroke-width:1.5;"/><polygon fill="#A80036" points="1978.2,172.02,1991.5156,165.6212,1983.058,166.306,1982.3732,157.8484,1978.2,172.02" style="stroke:#A80036;stroke-width:1.5;"/><!--MD5=[d6f707bd0ef058e6bd67d527f3de8862]
link MainActivity to ManagerActivity--><path codeLine="128" d="M2083.5,82.965 C2083.5,142.305 2083.5,262.485 2083.5,326.55 " fill="none" id="MainActivity-to-ManagerActivity" style="stroke:#A80036;stroke-width:1.5;"/><polygon fill="#A80036" points="2083.5,334.08,2089.5,320.58,2083.5,326.58,2077.5,320.58,2083.5,334.08" style="stroke:#A80036;stroke-width:1.5;"/><!--MD5=[698e3b6c1b9d7fd261ec5bf583bfaa60]
link MainActivity to ShareActivity--><path codeLine="129" d="M2111.49,82.5 C2131.305,106.92 2157.96,139.785 2178.915,165.615 " fill="none" id="MainActivity-to-ShareActivity" style="stroke:#A80036;stroke-width:1.5;"/><polygon fill="#A80036" points="2184.12,172.02,2180.2637,157.7589,2179.3906,166.1991,2170.9503,165.326,2184.12,172.02" style="stroke:#A80036;stroke-width:1.5;"/><!--MD5=[455dee42191eb917e24148b3e09d339b]
link GamesActivity to TQManager--><path codeLine="131" d="M2029.725,224.52 C2133.48,247.845 2309.22,304.545 2389.5,430.5 C2484.27,579.195 2448.105,800.625 2422.08,908.13 " fill="none" id="GamesActivity-to-TQManager" style="stroke:#A80036;stroke-width:1.5;"/><polygon fill="#A80036" points="2420.22,915.675,2429.2504,903.983,2421.9987,908.389,2417.5927,901.1372,2420.22,915.675" style="stroke:#A80036;stroke-width:1.5;"/><!--MD5=[f39cf10fd5f6b2841182b3fd390e4928]
link GamesActivity to ManagerActivity--><path codeLine="132" d="M1977.795,244.5 C1998.705,269.13 2026.905,302.34 2048.91,328.26 " fill="none" id="GamesActivity-to-ManagerActivity" style="stroke:#A80036;stroke-width:1.5;"/><polygon fill="#A80036" points="2053.8,334.02,2049.6268,319.8484,2048.942,328.306,2040.4844,327.6212,2053.8,334.02" style="stroke:#A80036;stroke-width:1.5;"/><!--MD5=[0c1f17fb9636ebc23b26c4bc82749037]
link GamesActivity to PlayActivity--><path codeLine="133" d="M1947.21,244.74 C1944.72,311.535 1939.275,457.71 1936.575,530.025 " fill="none" id="GamesActivity-to-PlayActivity" style="stroke:#A80036;stroke-width:1.5;"/><polygon fill="#A80036" points="1936.29,537.615,1942.7869,524.347,1936.5684,530.1202,1930.7952,523.9016,1936.29,537.615" style="stroke:#A80036;stroke-width:1.5;"/><!--MD5=[ad079b17dd082c9cf7c3d9b2d73cf606]
link ManagerActivity to TQManager--><path codeLine="135" d="M2169.765,374.67 C2214.045,380.64 2265.39,395.46 2298,430.5 C2421.495,563.205 2420.535,795.645 2411.685,907.53 " fill="none" id="ManagerActivity-to-TQManager" style="stroke:#A80036;stroke-width:1.5;"/><polygon fill="#A80036" points="2411.04,915.375,2418.1373,902.4182,2411.6611,907.9008,2406.1785,901.4245,2411.04,915.375" style="stroke:#A80036;stroke-width:1.5;"/><!--MD5=[341dd51d67cc18f4103eedf78b3b8cfd]
link ManagerActivity to ManageQuestActivity--><path codeLine="136" d="M2097.345,406.875 C2110.95,441.135 2131.695,493.41 2146.23,529.995 " fill="none" id="ManagerActivity-to-ManageQuestActivity" style="stroke:#A80036;stroke-width:1.5;"/><polygon fill="#A80036" points="2149.05,537.09,2149.6618,522.3294,2146.2904,530.1161,2138.5036,526.7447,2149.05,537.09" style="stroke:#A80036;stroke-width:1.5;"/><!--MD5=[f44a54213392986c1c19b387bcdd6718]
link ManagerActivity to PlayActivity--><path codeLine="137" d="M2049.45,407.1 C2042.625,414.63 2035.65,422.685 2029.5,430.5 C2004,462.915 1978.23,502.08 1960.065,531.015 " fill="none" id="ManagerActivity-to-PlayActivity" style="stroke:#A80036;stroke-width:1.5;"/><polygon fill="#A80036" points="1956.075,537.405,1968.318,529.137,1960.05,531.045,1958.142,522.777,1956.075,537.405" style="stroke:#A80036;stroke-width:1.5;"/><!--MD5=[1a3d06505aeb295d2f2a0a733279a230]
link PlayActivity to TQStory--><path codeLine="139" d="M1867.245,597.39 C1693.92,654.015 1228.38,806.13 947.4,897.93 " fill="none" id="PlayActivity-to-TQStory" style="stroke:#A80036;stroke-width:1.5;"/><polygon fill="#A80036" points="939.96,900.36,954.6567,901.8626,947.0879,898.0269,950.9236,890.458,939.96,900.36" style="stroke:#A80036;stroke-width:1.5;"/><!--MD5=[8fc30395bb18e3e477eb3b167406f40c]
link PlayActivity to TQManager--><path codeLine="140" d="M1961.295,610.23 C1979.325,633.18 2004.42,663.225 2029.5,687 C2119.74,772.56 2235.255,856.86 2314.08,911.16 " fill="none" id="PlayActivity-to-TQManager" style="stroke:#A80036;stroke-width:1.5;"/><polygon fill="#A80036" points="2320.635,915.675,2312.8893,903.0951,2314.4478,911.436,2306.1069,912.9946,2320.635,915.675" style="stroke:#A80036;stroke-width:1.5;"/><!--MD5=[5b7e16c2e00969f8667b8f8ab049866b]
link ManageQuestActivity to TQManager--><path codeLine="142" d="M2184.435,610.395 C2225.385,677.55 2315.235,824.88 2366.565,909.045 " fill="none" id="ManageQuestActivity-to-TQManager" style="stroke:#A80036;stroke-width:1.5;"/><polygon fill="#A80036" points="2370.495,915.495,2368.5791,900.8465,2366.5859,909.0943,2358.338,907.1011,2370.495,915.495" style="stroke:#A80036;stroke-width:1.5;"/><!--MD5=[51c12c2c8f4d30e31f597816a917aa6e]
link ShareActivity to TQManager--><path codeLine="144" d="M2288.145,220.14 C2355.51,233.61 2450.295,264.51 2496,334.5 C2614.245,515.58 2501.25,787.035 2439.195,908.55 " fill="none" id="ShareActivity-to-TQManager" style="stroke:#A80036;stroke-width:1.5;"/><polygon fill="#A80036" points="2435.55,915.63,2447.0613,906.3704,2438.9811,908.9608,2436.3906,900.8806,2435.55,915.63" style="stroke:#A80036;stroke-width:1.5;"/><!--MD5=[fbaa14e8c804b4f8cc1d6a9b62f57242]
@startuml

package story {
    class TQStory {
        - TQQuest tqquest
        - TwPassage currentPassage
        - String currentPassageCleanText
        - MathExpressionEvaluator mathExpressionEvaluator
        __
        + Story(TQQuest tqquest)
        ..
        + TwPassage getPassageByPid(int pid)
        + TwPassage getPassageByName(String name)
        ..
        + int getCurrentPassagePid()
        + String getCurrentPassageName()
        ..
        + String processCurrentPassage()
        + TwLink[] getCurrentPassageLinks()
        + String getCurrentPassageCleanText()
        + goByLinkNumber(int linkNumber)
        ..
        + boolean isEnd()
    }
    TQStory::tqquest o- - TQQuest
    TQStory::currentPassage o.. TwPassage

    'TQQuest \===============
    class TQQuest {
        + String title
        + String author
        + TQCharacter character
        + List<TwPassage> passages
        + String name
        + int startnode
        + String creator, creator_version, ifid
    }
    TQQuest::character o- - TQCharacter
    TQQuest::passages o- - TwPassage

    'Character \===============
    class TQCharacter {
        + TQCharacterProperty[] properties
        + TQCharacterParameter[] parameters

        + TQCharacter(TQCharacterProperty[] properties, TQCharacterParameter[] parameters)
    }
    TQCharacter::properties o- - TQCharacterProperty
    TQCharacter::parameters o- - TQCharacterParameter

    class TQCharacterProperty {
        + String tqKeyword
        + String value

        + TQCharacterProperty()
        + TQCharacterProperty(String tqKeyword, String value)
    }

    class TQCharacterParameter {
        + String name
        + int value
        __
        + TQCharacterParameter()
        + TQCharacterParameter(String name, int startValue, String minValue, String minValPassageName, String maxValue, String maxValPassageName)
        ..
        + getName()
        + setName()
        ..
        + getValue()
        + setValue()
    }

    'Character /===============

    'TwPassage \===============
    class TwPassage {
        + String text
        + List<TwLink> links
        + String name
        + int pid
        + TwPosition position
    }
    TwPassage::links o- - TwLink
    TwPassage::position o- - TwPosition

    'Link \===============
    class TwLink {
        + String name
        + String link
        + int pid
    }
    'Link /===============

    'TwPosition \===============
    class TwPosition {
        + float x, y
    }
    'TwPosition /===============

    'TwPassage /===============

    'TQQuest /===============
}

package tqmanager {
    'TQManager \===============
    note bottom of TQManager : Умеет управлять хранящимися квестами (json, знает где их искать), добавляет новые квесты в "библиотеку".
    class TQManager {
        + {static} void addQuest(String title, String author, file)
        + {static} TQQuest getQuest([some identifier])
    }
    'TQManager /===============
}

package utils {
    class MathExpressionEvaluator {
        - final com.fathzer.soft.javaluator.DoubleEvaluator doubleEvaluator
        - final com.fathzer.soft.javaluator.StaticVariableSet<Double> variableSet

        + double evaluate(Strint ex)
        + void setVariable(String name, double value)
    }
    MathExpressionEvaluator <.. TQStory::processCurrentPassage
        MathExpressionEvaluator - -o TQStory::mathExpressionEvaluator
}

together {
    MainActivity - -> GamesActivity
    MainActivity - -> ManagerActivity
    MainActivity - -> ShareActivity

    GamesActivity - -> TQManager
    GamesActivity - -> ManagerActivity
    GamesActivity - -> PlayActivity

    ManagerActivity - -> TQManager
    ManagerActivity - -> ManageQuestActivity
    ManagerActivity - -> PlayActivity

    PlayActivity - -> TQStory
    PlayActivity - -> TQManager

    ManageQuestActivity - -> TQManager

    ShareActivity - -> TQManager
}

@enduml

@startuml

package story {
    class TQStory {
        - TQQuest tqquest
        - TwPassage currentPassage
        - String currentPassageCleanText
        - MathExpressionEvaluator mathExpressionEvaluator
        __
        + Story(TQQuest tqquest)
        ..
        + TwPassage getPassageByPid(int pid)
        + TwPassage getPassageByName(String name)
        ..
        + int getCurrentPassagePid()
        + String getCurrentPassageName()
        ..
        + String processCurrentPassage()
        + TwLink[] getCurrentPassageLinks()
        + String getCurrentPassageCleanText()
        + goByLinkNumber(int linkNumber)
        ..
        + boolean isEnd()
    }
    TQStory::tqquest o- - TQQuest
    TQStory::currentPassage o.. TwPassage

    class TQQuest {
        + String title
        + String author
        + TQCharacter character
        + List<TwPassage> passages
        + String name
        + int startnode
        + String creator, creator_version, ifid
    }
    TQQuest::character o- - TQCharacter
    TQQuest::passages o- - TwPassage

    class TQCharacter {
        + TQCharacterProperty[] properties
        + TQCharacterParameter[] parameters

        + TQCharacter(TQCharacterProperty[] properties, TQCharacterParameter[] parameters)
    }
    TQCharacter::properties o- - TQCharacterProperty
    TQCharacter::parameters o- - TQCharacterParameter

    class TQCharacterProperty {
        + String tqKeyword
        + String value

        + TQCharacterProperty()
        + TQCharacterProperty(String tqKeyword, String value)
    }

    class TQCharacterParameter {
        + String name
        + int value
        __
        + TQCharacterParameter()
        + TQCharacterParameter(String name, int startValue, String minValue, String minValPassageName, String maxValue, String maxValPassageName)
        ..
        + getName()
        + setName()
        ..
        + getValue()
        + setValue()
    }


    class TwPassage {
        + String text
        + List<TwLink> links
        + String name
        + int pid
        + TwPosition position
    }
    TwPassage::links o- - TwLink
    TwPassage::position o- - TwPosition

    class TwLink {
        + String name
        + String link
        + int pid
    }

    class TwPosition {
        + float x, y
    }


}

package tqmanager {
    note bottom of TQManager : Умеет управлять хранящимися квестами (json, знает где их искать), добавляет новые квесты в "библиотеку".
    class TQManager {
        + {static} void addQuest(String title, String author, file)
        + {static} TQQuest getQuest([some identifier])
    }
}

package utils {
    class MathExpressionEvaluator {
        - final com.fathzer.soft.javaluator.DoubleEvaluator doubleEvaluator
        - final com.fathzer.soft.javaluator.StaticVariableSet<Double> variableSet

        + double evaluate(Strint ex)
        + void setVariable(String name, double value)
    }
    MathExpressionEvaluator <.. TQStory::processCurrentPassage
        MathExpressionEvaluator - -o TQStory::mathExpressionEvaluator
}

together {
    MainActivity - -> GamesActivity
    MainActivity - -> ManagerActivity
    MainActivity - -> ShareActivity

    GamesActivity - -> TQManager
    GamesActivity - -> ManagerActivity
    GamesActivity - -> PlayActivity

    ManagerActivity - -> TQManager
    ManagerActivity - -> ManageQuestActivity
    ManagerActivity - -> PlayActivity

    PlayActivity - -> TQStory
    PlayActivity - -> TQManager

    ManageQuestActivity - -> TQManager

    ShareActivity - -> TQManager
}

@enduml

PlantUML version 1.2021.00(Sun Jan 10 13:25:05 MSK 2021)
(GPL source distribution)
Java Runtime: OpenJDK Runtime Environment
JVM: OpenJDK 64-Bit Server VM
Default Encoding: Cp1251
Language: ru
Country: RU
--></g></svg>