<?xml version="1.0" encoding="UTF-8" standalone="no"?><svg xmlns="http://www.w3.org/2000/svg" xmlns:xlink="http://www.w3.org/1999/xlink" contentScriptType="application/ecmascript" contentStyleType="text/css" height="1300px" preserveAspectRatio="none" style="width:2316px;height:1300px;" version="1.1" viewBox="0 0 2316 1300" width="2316px" zoomAndPan="magnify">
    <defs>
        <filter height="300%" id="f1rv1f3apa71n9" width="300%" x="-1" y="-1">
            <feGaussianBlur result="blurOut" stdDeviation="2.0" />
            <feColorMatrix in="blurOut" result="blurOut2" type="matrix" values="0 0 0 0 0 0 0 0 0 0 0 0 0 0 0 0 0 0 .4 0" />
            <feOffset dx="4.0" dy="4.0" in="blurOut2" result="blurOut3" />
            <feBlend in="SourceGraphic" in2="blurOut3" mode="normal" />
        </filter>
    </defs>
    <g>
        <!--MD5=[a7dbdc0b8bb5b5ed3a72adbe6a8d4ac3]
cluster mainactivity-->
        <polygon fill="#FFFFFF" filter="url(#f1rv1f3apa71n9)" points="1122.49,128.5,1211.49,128.5,1218.49,152.1094,1248.49,152.1094,1248.49,228.5,1122.49,228.5,1122.49,128.5" style="stroke:#000000;stroke-width:1.5;" />
        <line style="stroke:#000000;stroke-width:1.5;" x1="1122.49" x2="1218.49" y1="152.1094" y2="152.1094" /><text fill="#000000" font-family="sans-serif" font-size="14" font-weight="bold" lengthAdjust="spacingAndGlyphs" textLength="83" x="1126.49" y="145.0332">mainactivity</text>
        <!--MD5=[866a7bdbaf6d6fc8688648556c16b65b]
cluster gamesactivity-->
        <polygon fill="#FFFFFF" filter="url(#f1rv1f3apa71n9)" points="950.49,128.5,1052.49,128.5,1059.49,152.1094,1098.49,152.1094,1098.49,500.5,950.49,500.5,950.49,128.5" style="stroke:#000000;stroke-width:1.5;" />
        <line style="stroke:#000000;stroke-width:1.5;" x1="950.49" x2="1059.49" y1="152.1094" y2="152.1094" /><text fill="#000000" font-family="sans-serif" font-size="14" font-weight="bold" lengthAdjust="spacingAndGlyphs" textLength="96" x="954.49" y="145.0332">gamesactivity</text>
        <!--MD5=[98882353e20ded25b9a79688148816b9]
cluster libraryactivity-->
        <polygon fill="#FFFFFF" filter="url(#f1rv1f3apa71n9)" points="431.49,128.5,531.49,128.5,538.49,152.1094,575.49,152.1094,575.49,500.5,431.49,500.5,431.49,128.5" style="stroke:#000000;stroke-width:1.5;" />
        <line style="stroke:#000000;stroke-width:1.5;" x1="431.49" x2="538.49" y1="152.1094" y2="152.1094" /><text fill="#000000" font-family="sans-serif" font-size="14" font-weight="bold" lengthAdjust="spacingAndGlyphs" textLength="94" x="435.49" y="145.0332">libraryactivity</text>
        <!--MD5=[2a01a1b90e973430dd212fa4899a7709]
cluster questmanageactivity-->
        <polygon fill="#FFFFFF" filter="url(#f1rv1f3apa71n9)" points="599.49,128.5,750.49,128.5,757.49,152.1094,926.49,152.1094,926.49,500.5,599.49,500.5,599.49,128.5" style="stroke:#000000;stroke-width:1.5;" />
        <line style="stroke:#000000;stroke-width:1.5;" x1="599.49" x2="757.49" y1="152.1094" y2="152.1094" /><text fill="#000000" font-family="sans-serif" font-size="14" font-weight="bold" lengthAdjust="spacingAndGlyphs" textLength="145" x="603.49" y="145.0332">questmanageactivity</text>
        <!--MD5=[b54262be89c5dcf7054f02c0a9a9e495]
cluster playactivity-->
        <polygon fill="#FFFFFF" filter="url(#f1rv1f3apa71n9)" points="90.49,128.5,174.49,128.5,181.49,152.1094,407.49,152.1094,407.49,500.5,90.49,500.5,90.49,128.5" style="stroke:#000000;stroke-width:1.5;" />
        <line style="stroke:#000000;stroke-width:1.5;" x1="90.49" x2="181.49" y1="152.1094" y2="152.1094" /><text fill="#000000" font-family="sans-serif" font-size="14" font-weight="bold" lengthAdjust="spacingAndGlyphs" textLength="78" x="94.49" y="145.0332">playactivity</text>
        <!--MD5=[d5b1ed220e36a9b6b1af384f72e2be5b]
cluster story-->
        <polygon fill="#FFFFFF" filter="url(#f1rv1f3apa71n9)" points="1640.49,6,1681.49,6,1688.49,29.6094,2299.49,29.6094,2299.49,869,1640.49,869,1640.49,6" style="stroke:#000000;stroke-width:1.5;" />
        <line style="stroke:#000000;stroke-width:1.5;" x1="1640.49" x2="1688.49" y1="29.6094" y2="29.6094" /><text fill="#000000" font-family="sans-serif" font-size="14" font-weight="bold" lengthAdjust="spacingAndGlyphs" textLength="35" x="1644.49" y="22.5332">story</text>
        <!--MD5=[dbcec57f23c0b4e0af29ccd09b41b3c2]
cluster tqmanager-->
        <polygon fill="#FFFFFF" filter="url(#f1rv1f3apa71n9)" points="596.49,560.5,677.49,560.5,684.49,584.1094,1068.49,584.1094,1068.49,1133,596.49,1133,596.49,560.5" style="stroke:#000000;stroke-width:1.5;" />
        <line style="stroke:#000000;stroke-width:1.5;" x1="596.49" x2="684.49" y1="584.1094" y2="584.1094" /><text fill="#000000" font-family="sans-serif" font-size="14" font-weight="bold" lengthAdjust="spacingAndGlyphs" textLength="75" x="600.49" y="577.0332">tqmanager</text>
        <!--MD5=[22afccf079b6b16bd944bfea794d166c]
cluster tools-->
        <polygon fill="#FFFFFF" filter="url(#f1rv1f3apa71n9)" points="1314.49,400.5,1355.49,400.5,1362.49,424.1094,1616.49,424.1094,1616.49,684.5,1314.49,684.5,1314.49,400.5" style="stroke:#000000;stroke-width:1.5;" />
        <line style="stroke:#000000;stroke-width:1.5;" x1="1314.49" x2="1362.49" y1="424.1094" y2="424.1094" /><text fill="#000000" font-family="sans-serif" font-size="14" font-weight="bold" lengthAdjust="spacingAndGlyphs" textLength="35" x="1318.49" y="417.0332">tools</text>
        <!--MD5=[5db00888549904919e3a09c35d77129e]
class MainActivity-->
        <rect codeLine="4" fill="#FEFECE" filter="url(#f1rv1f3apa71n9)" height="48" id="MainActivity" style="stroke:#A80036;stroke-width:1.5;" width="93" x="1138.99" y="164.5" />
        <ellipse cx="1153.99" cy="180.5" fill="#ADD1B2" rx="11" ry="11" style="stroke:#A80036;stroke-width:1.0;" />
        <path d="M1156.7556,176.375 Q1156.9119,176.1563 1157.0994,176.0469 Q1157.2869,175.9375 1157.5056,175.9375 Q1157.8806,175.9375 1158.115,176.2031 Q1158.3494,176.4531 1158.3494,177.0625 L1158.3494,178.5156 Q1158.3494,179.125 1158.115,179.3906 Q1157.8806,179.6563 1157.5056,179.6563 Q1157.1619,179.6563 1156.9588,179.4531 Q1156.7556,179.2656 1156.6463,178.75 Q1156.5994,178.3906 1156.4119,178.2031 Q1156.0838,177.8281 1155.4744,177.6094 Q1154.865,177.3906 1154.24,177.3906 Q1153.4744,177.3906 1152.8338,177.7188 Q1152.2088,178.0469 1151.7088,178.7969 Q1151.2244,179.5469 1151.2244,180.5781 L1151.2244,181.6719 Q1151.2244,182.9063 1152.115,183.7344 Q1153.0056,184.5469 1154.5994,184.5469 Q1155.5369,184.5469 1156.1931,184.2969 Q1156.5838,184.1406 1157.0056,183.7031 Q1157.2713,183.4375 1157.4119,183.3594 Q1157.5681,183.2813 1157.7713,183.2813 Q1158.0994,183.2813 1158.3494,183.5469 Q1158.615,183.7969 1158.615,184.1406 Q1158.615,184.4844 1158.2713,184.8906 Q1157.7713,185.4688 1156.9744,185.7969 Q1155.8963,186.25 1154.5994,186.25 Q1153.0838,186.25 1151.8806,185.625 Q1150.8963,185.125 1150.2088,184.0625 Q1149.5213,182.9844 1149.5213,181.7031 L1149.5213,180.5469 Q1149.5213,179.2188 1150.1306,178.0781 Q1150.7556,176.9219 1151.8494,176.3125 Q1152.9431,175.6875 1154.1775,175.6875 Q1154.9119,175.6875 1155.5525,175.8594 Q1156.2088,176.0156 1156.7556,176.375 Z " fill="#000000" /><text fill="#000000" font-family="sans-serif" font-size="12" lengthAdjust="spacingAndGlyphs" textLength="61" x="1167.99" y="185.4102">MainActivity</text>
        <line style="stroke:#A80036;stroke-width:1.5;" x1="1139.99" x2="1230.99" y1="196.5" y2="196.5" />
        <line style="stroke:#A80036;stroke-width:1.5;" x1="1139.99" x2="1230.99" y1="204.5" y2="204.5" />
        <!--MD5=[134c270b0e89de66451b70565dcb7313]
class GamesActivity-->
        <rect codeLine="8" fill="#FEFECE" filter="url(#f1rv1f3apa71n9)" height="48" id="GamesActivity" style="stroke:#A80036;stroke-width:1.5;" width="108" x="970.49" y="164.5" />
        <ellipse cx="985.49" cy="180.5" fill="#ADD1B2" rx="11" ry="11" style="stroke:#A80036;stroke-width:1.0;" />
        <path d="M988.2556,176.375 Q988.4119,176.1563 988.5994,176.0469 Q988.7869,175.9375 989.0056,175.9375 Q989.3806,175.9375 989.615,176.2031 Q989.8494,176.4531 989.8494,177.0625 L989.8494,178.5156 Q989.8494,179.125 989.615,179.3906 Q989.3806,179.6563 989.0056,179.6563 Q988.6619,179.6563 988.4588,179.4531 Q988.2556,179.2656 988.1463,178.75 Q988.0994,178.3906 987.9119,178.2031 Q987.5838,177.8281 986.9744,177.6094 Q986.365,177.3906 985.74,177.3906 Q984.9744,177.3906 984.3338,177.7188 Q983.7088,178.0469 983.2088,178.7969 Q982.7244,179.5469 982.7244,180.5781 L982.7244,181.6719 Q982.7244,182.9063 983.615,183.7344 Q984.5056,184.5469 986.0994,184.5469 Q987.0369,184.5469 987.6931,184.2969 Q988.0838,184.1406 988.5056,183.7031 Q988.7713,183.4375 988.9119,183.3594 Q989.0681,183.2813 989.2713,183.2813 Q989.5994,183.2813 989.8494,183.5469 Q990.115,183.7969 990.115,184.1406 Q990.115,184.4844 989.7713,184.8906 Q989.2713,185.4688 988.4744,185.7969 Q987.3963,186.25 986.0994,186.25 Q984.5838,186.25 983.3806,185.625 Q982.3963,185.125 981.7088,184.0625 Q981.0213,182.9844 981.0213,181.7031 L981.0213,180.5469 Q981.0213,179.2188 981.6306,178.0781 Q982.2556,176.9219 983.3494,176.3125 Q984.4431,175.6875 985.6775,175.6875 Q986.4119,175.6875 987.0525,175.8594 Q987.7088,176.0156 988.2556,176.375 Z " fill="#000000" /><text fill="#000000" font-family="sans-serif" font-size="12" lengthAdjust="spacingAndGlyphs" textLength="76" x="999.49" y="185.4102">GamesActivity</text>
        <line style="stroke:#A80036;stroke-width:1.5;" x1="971.49" x2="1077.49" y1="196.5" y2="196.5" />
        <line style="stroke:#A80036;stroke-width:1.5;" x1="971.49" x2="1077.49" y1="204.5" y2="204.5" />
        <!--MD5=[0cf8e85961754ee8652ae7b93bdb5edf]
class GamesAdapter-->
        <rect codeLine="10" fill="#FEFECE" filter="url(#f1rv1f3apa71n9)" height="48" id="GamesAdapter" style="stroke:#A80036;stroke-width:1.5;" width="115" x="966.99" y="436.5" />
        <ellipse cx="981.99" cy="452.5" fill="#ADD1B2" rx="11" ry="11" style="stroke:#A80036;stroke-width:1.0;" />
        <path d="M984.7556,448.375 Q984.9119,448.1563 985.0994,448.0469 Q985.2869,447.9375 985.5056,447.9375 Q985.8806,447.9375 986.115,448.2031 Q986.3494,448.4531 986.3494,449.0625 L986.3494,450.5156 Q986.3494,451.125 986.115,451.3906 Q985.8806,451.6563 985.5056,451.6563 Q985.1619,451.6563 984.9588,451.4531 Q984.7556,451.2656 984.6463,450.75 Q984.5994,450.3906 984.4119,450.2031 Q984.0838,449.8281 983.4744,449.6094 Q982.865,449.3906 982.24,449.3906 Q981.4744,449.3906 980.8338,449.7188 Q980.2088,450.0469 979.7088,450.7969 Q979.2244,451.5469 979.2244,452.5781 L979.2244,453.6719 Q979.2244,454.9063 980.115,455.7344 Q981.0056,456.5469 982.5994,456.5469 Q983.5369,456.5469 984.1931,456.2969 Q984.5838,456.1406 985.0056,455.7031 Q985.2713,455.4375 985.4119,455.3594 Q985.5681,455.2813 985.7713,455.2813 Q986.0994,455.2813 986.3494,455.5469 Q986.615,455.7969 986.615,456.1406 Q986.615,456.4844 986.2713,456.8906 Q985.7713,457.4688 984.9744,457.7969 Q983.8963,458.25 982.5994,458.25 Q981.0838,458.25 979.8806,457.625 Q978.8963,457.125 978.2088,456.0625 Q977.5213,454.9844 977.5213,453.7031 L977.5213,452.5469 Q977.5213,451.2188 978.1306,450.0781 Q978.7556,448.9219 979.8494,448.3125 Q980.9431,447.6875 982.1775,447.6875 Q982.9119,447.6875 983.5525,447.8594 Q984.2088,448.0156 984.7556,448.375 Z " fill="#000000" /><text fill="#000000" font-family="sans-serif" font-size="12" lengthAdjust="spacingAndGlyphs" textLength="83" x="995.99" y="457.4102">GamesAdapter</text>
        <line style="stroke:#A80036;stroke-width:1.5;" x1="967.99" x2="1080.99" y1="468.5" y2="468.5" />
        <line style="stroke:#A80036;stroke-width:1.5;" x1="967.99" x2="1080.99" y1="476.5" y2="476.5" />
        <!--MD5=[e75d07559cd3dff3c4212cea09e9cd9a]
class LibraryActivity-->
        <rect codeLine="14" fill="#FEFECE" filter="url(#f1rv1f3apa71n9)" height="48" id="LibraryActivity" style="stroke:#A80036;stroke-width:1.5;" width="104" x="451.49" y="164.5" />
        <ellipse cx="466.49" cy="180.5" fill="#ADD1B2" rx="11" ry="11" style="stroke:#A80036;stroke-width:1.0;" />
        <path d="M469.2556,176.375 Q469.4119,176.1563 469.5994,176.0469 Q469.7869,175.9375 470.0056,175.9375 Q470.3806,175.9375 470.615,176.2031 Q470.8494,176.4531 470.8494,177.0625 L470.8494,178.5156 Q470.8494,179.125 470.615,179.3906 Q470.3806,179.6563 470.0056,179.6563 Q469.6619,179.6563 469.4588,179.4531 Q469.2556,179.2656 469.1463,178.75 Q469.0994,178.3906 468.9119,178.2031 Q468.5838,177.8281 467.9744,177.6094 Q467.365,177.3906 466.74,177.3906 Q465.9744,177.3906 465.3338,177.7188 Q464.7088,178.0469 464.2088,178.7969 Q463.7244,179.5469 463.7244,180.5781 L463.7244,181.6719 Q463.7244,182.9063 464.615,183.7344 Q465.5056,184.5469 467.0994,184.5469 Q468.0369,184.5469 468.6931,184.2969 Q469.0838,184.1406 469.5056,183.7031 Q469.7713,183.4375 469.9119,183.3594 Q470.0681,183.2813 470.2713,183.2813 Q470.5994,183.2813 470.8494,183.5469 Q471.115,183.7969 471.115,184.1406 Q471.115,184.4844 470.7713,184.8906 Q470.2713,185.4688 469.4744,185.7969 Q468.3963,186.25 467.0994,186.25 Q465.5838,186.25 464.3806,185.625 Q463.3963,185.125 462.7088,184.0625 Q462.0213,182.9844 462.0213,181.7031 L462.0213,180.5469 Q462.0213,179.2188 462.6306,178.0781 Q463.2556,176.9219 464.3494,176.3125 Q465.4431,175.6875 466.6775,175.6875 Q467.4119,175.6875 468.0525,175.8594 Q468.7088,176.0156 469.2556,176.375 Z " fill="#000000" /><text fill="#000000" font-family="sans-serif" font-size="12" lengthAdjust="spacingAndGlyphs" textLength="72" x="480.49" y="185.4102">LibraryActivity</text>
        <line style="stroke:#A80036;stroke-width:1.5;" x1="452.49" x2="554.49" y1="196.5" y2="196.5" />
        <line style="stroke:#A80036;stroke-width:1.5;" x1="452.49" x2="554.49" y1="204.5" y2="204.5" />
        <!--MD5=[bd7957e21994547adc0aed5caedd059e]
class LibraryAdapter-->
        <rect codeLine="16" fill="#FEFECE" filter="url(#f1rv1f3apa71n9)" height="48" id="LibraryAdapter" style="stroke:#A80036;stroke-width:1.5;" width="111" x="447.99" y="436.5" />
        <ellipse cx="462.99" cy="452.5" fill="#ADD1B2" rx="11" ry="11" style="stroke:#A80036;stroke-width:1.0;" />
        <path d="M465.7556,448.375 Q465.9119,448.1563 466.0994,448.0469 Q466.2869,447.9375 466.5056,447.9375 Q466.8806,447.9375 467.115,448.2031 Q467.3494,448.4531 467.3494,449.0625 L467.3494,450.5156 Q467.3494,451.125 467.115,451.3906 Q466.8806,451.6563 466.5056,451.6563 Q466.1619,451.6563 465.9588,451.4531 Q465.7556,451.2656 465.6463,450.75 Q465.5994,450.3906 465.4119,450.2031 Q465.0838,449.8281 464.4744,449.6094 Q463.865,449.3906 463.24,449.3906 Q462.4744,449.3906 461.8338,449.7188 Q461.2088,450.0469 460.7088,450.7969 Q460.2244,451.5469 460.2244,452.5781 L460.2244,453.6719 Q460.2244,454.9063 461.115,455.7344 Q462.0056,456.5469 463.5994,456.5469 Q464.5369,456.5469 465.1931,456.2969 Q465.5838,456.1406 466.0056,455.7031 Q466.2713,455.4375 466.4119,455.3594 Q466.5681,455.2813 466.7713,455.2813 Q467.0994,455.2813 467.3494,455.5469 Q467.615,455.7969 467.615,456.1406 Q467.615,456.4844 467.2713,456.8906 Q466.7713,457.4688 465.9744,457.7969 Q464.8963,458.25 463.5994,458.25 Q462.0838,458.25 460.8806,457.625 Q459.8963,457.125 459.2088,456.0625 Q458.5213,454.9844 458.5213,453.7031 L458.5213,452.5469 Q458.5213,451.2188 459.1306,450.0781 Q459.7556,448.9219 460.8494,448.3125 Q461.9431,447.6875 463.1775,447.6875 Q463.9119,447.6875 464.5525,447.8594 Q465.2088,448.0156 465.7556,448.375 Z " fill="#000000" /><text fill="#000000" font-family="sans-serif" font-size="12" lengthAdjust="spacingAndGlyphs" textLength="79" x="476.99" y="457.4102">LibraryAdapter</text>
        <line style="stroke:#A80036;stroke-width:1.5;" x1="448.99" x2="557.99" y1="468.5" y2="468.5" />
        <line style="stroke:#A80036;stroke-width:1.5;" x1="448.99" x2="557.99" y1="476.5" y2="476.5" />
        <!--MD5=[a7abb204041b671fd0ae0afa4c480e50]
class QuestManageActivity-->
        <rect codeLine="20" fill="#FEFECE" filter="url(#f1rv1f3apa71n9)" height="48" id="QuestManageActivity" style="stroke:#A80036;stroke-width:1.5;" width="144" x="766.49" y="164.5" />
        <ellipse cx="781.49" cy="180.5" fill="#ADD1B2" rx="11" ry="11" style="stroke:#A80036;stroke-width:1.0;" />
        <path d="M784.2556,176.375 Q784.4119,176.1563 784.5994,176.0469 Q784.7869,175.9375 785.0056,175.9375 Q785.3806,175.9375 785.615,176.2031 Q785.8494,176.4531 785.8494,177.0625 L785.8494,178.5156 Q785.8494,179.125 785.615,179.3906 Q785.3806,179.6563 785.0056,179.6563 Q784.6619,179.6563 784.4588,179.4531 Q784.2556,179.2656 784.1463,178.75 Q784.0994,178.3906 783.9119,178.2031 Q783.5838,177.8281 782.9744,177.6094 Q782.365,177.3906 781.74,177.3906 Q780.9744,177.3906 780.3338,177.7188 Q779.7088,178.0469 779.2088,178.7969 Q778.7244,179.5469 778.7244,180.5781 L778.7244,181.6719 Q778.7244,182.9063 779.615,183.7344 Q780.5056,184.5469 782.0994,184.5469 Q783.0369,184.5469 783.6931,184.2969 Q784.0838,184.1406 784.5056,183.7031 Q784.7713,183.4375 784.9119,183.3594 Q785.0681,183.2813 785.2713,183.2813 Q785.5994,183.2813 785.8494,183.5469 Q786.115,183.7969 786.115,184.1406 Q786.115,184.4844 785.7713,184.8906 Q785.2713,185.4688 784.4744,185.7969 Q783.3963,186.25 782.0994,186.25 Q780.5838,186.25 779.3806,185.625 Q778.3963,185.125 777.7088,184.0625 Q777.0213,182.9844 777.0213,181.7031 L777.0213,180.5469 Q777.0213,179.2188 777.6306,178.0781 Q778.2556,176.9219 779.3494,176.3125 Q780.4431,175.6875 781.6775,175.6875 Q782.4119,175.6875 783.0525,175.8594 Q783.7088,176.0156 784.2556,176.375 Z " fill="#000000" /><text fill="#000000" font-family="sans-serif" font-size="12" lengthAdjust="spacingAndGlyphs" textLength="112" x="795.49" y="185.4102">QuestManageActivity</text>
        <line style="stroke:#A80036;stroke-width:1.5;" x1="767.49" x2="909.49" y1="196.5" y2="196.5" />
        <line style="stroke:#A80036;stroke-width:1.5;" x1="767.49" x2="909.49" y1="204.5" y2="204.5" />
        <!--MD5=[9c728cc5604b6ac28d2209bdb19bcad9]
class CharPDataAdapter-->
        <rect codeLine="23" fill="#FEFECE" filter="url(#f1rv1f3apa71n9)" height="48" id="CharPDataAdapter" style="stroke:#A80036;stroke-width:1.5;" width="135" x="774.99" y="436.5" />
        <ellipse cx="789.99" cy="452.5" fill="#ADD1B2" rx="11" ry="11" style="stroke:#A80036;stroke-width:1.0;" />
        <path d="M792.7556,448.375 Q792.9119,448.1563 793.0994,448.0469 Q793.2869,447.9375 793.5056,447.9375 Q793.8806,447.9375 794.115,448.2031 Q794.3494,448.4531 794.3494,449.0625 L794.3494,450.5156 Q794.3494,451.125 794.115,451.3906 Q793.8806,451.6563 793.5056,451.6563 Q793.1619,451.6563 792.9588,451.4531 Q792.7556,451.2656 792.6463,450.75 Q792.5994,450.3906 792.4119,450.2031 Q792.0838,449.8281 791.4744,449.6094 Q790.865,449.3906 790.24,449.3906 Q789.4744,449.3906 788.8338,449.7188 Q788.2088,450.0469 787.7088,450.7969 Q787.2244,451.5469 787.2244,452.5781 L787.2244,453.6719 Q787.2244,454.9063 788.115,455.7344 Q789.0056,456.5469 790.5994,456.5469 Q791.5369,456.5469 792.1931,456.2969 Q792.5838,456.1406 793.0056,455.7031 Q793.2713,455.4375 793.4119,455.3594 Q793.5681,455.2813 793.7713,455.2813 Q794.0994,455.2813 794.3494,455.5469 Q794.615,455.7969 794.615,456.1406 Q794.615,456.4844 794.2713,456.8906 Q793.7713,457.4688 792.9744,457.7969 Q791.8963,458.25 790.5994,458.25 Q789.0838,458.25 787.8806,457.625 Q786.8963,457.125 786.2088,456.0625 Q785.5213,454.9844 785.5213,453.7031 L785.5213,452.5469 Q785.5213,451.2188 786.1306,450.0781 Q786.7556,448.9219 787.8494,448.3125 Q788.9431,447.6875 790.1775,447.6875 Q790.9119,447.6875 791.5525,447.8594 Q792.2088,448.0156 792.7556,448.375 Z " fill="#000000" /><text fill="#000000" font-family="sans-serif" font-size="12" lengthAdjust="spacingAndGlyphs" textLength="103" x="803.99" y="457.4102">CharPDataAdapter</text>
        <line style="stroke:#A80036;stroke-width:1.5;" x1="775.99" x2="908.99" y1="468.5" y2="468.5" />
        <line style="stroke:#A80036;stroke-width:1.5;" x1="775.99" x2="908.99" y1="476.5" y2="476.5" />
        <!--MD5=[9f55655141d80d9b6d26d78cb27d66d0]
class CharPAddDialog-->
        <rect codeLine="24" fill="#FEFECE" filter="url(#f1rv1f3apa71n9)" height="48" id="CharPAddDialog" style="stroke:#A80036;stroke-width:1.5;" width="124" x="615.49" y="436.5" />
        <ellipse cx="630.49" cy="452.5" fill="#ADD1B2" rx="11" ry="11" style="stroke:#A80036;stroke-width:1.0;" />
        <path d="M633.2556,448.375 Q633.4119,448.1563 633.5994,448.0469 Q633.7869,447.9375 634.0056,447.9375 Q634.3806,447.9375 634.615,448.2031 Q634.8494,448.4531 634.8494,449.0625 L634.8494,450.5156 Q634.8494,451.125 634.615,451.3906 Q634.3806,451.6563 634.0056,451.6563 Q633.6619,451.6563 633.4588,451.4531 Q633.2556,451.2656 633.1463,450.75 Q633.0994,450.3906 632.9119,450.2031 Q632.5838,449.8281 631.9744,449.6094 Q631.365,449.3906 630.74,449.3906 Q629.9744,449.3906 629.3338,449.7188 Q628.7088,450.0469 628.2088,450.7969 Q627.7244,451.5469 627.7244,452.5781 L627.7244,453.6719 Q627.7244,454.9063 628.615,455.7344 Q629.5056,456.5469 631.0994,456.5469 Q632.0369,456.5469 632.6931,456.2969 Q633.0838,456.1406 633.5056,455.7031 Q633.7713,455.4375 633.9119,455.3594 Q634.0681,455.2813 634.2713,455.2813 Q634.5994,455.2813 634.8494,455.5469 Q635.115,455.7969 635.115,456.1406 Q635.115,456.4844 634.7713,456.8906 Q634.2713,457.4688 633.4744,457.7969 Q632.3963,458.25 631.0994,458.25 Q629.5838,458.25 628.3806,457.625 Q627.3963,457.125 626.7088,456.0625 Q626.0213,454.9844 626.0213,453.7031 L626.0213,452.5469 Q626.0213,451.2188 626.6306,450.0781 Q627.2556,448.9219 628.3494,448.3125 Q629.4431,447.6875 630.6775,447.6875 Q631.4119,447.6875 632.0525,447.8594 Q632.7088,448.0156 633.2556,448.375 Z " fill="#000000" /><text fill="#000000" font-family="sans-serif" font-size="12" lengthAdjust="spacingAndGlyphs" textLength="92" x="644.49" y="457.4102">CharPAddDialog</text>
        <line style="stroke:#A80036;stroke-width:1.5;" x1="616.49" x2="738.49" y1="468.5" y2="468.5" />
        <line style="stroke:#A80036;stroke-width:1.5;" x1="616.49" x2="738.49" y1="476.5" y2="476.5" />
        <!--MD5=[bb5ceb834fa242de0c41830e5ec59898]
class PlayActivity-->
        <rect codeLine="28" fill="#FEFECE" filter="url(#f1rv1f3apa71n9)" height="48" id="PlayActivity" style="stroke:#A80036;stroke-width:1.5;" width="90" x="273.49" y="164.5" />
        <ellipse cx="288.49" cy="180.5" fill="#ADD1B2" rx="11" ry="11" style="stroke:#A80036;stroke-width:1.0;" />
        <path d="M291.2556,176.375 Q291.4119,176.1563 291.5994,176.0469 Q291.7869,175.9375 292.0056,175.9375 Q292.3806,175.9375 292.615,176.2031 Q292.8494,176.4531 292.8494,177.0625 L292.8494,178.5156 Q292.8494,179.125 292.615,179.3906 Q292.3806,179.6563 292.0056,179.6563 Q291.6619,179.6563 291.4588,179.4531 Q291.2556,179.2656 291.1463,178.75 Q291.0994,178.3906 290.9119,178.2031 Q290.5838,177.8281 289.9744,177.6094 Q289.365,177.3906 288.74,177.3906 Q287.9744,177.3906 287.3338,177.7188 Q286.7088,178.0469 286.2088,178.7969 Q285.7244,179.5469 285.7244,180.5781 L285.7244,181.6719 Q285.7244,182.9063 286.615,183.7344 Q287.5056,184.5469 289.0994,184.5469 Q290.0369,184.5469 290.6931,184.2969 Q291.0838,184.1406 291.5056,183.7031 Q291.7713,183.4375 291.9119,183.3594 Q292.0681,183.2813 292.2713,183.2813 Q292.5994,183.2813 292.8494,183.5469 Q293.115,183.7969 293.115,184.1406 Q293.115,184.4844 292.7713,184.8906 Q292.2713,185.4688 291.4744,185.7969 Q290.3963,186.25 289.0994,186.25 Q287.5838,186.25 286.3806,185.625 Q285.3963,185.125 284.7088,184.0625 Q284.0213,182.9844 284.0213,181.7031 L284.0213,180.5469 Q284.0213,179.2188 284.6306,178.0781 Q285.2556,176.9219 286.3494,176.3125 Q287.4431,175.6875 288.6775,175.6875 Q289.4119,175.6875 290.0525,175.8594 Q290.7088,176.0156 291.2556,176.375 Z " fill="#000000" /><text fill="#000000" font-family="sans-serif" font-size="12" lengthAdjust="spacingAndGlyphs" textLength="58" x="302.49" y="185.4102">PlayActivity</text>
        <line style="stroke:#A80036;stroke-width:1.5;" x1="274.49" x2="362.49" y1="196.5" y2="196.5" />
        <line style="stroke:#A80036;stroke-width:1.5;" x1="274.49" x2="362.49" y1="204.5" y2="204.5" />
        <!--MD5=[13d558e68e06e112daf62bd10f8cf84c]
class CharParamsAdapter-->
        <rect codeLine="31" fill="#FEFECE" filter="url(#f1rv1f3apa71n9)" height="48" id="CharParamsAdapter" style="stroke:#A80036;stroke-width:1.5;" width="145" x="245.99" y="436.5" />
        <ellipse cx="260.99" cy="452.5" fill="#ADD1B2" rx="11" ry="11" style="stroke:#A80036;stroke-width:1.0;" />
        <path d="M263.7556,448.375 Q263.9119,448.1563 264.0994,448.0469 Q264.2869,447.9375 264.5056,447.9375 Q264.8806,447.9375 265.115,448.2031 Q265.3494,448.4531 265.3494,449.0625 L265.3494,450.5156 Q265.3494,451.125 265.115,451.3906 Q264.8806,451.6563 264.5056,451.6563 Q264.1619,451.6563 263.9588,451.4531 Q263.7556,451.2656 263.6463,450.75 Q263.5994,450.3906 263.4119,450.2031 Q263.0838,449.8281 262.4744,449.6094 Q261.865,449.3906 261.24,449.3906 Q260.4744,449.3906 259.8338,449.7188 Q259.2088,450.0469 258.7088,450.7969 Q258.2244,451.5469 258.2244,452.5781 L258.2244,453.6719 Q258.2244,454.9063 259.115,455.7344 Q260.0056,456.5469 261.5994,456.5469 Q262.5369,456.5469 263.1931,456.2969 Q263.5838,456.1406 264.0056,455.7031 Q264.2713,455.4375 264.4119,455.3594 Q264.5681,455.2813 264.7713,455.2813 Q265.0994,455.2813 265.3494,455.5469 Q265.615,455.7969 265.615,456.1406 Q265.615,456.4844 265.2713,456.8906 Q264.7713,457.4688 263.9744,457.7969 Q262.8963,458.25 261.5994,458.25 Q260.0838,458.25 258.8806,457.625 Q257.8963,457.125 257.2088,456.0625 Q256.5213,454.9844 256.5213,453.7031 L256.5213,452.5469 Q256.5213,451.2188 257.1306,450.0781 Q257.7556,448.9219 258.8494,448.3125 Q259.9431,447.6875 261.1775,447.6875 Q261.9119,447.6875 262.5525,447.8594 Q263.2088,448.0156 263.7556,448.375 Z " fill="#000000" /><text fill="#000000" font-family="sans-serif" font-size="12" lengthAdjust="spacingAndGlyphs" textLength="113" x="274.99" y="457.4102">CharParamsAdapter</text>
        <line style="stroke:#A80036;stroke-width:1.5;" x1="246.99" x2="389.99" y1="468.5" y2="468.5" />
        <line style="stroke:#A80036;stroke-width:1.5;" x1="246.99" x2="389.99" y1="476.5" y2="476.5" />
        <!--MD5=[bde1dba639273f9a03231ed78c949e11]
class LinksAdapter-->
        <rect codeLine="32" fill="#FEFECE" filter="url(#f1rv1f3apa71n9)" height="48" id="LinksAdapter" style="stroke:#A80036;stroke-width:1.5;" width="104" x="106.49" y="436.5" />
        <ellipse cx="121.49" cy="452.5" fill="#ADD1B2" rx="11" ry="11" style="stroke:#A80036;stroke-width:1.0;" />
        <path d="M124.2556,448.375 Q124.4119,448.1563 124.5994,448.0469 Q124.7869,447.9375 125.0056,447.9375 Q125.3806,447.9375 125.615,448.2031 Q125.8494,448.4531 125.8494,449.0625 L125.8494,450.5156 Q125.8494,451.125 125.615,451.3906 Q125.3806,451.6563 125.0056,451.6563 Q124.6619,451.6563 124.4588,451.4531 Q124.2556,451.2656 124.1463,450.75 Q124.0994,450.3906 123.9119,450.2031 Q123.5838,449.8281 122.9744,449.6094 Q122.365,449.3906 121.74,449.3906 Q120.9744,449.3906 120.3338,449.7188 Q119.7088,450.0469 119.2088,450.7969 Q118.7244,451.5469 118.7244,452.5781 L118.7244,453.6719 Q118.7244,454.9063 119.615,455.7344 Q120.5056,456.5469 122.0994,456.5469 Q123.0369,456.5469 123.6931,456.2969 Q124.0838,456.1406 124.5056,455.7031 Q124.7713,455.4375 124.9119,455.3594 Q125.0681,455.2813 125.2713,455.2813 Q125.5994,455.2813 125.8494,455.5469 Q126.115,455.7969 126.115,456.1406 Q126.115,456.4844 125.7713,456.8906 Q125.2713,457.4688 124.4744,457.7969 Q123.3963,458.25 122.0994,458.25 Q120.5838,458.25 119.3806,457.625 Q118.3963,457.125 117.7088,456.0625 Q117.0213,454.9844 117.0213,453.7031 L117.0213,452.5469 Q117.0213,451.2188 117.6306,450.0781 Q118.2556,448.9219 119.3494,448.3125 Q120.4431,447.6875 121.6775,447.6875 Q122.4119,447.6875 123.0525,447.8594 Q123.7088,448.0156 124.2556,448.375 Z " fill="#000000" /><text fill="#000000" font-family="sans-serif" font-size="12" lengthAdjust="spacingAndGlyphs" textLength="72" x="135.49" y="457.4102">LinksAdapter</text>
        <line style="stroke:#A80036;stroke-width:1.5;" x1="107.49" x2="209.49" y1="468.5" y2="468.5" />
        <line style="stroke:#A80036;stroke-width:1.5;" x1="107.49" x2="209.49" y1="476.5" y2="476.5" />
        <!--MD5=[a65b64adc23078244faca9a369f7e410]
class TQStory-->
        <rect codeLine="37" fill="#FEFECE" filter="url(#f1rv1f3apa71n9)" height="293.375" id="TQStory" style="stroke:#A80036;stroke-width:1.5;" width="313" x="1721.99" y="42" />
        <ellipse cx="1852.74" cy="58" fill="#ADD1B2" rx="11" ry="11" style="stroke:#A80036;stroke-width:1.0;" />
        <path d="M1855.5056,53.875 Q1855.6619,53.6563 1855.8494,53.5469 Q1856.0369,53.4375 1856.2556,53.4375 Q1856.6306,53.4375 1856.865,53.7031 Q1857.0994,53.9531 1857.0994,54.5625 L1857.0994,56.0156 Q1857.0994,56.625 1856.865,56.8906 Q1856.6306,57.1563 1856.2556,57.1563 Q1855.9119,57.1563 1855.7088,56.9531 Q1855.5056,56.7656 1855.3963,56.25 Q1855.3494,55.8906 1855.1619,55.7031 Q1854.8338,55.3281 1854.2244,55.1094 Q1853.615,54.8906 1852.99,54.8906 Q1852.2244,54.8906 1851.5838,55.2188 Q1850.9588,55.5469 1850.4588,56.2969 Q1849.9744,57.0469 1849.9744,58.0781 L1849.9744,59.1719 Q1849.9744,60.4063 1850.865,61.2344 Q1851.7556,62.0469 1853.3494,62.0469 Q1854.2869,62.0469 1854.9431,61.7969 Q1855.3338,61.6406 1855.7556,61.2031 Q1856.0213,60.9375 1856.1619,60.8594 Q1856.3181,60.7813 1856.5213,60.7813 Q1856.8494,60.7813 1857.0994,61.0469 Q1857.365,61.2969 1857.365,61.6406 Q1857.365,61.9844 1857.0213,62.3906 Q1856.5213,62.9688 1855.7244,63.2969 Q1854.6463,63.75 1853.3494,63.75 Q1851.8338,63.75 1850.6306,63.125 Q1849.6463,62.625 1848.9588,61.5625 Q1848.2713,60.4844 1848.2713,59.2031 L1848.2713,58.0469 Q1848.2713,56.7188 1848.8806,55.5781 Q1849.5056,54.4219 1850.5994,53.8125 Q1851.6931,53.1875 1852.9275,53.1875 Q1853.6619,53.1875 1854.3025,53.3594 Q1854.9588,53.5156 1855.5056,53.875 Z " fill="#000000" /><text fill="#000000" font-family="sans-serif" font-size="12" lengthAdjust="spacingAndGlyphs" textLength="43" x="1873.24" y="62.9102">TQStory</text>
        <line style="stroke:#A80036;stroke-width:1.5;" x1="1722.99" x2="2033.99" y1="74" y2="74" />
        <rect fill="none" height="6" style="stroke:#C82930;stroke-width:1.0;" width="6" x="1729.99" y="82" /><text fill="#000000" font-family="sans-serif" font-size="11" lengthAdjust="spacingAndGlyphs" textLength="53" x="1741.99" y="89.4189">title : String</text>
        <rect fill="none" height="6" style="stroke:#C82930;stroke-width:1.0;" width="6" x="1729.99" y="95.8359" /><text fill="#000000" font-family="sans-serif" font-size="11" lengthAdjust="spacingAndGlyphs" textLength="68" x="1741.99" y="103.2549">author : String</text>
        <rect fill="none" height="6" style="stroke:#C82930;stroke-width:1.0;" width="6" x="1729.99" y="109.6719" /><text fill="#000000" font-family="sans-serif" font-size="11" lengthAdjust="spacingAndGlyphs" textLength="118" x="1741.99" y="117.0908">character : TQCharacter</text>
        <rect fill="none" height="6" style="stroke:#C82930;stroke-width:1.0;" width="6" x="1729.99" y="123.5078" /><text fill="#000000" font-family="sans-serif" font-size="11" lengthAdjust="spacingAndGlyphs" textLength="88" x="1741.99" y="130.9268">tqquest : TQQuest</text>
        <rect fill="none" height="6" style="stroke:#C82930;stroke-width:1.0;" width="6" x="1729.99" y="137.3438" /><text fill="#000000" font-family="sans-serif" font-size="11" lengthAdjust="spacingAndGlyphs" textLength="144" x="1741.99" y="144.7627">currentPassage : TwPassage</text>
        <rect fill="none" height="6" style="stroke:#C82930;stroke-width:1.0;" width="6" x="1729.99" y="151.1797" /><text fill="#000000" font-family="sans-serif" font-size="11" lengthAdjust="spacingAndGlyphs" textLength="253" x="1741.99" y="158.5986">mathExpressionEvaluator : MathExpressionEvaluator</text>
        <line style="stroke:#A80036;stroke-width:1.5;" x1="1722.99" x2="2033.99" y1="165.0156" y2="165.0156" />
        <ellipse cx="1732.99" cy="176.0156" fill="#84BE84" rx="3" ry="3" style="stroke:#038048;stroke-width:1.0;" /><text fill="#000000" font-family="sans-serif" font-size="11" lengthAdjust="spacingAndGlyphs" textLength="187" x="1741.99" y="180.4346">getPassageByPid(int pid) : TwPassage</text>
        <ellipse cx="1732.99" cy="189.8516" fill="#84BE84" rx="3" ry="3" style="stroke:#038048;stroke-width:1.0;" /><text fill="#000000" font-family="sans-serif" font-size="11" lengthAdjust="spacingAndGlyphs" textLength="229" x="1741.99" y="194.2705">getPassageByName(String name) : TwPassage</text>
        <line style="stroke:#A80036;stroke-width:1.0;stroke-dasharray:1.0,2.0;" x1="1722.99" x2="2033.99" y1="200.6875" y2="200.6875" />
        <ellipse cx="1732.99" cy="211.6875" fill="#84BE84" rx="3" ry="3" style="stroke:#038048;stroke-width:1.0;" /><text fill="#000000" font-family="sans-serif" font-size="11" lengthAdjust="spacingAndGlyphs" textLength="135" x="1741.99" y="216.1064">getCurrentPassagePid() : int</text>
        <ellipse cx="1732.99" cy="225.5234" fill="#84BE84" rx="3" ry="3" style="stroke:#038048;stroke-width:1.0;" /><text fill="#000000" font-family="sans-serif" font-size="11" lengthAdjust="spacingAndGlyphs" textLength="165" x="1741.99" y="229.9424">getCurrentPassageName() : String</text>
        <ellipse cx="1732.99" cy="239.3594" fill="#84BE84" rx="3" ry="3" style="stroke:#038048;stroke-width:1.0;" /><text fill="#000000" font-family="sans-serif" font-size="11" lengthAdjust="spacingAndGlyphs" textLength="163" x="1741.99" y="243.7783">processCurrentPassage() : String</text>
        <ellipse cx="1732.99" cy="253.1953" fill="#84BE84" rx="3" ry="3" style="stroke:#038048;stroke-width:1.0;" /><text fill="#000000" font-family="sans-serif" font-size="11" lengthAdjust="spacingAndGlyphs" textLength="170" x="1741.99" y="257.6143">getCurrentPassageLinks() : TwLink</text>
        <ellipse cx="1732.99" cy="267.0313" fill="#84BE84" rx="3" ry="3" style="stroke:#038048;stroke-width:1.0;" /><text fill="#000000" font-family="sans-serif" font-size="11" lengthAdjust="spacingAndGlyphs" textLength="155" x="1741.99" y="271.4502">goByLinkNumber(int linkNumber)</text>
        <line style="stroke:#A80036;stroke-width:1.0;stroke-dasharray:1.0,2.0;" x1="1722.99" x2="2033.99" y1="277.8672" y2="277.8672" />
        <ellipse cx="1732.99" cy="288.8672" fill="#84BE84" rx="3" ry="3" style="stroke:#038048;stroke-width:1.0;" /><text fill="#000000" font-family="sans-serif" font-size="11" lengthAdjust="spacingAndGlyphs" textLength="281" x="1741.99" y="293.2861">getCurrentCharacterProperties() : HashMap&lt;String,String&gt;</text>
        <ellipse cx="1732.99" cy="302.7031" fill="#84BE84" rx="3" ry="3" style="stroke:#038048;stroke-width:1.0;" /><text fill="#000000" font-family="sans-serif" font-size="11" lengthAdjust="spacingAndGlyphs" textLength="287" x="1741.99" y="307.1221">getCurrentCharacterParameters() : HashMap&lt;String,String&gt;</text>
        <line style="stroke:#A80036;stroke-width:1.0;stroke-dasharray:1.0,2.0;" x1="1722.99" x2="2033.99" y1="313.5391" y2="313.5391" />
        <ellipse cx="1732.99" cy="324.5391" fill="#84BE84" rx="3" ry="3" style="stroke:#038048;stroke-width:1.0;" /><text fill="#000000" font-family="sans-serif" font-size="11" lengthAdjust="spacingAndGlyphs" textLength="81" x="1741.99" y="328.958">isEnd() : boolean</text>
        <!--MD5=[94a077c37636dc349e828f87cb4f5477]
class TQQuest-->
        <rect codeLine="70" fill="#FEFECE" filter="url(#f1rv1f3apa71n9)" height="131.0156" id="TQQuest" style="stroke:#A80036;stroke-width:1.5;" width="147" x="2135.99" y="395" />
        <ellipse cx="2180.74" cy="411" fill="#ADD1B2" rx="11" ry="11" style="stroke:#A80036;stroke-width:1.0;" />
        <path d="M2183.5056,406.875 Q2183.6619,406.6563 2183.8494,406.5469 Q2184.0369,406.4375 2184.2556,406.4375 Q2184.6306,406.4375 2184.865,406.7031 Q2185.0994,406.9531 2185.0994,407.5625 L2185.0994,409.0156 Q2185.0994,409.625 2184.865,409.8906 Q2184.6306,410.1563 2184.2556,410.1563 Q2183.9119,410.1563 2183.7088,409.9531 Q2183.5056,409.7656 2183.3963,409.25 Q2183.3494,408.8906 2183.1619,408.7031 Q2182.8338,408.3281 2182.2244,408.1094 Q2181.615,407.8906 2180.99,407.8906 Q2180.2244,407.8906 2179.5838,408.2188 Q2178.9588,408.5469 2178.4588,409.2969 Q2177.9744,410.0469 2177.9744,411.0781 L2177.9744,412.1719 Q2177.9744,413.4063 2178.865,414.2344 Q2179.7556,415.0469 2181.3494,415.0469 Q2182.2869,415.0469 2182.9431,414.7969 Q2183.3338,414.6406 2183.7556,414.2031 Q2184.0213,413.9375 2184.1619,413.8594 Q2184.3181,413.7813 2184.5213,413.7813 Q2184.8494,413.7813 2185.0994,414.0469 Q2185.365,414.2969 2185.365,414.6406 Q2185.365,414.9844 2185.0213,415.3906 Q2184.5213,415.9688 2183.7244,416.2969 Q2182.6463,416.75 2181.3494,416.75 Q2179.8338,416.75 2178.6306,416.125 Q2177.6463,415.625 2176.9588,414.5625 Q2176.2713,413.4844 2176.2713,412.2031 L2176.2713,411.0469 Q2176.2713,409.7188 2176.8806,408.5781 Q2177.5056,407.4219 2178.5994,406.8125 Q2179.6931,406.1875 2180.9275,406.1875 Q2181.6619,406.1875 2182.3025,406.3594 Q2182.9588,406.5156 2183.5056,406.875 Z " fill="#000000" /><text fill="#000000" font-family="sans-serif" font-size="12" lengthAdjust="spacingAndGlyphs" textLength="49" x="2201.24" y="415.9102">TQQuest</text>
        <line style="stroke:#A80036;stroke-width:1.5;" x1="2136.99" x2="2281.99" y1="427" y2="427" />
        <ellipse cx="2146.99" cy="438" fill="none" rx="3" ry="3" style="stroke:#038048;stroke-width:1.0;" /><text fill="#000000" font-family="sans-serif" font-size="11" lengthAdjust="spacingAndGlyphs" textLength="121" x="2155.99" y="442.4189">passages : TwPassage[]</text>
        <ellipse cx="2146.99" cy="451.8359" fill="none" rx="3" ry="3" style="stroke:#038048;stroke-width:1.0;" /><text fill="#000000" font-family="sans-serif" font-size="11" lengthAdjust="spacingAndGlyphs" textLength="63" x="2155.99" y="456.2549">name : String</text>
        <ellipse cx="2146.99" cy="465.6719" fill="none" rx="3" ry="3" style="stroke:#038048;stroke-width:1.0;" /><text fill="#000000" font-family="sans-serif" font-size="11" lengthAdjust="spacingAndGlyphs" textLength="66" x="2155.99" y="470.0908">startnode : int</text>
        <ellipse cx="2146.99" cy="479.5078" fill="none" rx="3" ry="3" style="stroke:#038048;stroke-width:1.0;" /><text fill="#000000" font-family="sans-serif" font-size="11" lengthAdjust="spacingAndGlyphs" textLength="72" x="2155.99" y="483.9268">creator : String</text>
        <ellipse cx="2146.99" cy="493.3438" fill="none" rx="3" ry="3" style="stroke:#038048;stroke-width:1.0;" /><text fill="#000000" font-family="sans-serif" font-size="11" lengthAdjust="spacingAndGlyphs" textLength="114" x="2155.99" y="497.7627">creator_version : String</text>
        <ellipse cx="2146.99" cy="507.1797" fill="none" rx="3" ry="3" style="stroke:#038048;stroke-width:1.0;" /><text fill="#000000" font-family="sans-serif" font-size="11" lengthAdjust="spacingAndGlyphs" textLength="51" x="2155.99" y="511.5986">ifid : String</text>
        <line style="stroke:#A80036;stroke-width:1.5;" x1="2136.99" x2="2281.99" y1="518.0156" y2="518.0156" />
        <!--MD5=[886e4d387024dd8b2c4536c0cc7e7e37]
class TQCharacter-->
        <rect codeLine="62" fill="#FEFECE" filter="url(#f1rv1f3apa71n9)" height="117.1797" id="TQCharacter" style="stroke:#A80036;stroke-width:1.5;" width="444" x="1656.49" y="402" />
        <ellipse cx="1839.24" cy="418" fill="#ADD1B2" rx="11" ry="11" style="stroke:#A80036;stroke-width:1.0;" />
        <path d="M1842.0056,413.875 Q1842.1619,413.6563 1842.3494,413.5469 Q1842.5369,413.4375 1842.7556,413.4375 Q1843.1306,413.4375 1843.365,413.7031 Q1843.5994,413.9531 1843.5994,414.5625 L1843.5994,416.0156 Q1843.5994,416.625 1843.365,416.8906 Q1843.1306,417.1563 1842.7556,417.1563 Q1842.4119,417.1563 1842.2088,416.9531 Q1842.0056,416.7656 1841.8963,416.25 Q1841.8494,415.8906 1841.6619,415.7031 Q1841.3338,415.3281 1840.7244,415.1094 Q1840.115,414.8906 1839.49,414.8906 Q1838.7244,414.8906 1838.0838,415.2188 Q1837.4588,415.5469 1836.9588,416.2969 Q1836.4744,417.0469 1836.4744,418.0781 L1836.4744,419.1719 Q1836.4744,420.4063 1837.365,421.2344 Q1838.2556,422.0469 1839.8494,422.0469 Q1840.7869,422.0469 1841.4431,421.7969 Q1841.8338,421.6406 1842.2556,421.2031 Q1842.5213,420.9375 1842.6619,420.8594 Q1842.8181,420.7813 1843.0213,420.7813 Q1843.3494,420.7813 1843.5994,421.0469 Q1843.865,421.2969 1843.865,421.6406 Q1843.865,421.9844 1843.5213,422.3906 Q1843.0213,422.9688 1842.2244,423.2969 Q1841.1463,423.75 1839.8494,423.75 Q1838.3338,423.75 1837.1306,423.125 Q1836.1463,422.625 1835.4588,421.5625 Q1834.7713,420.4844 1834.7713,419.2031 L1834.7713,418.0469 Q1834.7713,416.7188 1835.3806,415.5781 Q1836.0056,414.4219 1837.0994,413.8125 Q1838.1931,413.1875 1839.4275,413.1875 Q1840.1619,413.1875 1840.8025,413.3594 Q1841.4588,413.5156 1842.0056,413.875 Z " fill="#000000" /><text fill="#000000" font-family="sans-serif" font-size="12" lengthAdjust="spacingAndGlyphs" textLength="70" x="1859.74" y="422.9102">TQCharacter</text>
        <line style="stroke:#A80036;stroke-width:1.5;" x1="1657.49" x2="2099.49" y1="434" y2="434" />
        <ellipse cx="1667.49" cy="445" fill="none" rx="3" ry="3" style="stroke:#038048;stroke-width:1.0;" /><text fill="#000000" font-family="sans-serif" font-size="11" lengthAdjust="spacingAndGlyphs" textLength="177" x="1676.49" y="449.4189">properties : HashMap&lt;String, String&gt;</text>
        <ellipse cx="1667.49" cy="458.8359" fill="none" rx="3" ry="3" style="stroke:#038048;stroke-width:1.0;" /><text fill="#000000" font-family="sans-serif" font-size="11" lengthAdjust="spacingAndGlyphs" textLength="183" x="1676.49" y="463.2549">parameters : HashMap&lt;String, String&gt;</text>
        <line style="stroke:#A80036;stroke-width:1.5;" x1="1657.49" x2="2099.49" y1="469.6719" y2="469.6719" />
        <ellipse cx="1667.49" cy="480.6719" fill="#84BE84" rx="3" ry="3" style="stroke:#038048;stroke-width:1.0;" /><text fill="#000000" font-family="sans-serif" font-size="11" lengthAdjust="spacingAndGlyphs" textLength="70" x="1676.49" y="485.0908">TQCharacter()</text>
        <ellipse cx="1667.49" cy="494.5078" fill="#84BE84" rx="3" ry="3" style="stroke:#038048;stroke-width:1.0;" /><text fill="#000000" font-family="sans-serif" font-size="11" lengthAdjust="spacingAndGlyphs" textLength="418" x="1676.49" y="498.9268">TQCharacter(HashMap&lt;String,String&gt; properties, HashMap&lt;String,String&gt; parameters)</text>
        <ellipse cx="1667.49" cy="508.3438" fill="#84BE84" rx="3" ry="3" style="stroke:#038048;stroke-width:1.0;" /><text fill="#000000" font-family="sans-serif" font-size="11" lengthAdjust="spacingAndGlyphs" textLength="288" x="1676.49" y="512.7627">TQCharacter(String propertiesJson, String parametersJson)</text>
        <!--MD5=[6dab1e00aa7953c4af806a73a2ba0a17]
class TwPassage-->
        <rect codeLine="79" fill="#FEFECE" filter="url(#f1rv1f3apa71n9)" height="117.1797" id="TwPassage" style="stroke:#A80036;stroke-width:1.5;" width="125" x="2146.99" y="586" />
        <ellipse cx="2174.14" cy="602" fill="#ADD1B2" rx="11" ry="11" style="stroke:#A80036;stroke-width:1.0;" />
        <path d="M2176.9056,597.875 Q2177.0619,597.6563 2177.2494,597.5469 Q2177.4369,597.4375 2177.6556,597.4375 Q2178.0306,597.4375 2178.265,597.7031 Q2178.4994,597.9531 2178.4994,598.5625 L2178.4994,600.0156 Q2178.4994,600.625 2178.265,600.8906 Q2178.0306,601.1563 2177.6556,601.1563 Q2177.3119,601.1563 2177.1088,600.9531 Q2176.9056,600.7656 2176.7963,600.25 Q2176.7494,599.8906 2176.5619,599.7031 Q2176.2338,599.3281 2175.6244,599.1094 Q2175.015,598.8906 2174.39,598.8906 Q2173.6244,598.8906 2172.9838,599.2188 Q2172.3588,599.5469 2171.8588,600.2969 Q2171.3744,601.0469 2171.3744,602.0781 L2171.3744,603.1719 Q2171.3744,604.4063 2172.265,605.2344 Q2173.1556,606.0469 2174.7494,606.0469 Q2175.6869,606.0469 2176.3431,605.7969 Q2176.7338,605.6406 2177.1556,605.2031 Q2177.4213,604.9375 2177.5619,604.8594 Q2177.7181,604.7813 2177.9213,604.7813 Q2178.2494,604.7813 2178.4994,605.0469 Q2178.765,605.2969 2178.765,605.6406 Q2178.765,605.9844 2178.4213,606.3906 Q2177.9213,606.9688 2177.1244,607.2969 Q2176.0463,607.75 2174.7494,607.75 Q2173.2338,607.75 2172.0306,607.125 Q2171.0463,606.625 2170.3588,605.5625 Q2169.6713,604.4844 2169.6713,603.2031 L2169.6713,602.0469 Q2169.6713,600.7188 2170.2806,599.5781 Q2170.9056,598.4219 2171.9994,597.8125 Q2173.0931,597.1875 2174.3275,597.1875 Q2175.0619,597.1875 2175.7025,597.3594 Q2176.3588,597.5156 2176.9056,597.875 Z " fill="#000000" /><text fill="#000000" font-family="sans-serif" font-size="12" lengthAdjust="spacingAndGlyphs" textLength="66" x="2190.84" y="606.9102">TwPassage</text>
        <line style="stroke:#A80036;stroke-width:1.5;" x1="2147.99" x2="2270.99" y1="618" y2="618" />
        <ellipse cx="2157.99" cy="629" fill="none" rx="3" ry="3" style="stroke:#038048;stroke-width:1.0;" /><text fill="#000000" font-family="sans-serif" font-size="11" lengthAdjust="spacingAndGlyphs" textLength="55" x="2166.99" y="633.4189">text : String</text>
        <ellipse cx="2157.99" cy="642.8359" fill="none" rx="3" ry="3" style="stroke:#038048;stroke-width:1.0;" /><text fill="#000000" font-family="sans-serif" font-size="11" lengthAdjust="spacingAndGlyphs" textLength="71" x="2166.99" y="647.2549">links : TwLink[]</text>
        <ellipse cx="2157.99" cy="656.6719" fill="none" rx="3" ry="3" style="stroke:#038048;stroke-width:1.0;" /><text fill="#000000" font-family="sans-serif" font-size="11" lengthAdjust="spacingAndGlyphs" textLength="63" x="2166.99" y="661.0908">name : String</text>
        <ellipse cx="2157.99" cy="670.5078" fill="none" rx="3" ry="3" style="stroke:#038048;stroke-width:1.0;" /><text fill="#000000" font-family="sans-serif" font-size="11" lengthAdjust="spacingAndGlyphs" textLength="34" x="2166.99" y="674.9268">pid : int</text>
        <ellipse cx="2157.99" cy="684.3438" fill="none" rx="3" ry="3" style="stroke:#038048;stroke-width:1.0;" /><text fill="#000000" font-family="sans-serif" font-size="11" lengthAdjust="spacingAndGlyphs" textLength="99" x="2166.99" y="688.7627">position : TwPosition</text>
        <line style="stroke:#A80036;stroke-width:1.5;" x1="2147.99" x2="2270.99" y1="695.1797" y2="695.1797" />
        <!--MD5=[fe85196431279e9b6e8bfad9ac70314f]
class TwPosition-->
        <rect codeLine="88" fill="#FEFECE" filter="url(#f1rv1f3apa71n9)" height="75.6719" id="TwPosition" style="stroke:#A80036;stroke-width:1.5;" width="93" x="2175.99" y="770" />
        <ellipse cx="2190.99" cy="786" fill="#ADD1B2" rx="11" ry="11" style="stroke:#A80036;stroke-width:1.0;" />
        <path d="M2193.7556,781.875 Q2193.9119,781.6563 2194.0994,781.5469 Q2194.2869,781.4375 2194.5056,781.4375 Q2194.8806,781.4375 2195.115,781.7031 Q2195.3494,781.9531 2195.3494,782.5625 L2195.3494,784.0156 Q2195.3494,784.625 2195.115,784.8906 Q2194.8806,785.1563 2194.5056,785.1563 Q2194.1619,785.1563 2193.9588,784.9531 Q2193.7556,784.7656 2193.6463,784.25 Q2193.5994,783.8906 2193.4119,783.7031 Q2193.0838,783.3281 2192.4744,783.1094 Q2191.865,782.8906 2191.24,782.8906 Q2190.4744,782.8906 2189.8338,783.2188 Q2189.2088,783.5469 2188.7088,784.2969 Q2188.2244,785.0469 2188.2244,786.0781 L2188.2244,787.1719 Q2188.2244,788.4063 2189.115,789.2344 Q2190.0056,790.0469 2191.5994,790.0469 Q2192.5369,790.0469 2193.1931,789.7969 Q2193.5838,789.6406 2194.0056,789.2031 Q2194.2713,788.9375 2194.4119,788.8594 Q2194.5681,788.7813 2194.7713,788.7813 Q2195.0994,788.7813 2195.3494,789.0469 Q2195.615,789.2969 2195.615,789.6406 Q2195.615,789.9844 2195.2713,790.3906 Q2194.7713,790.9688 2193.9744,791.2969 Q2192.8963,791.75 2191.5994,791.75 Q2190.0838,791.75 2188.8806,791.125 Q2187.8963,790.625 2187.2088,789.5625 Q2186.5213,788.4844 2186.5213,787.2031 L2186.5213,786.0469 Q2186.5213,784.7188 2187.1306,783.5781 Q2187.7556,782.4219 2188.8494,781.8125 Q2189.9431,781.1875 2191.1775,781.1875 Q2191.9119,781.1875 2192.5525,781.3594 Q2193.2088,781.5156 2193.7556,781.875 Z " fill="#000000" /><text fill="#000000" font-family="sans-serif" font-size="12" lengthAdjust="spacingAndGlyphs" textLength="61" x="2204.99" y="790.9102">TwPosition</text>
        <line style="stroke:#A80036;stroke-width:1.5;" x1="2176.99" x2="2267.99" y1="802" y2="802" />
        <ellipse cx="2186.99" cy="813" fill="none" rx="3" ry="3" style="stroke:#038048;stroke-width:1.0;" /><text fill="#000000" font-family="sans-serif" font-size="11" lengthAdjust="spacingAndGlyphs" textLength="36" x="2195.99" y="817.4189">x : float</text>
        <ellipse cx="2186.99" cy="826.8359" fill="none" rx="3" ry="3" style="stroke:#038048;stroke-width:1.0;" /><text fill="#000000" font-family="sans-serif" font-size="11" lengthAdjust="spacingAndGlyphs" textLength="36" x="2195.99" y="831.2549">y : float</text>
        <line style="stroke:#A80036;stroke-width:1.5;" x1="2176.99" x2="2267.99" y1="837.6719" y2="837.6719" />
        <!--MD5=[b0082cdfa4dcce96baa042831b0a3d46]
class TwLink-->
        <rect codeLine="92" fill="#FEFECE" filter="url(#f1rv1f3apa71n9)" height="89.5078" id="TwLink" style="stroke:#A80036;stroke-width:1.5;" width="89" x="2051.99" y="763" />
        <ellipse cx="2075.09" cy="779" fill="#ADD1B2" rx="11" ry="11" style="stroke:#A80036;stroke-width:1.0;" />
        <path d="M2077.8556,774.875 Q2078.0119,774.6563 2078.1994,774.5469 Q2078.3869,774.4375 2078.6056,774.4375 Q2078.9806,774.4375 2079.215,774.7031 Q2079.4494,774.9531 2079.4494,775.5625 L2079.4494,777.0156 Q2079.4494,777.625 2079.215,777.8906 Q2078.9806,778.1563 2078.6056,778.1563 Q2078.2619,778.1563 2078.0587,777.9531 Q2077.8556,777.7656 2077.7462,777.25 Q2077.6994,776.8906 2077.5119,776.7031 Q2077.1837,776.3281 2076.5744,776.1094 Q2075.965,775.8906 2075.34,775.8906 Q2074.5744,775.8906 2073.9337,776.2188 Q2073.3087,776.5469 2072.8087,777.2969 Q2072.3244,778.0469 2072.3244,779.0781 L2072.3244,780.1719 Q2072.3244,781.4063 2073.215,782.2344 Q2074.1056,783.0469 2075.6994,783.0469 Q2076.6369,783.0469 2077.2931,782.7969 Q2077.6837,782.6406 2078.1056,782.2031 Q2078.3712,781.9375 2078.5119,781.8594 Q2078.6681,781.7813 2078.8712,781.7813 Q2079.1994,781.7813 2079.4494,782.0469 Q2079.715,782.2969 2079.715,782.6406 Q2079.715,782.9844 2079.3712,783.3906 Q2078.8712,783.9688 2078.0744,784.2969 Q2076.9962,784.75 2075.6994,784.75 Q2074.1837,784.75 2072.9806,784.125 Q2071.9962,783.625 2071.3087,782.5625 Q2070.6212,781.4844 2070.6212,780.2031 L2070.6212,779.0469 Q2070.6212,777.7188 2071.2306,776.5781 Q2071.8556,775.4219 2072.9494,774.8125 Q2074.0431,774.1875 2075.2775,774.1875 Q2076.0119,774.1875 2076.6525,774.3594 Q2077.3087,774.5156 2077.8556,774.875 Z " fill="#000000" /><text fill="#000000" font-family="sans-serif" font-size="12" lengthAdjust="spacingAndGlyphs" textLength="39" x="2090.89" y="783.9102">TwLink</text>
        <line style="stroke:#A80036;stroke-width:1.5;" x1="2052.99" x2="2139.99" y1="795" y2="795" />
        <ellipse cx="2062.99" cy="806" fill="none" rx="3" ry="3" style="stroke:#038048;stroke-width:1.0;" /><text fill="#000000" font-family="sans-serif" font-size="11" lengthAdjust="spacingAndGlyphs" textLength="63" x="2071.99" y="810.4189">name : String</text>
        <ellipse cx="2062.99" cy="819.8359" fill="none" rx="3" ry="3" style="stroke:#038048;stroke-width:1.0;" /><text fill="#000000" font-family="sans-serif" font-size="11" lengthAdjust="spacingAndGlyphs" textLength="52" x="2071.99" y="824.2549">link : String</text>
        <ellipse cx="2062.99" cy="833.6719" fill="none" rx="3" ry="3" style="stroke:#038048;stroke-width:1.0;" /><text fill="#000000" font-family="sans-serif" font-size="11" lengthAdjust="spacingAndGlyphs" textLength="34" x="2071.99" y="838.0908">pid : int</text>
        <line style="stroke:#A80036;stroke-width:1.5;" x1="2052.99" x2="2139.99" y1="844.5078" y2="844.5078" />
        <!--MD5=[63f21c4ea122a3559443001152d23fe5]
class CloudManager-->
        <rect codeLine="100" fill="#FEFECE" filter="url(#f1rv1f3apa71n9)" height="48" id="CloudManager" style="stroke:#A80036;stroke-width:1.5;" width="113" x="612.99" y="620.5" />
        <ellipse cx="627.99" cy="636.5" fill="#ADD1B2" rx="11" ry="11" style="stroke:#A80036;stroke-width:1.0;" />
        <path d="M630.7556,632.375 Q630.9119,632.1563 631.0994,632.0469 Q631.2869,631.9375 631.5056,631.9375 Q631.8806,631.9375 632.115,632.2031 Q632.3494,632.4531 632.3494,633.0625 L632.3494,634.5156 Q632.3494,635.125 632.115,635.3906 Q631.8806,635.6563 631.5056,635.6563 Q631.1619,635.6563 630.9588,635.4531 Q630.7556,635.2656 630.6463,634.75 Q630.5994,634.3906 630.4119,634.2031 Q630.0838,633.8281 629.4744,633.6094 Q628.865,633.3906 628.24,633.3906 Q627.4744,633.3906 626.8338,633.7188 Q626.2088,634.0469 625.7088,634.7969 Q625.2244,635.5469 625.2244,636.5781 L625.2244,637.6719 Q625.2244,638.9063 626.115,639.7344 Q627.0056,640.5469 628.5994,640.5469 Q629.5369,640.5469 630.1931,640.2969 Q630.5838,640.1406 631.0056,639.7031 Q631.2713,639.4375 631.4119,639.3594 Q631.5681,639.2813 631.7713,639.2813 Q632.0994,639.2813 632.3494,639.5469 Q632.615,639.7969 632.615,640.1406 Q632.615,640.4844 632.2713,640.8906 Q631.7713,641.4688 630.9744,641.7969 Q629.8963,642.25 628.5994,642.25 Q627.0838,642.25 625.8806,641.625 Q624.8963,641.125 624.2088,640.0625 Q623.5213,638.9844 623.5213,637.7031 L623.5213,636.5469 Q623.5213,635.2188 624.1306,634.0781 Q624.7556,632.9219 625.8494,632.3125 Q626.9431,631.6875 628.1775,631.6875 Q628.9119,631.6875 629.5525,631.8594 Q630.2088,632.0156 630.7556,632.375 Z " fill="#000000" /><text fill="#000000" font-family="sans-serif" font-size="12" lengthAdjust="spacingAndGlyphs" textLength="81" x="641.99" y="641.4102">CloudManager</text>
        <line style="stroke:#A80036;stroke-width:1.5;" x1="613.99" x2="724.99" y1="652.5" y2="652.5" />
        <line style="stroke:#A80036;stroke-width:1.5;" x1="613.99" x2="724.99" y1="660.5" y2="660.5" />
        <!--MD5=[b51a5a65ccb90c6d6d2650764e5090ad]
class TQManager-->
        <rect codeLine="103" fill="#FEFECE" filter="url(#f1rv1f3apa71n9)" height="48" id="TQManager" style="stroke:#A80036;stroke-width:1.5;" width="96" x="921.49" y="620.5" />
        <ellipse cx="936.49" cy="636.5" fill="#ADD1B2" rx="11" ry="11" style="stroke:#A80036;stroke-width:1.0;" />
        <path d="M939.2556,632.375 Q939.4119,632.1563 939.5994,632.0469 Q939.7869,631.9375 940.0056,631.9375 Q940.3806,631.9375 940.615,632.2031 Q940.8494,632.4531 940.8494,633.0625 L940.8494,634.5156 Q940.8494,635.125 940.615,635.3906 Q940.3806,635.6563 940.0056,635.6563 Q939.6619,635.6563 939.4588,635.4531 Q939.2556,635.2656 939.1463,634.75 Q939.0994,634.3906 938.9119,634.2031 Q938.5838,633.8281 937.9744,633.6094 Q937.365,633.3906 936.74,633.3906 Q935.9744,633.3906 935.3338,633.7188 Q934.7088,634.0469 934.2088,634.7969 Q933.7244,635.5469 933.7244,636.5781 L933.7244,637.6719 Q933.7244,638.9063 934.615,639.7344 Q935.5056,640.5469 937.0994,640.5469 Q938.0369,640.5469 938.6931,640.2969 Q939.0838,640.1406 939.5056,639.7031 Q939.7713,639.4375 939.9119,639.3594 Q940.0681,639.2813 940.2713,639.2813 Q940.5994,639.2813 940.8494,639.5469 Q941.115,639.7969 941.115,640.1406 Q941.115,640.4844 940.7713,640.8906 Q940.2713,641.4688 939.4744,641.7969 Q938.3963,642.25 937.0994,642.25 Q935.5838,642.25 934.3806,641.625 Q933.3963,641.125 932.7088,640.0625 Q932.0213,638.9844 932.0213,637.7031 L932.0213,636.5469 Q932.0213,635.2188 932.6306,634.0781 Q933.2556,632.9219 934.3494,632.3125 Q935.4431,631.6875 936.6775,631.6875 Q937.4119,631.6875 938.0525,631.8594 Q938.7088,632.0156 939.2556,632.375 Z " fill="#000000" /><text fill="#000000" font-family="sans-serif" font-size="12" lengthAdjust="spacingAndGlyphs" textLength="64" x="950.49" y="641.4102">TQManager</text>
        <line style="stroke:#A80036;stroke-width:1.5;" x1="922.49" x2="1016.49" y1="652.5" y2="652.5" />
        <line style="stroke:#A80036;stroke-width:1.5;" x1="922.49" x2="1016.49" y1="660.5" y2="660.5" />
        <!--MD5=[3c567942317268e929f67765af9a69d6]
class AppDatabase-->
        <rect codeLine="111" fill="#FEFECE" filter="url(#f1rv1f3apa71n9)" height="75.6719" id="AppDatabase" style="stroke:#A80036;stroke-width:1.5;" width="163" x="758.99" y="770" />
        <ellipse cx="799.19" cy="786" fill="#ADD1B2" rx="11" ry="11" style="stroke:#A80036;stroke-width:1.0;" />
        <path d="M801.9556,781.875 Q802.1119,781.6563 802.2994,781.5469 Q802.4869,781.4375 802.7056,781.4375 Q803.0806,781.4375 803.315,781.7031 Q803.5494,781.9531 803.5494,782.5625 L803.5494,784.0156 Q803.5494,784.625 803.315,784.8906 Q803.0806,785.1563 802.7056,785.1563 Q802.3619,785.1563 802.1588,784.9531 Q801.9556,784.7656 801.8463,784.25 Q801.7994,783.8906 801.6119,783.7031 Q801.2838,783.3281 800.6744,783.1094 Q800.065,782.8906 799.44,782.8906 Q798.6744,782.8906 798.0338,783.2188 Q797.4088,783.5469 796.9088,784.2969 Q796.4244,785.0469 796.4244,786.0781 L796.4244,787.1719 Q796.4244,788.4063 797.315,789.2344 Q798.2056,790.0469 799.7994,790.0469 Q800.7369,790.0469 801.3931,789.7969 Q801.7838,789.6406 802.2056,789.2031 Q802.4713,788.9375 802.6119,788.8594 Q802.7681,788.7813 802.9713,788.7813 Q803.2994,788.7813 803.5494,789.0469 Q803.815,789.2969 803.815,789.6406 Q803.815,789.9844 803.4713,790.3906 Q802.9713,790.9688 802.1744,791.2969 Q801.0963,791.75 799.7994,791.75 Q798.2838,791.75 797.0806,791.125 Q796.0963,790.625 795.4088,789.5625 Q794.7213,788.4844 794.7213,787.2031 L794.7213,786.0469 Q794.7213,784.7188 795.3306,783.5781 Q795.9556,782.4219 797.0494,781.8125 Q798.1431,781.1875 799.3775,781.1875 Q800.1119,781.1875 800.7525,781.3594 Q801.4088,781.5156 801.9556,781.875 Z " fill="#000000" /><text fill="#000000" font-family="sans-serif" font-size="12" lengthAdjust="spacingAndGlyphs" textLength="75" x="818.79" y="790.9102">AppDatabase</text>
        <line style="stroke:#A80036;stroke-width:1.5;" x1="759.99" x2="920.99" y1="802" y2="802" />
        <line style="stroke:#A80036;stroke-width:1.5;" x1="759.99" x2="920.99" y1="810" y2="810" />
        <ellipse cx="769.99" cy="821" fill="#84BE84" rx="3" ry="3" style="stroke:#038048;stroke-width:1.0;" /><text fill="#000000" font-family="sans-serif" font-size="11" lengthAdjust="spacingAndGlyphs" textLength="137" x="778.99" y="825.4189">questsDao() : DBQuestsDao</text>
        <ellipse cx="769.99" cy="834.8359" fill="#84BE84" rx="3" ry="3" style="stroke:#038048;stroke-width:1.0;" /><text fill="#000000" font-family="sans-serif" font-size="11" lengthAdjust="spacingAndGlyphs" textLength="135" x="778.99" y="839.2549">gamesDao() : DBGamesDao</text>
        <!--MD5=[5439c715667871e9b819f2f0d4862e8b]
class DBGamesDao-->
        <rect codeLine="119" fill="#FEFECE" filter="url(#f1rv1f3apa71n9)" height="48" id="DBGamesDao" style="stroke:#A80036;stroke-width:1.5;" width="112" x="764.49" y="913" />
        <ellipse cx="779.49" cy="929" fill="#B4A7E5" rx="11" ry="11" style="stroke:#A80036;stroke-width:1.0;" />
        <path d="M780.4431,925.6406 L780.4431,932.2969 L782.1619,932.2969 Q782.7713,932.2969 783.0369,932.5313 Q783.3025,932.7656 783.3025,933.1563 Q783.3025,933.5313 783.0369,933.7656 Q782.7713,934 782.1619,934 L777.0213,934 Q776.4119,934 776.1463,933.7656 Q775.8806,933.5313 775.8806,933.1406 Q775.8806,932.7656 776.1463,932.5313 Q776.4119,932.2969 777.0213,932.2969 L778.74,932.2969 L778.74,925.6406 L777.0213,925.6406 Q776.4119,925.6406 776.1463,925.4063 Q775.8806,925.1719 775.8806,924.7813 Q775.8806,924.4063 776.1463,924.1719 Q776.4119,923.9375 777.0213,923.9375 L782.1619,923.9375 Q782.7713,923.9375 783.0369,924.1719 Q783.3025,924.4063 783.3025,924.7813 Q783.3025,925.1719 783.0369,925.4063 Q782.7713,925.6406 782.1619,925.6406 L780.4431,925.6406 Z " fill="#000000" /><text fill="#000000" font-family="sans-serif" font-size="12" font-style="italic" lengthAdjust="spacingAndGlyphs" textLength="80" x="793.49" y="933.9102">DBGamesDao</text>
        <line style="stroke:#A80036;stroke-width:1.5;" x1="765.49" x2="875.49" y1="945" y2="945" />
        <line style="stroke:#A80036;stroke-width:1.5;" x1="765.49" x2="875.49" y1="953" y2="953" />
        <!--MD5=[98b24b1373ac043a28aeb180ab9c0de3]
class DBQuestsDao-->
        <rect codeLine="124" fill="#FEFECE" filter="url(#f1rv1f3apa71n9)" height="48" id="DBQuestsDao" style="stroke:#A80036;stroke-width:1.5;" width="110" x="911.49" y="913" />
        <ellipse cx="926.49" cy="929" fill="#B4A7E5" rx="11" ry="11" style="stroke:#A80036;stroke-width:1.0;" />
        <path d="M927.4431,925.6406 L927.4431,932.2969 L929.1619,932.2969 Q929.7713,932.2969 930.0369,932.5313 Q930.3025,932.7656 930.3025,933.1563 Q930.3025,933.5313 930.0369,933.7656 Q929.7713,934 929.1619,934 L924.0213,934 Q923.4119,934 923.1463,933.7656 Q922.8806,933.5313 922.8806,933.1406 Q922.8806,932.7656 923.1463,932.5313 Q923.4119,932.2969 924.0213,932.2969 L925.74,932.2969 L925.74,925.6406 L924.0213,925.6406 Q923.4119,925.6406 923.1463,925.4063 Q922.8806,925.1719 922.8806,924.7813 Q922.8806,924.4063 923.1463,924.1719 Q923.4119,923.9375 924.0213,923.9375 L929.1619,923.9375 Q929.7713,923.9375 930.0369,924.1719 Q930.3025,924.4063 930.3025,924.7813 Q930.3025,925.1719 930.0369,925.4063 Q929.7713,925.6406 929.1619,925.6406 L927.4431,925.6406 Z " fill="#000000" /><text fill="#000000" font-family="sans-serif" font-size="12" font-style="italic" lengthAdjust="spacingAndGlyphs" textLength="78" x="940.49" y="933.9102">DBQuestsDao</text>
        <line style="stroke:#A80036;stroke-width:1.5;" x1="912.49" x2="1020.49" y1="945" y2="945" />
        <line style="stroke:#A80036;stroke-width:1.5;" x1="912.49" x2="1020.49" y1="953" y2="953" />
        <!--MD5=[32d8e4b5829adf8512f2ec9200ec0f3b]
class DBGame-->
        <rect codeLine="118" fill="#FEFECE" filter="url(#f1rv1f3apa71n9)" height="48" id="DBGame" style="stroke:#A80036;stroke-width:1.5;" width="83" x="782.99" y="1021" />
        <ellipse cx="797.99" cy="1037" fill="#ADD1B2" rx="11" ry="11" style="stroke:#A80036;stroke-width:1.0;" />
        <path d="M800.7556,1032.875 Q800.9119,1032.6563 801.0994,1032.5469 Q801.2869,1032.4375 801.5056,1032.4375 Q801.8806,1032.4375 802.115,1032.7031 Q802.3494,1032.9531 802.3494,1033.5625 L802.3494,1035.0156 Q802.3494,1035.625 802.115,1035.8906 Q801.8806,1036.1563 801.5056,1036.1563 Q801.1619,1036.1563 800.9588,1035.9531 Q800.7556,1035.7656 800.6463,1035.25 Q800.5994,1034.8906 800.4119,1034.7031 Q800.0838,1034.3281 799.4744,1034.1094 Q798.865,1033.8906 798.24,1033.8906 Q797.4744,1033.8906 796.8338,1034.2188 Q796.2088,1034.5469 795.7088,1035.2969 Q795.2244,1036.0469 795.2244,1037.0781 L795.2244,1038.1719 Q795.2244,1039.4063 796.115,1040.2344 Q797.0056,1041.0469 798.5994,1041.0469 Q799.5369,1041.0469 800.1931,1040.7969 Q800.5838,1040.6406 801.0056,1040.2031 Q801.2713,1039.9375 801.4119,1039.8594 Q801.5681,1039.7813 801.7713,1039.7813 Q802.0994,1039.7813 802.3494,1040.0469 Q802.615,1040.2969 802.615,1040.6406 Q802.615,1040.9844 802.2713,1041.3906 Q801.7713,1041.9688 800.9744,1042.2969 Q799.8963,1042.75 798.5994,1042.75 Q797.0838,1042.75 795.8806,1042.125 Q794.8963,1041.625 794.2088,1040.5625 Q793.5213,1039.4844 793.5213,1038.2031 L793.5213,1037.0469 Q793.5213,1035.7188 794.1306,1034.5781 Q794.7556,1033.4219 795.8494,1032.8125 Q796.9431,1032.1875 798.1775,1032.1875 Q798.9119,1032.1875 799.5525,1032.3594 Q800.2088,1032.5156 800.7556,1032.875 Z " fill="#000000" /><text fill="#000000" font-family="sans-serif" font-size="12" lengthAdjust="spacingAndGlyphs" textLength="51" x="811.99" y="1041.9102">DBGame</text>
        <line style="stroke:#A80036;stroke-width:1.5;" x1="783.99" x2="864.99" y1="1053" y2="1053" />
        <line style="stroke:#A80036;stroke-width:1.5;" x1="783.99" x2="864.99" y1="1061" y2="1061" />
        <!--MD5=[b0e92bd755050e8ef6aad4a6711a2236]
class DBQuest-->
        <rect codeLine="123" fill="#FEFECE" filter="url(#f1rv1f3apa71n9)" height="48" id="DBQuest" style="stroke:#A80036;stroke-width:1.5;" width="82" x="922.49" y="1021" />
        <ellipse cx="937.49" cy="1037" fill="#ADD1B2" rx="11" ry="11" style="stroke:#A80036;stroke-width:1.0;" />
        <path d="M940.2556,1032.875 Q940.4119,1032.6563 940.5994,1032.5469 Q940.7869,1032.4375 941.0056,1032.4375 Q941.3806,1032.4375 941.615,1032.7031 Q941.8494,1032.9531 941.8494,1033.5625 L941.8494,1035.0156 Q941.8494,1035.625 941.615,1035.8906 Q941.3806,1036.1563 941.0056,1036.1563 Q940.6619,1036.1563 940.4588,1035.9531 Q940.2556,1035.7656 940.1463,1035.25 Q940.0994,1034.8906 939.9119,1034.7031 Q939.5838,1034.3281 938.9744,1034.1094 Q938.365,1033.8906 937.74,1033.8906 Q936.9744,1033.8906 936.3338,1034.2188 Q935.7088,1034.5469 935.2088,1035.2969 Q934.7244,1036.0469 934.7244,1037.0781 L934.7244,1038.1719 Q934.7244,1039.4063 935.615,1040.2344 Q936.5056,1041.0469 938.0994,1041.0469 Q939.0369,1041.0469 939.6931,1040.7969 Q940.0838,1040.6406 940.5056,1040.2031 Q940.7713,1039.9375 940.9119,1039.8594 Q941.0681,1039.7813 941.2713,1039.7813 Q941.5994,1039.7813 941.8494,1040.0469 Q942.115,1040.2969 942.115,1040.6406 Q942.115,1040.9844 941.7713,1041.3906 Q941.2713,1041.9688 940.4744,1042.2969 Q939.3963,1042.75 938.0994,1042.75 Q936.5838,1042.75 935.3806,1042.125 Q934.3963,1041.625 933.7088,1040.5625 Q933.0213,1039.4844 933.0213,1038.2031 L933.0213,1037.0469 Q933.0213,1035.7188 933.6306,1034.5781 Q934.2556,1033.4219 935.3494,1032.8125 Q936.4431,1032.1875 937.6775,1032.1875 Q938.4119,1032.1875 939.0525,1032.3594 Q939.7088,1032.5156 940.2556,1032.875 Z " fill="#000000" /><text fill="#000000" font-family="sans-serif" font-size="12" lengthAdjust="spacingAndGlyphs" textLength="50" x="951.49" y="1041.9102">DBQuest</text>
        <line style="stroke:#A80036;stroke-width:1.5;" x1="923.49" x2="1003.49" y1="1053" y2="1053" />
        <line style="stroke:#A80036;stroke-width:1.5;" x1="923.49" x2="1003.49" y1="1061" y2="1061" />
        <!--MD5=[5c3dbddecf1908852e006f73e87b11f5]
entity Room-->
        <rect fill="#FFFFFF" filter="url(#f1rv1f3apa71n9)" height="37.6094" style="stroke:#000000;stroke-width:1.5;" width="57" x="700.99" y="1149" /><text fill="#000000" font-family="sans-serif" font-size="14" lengthAdjust="spacingAndGlyphs" textLength="37" x="710.99" y="1173.5332">Room</text>
        <!--MD5=[f50ff5e4cd64f259303fc83dba1819fc]
entity database-->
        <path d="M689.99,1257 C689.99,1247 729.49,1247 729.49,1247 C729.49,1247 768.99,1247 768.99,1257 L768.99,1283.6094 C768.99,1293.6094 729.49,1293.6094 729.49,1293.6094 C729.49,1293.6094 689.99,1293.6094 689.99,1283.6094 L689.99,1257 " fill="#FFFFFF" filter="url(#f1rv1f3apa71n9)" style="stroke:#000000;stroke-width:1.5;" />
        <path d="M689.99,1257 C689.99,1267 729.49,1267 729.49,1267 C729.49,1267 768.99,1267 768.99,1257 " fill="none" style="stroke:#000000;stroke-width:1.5;" /><text fill="#000000" font-family="sans-serif" font-size="14" lengthAdjust="spacingAndGlyphs" textLength="59" x="699.99" y="1285.5332">database</text>
        <!--MD5=[d33d14762bbd2308f4a7d9b7d8815839]
class Tools-->
        <rect codeLine="143" fill="#FEFECE" filter="url(#f1rv1f3apa71n9)" height="48" id="Tools" style="stroke:#A80036;stroke-width:1.5;" width="63" x="1330.99" y="436.5" />
        <ellipse cx="1345.99" cy="452.5" fill="#ADD1B2" rx="11" ry="11" style="stroke:#A80036;stroke-width:1.0;" />
        <path d="M1348.7556,448.375 Q1348.9119,448.1563 1349.0994,448.0469 Q1349.2869,447.9375 1349.5056,447.9375 Q1349.8806,447.9375 1350.115,448.2031 Q1350.3494,448.4531 1350.3494,449.0625 L1350.3494,450.5156 Q1350.3494,451.125 1350.115,451.3906 Q1349.8806,451.6563 1349.5056,451.6563 Q1349.1619,451.6563 1348.9588,451.4531 Q1348.7556,451.2656 1348.6463,450.75 Q1348.5994,450.3906 1348.4119,450.2031 Q1348.0838,449.8281 1347.4744,449.6094 Q1346.865,449.3906 1346.24,449.3906 Q1345.4744,449.3906 1344.8338,449.7188 Q1344.2088,450.0469 1343.7088,450.7969 Q1343.2244,451.5469 1343.2244,452.5781 L1343.2244,453.6719 Q1343.2244,454.9063 1344.115,455.7344 Q1345.0056,456.5469 1346.5994,456.5469 Q1347.5369,456.5469 1348.1931,456.2969 Q1348.5838,456.1406 1349.0056,455.7031 Q1349.2713,455.4375 1349.4119,455.3594 Q1349.5681,455.2813 1349.7713,455.2813 Q1350.0994,455.2813 1350.3494,455.5469 Q1350.615,455.7969 1350.615,456.1406 Q1350.615,456.4844 1350.2713,456.8906 Q1349.7713,457.4688 1348.9744,457.7969 Q1347.8963,458.25 1346.5994,458.25 Q1345.0838,458.25 1343.8806,457.625 Q1342.8963,457.125 1342.2088,456.0625 Q1341.5213,454.9844 1341.5213,453.7031 L1341.5213,452.5469 Q1341.5213,451.2188 1342.1306,450.0781 Q1342.7556,448.9219 1343.8494,448.3125 Q1344.9431,447.6875 1346.1775,447.6875 Q1346.9119,447.6875 1347.5525,447.8594 Q1348.2088,448.0156 1348.7556,448.375 Z " fill="#000000" /><text fill="#000000" font-family="sans-serif" font-size="12" lengthAdjust="spacingAndGlyphs" textLength="31" x="1359.99" y="457.4102">Tools</text>
        <line style="stroke:#A80036;stroke-width:1.5;" x1="1331.99" x2="1392.99" y1="468.5" y2="468.5" />
        <line style="stroke:#A80036;stroke-width:1.5;" x1="1331.99" x2="1392.99" y1="476.5" y2="476.5" />
        <!--MD5=[a14c15983673cdc294675f282256a1fb]
class MathExpressionEvaluator-->
        <rect codeLine="149" fill="#FEFECE" filter="url(#f1rv1f3apa71n9)" height="48" id="MathExpressionEvaluator" style="stroke:#A80036;stroke-width:1.5;" width="171" x="1428.99" y="436.5" />
        <ellipse cx="1443.99" cy="452.5" fill="#ADD1B2" rx="11" ry="11" style="stroke:#A80036;stroke-width:1.0;" />
        <path d="M1446.7556,448.375 Q1446.9119,448.1563 1447.0994,448.0469 Q1447.2869,447.9375 1447.5056,447.9375 Q1447.8806,447.9375 1448.115,448.2031 Q1448.3494,448.4531 1448.3494,449.0625 L1448.3494,450.5156 Q1448.3494,451.125 1448.115,451.3906 Q1447.8806,451.6563 1447.5056,451.6563 Q1447.1619,451.6563 1446.9588,451.4531 Q1446.7556,451.2656 1446.6463,450.75 Q1446.5994,450.3906 1446.4119,450.2031 Q1446.0838,449.8281 1445.4744,449.6094 Q1444.865,449.3906 1444.24,449.3906 Q1443.4744,449.3906 1442.8338,449.7188 Q1442.2088,450.0469 1441.7088,450.7969 Q1441.2244,451.5469 1441.2244,452.5781 L1441.2244,453.6719 Q1441.2244,454.9063 1442.115,455.7344 Q1443.0056,456.5469 1444.5994,456.5469 Q1445.5369,456.5469 1446.1931,456.2969 Q1446.5838,456.1406 1447.0056,455.7031 Q1447.2713,455.4375 1447.4119,455.3594 Q1447.5681,455.2813 1447.7713,455.2813 Q1448.0994,455.2813 1448.3494,455.5469 Q1448.615,455.7969 1448.615,456.1406 Q1448.615,456.4844 1448.2713,456.8906 Q1447.7713,457.4688 1446.9744,457.7969 Q1445.8963,458.25 1444.5994,458.25 Q1443.0838,458.25 1441.8806,457.625 Q1440.8963,457.125 1440.2088,456.0625 Q1439.5213,454.9844 1439.5213,453.7031 L1439.5213,452.5469 Q1439.5213,451.2188 1440.1306,450.0781 Q1440.7556,448.9219 1441.8494,448.3125 Q1442.9431,447.6875 1444.1775,447.6875 Q1444.9119,447.6875 1445.5525,447.8594 Q1446.2088,448.0156 1446.7556,448.375 Z " fill="#000000" /><text fill="#000000" font-family="sans-serif" font-size="12" lengthAdjust="spacingAndGlyphs" textLength="139" x="1457.99" y="457.4102">MathExpressionEvaluator</text>
        <line style="stroke:#A80036;stroke-width:1.5;" x1="1429.99" x2="1598.99" y1="468.5" y2="468.5" />
        <line style="stroke:#A80036;stroke-width:1.5;" x1="1429.99" x2="1598.99" y1="476.5" y2="476.5" />
        <!--MD5=[39ea6daa9ffb63272d13e82bf562ca71]
class AuthTools-->
        <rect codeLine="151" fill="#FEFECE" filter="url(#f1rv1f3apa71n9)" height="48" id="AuthTools" style="stroke:#A80036;stroke-width:1.5;" width="87" x="1330.99" y="620.5" />
        <ellipse cx="1345.99" cy="636.5" fill="#ADD1B2" rx="11" ry="11" style="stroke:#A80036;stroke-width:1.0;" />
        <path d="M1348.7556,632.375 Q1348.9119,632.1563 1349.0994,632.0469 Q1349.2869,631.9375 1349.5056,631.9375 Q1349.8806,631.9375 1350.115,632.2031 Q1350.3494,632.4531 1350.3494,633.0625 L1350.3494,634.5156 Q1350.3494,635.125 1350.115,635.3906 Q1349.8806,635.6563 1349.5056,635.6563 Q1349.1619,635.6563 1348.9588,635.4531 Q1348.7556,635.2656 1348.6463,634.75 Q1348.5994,634.3906 1348.4119,634.2031 Q1348.0838,633.8281 1347.4744,633.6094 Q1346.865,633.3906 1346.24,633.3906 Q1345.4744,633.3906 1344.8338,633.7188 Q1344.2088,634.0469 1343.7088,634.7969 Q1343.2244,635.5469 1343.2244,636.5781 L1343.2244,637.6719 Q1343.2244,638.9063 1344.115,639.7344 Q1345.0056,640.5469 1346.5994,640.5469 Q1347.5369,640.5469 1348.1931,640.2969 Q1348.5838,640.1406 1349.0056,639.7031 Q1349.2713,639.4375 1349.4119,639.3594 Q1349.5681,639.2813 1349.7713,639.2813 Q1350.0994,639.2813 1350.3494,639.5469 Q1350.615,639.7969 1350.615,640.1406 Q1350.615,640.4844 1350.2713,640.8906 Q1349.7713,641.4688 1348.9744,641.7969 Q1347.8963,642.25 1346.5994,642.25 Q1345.0838,642.25 1343.8806,641.625 Q1342.8963,641.125 1342.2088,640.0625 Q1341.5213,638.9844 1341.5213,637.7031 L1341.5213,636.5469 Q1341.5213,635.2188 1342.1306,634.0781 Q1342.7556,632.9219 1343.8494,632.3125 Q1344.9431,631.6875 1346.1775,631.6875 Q1346.9119,631.6875 1347.5525,631.8594 Q1348.2088,632.0156 1348.7556,632.375 Z " fill="#000000" /><text fill="#000000" font-family="sans-serif" font-size="12" lengthAdjust="spacingAndGlyphs" textLength="55" x="1359.99" y="641.4102">AuthTools</text>
        <line style="stroke:#A80036;stroke-width:1.5;" x1="1331.99" x2="1416.99" y1="652.5" y2="652.5" />
        <line style="stroke:#A80036;stroke-width:1.5;" x1="1331.99" x2="1416.99" y1="660.5" y2="660.5" />
        <!--MD5=[9bfaaa8690e7f6bac5a674fd90d05565]
class SplashScreen-->
        <rect codeLine="156" fill="#FEFECE" filter="url(#f1rv1f3apa71n9)" height="48" id="SplashScreen" style="stroke:#A80036;stroke-width:1.5;" width="110" x="1307.49" y="164.5" />
        <ellipse cx="1322.49" cy="180.5" fill="#ADD1B2" rx="11" ry="11" style="stroke:#A80036;stroke-width:1.0;" />
        <path d="M1325.2556,176.375 Q1325.4119,176.1563 1325.5994,176.0469 Q1325.7869,175.9375 1326.0056,175.9375 Q1326.3806,175.9375 1326.615,176.2031 Q1326.8494,176.4531 1326.8494,177.0625 L1326.8494,178.5156 Q1326.8494,179.125 1326.615,179.3906 Q1326.3806,179.6563 1326.0056,179.6563 Q1325.6619,179.6563 1325.4588,179.4531 Q1325.2556,179.2656 1325.1463,178.75 Q1325.0994,178.3906 1324.9119,178.2031 Q1324.5838,177.8281 1323.9744,177.6094 Q1323.365,177.3906 1322.74,177.3906 Q1321.9744,177.3906 1321.3338,177.7188 Q1320.7088,178.0469 1320.2088,178.7969 Q1319.7244,179.5469 1319.7244,180.5781 L1319.7244,181.6719 Q1319.7244,182.9063 1320.615,183.7344 Q1321.5056,184.5469 1323.0994,184.5469 Q1324.0369,184.5469 1324.6931,184.2969 Q1325.0838,184.1406 1325.5056,183.7031 Q1325.7713,183.4375 1325.9119,183.3594 Q1326.0681,183.2813 1326.2713,183.2813 Q1326.5994,183.2813 1326.8494,183.5469 Q1327.115,183.7969 1327.115,184.1406 Q1327.115,184.4844 1326.7713,184.8906 Q1326.2713,185.4688 1325.4744,185.7969 Q1324.3963,186.25 1323.0994,186.25 Q1321.5838,186.25 1320.3806,185.625 Q1319.3963,185.125 1318.7088,184.0625 Q1318.0213,182.9844 1318.0213,181.7031 L1318.0213,180.5469 Q1318.0213,179.2188 1318.6306,178.0781 Q1319.2556,176.9219 1320.3494,176.3125 Q1321.4431,175.6875 1322.6775,175.6875 Q1323.4119,175.6875 1324.0525,175.8594 Q1324.7088,176.0156 1325.2556,176.375 Z " fill="#000000" /><text fill="#000000" font-family="sans-serif" font-size="12" lengthAdjust="spacingAndGlyphs" textLength="78" x="1336.49" y="185.4102">SplashScreen</text>
        <line style="stroke:#A80036;stroke-width:1.5;" x1="1308.49" x2="1416.49" y1="196.5" y2="196.5" />
        <line style="stroke:#A80036;stroke-width:1.5;" x1="1308.49" x2="1416.49" y1="204.5" y2="204.5" />
        <!--MD5=[c2d54e5072ce59508e3197faccb3074c]
link GamesActivity to GamesAdapter-->
        <path codeLine="9" d="M1024.49,212.52 C1024.49,261.81 1024.49,377.44 1024.49,431.15 " fill="none" id="GamesActivity-to-GamesAdapter" style="stroke:#A80036;stroke-width:1.0;stroke-dasharray:7.0,7.0;" />
        <polygon fill="#A80036" points="1024.49,436.15,1028.49,427.15,1024.49,431.15,1020.49,427.15,1024.49,436.15" style="stroke:#A80036;stroke-width:1.0;" />
        <!--MD5=[fbbd8b13cf71af252ba309eb4df5b566]
link LibraryActivity to LibraryAdapter-->
        <path codeLine="15" d="M503.49,212.52 C503.49,261.81 503.49,377.44 503.49,431.15 " fill="none" id="LibraryActivity-to-LibraryAdapter" style="stroke:#A80036;stroke-width:1.0;stroke-dasharray:7.0,7.0;" />
        <polygon fill="#A80036" points="503.49,436.15,507.49,427.15,503.49,431.15,499.49,427.15,503.49,436.15" style="stroke:#A80036;stroke-width:1.0;" />
        <!--MD5=[406d1d2b7d4b0e89443ca7146736e8a9]
link QuestManageActivity to CharPDataAdapter-->
        <path codeLine="21" d="M838.83,212.52 C839.56,261.81 841.27,377.44 842.07,431.15 " fill="none" id="QuestManageActivity-to-CharPDataAdapter" style="stroke:#A80036;stroke-width:1.0;stroke-dasharray:7.0,7.0;" />
        <polygon fill="#A80036" points="842.14,436.15,846.011,427.0938,842.0686,431.1505,838.0118,427.2081,842.14,436.15" style="stroke:#A80036;stroke-width:1.0;" />
        <!--MD5=[4680f49e9f91cbd400bd37d1f089a017]
link QuestManageActivity to CharPAddDialog-->
        <path codeLine="22" d="M824.76,212.52 C795.25,262.01 725.86,378.38 694.01,431.8 " fill="none" id="QuestManageActivity-to-CharPAddDialog" style="stroke:#A80036;stroke-width:1.0;stroke-dasharray:7.0,7.0;" />
        <polygon fill="#A80036" points="691.41,436.15,699.4704,430.4905,693.9825,431.8625,692.6105,426.3746,691.41,436.15" style="stroke:#A80036;stroke-width:1.0;" />
        <!--MD5=[822e52679b4b0ad8ca2cab24ff4bccee]
link PlayActivity to CharParamsAdapter-->
        <path codeLine="29" d="M318.49,212.52 C318.49,261.81 318.49,377.44 318.49,431.15 " fill="none" id="PlayActivity-to-CharParamsAdapter" style="stroke:#A80036;stroke-width:1.0;stroke-dasharray:7.0,7.0;" />
        <polygon fill="#A80036" points="318.49,436.15,322.49,427.15,318.49,431.15,314.49,427.15,318.49,436.15" style="stroke:#A80036;stroke-width:1.0;" />
        <!--MD5=[2978e5f152910aef7be4f08d914e318e]
link PlayActivity to LinksAdapter-->
        <path codeLine="30" d="M304.85,212.52 C275.52,262.01 206.56,378.38 174.9,431.8 " fill="none" id="PlayActivity-to-LinksAdapter" style="stroke:#A80036;stroke-width:1.0;stroke-dasharray:7.0,7.0;" />
        <polygon fill="#A80036" points="172.32,436.15,180.3582,430.459,174.8757,431.8525,173.4822,426.37,172.32,436.15" style="stroke:#A80036;stroke-width:1.0;" />
        <!--MD5=[6c20ce9809655cad7865c6e66051ce1f]
reverse link TQStory to TQQuest-->
        <path codeLine="60" d="M2045.56,325.78 C2077.26,351.64 2108.88,377.43 2135.78,399.37 " fill="none" id="TQStory-backto-TQQuest" style="stroke:#A80036;stroke-width:1.0;" />
        <polygon fill="#A80036" points="2035.27,317.38,2037.3856,324.2738,2044.5628,324.9724,2042.4472,318.0786,2035.27,317.38" style="stroke:#A80036;stroke-width:1.0;" />
        <!--MD5=[1e8ca176761ef62afb497fba1733130c]
reverse link TQStory to TQCharacter-->
        <path codeLine="61" d="M1878.49,348.41 C1878.49,367.42 1878.49,385.77 1878.49,401.9 " fill="none" id="TQStory-backto-TQCharacter" style="stroke:#A80036;stroke-width:1.0;" />
        <polygon fill="#A80036" points="1878.49,335.17,1874.49,341.17,1878.49,347.17,1882.49,341.17,1878.49,335.17" style="stroke:#A80036;stroke-width:1.0;" />
        <!--MD5=[f8fecb4fb81a3f628e3ad9afdbdc6275]
reverse link TQQuest to TwPassage-->
        <path codeLine="78" d="M2209.49,539.2 C2209.49,554.9 2209.49,571.13 2209.49,585.99 " fill="none" id="TQQuest-backto-TwPassage" style="stroke:#A80036;stroke-width:1.0;" />
        <polygon fill="#A80036" points="2209.49,526.18,2205.49,532.18,2209.49,538.18,2213.49,532.18,2209.49,526.18" style="stroke:#A80036;stroke-width:1.0;" />
        <!--MD5=[f9a186672d74db6dfde672b916f8b68d]
reverse link TwPassage to TwPosition-->
        <path codeLine="86" d="M2215.21,716.52 C2216.68,734.85 2218.21,753.85 2219.49,769.69 " fill="none" id="TwPassage-backto-TwPosition" style="stroke:#A80036;stroke-width:1.0;" />
        <polygon fill="#A80036" points="2214.15,703.35,2210.6437,709.6513,2215.1117,715.3114,2218.618,709.0102,2214.15,703.35" style="stroke:#A80036;stroke-width:1.0;" />
        <!--MD5=[bf96f5c28184c4ba9ba8fafc20bc98fd]
reverse link TwPassage to TwLink-->
        <path codeLine="87" d="M2161.49,714.1 C2149.91,730.65 2137.84,747.9 2127.29,762.98 " fill="none" id="TwPassage-backto-TwLink" style="stroke:#A80036;stroke-width:1.0;" />
        <polygon fill="#A80036" points="2169.01,703.35,2162.2928,705.9728,2162.1302,713.182,2168.8475,710.5593,2169.01,703.35" style="stroke:#A80036;stroke-width:1.0;" />
        <!--MD5=[1261b6ba1765339b52e7fc92bca84d81]
link LibraryAdapter to CloudManager-->
        <path codeLine="101" d="M524.51,484.55 C555.24,518.24 612.29,580.78 644.91,616.55 " fill="none" id="LibraryAdapter-to-CloudManager" style="stroke:#A80036;stroke-width:1.0;" />
        <polygon fill="#A80036" points="648.38,620.35,645.2749,611.0034,645.0124,616.6542,639.3616,616.3916,648.38,620.35" style="stroke:#A80036;stroke-width:1.0;" />
        <!--MD5=[8fc30395bb18e3e477eb3b167406f40c]
link PlayActivity to TQManager-->
        <path codeLine="104" d="M328.81,212.52 C345.21,246.06 380.64,307.34 431.49,335 C562.18,406.09 997.91,282.88 1098.49,392.5 C1140.56,438.35 1124.44,475.95 1098.49,532.5 C1081.64,569.23 1045.97,598.4 1016.4,617.6 " fill="none" id="PlayActivity-to-TQManager" style="stroke:#A80036;stroke-width:1.0;" />
        <polygon fill="#A80036" points="1012.09,620.36,1021.8295,618.8964,1016.3065,617.6728,1017.5301,612.1499,1012.09,620.36" style="stroke:#A80036;stroke-width:1.0;" />
        <!--MD5=[fda85b66b9309bc63c22455ac4439318]
link QuestManageActivity to TQManager-->
        <path codeLine="105" d="M850.07,212.72 C867.42,245.08 903.22,303.32 950.49,335 C1031.23,389.11 1102.48,315.26 1161.49,392.5 C1199.26,441.94 1192.59,478.6 1161.49,532.5 C1131.88,583.82 1068.49,613.55 1022.63,629.11 " fill="none" id="QuestManageActivity-to-TQManager" style="stroke:#A80036;stroke-width:1.0;" />
        <polygon fill="#A80036" points="1017.69,630.75,1027.4913,631.7164,1022.4363,629.1774,1024.9752,624.1224,1017.69,630.75" style="stroke:#A80036;stroke-width:1.0;" />
        <!--MD5=[455dee42191eb917e24148b3e09d339b]
link GamesActivity to TQManager-->
        <path codeLine="106" d="M1016.48,212.55 C1003.46,246.12 974.24,307.45 926.49,335 C765.2,428.07 217.57,256.38 90.49,392.5 C48.03,437.98 47.03,487.97 90.49,532.5 C122.59,565.39 878.02,528.95 917.49,552.5 C940.35,566.14 954.06,593.9 961.62,615.19 " fill="none" id="GamesActivity-to-TQManager" style="stroke:#A80036;stroke-width:1.0;" />
        <polygon fill="#A80036" points="963.32,620.18,964.1978,610.3703,961.7046,615.4481,956.6268,612.955,963.32,620.18" style="stroke:#A80036;stroke-width:1.0;" />
        <!--MD5=[674228d15416e679da44c1ff5de87e31]
link LibraryActivity to TQManager-->
        <path codeLine="107" d="M495.23,212.54 C482.12,245.52 453.25,305.45 407.49,335 C272.12,422.42 154.02,269.85 49.49,392.5 C9.13,439.86 6,488 49.49,532.5 C83.2,567 876.05,527.81 917.49,552.5 C940.36,566.12 954.07,593.89 961.62,615.19 " fill="none" id="LibraryActivity-to-TQManager" style="stroke:#A80036;stroke-width:1.0;" />
        <polygon fill="#A80036" points="963.32,620.17,964.2333,610.3636,961.7217,615.4323,956.653,612.9208,963.32,620.17" style="stroke:#A80036;stroke-width:1.0;" />
        <!--MD5=[27b1abd6c8fceb3afdf9c24105e14bbd]
link TQManager to AppDatabase-->
        <path codeLine="108" d="M951.01,668.64 C930.81,693.93 898.04,734.96 873.42,765.78 " fill="none" id="TQManager-to-AppDatabase" style="stroke:#A80036;stroke-width:1.0;" />
        <polygon fill="#A80036" points="870.15,769.87,878.8836,765.3176,873.263,765.9573,872.6233,760.3367,870.15,769.87" style="stroke:#A80036;stroke-width:1.0;" />
        <!--MD5=[18de7b75e9441f3120b616a276f43857]
link TQManager to DBGamesDao-->
        <path codeLine="109" d="M967.73,668.6 C963.36,723.83 951.47,860.22 939.49,877 C931.74,887.87 906.65,900.98 881.5,912.07 " fill="none" id="TQManager-to-DBGamesDao" style="stroke:#A80036;stroke-width:1.0;" />
        <polygon fill="#A80036" points="876.81,914.12,886.6587,914.1773,881.3908,912.1159,883.4521,906.848,876.81,914.12" style="stroke:#A80036;stroke-width:1.0;" />
        <!--MD5=[a42eb2d24cafac8065e4933d97346bad]
link TQManager to DBQuestsDao-->
        <path codeLine="110" d="M969.35,668.5 C969.1,710.11 968.47,800.64 967.49,877 C967.36,886.94 967.19,897.82 967.02,907.5 " fill="none" id="TQManager-to-DBQuestsDao" style="stroke:#A80036;stroke-width:1.0;" />
        <polygon fill="#A80036" points="966.93,912.74,971.0837,903.8099,967.0157,907.7407,963.0849,903.6728,966.93,912.74" style="stroke:#A80036;stroke-width:1.0;" />
        <!--MD5=[c6f5b60e8e72475874f8d201cd72a727]
link AppDatabase to DBGamesDao-->
        <path codeLine="115" d="M834.65,846.08 C831.55,865.75 827.81,889.55 824.94,907.71 " fill="none" id="AppDatabase-to-DBGamesDao" style="stroke:#A80036;stroke-width:1.0;stroke-dasharray:7.0,7.0;" />
        <polygon fill="#A80036" points="824.16,912.68,829.5233,904.4196,824.9449,907.742,821.6225,903.1636,824.16,912.68" style="stroke:#A80036;stroke-width:1.0;" />
        <!--MD5=[f495037889afeb5c0ccad5c986a19273]
link AppDatabase to DBQuestsDao-->
        <path codeLine="116" d="M877.27,846.08 C897.29,866.25 921.61,890.77 939.8,909.1 " fill="none" id="AppDatabase-to-DBQuestsDao" style="stroke:#A80036;stroke-width:1.0;stroke-dasharray:7.0,7.0;" />
        <polygon fill="#A80036" points="943.36,912.68,939.8616,903.4734,939.8388,909.1302,934.1819,909.1074,943.36,912.68" style="stroke:#A80036;stroke-width:1.0;" />
        <!--MD5=[9704f6016b445298223fbff1aee607b0]
link DBGamesDao to DBGame-->
        <path codeLine="120" d="M821.36,961 C821.96,977 822.77,998.45 823.42,1015.53 " fill="none" id="DBGamesDao-to-DBGame" style="stroke:#A80036;stroke-width:1.0;stroke-dasharray:7.0,7.0;" />
        <polygon fill="#A80036" points="823.61,1020.68,827.2732,1011.5377,823.4244,1015.6834,819.2787,1011.8347,823.61,1020.68" style="stroke:#A80036;stroke-width:1.0;" />
        <!--MD5=[f7df9121e8df3508748553ae559a8494]
link DBQuestsDao to DBQuest-->
        <path codeLine="125" d="M965.84,961 C965.39,977 964.78,998.45 964.3,1015.53 " fill="none" id="DBQuestsDao-to-DBQuest" style="stroke:#A80036;stroke-width:1.0;stroke-dasharray:7.0,7.0;" />
        <polygon fill="#A80036" points="964.15,1020.68,968.4054,1011.7979,964.2928,1015.682,960.4087,1011.5694,964.15,1020.68" style="stroke:#A80036;stroke-width:1.0;" />
        <!--MD5=[3315ee75c828034ae198b8a1a70935a2]
link AppDatabase to Room-->
        <path codeLine="129" d="M791.81,846.14 C751.41,880.28 696.93,934.92 673.49,997 C650.88,1056.87 639.06,1087.05 673.49,1141 C679.66,1150.67 690.46,1156.8 700.93,1160.65 " fill="none" id="AppDatabase-Room" style="stroke:#A80036;stroke-width:1.0;" />
        <!--MD5=[8639dfa9bccde9e21752e42b5e104b06]
link DBGamesDao to Room-->
        <path codeLine="130" d="M764.37,952.17 C741.34,961.05 716.97,975.11 703.49,997 C669.94,1051.5 679,1081.87 703.49,1141 C704.61,1143.71 706.17,1146.29 707.98,1148.69 " fill="none" id="DBGamesDao-Room" style="stroke:#A80036;stroke-width:1.0;" />
        <!--MD5=[5f3b133c346f94539bc91a6a85f80828]
link DBGame to Room-->
        <path codeLine="131" d="M809.28,1069.02 C795.89,1088.75 775.48,1117.59 755.49,1141 C753.25,1143.62 750.8,1146.29 748.33,1148.88 " fill="none" id="DBGame-Room" style="stroke:#A80036;stroke-width:1.0;" />
        <!--MD5=[793928fb89fedc31b3d935e363225383]
link DBQuestsDao to Room-->
        <path codeLine="132" d="M911.13,955.9 C905.51,957.65 899.89,959.38 894.49,961 C837.89,977.99 807.01,953.98 766.49,997 C726.52,1039.44 725.79,1114.51 727.85,1148.89 " fill="none" id="DBQuestsDao-Room" style="stroke:#A80036;stroke-width:1.0;" />
        <!--MD5=[ef494be9d264b9c6b789d5685be0b029]
link DBQuest to Room-->
        <path codeLine="133" d="M950.32,1069.25 C936.45,1091.45 912.46,1123.98 882.49,1141 C843.48,1163.16 790.5,1167.49 758.21,1167.81 " fill="none" id="DBQuest-Room" style="stroke:#A80036;stroke-width:1.0;" />
        <!--MD5=[079d7edb91bedd0795cdbf396671d200]
link Room to database-->
        <path codeLine="137" d="M729.49,1187.43 C729.49,1204.21 729.49,1229.01 729.49,1246.96 " fill="none" id="Room-database" style="stroke:#A80036;stroke-width:1.0;" />
        <!--MD5=[aa7a1f4a73632c404959f69fd915e3a8]
link Tools to TQManager-->
        <path codeLine="144" d="M1330.9,479.92 C1304.86,494.81 1266.77,515.96 1232.49,532.5 C1161,567 1076.02,601.78 1022.41,622.98 " fill="none" id="Tools-to-TQManager" style="stroke:#A80036;stroke-width:1.0;stroke-dasharray:7.0,7.0;" />
        <polygon fill="#A80036" points="1017.64,624.87,1027.4804,625.2779,1022.2892,623.0303,1024.5368,617.8391,1017.64,624.87" style="stroke:#A80036;stroke-width:1.0;" />
        <!--MD5=[239573e40901dc88e6f54e3a9dc49f16]
link MainActivity to Tools-->
        <path codeLine="145" d="M1200.58,212.52 C1233.03,262.01 1309.31,378.38 1344.33,431.8 " fill="none" id="MainActivity-to-Tools" style="stroke:#A80036;stroke-width:1.0;" />
        <polygon fill="#A80036" points="1347.19,436.15,1345.6028,426.4299,1344.4495,431.9679,1338.9115,430.8146,1347.19,436.15" style="stroke:#A80036;stroke-width:1.0;" />
        <!--MD5=[d07aeec7d4eaac39eaaa5b6fa7018127]
link GamesActivity to Tools-->
        <path codeLine="146" d="M1035.37,212.53 C1050.99,243.62 1082.37,299.22 1122.49,335 C1124.6,336.88 1259.76,406.6 1326.29,440.86 " fill="none" id="GamesActivity-to-Tools" style="stroke:#A80036;stroke-width:1.0;" />
        <polygon fill="#A80036" points="1330.96,443.27,1324.7964,435.5882,1326.5167,440.9771,1321.1278,442.6975,1330.96,443.27" style="stroke:#A80036;stroke-width:1.0;" />
        <!--MD5=[afc2bd7823931ceb5d7490393a86f6da]
link QuestManageActivity to Tools-->
        <path codeLine="147" d="M849.51,212.6 C866.41,245.36 901.95,304.7 950.49,335 C1059,402.72 1111.84,350.02 1232.49,392.5 C1265.52,404.13 1300.69,422.67 1326.11,437.31 " fill="none" id="QuestManageActivity-to-Tools" style="stroke:#A80036;stroke-width:1.0;" />
        <polygon fill="#A80036" points="1330.74,439.99,1324.947,432.025,1326.4103,437.4893,1320.9459,438.9526,1330.74,439.99" style="stroke:#A80036;stroke-width:1.0;" />
        <!--MD5=[7db9d575fb43ef03051e59c4caa60594]
link LibraryActivity to Tools-->
        <path codeLine="148" d="M511.42,212.62 C524.21,245.97 552.77,306.69 599.49,335 C706.86,400.06 1038.76,366.1 1161.49,392.5 C1220.41,405.17 1286.24,429.07 1326,444.63 " fill="none" id="LibraryActivity-to-Tools" style="stroke:#A80036;stroke-width:1.0;" />
        <polygon fill="#A80036" points="1330.72,446.48,1323.8119,439.4602,1326.0678,444.6478,1320.8803,446.9037,1330.72,446.48" style="stroke:#A80036;stroke-width:1.0;" />
        <!--MD5=[39aed5e9189b398d2995a590a24cf3b2]
link TQStory to MathExpressionEvaluator-->
        <path codeLine="150" d="M1721.74,305.77 C1658.02,353.03 1590.09,403.43 1550.01,433.16 " fill="none" id="TQStory-to-MathExpressionEvaluator" style="stroke:#A80036;stroke-width:1.0;" />
        <polygon fill="#A80036" points="1545.74,436.32,1555.3487,434.1584,1549.752,433.336,1550.5743,427.7393,1545.74,436.32" style="stroke:#A80036;stroke-width:1.0;" />
        <!--MD5=[0461bff24aa3d6713d86e9cf5acd0a99]
link Tools to AuthTools-->
        <path codeLine="152" d="M1364.01,484.55 C1366.2,517.83 1370.26,579.27 1372.63,615.23 " fill="none" id="Tools-to-AuthTools" style="stroke:#A80036;stroke-width:1.0;stroke-dasharray:7.0,7.0;" />
        <polygon fill="#A80036" points="1372.96,620.35,1376.3595,611.1064,1372.6312,615.3608,1368.3768,611.6325,1372.96,620.35" style="stroke:#A80036;stroke-width:1.0;" />
        <!--MD5=[482aff5f6dc337628469f04ef407d329]
link MainActivity to AuthTools-->
        <path codeLine="153" d="M1192.9,212.85 C1210.98,268.98 1259.85,415.5 1313.49,532.5 C1326.84,561.61 1344.74,593.53 1357.7,615.63 " fill="none" id="MainActivity-to-AuthTools" style="stroke:#A80036;stroke-width:1.0;" />
        <polygon fill="#A80036" points="1360.38,620.19,1359.266,610.4043,1357.8455,615.88,1352.3699,614.4595,1360.38,620.19" style="stroke:#A80036;stroke-width:1.0;" />
        <!--MD5=[849a9c04eb9bf1200834b80bf8dc4450]
link SplashScreen to Tools-->
        <path codeLine="157" d="M1362.49,212.52 C1362.49,261.81 1362.49,377.44 1362.49,431.15 " fill="none" id="SplashScreen-to-Tools" style="stroke:#A80036;stroke-width:1.0;" />
        <polygon fill="#A80036" points="1362.49,436.15,1366.49,427.15,1362.49,431.15,1358.49,427.15,1362.49,436.15" style="stroke:#A80036;stroke-width:1.0;" />
        <!--MD5=[2c092a3c1c5fecf0ae7a94a9a72b23b2]
@startuml

together {
  package mainactivity {
    class MainActivity
  }

  package gamesactivity {
    class GamesActivity
    GamesActivity ..> GamesAdapter
    class GamesAdapter
  }

  package libraryactivity {
    class LibraryActivity
    LibraryActivity ..> LibraryAdapter
    class LibraryAdapter
  }

  package questmanageactivity {
    class QuestManageActivity
    QuestManageActivity ..> CharPDataAdapter
    QuestManageActivity ..> CharPAddDialog
    class CharPDataAdapter
    class CharPAddDialog
  }

  package playactivity {
    class PlayActivity
    PlayActivity ..> CharParamsAdapter
    PlayActivity ..> LinksAdapter
    class CharParamsAdapter
    class LinksAdapter
  }
}

package story {
  class TQStory {
    -title : String
    -author : String
    -character : TQCharacter
    -tqquest : TQQuest
    -currentPassage : TwPassage
    -mathExpressionEvaluator : MathExpressionEvaluator
    __
    +getPassageByPid(int pid) : TwPassage
    +getPassageByName(String name) : TwPassage
    ..
    +getCurrentPassagePid() : int
    +getCurrentPassageName() : String
    +processCurrentPassage() : String
    +getCurrentPassageLinks() : TwLink
    +goByLinkNumber(int linkNumber)
    ..
    +getCurrentCharacterProperties() : HashMap<String,String>
    +getCurrentCharacterParameters() : HashMap<String,String>
    ..
    +isEnd() : boolean
  }

  TQStory *- - TQQuest
  TQStory *- - TQCharacter
  class TQCharacter {
    +properties : HashMap<String, String>
    +parameters : HashMap<String, String>

    +TQCharacter()
    +TQCharacter(HashMap<String,String> properties, HashMap<String,String> parameters)
    +TQCharacter(String propertiesJson, String parametersJson)
  }
  class TQQuest {
    +passages : TwPassage[]
    +name : String
    +startnode : int
    +creator : String
    +creator_version : String
    +ifid : String
  }
  TQQuest *- - TwPassage
  class TwPassage {
    +text : String
    +links : TwLink[]
    +name : String
    +pid : int
    +position : TwPosition
  }
  TwPassage *- - TwPosition
  TwPassage *- - TwLink
  class TwPosition {
    +x : float
    +y : float
  }
  class TwLink {
    +name : String
    +link : String
    +pid : int
  }
}

package tqmanager {
  class CloudManager
  LibraryAdapter - -> CloudManager
  together {
    class TQManager
    PlayActivity - -> TQManager
    QuestManageActivity - -> TQManager
    GamesActivity - -> TQManager
    LibraryActivity - -> TQManager
    TQManager - -> AppDatabase
    TQManager - -> DBGamesDao
    TQManager - -> DBQuestsDao
    class AppDatabase {
      +questsDao() : DBQuestsDao
      +gamesDao() : DBGamesDao
    }
    AppDatabase ..> DBGamesDao
    AppDatabase ..> DBQuestsDao
    together {
      class DBGame
      interface DBGamesDao
      DBGamesDao ..> DBGame
    }
    together {
      class DBQuest
      interface DBQuestsDao
      DBQuestsDao ..> DBQuest
    }
  }
}
AppDatabase - - Room
DBGamesDao - - Room
DBGame - - Room
DBQuestsDao - - Room
DBQuest - - Room
package Room <<Rectangle>> {

}
Room - - database
database database {

}

package tools {
  class Tools
  Tools ..> TQManager
  MainActivity - -> Tools
  GamesActivity - -> Tools
  QuestManageActivity - -> Tools
  LibraryActivity - -> Tools
  class MathExpressionEvaluator
  TQStory - -> MathExpressionEvaluator
  class AuthTools
  Tools ..> AuthTools
  MainActivity - -> AuthTools
}

class SplashScreen
SplashScreen - -> Tools

@enduml

PlantUML version 1.2020.26(Mon Dec 21 20:45:07 MSK 2020)
(GPL source distribution)
Java Runtime: Java(TM) SE Runtime Environment
JVM: Java HotSpot(TM) 64-Bit Server VM
Default Encoding: Cp1251
Language: ru
Country: RU
-->
    </g>
</svg>