<?xml version="1.0" encoding="UTF-8" standalone="no"?><svg xmlns="http://www.w3.org/2000/svg" xmlns:xlink="http://www.w3.org/1999/xlink" contentScriptType="application/ecmascript" contentStyleType="text/css" height="1280px" preserveAspectRatio="none" style="width:2550px;height:1280px;" version="1.1" viewBox="0 0 2550 1280" width="2550px" zoomAndPan="magnify">
    <defs>
        <filter height="300%" id="f1xrng9q76fmo" width="300%" x="-1" y="-1">
            <feGaussianBlur result="blurOut" stdDeviation="2.0" />
            <feColorMatrix in="blurOut" result="blurOut2" type="matrix" values="0 0 0 0 0 0 0 0 0 0 0 0 0 0 0 0 0 0 .4 0" />
            <feOffset dx="4.0" dy="4.0" in="blurOut2" result="blurOut3" />
            <feBlend in="SourceGraphic" in2="blurOut3" mode="normal" />
        </filter>
    </defs>
    <g>
        <!--MD5=[a7dbdc0b8bb5b5ed3a72adbe6a8d4ac3]
cluster mainactivity-->
        <polygon fill="#FFFFFF" filter="url(#f1xrng9q76fmo)" points="1049,128.5,1138,128.5,1145,152.1094,1175,152.1094,1175,228.5,1049,228.5,1049,128.5" style="stroke:#000000;stroke-width:1.5;" />
        <line style="stroke:#000000;stroke-width:1.5;" x1="1049" x2="1145" y1="152.1094" y2="152.1094" /><text fill="#000000" font-family="sans-serif" font-size="14" font-weight="bold" lengthAdjust="spacingAndGlyphs" textLength="83" x="1053" y="145.0332">mainactivity</text>
        <!--MD5=[866a7bdbaf6d6fc8688648556c16b65b]
cluster gamesactivity-->
        <polygon fill="#FFFFFF" filter="url(#f1xrng9q76fmo)" points="2059,128.5,2161,128.5,2168,152.1094,2207,152.1094,2207,500.5,2059,500.5,2059,128.5" style="stroke:#000000;stroke-width:1.5;" />
        <line style="stroke:#000000;stroke-width:1.5;" x1="2059" x2="2168" y1="152.1094" y2="152.1094" /><text fill="#000000" font-family="sans-serif" font-size="14" font-weight="bold" lengthAdjust="spacingAndGlyphs" textLength="96" x="2063" y="145.0332">gamesactivity</text>
        <!--MD5=[98882353e20ded25b9a79688148816b9]
cluster libraryactivity-->
        <polygon fill="#FFFFFF" filter="url(#f1xrng9q76fmo)" points="1550,128.5,1650,128.5,1657,152.1094,1694,152.1094,1694,500.5,1550,500.5,1550,128.5" style="stroke:#000000;stroke-width:1.5;" />
        <line style="stroke:#000000;stroke-width:1.5;" x1="1550" x2="1657" y1="152.1094" y2="152.1094" /><text fill="#000000" font-family="sans-serif" font-size="14" font-weight="bold" lengthAdjust="spacingAndGlyphs" textLength="94" x="1554" y="145.0332">libraryactivity</text>
        <!--MD5=[2a01a1b90e973430dd212fa4899a7709]
cluster questmanageactivity-->
        <polygon fill="#FFFFFF" filter="url(#f1xrng9q76fmo)" points="1199,128.5,1350,128.5,1357,152.1094,1526,152.1094,1526,500.5,1199,500.5,1199,128.5" style="stroke:#000000;stroke-width:1.5;" />
        <line style="stroke:#000000;stroke-width:1.5;" x1="1199" x2="1357" y1="152.1094" y2="152.1094" /><text fill="#000000" font-family="sans-serif" font-size="14" font-weight="bold" lengthAdjust="spacingAndGlyphs" textLength="145" x="1203" y="145.0332">questmanageactivity</text>
        <!--MD5=[b54262be89c5dcf7054f02c0a9a9e495]
cluster playactivity-->
        <polygon fill="#FFFFFF" filter="url(#f1xrng9q76fmo)" points="1718,128.5,1802,128.5,1809,152.1094,2035,152.1094,2035,500.5,1718,500.5,1718,128.5" style="stroke:#000000;stroke-width:1.5;" />
        <line style="stroke:#000000;stroke-width:1.5;" x1="1718" x2="1809" y1="152.1094" y2="152.1094" /><text fill="#000000" font-family="sans-serif" font-size="14" font-weight="bold" lengthAdjust="spacingAndGlyphs" textLength="78" x="1722" y="145.0332">playactivity</text>
        <!--MD5=[d5b1ed220e36a9b6b1af384f72e2be5b]
cluster story-->
        <polygon fill="#FFFFFF" filter="url(#f1xrng9q76fmo)" points="16,6,57,6,64,29.6094,675,29.6094,675,869,16,869,16,6" style="stroke:#000000;stroke-width:1.5;" />
        <line style="stroke:#000000;stroke-width:1.5;" x1="16" x2="64" y1="29.6094" y2="29.6094" /><text fill="#000000" font-family="sans-serif" font-size="14" font-weight="bold" lengthAdjust="spacingAndGlyphs" textLength="35" x="20" y="22.5332">story</text>
        <!--MD5=[dbcec57f23c0b4e0af29ccd09b41b3c2]
cluster tqmanager-->
        <polygon fill="#FFFFFF" filter="url(#f1xrng9q76fmo)" points="2140,584.5,2221,584.5,2228,608.1094,2442,608.1094,2442,1109,2140,1109,2140,584.5" style="stroke:#000000;stroke-width:1.5;" />
        <line style="stroke:#000000;stroke-width:1.5;" x1="2140" x2="2228" y1="608.1094" y2="608.1094" /><text fill="#000000" font-family="sans-serif" font-size="14" font-weight="bold" lengthAdjust="spacingAndGlyphs" textLength="75" x="2144" y="601.0332">tqmanager</text>
        <!--MD5=[22afccf079b6b16bd944bfea794d166c]
cluster tools-->
        <polygon fill="#FFFFFF" filter="url(#f1xrng9q76fmo)" points="699,400.5,740,400.5,747,424.1094,1001,424.1094,1001,500.5,699,500.5,699,400.5" style="stroke:#000000;stroke-width:1.5;" />
        <line style="stroke:#000000;stroke-width:1.5;" x1="699" x2="747" y1="424.1094" y2="424.1094" /><text fill="#000000" font-family="sans-serif" font-size="14" font-weight="bold" lengthAdjust="spacingAndGlyphs" textLength="35" x="703" y="417.0332">tools</text>
        <!--MD5=[5db00888549904919e3a09c35d77129e]
class MainActivity-->
        <rect codeLine="4" fill="#FEFECE" filter="url(#f1xrng9q76fmo)" height="48" id="MainActivity" style="stroke:#A80036;stroke-width:1.5;" width="93" x="1065.5" y="164.5" />
        <ellipse cx="1080.5" cy="180.5" fill="#ADD1B2" rx="11" ry="11" style="stroke:#A80036;stroke-width:1.0;" />
        <path d="M1083.2656,176.375 Q1083.4219,176.1563 1083.6094,176.0469 Q1083.7969,175.9375 1084.0156,175.9375 Q1084.3906,175.9375 1084.625,176.2031 Q1084.8594,176.4531 1084.8594,177.0625 L1084.8594,178.5156 Q1084.8594,179.125 1084.625,179.3906 Q1084.3906,179.6563 1084.0156,179.6563 Q1083.6719,179.6563 1083.4688,179.4531 Q1083.2656,179.2656 1083.1563,178.75 Q1083.1094,178.3906 1082.9219,178.2031 Q1082.5938,177.8281 1081.9844,177.6094 Q1081.375,177.3906 1080.75,177.3906 Q1079.9844,177.3906 1079.3438,177.7188 Q1078.7188,178.0469 1078.2188,178.7969 Q1077.7344,179.5469 1077.7344,180.5781 L1077.7344,181.6719 Q1077.7344,182.9063 1078.625,183.7344 Q1079.5156,184.5469 1081.1094,184.5469 Q1082.0469,184.5469 1082.7031,184.2969 Q1083.0938,184.1406 1083.5156,183.7031 Q1083.7813,183.4375 1083.9219,183.3594 Q1084.0781,183.2813 1084.2813,183.2813 Q1084.6094,183.2813 1084.8594,183.5469 Q1085.125,183.7969 1085.125,184.1406 Q1085.125,184.4844 1084.7813,184.8906 Q1084.2813,185.4688 1083.4844,185.7969 Q1082.4063,186.25 1081.1094,186.25 Q1079.5938,186.25 1078.3906,185.625 Q1077.4063,185.125 1076.7188,184.0625 Q1076.0313,182.9844 1076.0313,181.7031 L1076.0313,180.5469 Q1076.0313,179.2188 1076.6406,178.0781 Q1077.2656,176.9219 1078.3594,176.3125 Q1079.4531,175.6875 1080.6875,175.6875 Q1081.4219,175.6875 1082.0625,175.8594 Q1082.7188,176.0156 1083.2656,176.375 Z " fill="#000000" /><text fill="#000000" font-family="sans-serif" font-size="12" lengthAdjust="spacingAndGlyphs" textLength="61" x="1094.5" y="185.4102">MainActivity</text>
        <line style="stroke:#A80036;stroke-width:1.5;" x1="1066.5" x2="1157.5" y1="196.5" y2="196.5" />
        <line style="stroke:#A80036;stroke-width:1.5;" x1="1066.5" x2="1157.5" y1="204.5" y2="204.5" />
        <!--MD5=[134c270b0e89de66451b70565dcb7313]
class GamesActivity-->
        <rect codeLine="8" fill="#FEFECE" filter="url(#f1xrng9q76fmo)" height="48" id="GamesActivity" style="stroke:#A80036;stroke-width:1.5;" width="108" x="2079" y="164.5" />
        <ellipse cx="2094" cy="180.5" fill="#ADD1B2" rx="11" ry="11" style="stroke:#A80036;stroke-width:1.0;" />
        <path d="M2096.7656,176.375 Q2096.9219,176.1563 2097.1094,176.0469 Q2097.2969,175.9375 2097.5156,175.9375 Q2097.8906,175.9375 2098.125,176.2031 Q2098.3594,176.4531 2098.3594,177.0625 L2098.3594,178.5156 Q2098.3594,179.125 2098.125,179.3906 Q2097.8906,179.6563 2097.5156,179.6563 Q2097.1719,179.6563 2096.9688,179.4531 Q2096.7656,179.2656 2096.6563,178.75 Q2096.6094,178.3906 2096.4219,178.2031 Q2096.0938,177.8281 2095.4844,177.6094 Q2094.875,177.3906 2094.25,177.3906 Q2093.4844,177.3906 2092.8438,177.7188 Q2092.2188,178.0469 2091.7188,178.7969 Q2091.2344,179.5469 2091.2344,180.5781 L2091.2344,181.6719 Q2091.2344,182.9063 2092.125,183.7344 Q2093.0156,184.5469 2094.6094,184.5469 Q2095.5469,184.5469 2096.2031,184.2969 Q2096.5938,184.1406 2097.0156,183.7031 Q2097.2813,183.4375 2097.4219,183.3594 Q2097.5781,183.2813 2097.7813,183.2813 Q2098.1094,183.2813 2098.3594,183.5469 Q2098.625,183.7969 2098.625,184.1406 Q2098.625,184.4844 2098.2813,184.8906 Q2097.7813,185.4688 2096.9844,185.7969 Q2095.9063,186.25 2094.6094,186.25 Q2093.0938,186.25 2091.8906,185.625 Q2090.9063,185.125 2090.2188,184.0625 Q2089.5313,182.9844 2089.5313,181.7031 L2089.5313,180.5469 Q2089.5313,179.2188 2090.1406,178.0781 Q2090.7656,176.9219 2091.8594,176.3125 Q2092.9531,175.6875 2094.1875,175.6875 Q2094.9219,175.6875 2095.5625,175.8594 Q2096.2188,176.0156 2096.7656,176.375 Z " fill="#000000" /><text fill="#000000" font-family="sans-serif" font-size="12" lengthAdjust="spacingAndGlyphs" textLength="76" x="2108" y="185.4102">GamesActivity</text>
        <line style="stroke:#A80036;stroke-width:1.5;" x1="2080" x2="2186" y1="196.5" y2="196.5" />
        <line style="stroke:#A80036;stroke-width:1.5;" x1="2080" x2="2186" y1="204.5" y2="204.5" />
        <!--MD5=[0cf8e85961754ee8652ae7b93bdb5edf]
class GamesAdapter-->
        <rect codeLine="10" fill="#FEFECE" filter="url(#f1xrng9q76fmo)" height="48" id="GamesAdapter" style="stroke:#A80036;stroke-width:1.5;" width="115" x="2075.5" y="436.5" />
        <ellipse cx="2090.5" cy="452.5" fill="#ADD1B2" rx="11" ry="11" style="stroke:#A80036;stroke-width:1.0;" />
        <path d="M2093.2656,448.375 Q2093.4219,448.1563 2093.6094,448.0469 Q2093.7969,447.9375 2094.0156,447.9375 Q2094.3906,447.9375 2094.625,448.2031 Q2094.8594,448.4531 2094.8594,449.0625 L2094.8594,450.5156 Q2094.8594,451.125 2094.625,451.3906 Q2094.3906,451.6563 2094.0156,451.6563 Q2093.6719,451.6563 2093.4688,451.4531 Q2093.2656,451.2656 2093.1563,450.75 Q2093.1094,450.3906 2092.9219,450.2031 Q2092.5938,449.8281 2091.9844,449.6094 Q2091.375,449.3906 2090.75,449.3906 Q2089.9844,449.3906 2089.3438,449.7188 Q2088.7188,450.0469 2088.2188,450.7969 Q2087.7344,451.5469 2087.7344,452.5781 L2087.7344,453.6719 Q2087.7344,454.9063 2088.625,455.7344 Q2089.5156,456.5469 2091.1094,456.5469 Q2092.0469,456.5469 2092.7031,456.2969 Q2093.0938,456.1406 2093.5156,455.7031 Q2093.7813,455.4375 2093.9219,455.3594 Q2094.0781,455.2813 2094.2813,455.2813 Q2094.6094,455.2813 2094.8594,455.5469 Q2095.125,455.7969 2095.125,456.1406 Q2095.125,456.4844 2094.7813,456.8906 Q2094.2813,457.4688 2093.4844,457.7969 Q2092.4063,458.25 2091.1094,458.25 Q2089.5938,458.25 2088.3906,457.625 Q2087.4063,457.125 2086.7188,456.0625 Q2086.0313,454.9844 2086.0313,453.7031 L2086.0313,452.5469 Q2086.0313,451.2188 2086.6406,450.0781 Q2087.2656,448.9219 2088.3594,448.3125 Q2089.4531,447.6875 2090.6875,447.6875 Q2091.4219,447.6875 2092.0625,447.8594 Q2092.7188,448.0156 2093.2656,448.375 Z " fill="#000000" /><text fill="#000000" font-family="sans-serif" font-size="12" lengthAdjust="spacingAndGlyphs" textLength="83" x="2104.5" y="457.4102">GamesAdapter</text>
        <line style="stroke:#A80036;stroke-width:1.5;" x1="2076.5" x2="2189.5" y1="468.5" y2="468.5" />
        <line style="stroke:#A80036;stroke-width:1.5;" x1="2076.5" x2="2189.5" y1="476.5" y2="476.5" />
        <!--MD5=[e75d07559cd3dff3c4212cea09e9cd9a]
class LibraryActivity-->
        <rect codeLine="14" fill="#FEFECE" filter="url(#f1xrng9q76fmo)" height="48" id="LibraryActivity" style="stroke:#A80036;stroke-width:1.5;" width="104" x="1570" y="164.5" />
        <ellipse cx="1585" cy="180.5" fill="#ADD1B2" rx="11" ry="11" style="stroke:#A80036;stroke-width:1.0;" />
        <path d="M1587.7656,176.375 Q1587.9219,176.1563 1588.1094,176.0469 Q1588.2969,175.9375 1588.5156,175.9375 Q1588.8906,175.9375 1589.125,176.2031 Q1589.3594,176.4531 1589.3594,177.0625 L1589.3594,178.5156 Q1589.3594,179.125 1589.125,179.3906 Q1588.8906,179.6563 1588.5156,179.6563 Q1588.1719,179.6563 1587.9688,179.4531 Q1587.7656,179.2656 1587.6563,178.75 Q1587.6094,178.3906 1587.4219,178.2031 Q1587.0938,177.8281 1586.4844,177.6094 Q1585.875,177.3906 1585.25,177.3906 Q1584.4844,177.3906 1583.8438,177.7188 Q1583.2188,178.0469 1582.7188,178.7969 Q1582.2344,179.5469 1582.2344,180.5781 L1582.2344,181.6719 Q1582.2344,182.9063 1583.125,183.7344 Q1584.0156,184.5469 1585.6094,184.5469 Q1586.5469,184.5469 1587.2031,184.2969 Q1587.5938,184.1406 1588.0156,183.7031 Q1588.2813,183.4375 1588.4219,183.3594 Q1588.5781,183.2813 1588.7813,183.2813 Q1589.1094,183.2813 1589.3594,183.5469 Q1589.625,183.7969 1589.625,184.1406 Q1589.625,184.4844 1589.2813,184.8906 Q1588.7813,185.4688 1587.9844,185.7969 Q1586.9063,186.25 1585.6094,186.25 Q1584.0938,186.25 1582.8906,185.625 Q1581.9063,185.125 1581.2188,184.0625 Q1580.5313,182.9844 1580.5313,181.7031 L1580.5313,180.5469 Q1580.5313,179.2188 1581.1406,178.0781 Q1581.7656,176.9219 1582.8594,176.3125 Q1583.9531,175.6875 1585.1875,175.6875 Q1585.9219,175.6875 1586.5625,175.8594 Q1587.2188,176.0156 1587.7656,176.375 Z " fill="#000000" /><text fill="#000000" font-family="sans-serif" font-size="12" lengthAdjust="spacingAndGlyphs" textLength="72" x="1599" y="185.4102">LibraryActivity</text>
        <line style="stroke:#A80036;stroke-width:1.5;" x1="1571" x2="1673" y1="196.5" y2="196.5" />
        <line style="stroke:#A80036;stroke-width:1.5;" x1="1571" x2="1673" y1="204.5" y2="204.5" />
        <!--MD5=[bd7957e21994547adc0aed5caedd059e]
class LibraryAdapter-->
        <rect codeLine="16" fill="#FEFECE" filter="url(#f1xrng9q76fmo)" height="48" id="LibraryAdapter" style="stroke:#A80036;stroke-width:1.5;" width="111" x="1566.5" y="436.5" />
        <ellipse cx="1581.5" cy="452.5" fill="#ADD1B2" rx="11" ry="11" style="stroke:#A80036;stroke-width:1.0;" />
        <path d="M1584.2656,448.375 Q1584.4219,448.1563 1584.6094,448.0469 Q1584.7969,447.9375 1585.0156,447.9375 Q1585.3906,447.9375 1585.625,448.2031 Q1585.8594,448.4531 1585.8594,449.0625 L1585.8594,450.5156 Q1585.8594,451.125 1585.625,451.3906 Q1585.3906,451.6563 1585.0156,451.6563 Q1584.6719,451.6563 1584.4688,451.4531 Q1584.2656,451.2656 1584.1563,450.75 Q1584.1094,450.3906 1583.9219,450.2031 Q1583.5938,449.8281 1582.9844,449.6094 Q1582.375,449.3906 1581.75,449.3906 Q1580.9844,449.3906 1580.3438,449.7188 Q1579.7188,450.0469 1579.2188,450.7969 Q1578.7344,451.5469 1578.7344,452.5781 L1578.7344,453.6719 Q1578.7344,454.9063 1579.625,455.7344 Q1580.5156,456.5469 1582.1094,456.5469 Q1583.0469,456.5469 1583.7031,456.2969 Q1584.0938,456.1406 1584.5156,455.7031 Q1584.7813,455.4375 1584.9219,455.3594 Q1585.0781,455.2813 1585.2813,455.2813 Q1585.6094,455.2813 1585.8594,455.5469 Q1586.125,455.7969 1586.125,456.1406 Q1586.125,456.4844 1585.7813,456.8906 Q1585.2813,457.4688 1584.4844,457.7969 Q1583.4063,458.25 1582.1094,458.25 Q1580.5938,458.25 1579.3906,457.625 Q1578.4063,457.125 1577.7188,456.0625 Q1577.0313,454.9844 1577.0313,453.7031 L1577.0313,452.5469 Q1577.0313,451.2188 1577.6406,450.0781 Q1578.2656,448.9219 1579.3594,448.3125 Q1580.4531,447.6875 1581.6875,447.6875 Q1582.4219,447.6875 1583.0625,447.8594 Q1583.7188,448.0156 1584.2656,448.375 Z " fill="#000000" /><text fill="#000000" font-family="sans-serif" font-size="12" lengthAdjust="spacingAndGlyphs" textLength="79" x="1595.5" y="457.4102">LibraryAdapter</text>
        <line style="stroke:#A80036;stroke-width:1.5;" x1="1567.5" x2="1676.5" y1="468.5" y2="468.5" />
        <line style="stroke:#A80036;stroke-width:1.5;" x1="1567.5" x2="1676.5" y1="476.5" y2="476.5" />
        <!--MD5=[a7abb204041b671fd0ae0afa4c480e50]
class QuestManageActivity-->
        <rect codeLine="20" fill="#FEFECE" filter="url(#f1xrng9q76fmo)" height="48" id="QuestManageActivity" style="stroke:#A80036;stroke-width:1.5;" width="144" x="1290" y="164.5" />
        <ellipse cx="1305" cy="180.5" fill="#ADD1B2" rx="11" ry="11" style="stroke:#A80036;stroke-width:1.0;" />
        <path d="M1307.7656,176.375 Q1307.9219,176.1563 1308.1094,176.0469 Q1308.2969,175.9375 1308.5156,175.9375 Q1308.8906,175.9375 1309.125,176.2031 Q1309.3594,176.4531 1309.3594,177.0625 L1309.3594,178.5156 Q1309.3594,179.125 1309.125,179.3906 Q1308.8906,179.6563 1308.5156,179.6563 Q1308.1719,179.6563 1307.9688,179.4531 Q1307.7656,179.2656 1307.6563,178.75 Q1307.6094,178.3906 1307.4219,178.2031 Q1307.0938,177.8281 1306.4844,177.6094 Q1305.875,177.3906 1305.25,177.3906 Q1304.4844,177.3906 1303.8438,177.7188 Q1303.2188,178.0469 1302.7188,178.7969 Q1302.2344,179.5469 1302.2344,180.5781 L1302.2344,181.6719 Q1302.2344,182.9063 1303.125,183.7344 Q1304.0156,184.5469 1305.6094,184.5469 Q1306.5469,184.5469 1307.2031,184.2969 Q1307.5938,184.1406 1308.0156,183.7031 Q1308.2813,183.4375 1308.4219,183.3594 Q1308.5781,183.2813 1308.7813,183.2813 Q1309.1094,183.2813 1309.3594,183.5469 Q1309.625,183.7969 1309.625,184.1406 Q1309.625,184.4844 1309.2813,184.8906 Q1308.7813,185.4688 1307.9844,185.7969 Q1306.9063,186.25 1305.6094,186.25 Q1304.0938,186.25 1302.8906,185.625 Q1301.9063,185.125 1301.2188,184.0625 Q1300.5313,182.9844 1300.5313,181.7031 L1300.5313,180.5469 Q1300.5313,179.2188 1301.1406,178.0781 Q1301.7656,176.9219 1302.8594,176.3125 Q1303.9531,175.6875 1305.1875,175.6875 Q1305.9219,175.6875 1306.5625,175.8594 Q1307.2188,176.0156 1307.7656,176.375 Z " fill="#000000" /><text fill="#000000" font-family="sans-serif" font-size="12" lengthAdjust="spacingAndGlyphs" textLength="112" x="1319" y="185.4102">QuestManageActivity</text>
        <line style="stroke:#A80036;stroke-width:1.5;" x1="1291" x2="1433" y1="196.5" y2="196.5" />
        <line style="stroke:#A80036;stroke-width:1.5;" x1="1291" x2="1433" y1="204.5" y2="204.5" />
        <!--MD5=[9c728cc5604b6ac28d2209bdb19bcad9]
class CharPDataAdapter-->
        <rect codeLine="23" fill="#FEFECE" filter="url(#f1xrng9q76fmo)" height="48" id="CharPDataAdapter" style="stroke:#A80036;stroke-width:1.5;" width="135" x="1215.5" y="436.5" />
        <ellipse cx="1230.5" cy="452.5" fill="#ADD1B2" rx="11" ry="11" style="stroke:#A80036;stroke-width:1.0;" />
        <path d="M1233.2656,448.375 Q1233.4219,448.1563 1233.6094,448.0469 Q1233.7969,447.9375 1234.0156,447.9375 Q1234.3906,447.9375 1234.625,448.2031 Q1234.8594,448.4531 1234.8594,449.0625 L1234.8594,450.5156 Q1234.8594,451.125 1234.625,451.3906 Q1234.3906,451.6563 1234.0156,451.6563 Q1233.6719,451.6563 1233.4688,451.4531 Q1233.2656,451.2656 1233.1563,450.75 Q1233.1094,450.3906 1232.9219,450.2031 Q1232.5938,449.8281 1231.9844,449.6094 Q1231.375,449.3906 1230.75,449.3906 Q1229.9844,449.3906 1229.3438,449.7188 Q1228.7188,450.0469 1228.2188,450.7969 Q1227.7344,451.5469 1227.7344,452.5781 L1227.7344,453.6719 Q1227.7344,454.9063 1228.625,455.7344 Q1229.5156,456.5469 1231.1094,456.5469 Q1232.0469,456.5469 1232.7031,456.2969 Q1233.0938,456.1406 1233.5156,455.7031 Q1233.7813,455.4375 1233.9219,455.3594 Q1234.0781,455.2813 1234.2813,455.2813 Q1234.6094,455.2813 1234.8594,455.5469 Q1235.125,455.7969 1235.125,456.1406 Q1235.125,456.4844 1234.7813,456.8906 Q1234.2813,457.4688 1233.4844,457.7969 Q1232.4063,458.25 1231.1094,458.25 Q1229.5938,458.25 1228.3906,457.625 Q1227.4063,457.125 1226.7188,456.0625 Q1226.0313,454.9844 1226.0313,453.7031 L1226.0313,452.5469 Q1226.0313,451.2188 1226.6406,450.0781 Q1227.2656,448.9219 1228.3594,448.3125 Q1229.4531,447.6875 1230.6875,447.6875 Q1231.4219,447.6875 1232.0625,447.8594 Q1232.7188,448.0156 1233.2656,448.375 Z " fill="#000000" /><text fill="#000000" font-family="sans-serif" font-size="12" lengthAdjust="spacingAndGlyphs" textLength="103" x="1244.5" y="457.4102">CharPDataAdapter</text>
        <line style="stroke:#A80036;stroke-width:1.5;" x1="1216.5" x2="1349.5" y1="468.5" y2="468.5" />
        <line style="stroke:#A80036;stroke-width:1.5;" x1="1216.5" x2="1349.5" y1="476.5" y2="476.5" />
        <!--MD5=[9f55655141d80d9b6d26d78cb27d66d0]
class CharPAddDialog-->
        <rect codeLine="24" fill="#FEFECE" filter="url(#f1xrng9q76fmo)" height="48" id="CharPAddDialog" style="stroke:#A80036;stroke-width:1.5;" width="124" x="1386" y="436.5" />
        <ellipse cx="1401" cy="452.5" fill="#ADD1B2" rx="11" ry="11" style="stroke:#A80036;stroke-width:1.0;" />
        <path d="M1403.7656,448.375 Q1403.9219,448.1563 1404.1094,448.0469 Q1404.2969,447.9375 1404.5156,447.9375 Q1404.8906,447.9375 1405.125,448.2031 Q1405.3594,448.4531 1405.3594,449.0625 L1405.3594,450.5156 Q1405.3594,451.125 1405.125,451.3906 Q1404.8906,451.6563 1404.5156,451.6563 Q1404.1719,451.6563 1403.9688,451.4531 Q1403.7656,451.2656 1403.6563,450.75 Q1403.6094,450.3906 1403.4219,450.2031 Q1403.0938,449.8281 1402.4844,449.6094 Q1401.875,449.3906 1401.25,449.3906 Q1400.4844,449.3906 1399.8438,449.7188 Q1399.2188,450.0469 1398.7188,450.7969 Q1398.2344,451.5469 1398.2344,452.5781 L1398.2344,453.6719 Q1398.2344,454.9063 1399.125,455.7344 Q1400.0156,456.5469 1401.6094,456.5469 Q1402.5469,456.5469 1403.2031,456.2969 Q1403.5938,456.1406 1404.0156,455.7031 Q1404.2813,455.4375 1404.4219,455.3594 Q1404.5781,455.2813 1404.7813,455.2813 Q1405.1094,455.2813 1405.3594,455.5469 Q1405.625,455.7969 1405.625,456.1406 Q1405.625,456.4844 1405.2813,456.8906 Q1404.7813,457.4688 1403.9844,457.7969 Q1402.9063,458.25 1401.6094,458.25 Q1400.0938,458.25 1398.8906,457.625 Q1397.9063,457.125 1397.2188,456.0625 Q1396.5313,454.9844 1396.5313,453.7031 L1396.5313,452.5469 Q1396.5313,451.2188 1397.1406,450.0781 Q1397.7656,448.9219 1398.8594,448.3125 Q1399.9531,447.6875 1401.1875,447.6875 Q1401.9219,447.6875 1402.5625,447.8594 Q1403.2188,448.0156 1403.7656,448.375 Z " fill="#000000" /><text fill="#000000" font-family="sans-serif" font-size="12" lengthAdjust="spacingAndGlyphs" textLength="92" x="1415" y="457.4102">CharPAddDialog</text>
        <line style="stroke:#A80036;stroke-width:1.5;" x1="1387" x2="1509" y1="468.5" y2="468.5" />
        <line style="stroke:#A80036;stroke-width:1.5;" x1="1387" x2="1509" y1="476.5" y2="476.5" />
        <!--MD5=[bb5ceb834fa242de0c41830e5ec59898]
class PlayActivity-->
        <rect codeLine="28" fill="#FEFECE" filter="url(#f1xrng9q76fmo)" height="48" id="PlayActivity" style="stroke:#A80036;stroke-width:1.5;" width="90" x="1922" y="164.5" />
        <ellipse cx="1937" cy="180.5" fill="#ADD1B2" rx="11" ry="11" style="stroke:#A80036;stroke-width:1.0;" />
        <path d="M1939.7656,176.375 Q1939.9219,176.1563 1940.1094,176.0469 Q1940.2969,175.9375 1940.5156,175.9375 Q1940.8906,175.9375 1941.125,176.2031 Q1941.3594,176.4531 1941.3594,177.0625 L1941.3594,178.5156 Q1941.3594,179.125 1941.125,179.3906 Q1940.8906,179.6563 1940.5156,179.6563 Q1940.1719,179.6563 1939.9688,179.4531 Q1939.7656,179.2656 1939.6563,178.75 Q1939.6094,178.3906 1939.4219,178.2031 Q1939.0938,177.8281 1938.4844,177.6094 Q1937.875,177.3906 1937.25,177.3906 Q1936.4844,177.3906 1935.8438,177.7188 Q1935.2188,178.0469 1934.7188,178.7969 Q1934.2344,179.5469 1934.2344,180.5781 L1934.2344,181.6719 Q1934.2344,182.9063 1935.125,183.7344 Q1936.0156,184.5469 1937.6094,184.5469 Q1938.5469,184.5469 1939.2031,184.2969 Q1939.5938,184.1406 1940.0156,183.7031 Q1940.2813,183.4375 1940.4219,183.3594 Q1940.5781,183.2813 1940.7813,183.2813 Q1941.1094,183.2813 1941.3594,183.5469 Q1941.625,183.7969 1941.625,184.1406 Q1941.625,184.4844 1941.2813,184.8906 Q1940.7813,185.4688 1939.9844,185.7969 Q1938.9063,186.25 1937.6094,186.25 Q1936.0938,186.25 1934.8906,185.625 Q1933.9063,185.125 1933.2188,184.0625 Q1932.5313,182.9844 1932.5313,181.7031 L1932.5313,180.5469 Q1932.5313,179.2188 1933.1406,178.0781 Q1933.7656,176.9219 1934.8594,176.3125 Q1935.9531,175.6875 1937.1875,175.6875 Q1937.9219,175.6875 1938.5625,175.8594 Q1939.2188,176.0156 1939.7656,176.375 Z " fill="#000000" /><text fill="#000000" font-family="sans-serif" font-size="12" lengthAdjust="spacingAndGlyphs" textLength="58" x="1951" y="185.4102">PlayActivity</text>
        <line style="stroke:#A80036;stroke-width:1.5;" x1="1923" x2="2011" y1="196.5" y2="196.5" />
        <line style="stroke:#A80036;stroke-width:1.5;" x1="1923" x2="2011" y1="204.5" y2="204.5" />
        <!--MD5=[13d558e68e06e112daf62bd10f8cf84c]
class CharParamsAdapter-->
        <rect codeLine="31" fill="#FEFECE" filter="url(#f1xrng9q76fmo)" height="48" id="CharParamsAdapter" style="stroke:#A80036;stroke-width:1.5;" width="145" x="1734.5" y="436.5" />
        <ellipse cx="1749.5" cy="452.5" fill="#ADD1B2" rx="11" ry="11" style="stroke:#A80036;stroke-width:1.0;" />
        <path d="M1752.2656,448.375 Q1752.4219,448.1563 1752.6094,448.0469 Q1752.7969,447.9375 1753.0156,447.9375 Q1753.3906,447.9375 1753.625,448.2031 Q1753.8594,448.4531 1753.8594,449.0625 L1753.8594,450.5156 Q1753.8594,451.125 1753.625,451.3906 Q1753.3906,451.6563 1753.0156,451.6563 Q1752.6719,451.6563 1752.4688,451.4531 Q1752.2656,451.2656 1752.1563,450.75 Q1752.1094,450.3906 1751.9219,450.2031 Q1751.5938,449.8281 1750.9844,449.6094 Q1750.375,449.3906 1749.75,449.3906 Q1748.9844,449.3906 1748.3438,449.7188 Q1747.7188,450.0469 1747.2188,450.7969 Q1746.7344,451.5469 1746.7344,452.5781 L1746.7344,453.6719 Q1746.7344,454.9063 1747.625,455.7344 Q1748.5156,456.5469 1750.1094,456.5469 Q1751.0469,456.5469 1751.7031,456.2969 Q1752.0938,456.1406 1752.5156,455.7031 Q1752.7813,455.4375 1752.9219,455.3594 Q1753.0781,455.2813 1753.2813,455.2813 Q1753.6094,455.2813 1753.8594,455.5469 Q1754.125,455.7969 1754.125,456.1406 Q1754.125,456.4844 1753.7813,456.8906 Q1753.2813,457.4688 1752.4844,457.7969 Q1751.4063,458.25 1750.1094,458.25 Q1748.5938,458.25 1747.3906,457.625 Q1746.4063,457.125 1745.7188,456.0625 Q1745.0313,454.9844 1745.0313,453.7031 L1745.0313,452.5469 Q1745.0313,451.2188 1745.6406,450.0781 Q1746.2656,448.9219 1747.3594,448.3125 Q1748.4531,447.6875 1749.6875,447.6875 Q1750.4219,447.6875 1751.0625,447.8594 Q1751.7188,448.0156 1752.2656,448.375 Z " fill="#000000" /><text fill="#000000" font-family="sans-serif" font-size="12" lengthAdjust="spacingAndGlyphs" textLength="113" x="1763.5" y="457.4102">CharParamsAdapter</text>
        <line style="stroke:#A80036;stroke-width:1.5;" x1="1735.5" x2="1878.5" y1="468.5" y2="468.5" />
        <line style="stroke:#A80036;stroke-width:1.5;" x1="1735.5" x2="1878.5" y1="476.5" y2="476.5" />
        <!--MD5=[bde1dba639273f9a03231ed78c949e11]
class LinksAdapter-->
        <rect codeLine="32" fill="#FEFECE" filter="url(#f1xrng9q76fmo)" height="48" id="LinksAdapter" style="stroke:#A80036;stroke-width:1.5;" width="104" x="1915" y="436.5" />
        <ellipse cx="1930" cy="452.5" fill="#ADD1B2" rx="11" ry="11" style="stroke:#A80036;stroke-width:1.0;" />
        <path d="M1932.7656,448.375 Q1932.9219,448.1563 1933.1094,448.0469 Q1933.2969,447.9375 1933.5156,447.9375 Q1933.8906,447.9375 1934.125,448.2031 Q1934.3594,448.4531 1934.3594,449.0625 L1934.3594,450.5156 Q1934.3594,451.125 1934.125,451.3906 Q1933.8906,451.6563 1933.5156,451.6563 Q1933.1719,451.6563 1932.9688,451.4531 Q1932.7656,451.2656 1932.6563,450.75 Q1932.6094,450.3906 1932.4219,450.2031 Q1932.0938,449.8281 1931.4844,449.6094 Q1930.875,449.3906 1930.25,449.3906 Q1929.4844,449.3906 1928.8438,449.7188 Q1928.2188,450.0469 1927.7188,450.7969 Q1927.2344,451.5469 1927.2344,452.5781 L1927.2344,453.6719 Q1927.2344,454.9063 1928.125,455.7344 Q1929.0156,456.5469 1930.6094,456.5469 Q1931.5469,456.5469 1932.2031,456.2969 Q1932.5938,456.1406 1933.0156,455.7031 Q1933.2813,455.4375 1933.4219,455.3594 Q1933.5781,455.2813 1933.7813,455.2813 Q1934.1094,455.2813 1934.3594,455.5469 Q1934.625,455.7969 1934.625,456.1406 Q1934.625,456.4844 1934.2813,456.8906 Q1933.7813,457.4688 1932.9844,457.7969 Q1931.9063,458.25 1930.6094,458.25 Q1929.0938,458.25 1927.8906,457.625 Q1926.9063,457.125 1926.2188,456.0625 Q1925.5313,454.9844 1925.5313,453.7031 L1925.5313,452.5469 Q1925.5313,451.2188 1926.1406,450.0781 Q1926.7656,448.9219 1927.8594,448.3125 Q1928.9531,447.6875 1930.1875,447.6875 Q1930.9219,447.6875 1931.5625,447.8594 Q1932.2188,448.0156 1932.7656,448.375 Z " fill="#000000" /><text fill="#000000" font-family="sans-serif" font-size="12" lengthAdjust="spacingAndGlyphs" textLength="72" x="1944" y="457.4102">LinksAdapter</text>
        <line style="stroke:#A80036;stroke-width:1.5;" x1="1916" x2="2018" y1="468.5" y2="468.5" />
        <line style="stroke:#A80036;stroke-width:1.5;" x1="1916" x2="2018" y1="476.5" y2="476.5" />
        <!--MD5=[a65b64adc23078244faca9a369f7e410]
class TQStory-->
        <rect codeLine="37" fill="#FEFECE" filter="url(#f1xrng9q76fmo)" height="293.375" id="TQStory" style="stroke:#A80036;stroke-width:1.5;" width="313" x="280.5" y="42" />
        <ellipse cx="411.25" cy="58" fill="#ADD1B2" rx="11" ry="11" style="stroke:#A80036;stroke-width:1.0;" />
        <path d="M414.0156,53.875 Q414.1719,53.6563 414.3594,53.5469 Q414.5469,53.4375 414.7656,53.4375 Q415.1406,53.4375 415.375,53.7031 Q415.6094,53.9531 415.6094,54.5625 L415.6094,56.0156 Q415.6094,56.625 415.375,56.8906 Q415.1406,57.1563 414.7656,57.1563 Q414.4219,57.1563 414.2188,56.9531 Q414.0156,56.7656 413.9063,56.25 Q413.8594,55.8906 413.6719,55.7031 Q413.3438,55.3281 412.7344,55.1094 Q412.125,54.8906 411.5,54.8906 Q410.7344,54.8906 410.0938,55.2188 Q409.4688,55.5469 408.9688,56.2969 Q408.4844,57.0469 408.4844,58.0781 L408.4844,59.1719 Q408.4844,60.4063 409.375,61.2344 Q410.2656,62.0469 411.8594,62.0469 Q412.7969,62.0469 413.4531,61.7969 Q413.8438,61.6406 414.2656,61.2031 Q414.5313,60.9375 414.6719,60.8594 Q414.8281,60.7813 415.0313,60.7813 Q415.3594,60.7813 415.6094,61.0469 Q415.875,61.2969 415.875,61.6406 Q415.875,61.9844 415.5313,62.3906 Q415.0313,62.9688 414.2344,63.2969 Q413.1563,63.75 411.8594,63.75 Q410.3438,63.75 409.1406,63.125 Q408.1563,62.625 407.4688,61.5625 Q406.7813,60.4844 406.7813,59.2031 L406.7813,58.0469 Q406.7813,56.7188 407.3906,55.5781 Q408.0156,54.4219 409.1094,53.8125 Q410.2031,53.1875 411.4375,53.1875 Q412.1719,53.1875 412.8125,53.3594 Q413.4688,53.5156 414.0156,53.875 Z " fill="#000000" /><text fill="#000000" font-family="sans-serif" font-size="12" lengthAdjust="spacingAndGlyphs" textLength="43" x="431.75" y="62.9102">TQStory</text>
        <line style="stroke:#A80036;stroke-width:1.5;" x1="281.5" x2="592.5" y1="74" y2="74" />
        <rect fill="none" height="6" style="stroke:#C82930;stroke-width:1.0;" width="6" x="288.5" y="82" /><text fill="#000000" font-family="sans-serif" font-size="11" lengthAdjust="spacingAndGlyphs" textLength="53" x="300.5" y="89.4189">title : String</text>
        <rect fill="none" height="6" style="stroke:#C82930;stroke-width:1.0;" width="6" x="288.5" y="95.8359" /><text fill="#000000" font-family="sans-serif" font-size="11" lengthAdjust="spacingAndGlyphs" textLength="68" x="300.5" y="103.2549">author : String</text>
        <rect fill="none" height="6" style="stroke:#C82930;stroke-width:1.0;" width="6" x="288.5" y="109.6719" /><text fill="#000000" font-family="sans-serif" font-size="11" lengthAdjust="spacingAndGlyphs" textLength="118" x="300.5" y="117.0908">character : TQCharacter</text>
        <rect fill="none" height="6" style="stroke:#C82930;stroke-width:1.0;" width="6" x="288.5" y="123.5078" /><text fill="#000000" font-family="sans-serif" font-size="11" lengthAdjust="spacingAndGlyphs" textLength="88" x="300.5" y="130.9268">tqquest : TQQuest</text>
        <rect fill="none" height="6" style="stroke:#C82930;stroke-width:1.0;" width="6" x="288.5" y="137.3438" /><text fill="#000000" font-family="sans-serif" font-size="11" lengthAdjust="spacingAndGlyphs" textLength="144" x="300.5" y="144.7627">currentPassage : TwPassage</text>
        <rect fill="none" height="6" style="stroke:#C82930;stroke-width:1.0;" width="6" x="288.5" y="151.1797" /><text fill="#000000" font-family="sans-serif" font-size="11" lengthAdjust="spacingAndGlyphs" textLength="253" x="300.5" y="158.5986">mathExpressionEvaluator : MathExpressionEvaluator</text>
        <line style="stroke:#A80036;stroke-width:1.5;" x1="281.5" x2="592.5" y1="165.0156" y2="165.0156" />
        <ellipse cx="291.5" cy="176.0156" fill="#84BE84" rx="3" ry="3" style="stroke:#038048;stroke-width:1.0;" /><text fill="#000000" font-family="sans-serif" font-size="11" lengthAdjust="spacingAndGlyphs" textLength="187" x="300.5" y="180.4346">getPassageByPid(int pid) : TwPassage</text>
        <ellipse cx="291.5" cy="189.8516" fill="#84BE84" rx="3" ry="3" style="stroke:#038048;stroke-width:1.0;" /><text fill="#000000" font-family="sans-serif" font-size="11" lengthAdjust="spacingAndGlyphs" textLength="229" x="300.5" y="194.2705">getPassageByName(String name) : TwPassage</text>
        <line style="stroke:#A80036;stroke-width:1.0;stroke-dasharray:1.0,2.0;" x1="281.5" x2="592.5" y1="200.6875" y2="200.6875" />
        <ellipse cx="291.5" cy="211.6875" fill="#84BE84" rx="3" ry="3" style="stroke:#038048;stroke-width:1.0;" /><text fill="#000000" font-family="sans-serif" font-size="11" lengthAdjust="spacingAndGlyphs" textLength="135" x="300.5" y="216.1064">getCurrentPassagePid() : int</text>
        <ellipse cx="291.5" cy="225.5234" fill="#84BE84" rx="3" ry="3" style="stroke:#038048;stroke-width:1.0;" /><text fill="#000000" font-family="sans-serif" font-size="11" lengthAdjust="spacingAndGlyphs" textLength="165" x="300.5" y="229.9424">getCurrentPassageName() : String</text>
        <ellipse cx="291.5" cy="239.3594" fill="#84BE84" rx="3" ry="3" style="stroke:#038048;stroke-width:1.0;" /><text fill="#000000" font-family="sans-serif" font-size="11" lengthAdjust="spacingAndGlyphs" textLength="163" x="300.5" y="243.7783">processCurrentPassage() : String</text>
        <ellipse cx="291.5" cy="253.1953" fill="#84BE84" rx="3" ry="3" style="stroke:#038048;stroke-width:1.0;" /><text fill="#000000" font-family="sans-serif" font-size="11" lengthAdjust="spacingAndGlyphs" textLength="170" x="300.5" y="257.6143">getCurrentPassageLinks() : TwLink</text>
        <ellipse cx="291.5" cy="267.0313" fill="#84BE84" rx="3" ry="3" style="stroke:#038048;stroke-width:1.0;" /><text fill="#000000" font-family="sans-serif" font-size="11" lengthAdjust="spacingAndGlyphs" textLength="155" x="300.5" y="271.4502">goByLinkNumber(int linkNumber)</text>
        <line style="stroke:#A80036;stroke-width:1.0;stroke-dasharray:1.0,2.0;" x1="281.5" x2="592.5" y1="277.8672" y2="277.8672" />
        <ellipse cx="291.5" cy="288.8672" fill="#84BE84" rx="3" ry="3" style="stroke:#038048;stroke-width:1.0;" /><text fill="#000000" font-family="sans-serif" font-size="11" lengthAdjust="spacingAndGlyphs" textLength="281" x="300.5" y="293.2861">getCurrentCharacterProperties() : HashMap&lt;String,String&gt;</text>
        <ellipse cx="291.5" cy="302.7031" fill="#84BE84" rx="3" ry="3" style="stroke:#038048;stroke-width:1.0;" /><text fill="#000000" font-family="sans-serif" font-size="11" lengthAdjust="spacingAndGlyphs" textLength="287" x="300.5" y="307.1221">getCurrentCharacterParameters() : HashMap&lt;String,String&gt;</text>
        <line style="stroke:#A80036;stroke-width:1.0;stroke-dasharray:1.0,2.0;" x1="281.5" x2="592.5" y1="313.5391" y2="313.5391" />
        <ellipse cx="291.5" cy="324.5391" fill="#84BE84" rx="3" ry="3" style="stroke:#038048;stroke-width:1.0;" /><text fill="#000000" font-family="sans-serif" font-size="11" lengthAdjust="spacingAndGlyphs" textLength="81" x="300.5" y="328.958">isEnd() : boolean</text>
        <path d="M91,162 L91,204.7031 A0,0 0 0 0 91,204.7031 L245,204.7031 A0,0 0 0 0 245,204.7031 L245,187.3516 L284.5,239.2773 L245,179.3516 L245,172 L235,162 L91,162 A0,0 0 0 0 91,162 " fill="#FBFB77" filter="url(#f1xrng9q76fmo)" style="stroke:#A80036;stroke-width:1.0;" />
        <path d="M235,162 L235,172 L245,172 L235,162 " fill="#FBFB77" style="stroke:#A80036;stroke-width:1.0;" /><text fill="#000000" font-family="sans-serif" font-size="13" lengthAdjust="spacingAndGlyphs" textLength="116" x="97" y="180.4951">Returns "clean" text</text><text fill="#000000" font-family="sans-serif" font-size="13" lengthAdjust="spacingAndGlyphs" textLength="133" x="97" y="196.8467">of the current passage.</text>
        <!--MD5=[94a077c37636dc349e828f87cb4f5477]
class TQQuest-->
        <rect codeLine="73" fill="#FEFECE" filter="url(#f1xrng9q76fmo)" height="131.0156" id="TQQuest" style="stroke:#A80036;stroke-width:1.5;" width="147" x="32.5" y="395" />
        <ellipse cx="77.25" cy="411" fill="#ADD1B2" rx="11" ry="11" style="stroke:#A80036;stroke-width:1.0;" />
        <path d="M80.0156,406.875 Q80.1719,406.6563 80.3594,406.5469 Q80.5469,406.4375 80.7656,406.4375 Q81.1406,406.4375 81.375,406.7031 Q81.6094,406.9531 81.6094,407.5625 L81.6094,409.0156 Q81.6094,409.625 81.375,409.8906 Q81.1406,410.1563 80.7656,410.1563 Q80.4219,410.1563 80.2188,409.9531 Q80.0156,409.7656 79.9063,409.25 Q79.8594,408.8906 79.6719,408.7031 Q79.3438,408.3281 78.7344,408.1094 Q78.125,407.8906 77.5,407.8906 Q76.7344,407.8906 76.0938,408.2188 Q75.4688,408.5469 74.9688,409.2969 Q74.4844,410.0469 74.4844,411.0781 L74.4844,412.1719 Q74.4844,413.4063 75.375,414.2344 Q76.2656,415.0469 77.8594,415.0469 Q78.7969,415.0469 79.4531,414.7969 Q79.8438,414.6406 80.2656,414.2031 Q80.5313,413.9375 80.6719,413.8594 Q80.8281,413.7813 81.0313,413.7813 Q81.3594,413.7813 81.6094,414.0469 Q81.875,414.2969 81.875,414.6406 Q81.875,414.9844 81.5313,415.3906 Q81.0313,415.9688 80.2344,416.2969 Q79.1563,416.75 77.8594,416.75 Q76.3438,416.75 75.1406,416.125 Q74.1563,415.625 73.4688,414.5625 Q72.7813,413.4844 72.7813,412.2031 L72.7813,411.0469 Q72.7813,409.7188 73.3906,408.5781 Q74.0156,407.4219 75.1094,406.8125 Q76.2031,406.1875 77.4375,406.1875 Q78.1719,406.1875 78.8125,406.3594 Q79.4688,406.5156 80.0156,406.875 Z " fill="#000000" /><text fill="#000000" font-family="sans-serif" font-size="12" lengthAdjust="spacingAndGlyphs" textLength="49" x="97.75" y="415.9102">TQQuest</text>
        <line style="stroke:#A80036;stroke-width:1.5;" x1="33.5" x2="178.5" y1="427" y2="427" />
        <ellipse cx="43.5" cy="438" fill="none" rx="3" ry="3" style="stroke:#038048;stroke-width:1.0;" /><text fill="#000000" font-family="sans-serif" font-size="11" lengthAdjust="spacingAndGlyphs" textLength="121" x="52.5" y="442.4189">passages : TwPassage[]</text>
        <ellipse cx="43.5" cy="451.8359" fill="none" rx="3" ry="3" style="stroke:#038048;stroke-width:1.0;" /><text fill="#000000" font-family="sans-serif" font-size="11" lengthAdjust="spacingAndGlyphs" textLength="63" x="52.5" y="456.2549">name : String</text>
        <ellipse cx="43.5" cy="465.6719" fill="none" rx="3" ry="3" style="stroke:#038048;stroke-width:1.0;" /><text fill="#000000" font-family="sans-serif" font-size="11" lengthAdjust="spacingAndGlyphs" textLength="66" x="52.5" y="470.0908">startnode : int</text>
        <ellipse cx="43.5" cy="479.5078" fill="none" rx="3" ry="3" style="stroke:#038048;stroke-width:1.0;" /><text fill="#000000" font-family="sans-serif" font-size="11" lengthAdjust="spacingAndGlyphs" textLength="72" x="52.5" y="483.9268">creator : String</text>
        <ellipse cx="43.5" cy="493.3438" fill="none" rx="3" ry="3" style="stroke:#038048;stroke-width:1.0;" /><text fill="#000000" font-family="sans-serif" font-size="11" lengthAdjust="spacingAndGlyphs" textLength="114" x="52.5" y="497.7627">creator_version : String</text>
        <ellipse cx="43.5" cy="507.1797" fill="none" rx="3" ry="3" style="stroke:#038048;stroke-width:1.0;" /><text fill="#000000" font-family="sans-serif" font-size="11" lengthAdjust="spacingAndGlyphs" textLength="51" x="52.5" y="511.5986">ifid : String</text>
        <line style="stroke:#A80036;stroke-width:1.5;" x1="33.5" x2="178.5" y1="518.0156" y2="518.0156" />
        <!--MD5=[886e4d387024dd8b2c4536c0cc7e7e37]
class TQCharacter-->
        <rect codeLine="65" fill="#FEFECE" filter="url(#f1xrng9q76fmo)" height="117.1797" id="TQCharacter" style="stroke:#A80036;stroke-width:1.5;" width="444" x="215" y="402" />
        <ellipse cx="397.75" cy="418" fill="#ADD1B2" rx="11" ry="11" style="stroke:#A80036;stroke-width:1.0;" />
        <path d="M400.5156,413.875 Q400.6719,413.6563 400.8594,413.5469 Q401.0469,413.4375 401.2656,413.4375 Q401.6406,413.4375 401.875,413.7031 Q402.1094,413.9531 402.1094,414.5625 L402.1094,416.0156 Q402.1094,416.625 401.875,416.8906 Q401.6406,417.1563 401.2656,417.1563 Q400.9219,417.1563 400.7188,416.9531 Q400.5156,416.7656 400.4063,416.25 Q400.3594,415.8906 400.1719,415.7031 Q399.8438,415.3281 399.2344,415.1094 Q398.625,414.8906 398,414.8906 Q397.2344,414.8906 396.5938,415.2188 Q395.9688,415.5469 395.4688,416.2969 Q394.9844,417.0469 394.9844,418.0781 L394.9844,419.1719 Q394.9844,420.4063 395.875,421.2344 Q396.7656,422.0469 398.3594,422.0469 Q399.2969,422.0469 399.9531,421.7969 Q400.3438,421.6406 400.7656,421.2031 Q401.0313,420.9375 401.1719,420.8594 Q401.3281,420.7813 401.5313,420.7813 Q401.8594,420.7813 402.1094,421.0469 Q402.375,421.2969 402.375,421.6406 Q402.375,421.9844 402.0313,422.3906 Q401.5313,422.9688 400.7344,423.2969 Q399.6563,423.75 398.3594,423.75 Q396.8438,423.75 395.6406,423.125 Q394.6563,422.625 393.9688,421.5625 Q393.2813,420.4844 393.2813,419.2031 L393.2813,418.0469 Q393.2813,416.7188 393.8906,415.5781 Q394.5156,414.4219 395.6094,413.8125 Q396.7031,413.1875 397.9375,413.1875 Q398.6719,413.1875 399.3125,413.3594 Q399.9688,413.5156 400.5156,413.875 Z " fill="#000000" /><text fill="#000000" font-family="sans-serif" font-size="12" lengthAdjust="spacingAndGlyphs" textLength="70" x="418.25" y="422.9102">TQCharacter</text>
        <line style="stroke:#A80036;stroke-width:1.5;" x1="216" x2="658" y1="434" y2="434" />
        <ellipse cx="226" cy="445" fill="none" rx="3" ry="3" style="stroke:#038048;stroke-width:1.0;" /><text fill="#000000" font-family="sans-serif" font-size="11" lengthAdjust="spacingAndGlyphs" textLength="177" x="235" y="449.4189">properties : HashMap&lt;String, String&gt;</text>
        <ellipse cx="226" cy="458.8359" fill="none" rx="3" ry="3" style="stroke:#038048;stroke-width:1.0;" /><text fill="#000000" font-family="sans-serif" font-size="11" lengthAdjust="spacingAndGlyphs" textLength="183" x="235" y="463.2549">parameters : HashMap&lt;String, String&gt;</text>
        <line style="stroke:#A80036;stroke-width:1.5;" x1="216" x2="658" y1="469.6719" y2="469.6719" />
        <ellipse cx="226" cy="480.6719" fill="#84BE84" rx="3" ry="3" style="stroke:#038048;stroke-width:1.0;" /><text fill="#000000" font-family="sans-serif" font-size="11" lengthAdjust="spacingAndGlyphs" textLength="70" x="235" y="485.0908">TQCharacter()</text>
        <ellipse cx="226" cy="494.5078" fill="#84BE84" rx="3" ry="3" style="stroke:#038048;stroke-width:1.0;" /><text fill="#000000" font-family="sans-serif" font-size="11" lengthAdjust="spacingAndGlyphs" textLength="418" x="235" y="498.9268">TQCharacter(HashMap&lt;String,String&gt; properties, HashMap&lt;String,String&gt; parameters)</text>
        <ellipse cx="226" cy="508.3438" fill="#84BE84" rx="3" ry="3" style="stroke:#038048;stroke-width:1.0;" /><text fill="#000000" font-family="sans-serif" font-size="11" lengthAdjust="spacingAndGlyphs" textLength="288" x="235" y="512.7627">TQCharacter(String propertiesJson, String parametersJson)</text>
        <!--MD5=[6dab1e00aa7953c4af806a73a2ba0a17]
class TwPassage-->
        <rect codeLine="82" fill="#FEFECE" filter="url(#f1xrng9q76fmo)" height="117.1797" id="TwPassage" style="stroke:#A80036;stroke-width:1.5;" width="125" x="43.5" y="586" />
        <ellipse cx="70.65" cy="602" fill="#ADD1B2" rx="11" ry="11" style="stroke:#A80036;stroke-width:1.0;" />
        <path d="M73.4156,597.875 Q73.5719,597.6563 73.7594,597.5469 Q73.9469,597.4375 74.1656,597.4375 Q74.5406,597.4375 74.775,597.7031 Q75.0094,597.9531 75.0094,598.5625 L75.0094,600.0156 Q75.0094,600.625 74.775,600.8906 Q74.5406,601.1563 74.1656,601.1563 Q73.8219,601.1563 73.6188,600.9531 Q73.4156,600.7656 73.3063,600.25 Q73.2594,599.8906 73.0719,599.7031 Q72.7438,599.3281 72.1344,599.1094 Q71.525,598.8906 70.9,598.8906 Q70.1344,598.8906 69.4938,599.2188 Q68.8688,599.5469 68.3688,600.2969 Q67.8844,601.0469 67.8844,602.0781 L67.8844,603.1719 Q67.8844,604.4063 68.775,605.2344 Q69.6656,606.0469 71.2594,606.0469 Q72.1969,606.0469 72.8531,605.7969 Q73.2438,605.6406 73.6656,605.2031 Q73.9313,604.9375 74.0719,604.8594 Q74.2281,604.7813 74.4313,604.7813 Q74.7594,604.7813 75.0094,605.0469 Q75.275,605.2969 75.275,605.6406 Q75.275,605.9844 74.9313,606.3906 Q74.4313,606.9688 73.6344,607.2969 Q72.5563,607.75 71.2594,607.75 Q69.7438,607.75 68.5406,607.125 Q67.5563,606.625 66.8688,605.5625 Q66.1813,604.4844 66.1813,603.2031 L66.1813,602.0469 Q66.1813,600.7188 66.7906,599.5781 Q67.4156,598.4219 68.5094,597.8125 Q69.6031,597.1875 70.8375,597.1875 Q71.5719,597.1875 72.2125,597.3594 Q72.8688,597.5156 73.4156,597.875 Z " fill="#000000" /><text fill="#000000" font-family="sans-serif" font-size="12" lengthAdjust="spacingAndGlyphs" textLength="66" x="87.35" y="606.9102">TwPassage</text>
        <line style="stroke:#A80036;stroke-width:1.5;" x1="44.5" x2="167.5" y1="618" y2="618" />
        <ellipse cx="54.5" cy="629" fill="none" rx="3" ry="3" style="stroke:#038048;stroke-width:1.0;" /><text fill="#000000" font-family="sans-serif" font-size="11" lengthAdjust="spacingAndGlyphs" textLength="55" x="63.5" y="633.4189">text : String</text>
        <ellipse cx="54.5" cy="642.8359" fill="none" rx="3" ry="3" style="stroke:#038048;stroke-width:1.0;" /><text fill="#000000" font-family="sans-serif" font-size="11" lengthAdjust="spacingAndGlyphs" textLength="71" x="63.5" y="647.2549">links : TwLink[]</text>
        <ellipse cx="54.5" cy="656.6719" fill="none" rx="3" ry="3" style="stroke:#038048;stroke-width:1.0;" /><text fill="#000000" font-family="sans-serif" font-size="11" lengthAdjust="spacingAndGlyphs" textLength="63" x="63.5" y="661.0908">name : String</text>
        <ellipse cx="54.5" cy="670.5078" fill="none" rx="3" ry="3" style="stroke:#038048;stroke-width:1.0;" /><text fill="#000000" font-family="sans-serif" font-size="11" lengthAdjust="spacingAndGlyphs" textLength="34" x="63.5" y="674.9268">pid : int</text>
        <ellipse cx="54.5" cy="684.3438" fill="none" rx="3" ry="3" style="stroke:#038048;stroke-width:1.0;" /><text fill="#000000" font-family="sans-serif" font-size="11" lengthAdjust="spacingAndGlyphs" textLength="99" x="63.5" y="688.7627">position : TwPosition</text>
        <line style="stroke:#A80036;stroke-width:1.5;" x1="44.5" x2="167.5" y1="695.1797" y2="695.1797" />
        <!--MD5=[fe85196431279e9b6e8bfad9ac70314f]
class TwPosition-->
        <rect codeLine="91" fill="#FEFECE" filter="url(#f1xrng9q76fmo)" height="75.6719" id="TwPosition" style="stroke:#A80036;stroke-width:1.5;" width="93" x="170.5" y="770" />
        <ellipse cx="185.5" cy="786" fill="#ADD1B2" rx="11" ry="11" style="stroke:#A80036;stroke-width:1.0;" />
        <path d="M188.2656,781.875 Q188.4219,781.6563 188.6094,781.5469 Q188.7969,781.4375 189.0156,781.4375 Q189.3906,781.4375 189.625,781.7031 Q189.8594,781.9531 189.8594,782.5625 L189.8594,784.0156 Q189.8594,784.625 189.625,784.8906 Q189.3906,785.1563 189.0156,785.1563 Q188.6719,785.1563 188.4688,784.9531 Q188.2656,784.7656 188.1563,784.25 Q188.1094,783.8906 187.9219,783.7031 Q187.5938,783.3281 186.9844,783.1094 Q186.375,782.8906 185.75,782.8906 Q184.9844,782.8906 184.3438,783.2188 Q183.7188,783.5469 183.2188,784.2969 Q182.7344,785.0469 182.7344,786.0781 L182.7344,787.1719 Q182.7344,788.4063 183.625,789.2344 Q184.5156,790.0469 186.1094,790.0469 Q187.0469,790.0469 187.7031,789.7969 Q188.0938,789.6406 188.5156,789.2031 Q188.7813,788.9375 188.9219,788.8594 Q189.0781,788.7813 189.2813,788.7813 Q189.6094,788.7813 189.8594,789.0469 Q190.125,789.2969 190.125,789.6406 Q190.125,789.9844 189.7813,790.3906 Q189.2813,790.9688 188.4844,791.2969 Q187.4063,791.75 186.1094,791.75 Q184.5938,791.75 183.3906,791.125 Q182.4063,790.625 181.7188,789.5625 Q181.0313,788.4844 181.0313,787.2031 L181.0313,786.0469 Q181.0313,784.7188 181.6406,783.5781 Q182.2656,782.4219 183.3594,781.8125 Q184.4531,781.1875 185.6875,781.1875 Q186.4219,781.1875 187.0625,781.3594 Q187.7188,781.5156 188.2656,781.875 Z " fill="#000000" /><text fill="#000000" font-family="sans-serif" font-size="12" lengthAdjust="spacingAndGlyphs" textLength="61" x="199.5" y="790.9102">TwPosition</text>
        <line style="stroke:#A80036;stroke-width:1.5;" x1="171.5" x2="262.5" y1="802" y2="802" />
        <ellipse cx="181.5" cy="813" fill="none" rx="3" ry="3" style="stroke:#038048;stroke-width:1.0;" /><text fill="#000000" font-family="sans-serif" font-size="11" lengthAdjust="spacingAndGlyphs" textLength="36" x="190.5" y="817.4189">x : float</text>
        <ellipse cx="181.5" cy="826.8359" fill="none" rx="3" ry="3" style="stroke:#038048;stroke-width:1.0;" /><text fill="#000000" font-family="sans-serif" font-size="11" lengthAdjust="spacingAndGlyphs" textLength="36" x="190.5" y="831.2549">y : float</text>
        <line style="stroke:#A80036;stroke-width:1.5;" x1="171.5" x2="262.5" y1="837.6719" y2="837.6719" />
        <!--MD5=[b0082cdfa4dcce96baa042831b0a3d46]
class TwLink-->
        <rect codeLine="95" fill="#FEFECE" filter="url(#f1xrng9q76fmo)" height="89.5078" id="TwLink" style="stroke:#A80036;stroke-width:1.5;" width="89" x="46.5" y="763" />
        <ellipse cx="69.6" cy="779" fill="#ADD1B2" rx="11" ry="11" style="stroke:#A80036;stroke-width:1.0;" />
        <path d="M72.3656,774.875 Q72.5219,774.6563 72.7094,774.5469 Q72.8969,774.4375 73.1156,774.4375 Q73.4906,774.4375 73.725,774.7031 Q73.9594,774.9531 73.9594,775.5625 L73.9594,777.0156 Q73.9594,777.625 73.725,777.8906 Q73.4906,778.1563 73.1156,778.1563 Q72.7719,778.1563 72.5688,777.9531 Q72.3656,777.7656 72.2563,777.25 Q72.2094,776.8906 72.0219,776.7031 Q71.6938,776.3281 71.0844,776.1094 Q70.475,775.8906 69.85,775.8906 Q69.0844,775.8906 68.4438,776.2188 Q67.8188,776.5469 67.3188,777.2969 Q66.8344,778.0469 66.8344,779.0781 L66.8344,780.1719 Q66.8344,781.4063 67.725,782.2344 Q68.6156,783.0469 70.2094,783.0469 Q71.1469,783.0469 71.8031,782.7969 Q72.1938,782.6406 72.6156,782.2031 Q72.8813,781.9375 73.0219,781.8594 Q73.1781,781.7813 73.3813,781.7813 Q73.7094,781.7813 73.9594,782.0469 Q74.225,782.2969 74.225,782.6406 Q74.225,782.9844 73.8813,783.3906 Q73.3813,783.9688 72.5844,784.2969 Q71.5063,784.75 70.2094,784.75 Q68.6938,784.75 67.4906,784.125 Q66.5063,783.625 65.8188,782.5625 Q65.1313,781.4844 65.1313,780.2031 L65.1313,779.0469 Q65.1313,777.7188 65.7406,776.5781 Q66.3656,775.4219 67.4594,774.8125 Q68.5531,774.1875 69.7875,774.1875 Q70.5219,774.1875 71.1625,774.3594 Q71.8188,774.5156 72.3656,774.875 Z " fill="#000000" /><text fill="#000000" font-family="sans-serif" font-size="12" lengthAdjust="spacingAndGlyphs" textLength="39" x="85.4" y="783.9102">TwLink</text>
        <line style="stroke:#A80036;stroke-width:1.5;" x1="47.5" x2="134.5" y1="795" y2="795" />
        <ellipse cx="57.5" cy="806" fill="none" rx="3" ry="3" style="stroke:#038048;stroke-width:1.0;" /><text fill="#000000" font-family="sans-serif" font-size="11" lengthAdjust="spacingAndGlyphs" textLength="63" x="66.5" y="810.4189">name : String</text>
        <ellipse cx="57.5" cy="819.8359" fill="none" rx="3" ry="3" style="stroke:#038048;stroke-width:1.0;" /><text fill="#000000" font-family="sans-serif" font-size="11" lengthAdjust="spacingAndGlyphs" textLength="52" x="66.5" y="824.2549">link : String</text>
        <ellipse cx="57.5" cy="833.6719" fill="none" rx="3" ry="3" style="stroke:#038048;stroke-width:1.0;" /><text fill="#000000" font-family="sans-serif" font-size="11" lengthAdjust="spacingAndGlyphs" textLength="34" x="66.5" y="838.0908">pid : int</text>
        <line style="stroke:#A80036;stroke-width:1.5;" x1="47.5" x2="134.5" y1="844.5078" y2="844.5078" />
        <!--MD5=[b51a5a65ccb90c6d6d2650764e5090ad]
class TQManager-->
        <rect codeLine="103" fill="#FEFECE" filter="url(#f1xrng9q76fmo)" height="48" id="TQManager" style="stroke:#A80036;stroke-width:1.5;" width="96" x="2267" y="620.5" />
        <ellipse cx="2282" cy="636.5" fill="#ADD1B2" rx="11" ry="11" style="stroke:#A80036;stroke-width:1.0;" />
        <path d="M2284.7656,632.375 Q2284.9219,632.1563 2285.1094,632.0469 Q2285.2969,631.9375 2285.5156,631.9375 Q2285.8906,631.9375 2286.125,632.2031 Q2286.3594,632.4531 2286.3594,633.0625 L2286.3594,634.5156 Q2286.3594,635.125 2286.125,635.3906 Q2285.8906,635.6563 2285.5156,635.6563 Q2285.1719,635.6563 2284.9688,635.4531 Q2284.7656,635.2656 2284.6563,634.75 Q2284.6094,634.3906 2284.4219,634.2031 Q2284.0938,633.8281 2283.4844,633.6094 Q2282.875,633.3906 2282.25,633.3906 Q2281.4844,633.3906 2280.8438,633.7188 Q2280.2188,634.0469 2279.7188,634.7969 Q2279.2344,635.5469 2279.2344,636.5781 L2279.2344,637.6719 Q2279.2344,638.9063 2280.125,639.7344 Q2281.0156,640.5469 2282.6094,640.5469 Q2283.5469,640.5469 2284.2031,640.2969 Q2284.5938,640.1406 2285.0156,639.7031 Q2285.2813,639.4375 2285.4219,639.3594 Q2285.5781,639.2813 2285.7813,639.2813 Q2286.1094,639.2813 2286.3594,639.5469 Q2286.625,639.7969 2286.625,640.1406 Q2286.625,640.4844 2286.2813,640.8906 Q2285.7813,641.4688 2284.9844,641.7969 Q2283.9063,642.25 2282.6094,642.25 Q2281.0938,642.25 2279.8906,641.625 Q2278.9063,641.125 2278.2188,640.0625 Q2277.5313,638.9844 2277.5313,637.7031 L2277.5313,636.5469 Q2277.5313,635.2188 2278.1406,634.0781 Q2278.7656,632.9219 2279.8594,632.3125 Q2280.9531,631.6875 2282.1875,631.6875 Q2282.9219,631.6875 2283.5625,631.8594 Q2284.2188,632.0156 2284.7656,632.375 Z " fill="#000000" /><text fill="#000000" font-family="sans-serif" font-size="12" lengthAdjust="spacingAndGlyphs" textLength="64" x="2296" y="641.4102">TQManager</text>
        <line style="stroke:#A80036;stroke-width:1.5;" x1="2268" x2="2362" y1="652.5" y2="652.5" />
        <line style="stroke:#A80036;stroke-width:1.5;" x1="2268" x2="2362" y1="660.5" y2="660.5" />
        <!--MD5=[3c567942317268e929f67765af9a69d6]
class AppDatabase-->
        <rect codeLine="111" fill="#FEFECE" filter="url(#f1xrng9q76fmo)" height="48" id="AppDatabase" style="stroke:#A80036;stroke-width:1.5;" width="107" x="2261.5" y="784" />
        <ellipse cx="2276.5" cy="800" fill="#ADD1B2" rx="11" ry="11" style="stroke:#A80036;stroke-width:1.0;" />
        <path d="M2279.2656,795.875 Q2279.4219,795.6563 2279.6094,795.5469 Q2279.7969,795.4375 2280.0156,795.4375 Q2280.3906,795.4375 2280.625,795.7031 Q2280.8594,795.9531 2280.8594,796.5625 L2280.8594,798.0156 Q2280.8594,798.625 2280.625,798.8906 Q2280.3906,799.1563 2280.0156,799.1563 Q2279.6719,799.1563 2279.4688,798.9531 Q2279.2656,798.7656 2279.1563,798.25 Q2279.1094,797.8906 2278.9219,797.7031 Q2278.5938,797.3281 2277.9844,797.1094 Q2277.375,796.8906 2276.75,796.8906 Q2275.9844,796.8906 2275.3438,797.2188 Q2274.7188,797.5469 2274.2188,798.2969 Q2273.7344,799.0469 2273.7344,800.0781 L2273.7344,801.1719 Q2273.7344,802.4063 2274.625,803.2344 Q2275.5156,804.0469 2277.1094,804.0469 Q2278.0469,804.0469 2278.7031,803.7969 Q2279.0938,803.6406 2279.5156,803.2031 Q2279.7813,802.9375 2279.9219,802.8594 Q2280.0781,802.7813 2280.2813,802.7813 Q2280.6094,802.7813 2280.8594,803.0469 Q2281.125,803.2969 2281.125,803.6406 Q2281.125,803.9844 2280.7813,804.3906 Q2280.2813,804.9688 2279.4844,805.2969 Q2278.4063,805.75 2277.1094,805.75 Q2275.5938,805.75 2274.3906,805.125 Q2273.4063,804.625 2272.7188,803.5625 Q2272.0313,802.4844 2272.0313,801.2031 L2272.0313,800.0469 Q2272.0313,798.7188 2272.6406,797.5781 Q2273.2656,796.4219 2274.3594,795.8125 Q2275.4531,795.1875 2276.6875,795.1875 Q2277.4219,795.1875 2278.0625,795.3594 Q2278.7188,795.5156 2279.2656,795.875 Z " fill="#000000" /><text fill="#000000" font-family="sans-serif" font-size="12" lengthAdjust="spacingAndGlyphs" textLength="75" x="2290.5" y="804.9102">AppDatabase</text>
        <line style="stroke:#A80036;stroke-width:1.5;" x1="2262.5" x2="2367.5" y1="816" y2="816" />
        <line style="stroke:#A80036;stroke-width:1.5;" x1="2262.5" x2="2367.5" y1="824" y2="824" />
        <!--MD5=[5439c715667871e9b819f2f0d4862e8b]
class DBGamesDao-->
        <rect codeLine="116" fill="#FEFECE" filter="url(#f1xrng9q76fmo)" height="48" id="DBGamesDao" style="stroke:#A80036;stroke-width:1.5;" width="112" x="2169" y="913" />
        <ellipse cx="2184" cy="929" fill="#B4A7E5" rx="11" ry="11" style="stroke:#A80036;stroke-width:1.0;" />
        <path d="M2184.9531,925.6406 L2184.9531,932.2969 L2186.6719,932.2969 Q2187.2813,932.2969 2187.5469,932.5313 Q2187.8125,932.7656 2187.8125,933.1563 Q2187.8125,933.5313 2187.5469,933.7656 Q2187.2813,934 2186.6719,934 L2181.5313,934 Q2180.9219,934 2180.6563,933.7656 Q2180.3906,933.5313 2180.3906,933.1406 Q2180.3906,932.7656 2180.6563,932.5313 Q2180.9219,932.2969 2181.5313,932.2969 L2183.25,932.2969 L2183.25,925.6406 L2181.5313,925.6406 Q2180.9219,925.6406 2180.6563,925.4063 Q2180.3906,925.1719 2180.3906,924.7813 Q2180.3906,924.4063 2180.6563,924.1719 Q2180.9219,923.9375 2181.5313,923.9375 L2186.6719,923.9375 Q2187.2813,923.9375 2187.5469,924.1719 Q2187.8125,924.4063 2187.8125,924.7813 Q2187.8125,925.1719 2187.5469,925.4063 Q2187.2813,925.6406 2186.6719,925.6406 L2184.9531,925.6406 Z " fill="#000000" /><text fill="#000000" font-family="sans-serif" font-size="12" font-style="italic" lengthAdjust="spacingAndGlyphs" textLength="80" x="2198" y="933.9102">DBGamesDao</text>
        <line style="stroke:#A80036;stroke-width:1.5;" x1="2170" x2="2280" y1="945" y2="945" />
        <line style="stroke:#A80036;stroke-width:1.5;" x1="2170" x2="2280" y1="953" y2="953" />
        <!--MD5=[98b24b1373ac043a28aeb180ab9c0de3]
class DBQuestsDao-->
        <rect codeLine="121" fill="#FEFECE" filter="url(#f1xrng9q76fmo)" height="48" id="DBQuestsDao" style="stroke:#A80036;stroke-width:1.5;" width="110" x="2316" y="913" />
        <ellipse cx="2331" cy="929" fill="#B4A7E5" rx="11" ry="11" style="stroke:#A80036;stroke-width:1.0;" />
        <path d="M2331.9531,925.6406 L2331.9531,932.2969 L2333.6719,932.2969 Q2334.2813,932.2969 2334.5469,932.5313 Q2334.8125,932.7656 2334.8125,933.1563 Q2334.8125,933.5313 2334.5469,933.7656 Q2334.2813,934 2333.6719,934 L2328.5313,934 Q2327.9219,934 2327.6563,933.7656 Q2327.3906,933.5313 2327.3906,933.1406 Q2327.3906,932.7656 2327.6563,932.5313 Q2327.9219,932.2969 2328.5313,932.2969 L2330.25,932.2969 L2330.25,925.6406 L2328.5313,925.6406 Q2327.9219,925.6406 2327.6563,925.4063 Q2327.3906,925.1719 2327.3906,924.7813 Q2327.3906,924.4063 2327.6563,924.1719 Q2327.9219,923.9375 2328.5313,923.9375 L2333.6719,923.9375 Q2334.2813,923.9375 2334.5469,924.1719 Q2334.8125,924.4063 2334.8125,924.7813 Q2334.8125,925.1719 2334.5469,925.4063 Q2334.2813,925.6406 2333.6719,925.6406 L2331.9531,925.6406 Z " fill="#000000" /><text fill="#000000" font-family="sans-serif" font-size="12" font-style="italic" lengthAdjust="spacingAndGlyphs" textLength="78" x="2345" y="933.9102">DBQuestsDao</text>
        <line style="stroke:#A80036;stroke-width:1.5;" x1="2317" x2="2425" y1="945" y2="945" />
        <line style="stroke:#A80036;stroke-width:1.5;" x1="2317" x2="2425" y1="953" y2="953" />
        <!--MD5=[32d8e4b5829adf8512f2ec9200ec0f3b]
class DBGame-->
        <rect codeLine="115" fill="#FEFECE" filter="url(#f1xrng9q76fmo)" height="48" id="DBGame" style="stroke:#A80036;stroke-width:1.5;" width="83" x="2180.5" y="1021" />
        <ellipse cx="2195.5" cy="1037" fill="#ADD1B2" rx="11" ry="11" style="stroke:#A80036;stroke-width:1.0;" />
        <path d="M2198.2656,1032.875 Q2198.4219,1032.6563 2198.6094,1032.5469 Q2198.7969,1032.4375 2199.0156,1032.4375 Q2199.3906,1032.4375 2199.625,1032.7031 Q2199.8594,1032.9531 2199.8594,1033.5625 L2199.8594,1035.0156 Q2199.8594,1035.625 2199.625,1035.8906 Q2199.3906,1036.1563 2199.0156,1036.1563 Q2198.6719,1036.1563 2198.4688,1035.9531 Q2198.2656,1035.7656 2198.1563,1035.25 Q2198.1094,1034.8906 2197.9219,1034.7031 Q2197.5938,1034.3281 2196.9844,1034.1094 Q2196.375,1033.8906 2195.75,1033.8906 Q2194.9844,1033.8906 2194.3438,1034.2188 Q2193.7188,1034.5469 2193.2188,1035.2969 Q2192.7344,1036.0469 2192.7344,1037.0781 L2192.7344,1038.1719 Q2192.7344,1039.4063 2193.625,1040.2344 Q2194.5156,1041.0469 2196.1094,1041.0469 Q2197.0469,1041.0469 2197.7031,1040.7969 Q2198.0938,1040.6406 2198.5156,1040.2031 Q2198.7813,1039.9375 2198.9219,1039.8594 Q2199.0781,1039.7813 2199.2813,1039.7813 Q2199.6094,1039.7813 2199.8594,1040.0469 Q2200.125,1040.2969 2200.125,1040.6406 Q2200.125,1040.9844 2199.7813,1041.3906 Q2199.2813,1041.9688 2198.4844,1042.2969 Q2197.4063,1042.75 2196.1094,1042.75 Q2194.5938,1042.75 2193.3906,1042.125 Q2192.4063,1041.625 2191.7188,1040.5625 Q2191.0313,1039.4844 2191.0313,1038.2031 L2191.0313,1037.0469 Q2191.0313,1035.7188 2191.6406,1034.5781 Q2192.2656,1033.4219 2193.3594,1032.8125 Q2194.4531,1032.1875 2195.6875,1032.1875 Q2196.4219,1032.1875 2197.0625,1032.3594 Q2197.7188,1032.5156 2198.2656,1032.875 Z " fill="#000000" /><text fill="#000000" font-family="sans-serif" font-size="12" lengthAdjust="spacingAndGlyphs" textLength="51" x="2209.5" y="1041.9102">DBGame</text>
        <line style="stroke:#A80036;stroke-width:1.5;" x1="2181.5" x2="2262.5" y1="1053" y2="1053" />
        <line style="stroke:#A80036;stroke-width:1.5;" x1="2181.5" x2="2262.5" y1="1061" y2="1061" />
        <!--MD5=[b0e92bd755050e8ef6aad4a6711a2236]
class DBQuest-->
        <rect codeLine="120" fill="#FEFECE" filter="url(#f1xrng9q76fmo)" height="48" id="DBQuest" style="stroke:#A80036;stroke-width:1.5;" width="82" x="2320" y="1021" />
        <ellipse cx="2335" cy="1037" fill="#ADD1B2" rx="11" ry="11" style="stroke:#A80036;stroke-width:1.0;" />
        <path d="M2337.7656,1032.875 Q2337.9219,1032.6563 2338.1094,1032.5469 Q2338.2969,1032.4375 2338.5156,1032.4375 Q2338.8906,1032.4375 2339.125,1032.7031 Q2339.3594,1032.9531 2339.3594,1033.5625 L2339.3594,1035.0156 Q2339.3594,1035.625 2339.125,1035.8906 Q2338.8906,1036.1563 2338.5156,1036.1563 Q2338.1719,1036.1563 2337.9688,1035.9531 Q2337.7656,1035.7656 2337.6563,1035.25 Q2337.6094,1034.8906 2337.4219,1034.7031 Q2337.0938,1034.3281 2336.4844,1034.1094 Q2335.875,1033.8906 2335.25,1033.8906 Q2334.4844,1033.8906 2333.8438,1034.2188 Q2333.2188,1034.5469 2332.7188,1035.2969 Q2332.2344,1036.0469 2332.2344,1037.0781 L2332.2344,1038.1719 Q2332.2344,1039.4063 2333.125,1040.2344 Q2334.0156,1041.0469 2335.6094,1041.0469 Q2336.5469,1041.0469 2337.2031,1040.7969 Q2337.5938,1040.6406 2338.0156,1040.2031 Q2338.2813,1039.9375 2338.4219,1039.8594 Q2338.5781,1039.7813 2338.7813,1039.7813 Q2339.1094,1039.7813 2339.3594,1040.0469 Q2339.625,1040.2969 2339.625,1040.6406 Q2339.625,1040.9844 2339.2813,1041.3906 Q2338.7813,1041.9688 2337.9844,1042.2969 Q2336.9063,1042.75 2335.6094,1042.75 Q2334.0938,1042.75 2332.8906,1042.125 Q2331.9063,1041.625 2331.2188,1040.5625 Q2330.5313,1039.4844 2330.5313,1038.2031 L2330.5313,1037.0469 Q2330.5313,1035.7188 2331.1406,1034.5781 Q2331.7656,1033.4219 2332.8594,1032.8125 Q2333.9531,1032.1875 2335.1875,1032.1875 Q2335.9219,1032.1875 2336.5625,1032.3594 Q2337.2188,1032.5156 2337.7656,1032.875 Z " fill="#000000" /><text fill="#000000" font-family="sans-serif" font-size="12" lengthAdjust="spacingAndGlyphs" textLength="50" x="2349" y="1041.9102">DBQuest</text>
        <line style="stroke:#A80036;stroke-width:1.5;" x1="2321" x2="2401" y1="1053" y2="1053" />
        <line style="stroke:#A80036;stroke-width:1.5;" x1="2321" x2="2401" y1="1061" y2="1061" />
        <!--MD5=[5c3dbddecf1908852e006f73e87b11f5]
entity Room-->
        <rect fill="#FFFFFF" filter="url(#f1xrng9q76fmo)" height="37.6094" style="stroke:#000000;stroke-width:1.5;" width="57" x="2426.5" y="1129" /><text fill="#000000" font-family="sans-serif" font-size="14" lengthAdjust="spacingAndGlyphs" textLength="37" x="2436.5" y="1153.5332">Room</text>
        <!--MD5=[f50ff5e4cd64f259303fc83dba1819fc]
entity database-->
        <path d="M2415.5,1237 C2415.5,1227 2455,1227 2455,1227 C2455,1227 2494.5,1227 2494.5,1237 L2494.5,1263.6094 C2494.5,1273.6094 2455,1273.6094 2455,1273.6094 C2455,1273.6094 2415.5,1273.6094 2415.5,1263.6094 L2415.5,1237 " fill="#FFFFFF" filter="url(#f1xrng9q76fmo)" style="stroke:#000000;stroke-width:1.5;" />
        <path d="M2415.5,1237 C2415.5,1247 2455,1247 2455,1247 C2455,1247 2494.5,1247 2494.5,1237 " fill="none" style="stroke:#000000;stroke-width:1.5;" /><text fill="#000000" font-family="sans-serif" font-size="14" lengthAdjust="spacingAndGlyphs" textLength="59" x="2425.5" y="1265.5332">database</text>
        <!--MD5=[d33d14762bbd2308f4a7d9b7d8815839]
class Tools-->
        <rect codeLine="139" fill="#FEFECE" filter="url(#f1xrng9q76fmo)" height="48" id="Tools" style="stroke:#A80036;stroke-width:1.5;" width="63" x="921.5" y="436.5" />
        <ellipse cx="936.5" cy="452.5" fill="#ADD1B2" rx="11" ry="11" style="stroke:#A80036;stroke-width:1.0;" />
        <path d="M939.2656,448.375 Q939.4219,448.1563 939.6094,448.0469 Q939.7969,447.9375 940.0156,447.9375 Q940.3906,447.9375 940.625,448.2031 Q940.8594,448.4531 940.8594,449.0625 L940.8594,450.5156 Q940.8594,451.125 940.625,451.3906 Q940.3906,451.6563 940.0156,451.6563 Q939.6719,451.6563 939.4688,451.4531 Q939.2656,451.2656 939.1563,450.75 Q939.1094,450.3906 938.9219,450.2031 Q938.5938,449.8281 937.9844,449.6094 Q937.375,449.3906 936.75,449.3906 Q935.9844,449.3906 935.3438,449.7188 Q934.7188,450.0469 934.2188,450.7969 Q933.7344,451.5469 933.7344,452.5781 L933.7344,453.6719 Q933.7344,454.9063 934.625,455.7344 Q935.5156,456.5469 937.1094,456.5469 Q938.0469,456.5469 938.7031,456.2969 Q939.0938,456.1406 939.5156,455.7031 Q939.7813,455.4375 939.9219,455.3594 Q940.0781,455.2813 940.2813,455.2813 Q940.6094,455.2813 940.8594,455.5469 Q941.125,455.7969 941.125,456.1406 Q941.125,456.4844 940.7813,456.8906 Q940.2813,457.4688 939.4844,457.7969 Q938.4063,458.25 937.1094,458.25 Q935.5938,458.25 934.3906,457.625 Q933.4063,457.125 932.7188,456.0625 Q932.0313,454.9844 932.0313,453.7031 L932.0313,452.5469 Q932.0313,451.2188 932.6406,450.0781 Q933.2656,448.9219 934.3594,448.3125 Q935.4531,447.6875 936.6875,447.6875 Q937.4219,447.6875 938.0625,447.8594 Q938.7188,448.0156 939.2656,448.375 Z " fill="#000000" /><text fill="#000000" font-family="sans-serif" font-size="12" lengthAdjust="spacingAndGlyphs" textLength="31" x="950.5" y="457.4102">Tools</text>
        <line style="stroke:#A80036;stroke-width:1.5;" x1="922.5" x2="983.5" y1="468.5" y2="468.5" />
        <line style="stroke:#A80036;stroke-width:1.5;" x1="922.5" x2="983.5" y1="476.5" y2="476.5" />
        <!--MD5=[a14c15983673cdc294675f282256a1fb]
class MathExpressionEvaluator-->
        <rect codeLine="145" fill="#FEFECE" filter="url(#f1xrng9q76fmo)" height="48" id="MathExpressionEvaluator" style="stroke:#A80036;stroke-width:1.5;" width="171" x="715.5" y="436.5" />
        <ellipse cx="730.5" cy="452.5" fill="#ADD1B2" rx="11" ry="11" style="stroke:#A80036;stroke-width:1.0;" />
        <path d="M733.2656,448.375 Q733.4219,448.1563 733.6094,448.0469 Q733.7969,447.9375 734.0156,447.9375 Q734.3906,447.9375 734.625,448.2031 Q734.8594,448.4531 734.8594,449.0625 L734.8594,450.5156 Q734.8594,451.125 734.625,451.3906 Q734.3906,451.6563 734.0156,451.6563 Q733.6719,451.6563 733.4688,451.4531 Q733.2656,451.2656 733.1563,450.75 Q733.1094,450.3906 732.9219,450.2031 Q732.5938,449.8281 731.9844,449.6094 Q731.375,449.3906 730.75,449.3906 Q729.9844,449.3906 729.3438,449.7188 Q728.7188,450.0469 728.2188,450.7969 Q727.7344,451.5469 727.7344,452.5781 L727.7344,453.6719 Q727.7344,454.9063 728.625,455.7344 Q729.5156,456.5469 731.1094,456.5469 Q732.0469,456.5469 732.7031,456.2969 Q733.0938,456.1406 733.5156,455.7031 Q733.7813,455.4375 733.9219,455.3594 Q734.0781,455.2813 734.2813,455.2813 Q734.6094,455.2813 734.8594,455.5469 Q735.125,455.7969 735.125,456.1406 Q735.125,456.4844 734.7813,456.8906 Q734.2813,457.4688 733.4844,457.7969 Q732.4063,458.25 731.1094,458.25 Q729.5938,458.25 728.3906,457.625 Q727.4063,457.125 726.7188,456.0625 Q726.0313,454.9844 726.0313,453.7031 L726.0313,452.5469 Q726.0313,451.2188 726.6406,450.0781 Q727.2656,448.9219 728.3594,448.3125 Q729.4531,447.6875 730.6875,447.6875 Q731.4219,447.6875 732.0625,447.8594 Q732.7188,448.0156 733.2656,448.375 Z " fill="#000000" /><text fill="#000000" font-family="sans-serif" font-size="12" lengthAdjust="spacingAndGlyphs" textLength="139" x="744.5" y="457.4102">MathExpressionEvaluator</text>
        <line style="stroke:#A80036;stroke-width:1.5;" x1="716.5" x2="885.5" y1="468.5" y2="468.5" />
        <line style="stroke:#A80036;stroke-width:1.5;" x1="716.5" x2="885.5" y1="476.5" y2="476.5" />
        <!--MD5=[9bfaaa8690e7f6bac5a674fd90d05565]
class SplashScreen-->
        <rect codeLine="149" fill="#FEFECE" filter="url(#f1xrng9q76fmo)" height="48" id="SplashScreen" style="stroke:#A80036;stroke-width:1.5;" width="110" x="2247" y="164.5" />
        <ellipse cx="2262" cy="180.5" fill="#ADD1B2" rx="11" ry="11" style="stroke:#A80036;stroke-width:1.0;" />
        <path d="M2264.7656,176.375 Q2264.9219,176.1563 2265.1094,176.0469 Q2265.2969,175.9375 2265.5156,175.9375 Q2265.8906,175.9375 2266.125,176.2031 Q2266.3594,176.4531 2266.3594,177.0625 L2266.3594,178.5156 Q2266.3594,179.125 2266.125,179.3906 Q2265.8906,179.6563 2265.5156,179.6563 Q2265.1719,179.6563 2264.9688,179.4531 Q2264.7656,179.2656 2264.6563,178.75 Q2264.6094,178.3906 2264.4219,178.2031 Q2264.0938,177.8281 2263.4844,177.6094 Q2262.875,177.3906 2262.25,177.3906 Q2261.4844,177.3906 2260.8438,177.7188 Q2260.2188,178.0469 2259.7188,178.7969 Q2259.2344,179.5469 2259.2344,180.5781 L2259.2344,181.6719 Q2259.2344,182.9063 2260.125,183.7344 Q2261.0156,184.5469 2262.6094,184.5469 Q2263.5469,184.5469 2264.2031,184.2969 Q2264.5938,184.1406 2265.0156,183.7031 Q2265.2813,183.4375 2265.4219,183.3594 Q2265.5781,183.2813 2265.7813,183.2813 Q2266.1094,183.2813 2266.3594,183.5469 Q2266.625,183.7969 2266.625,184.1406 Q2266.625,184.4844 2266.2813,184.8906 Q2265.7813,185.4688 2264.9844,185.7969 Q2263.9063,186.25 2262.6094,186.25 Q2261.0938,186.25 2259.8906,185.625 Q2258.9063,185.125 2258.2188,184.0625 Q2257.5313,182.9844 2257.5313,181.7031 L2257.5313,180.5469 Q2257.5313,179.2188 2258.1406,178.0781 Q2258.7656,176.9219 2259.8594,176.3125 Q2260.9531,175.6875 2262.1875,175.6875 Q2262.9219,175.6875 2263.5625,175.8594 Q2264.2188,176.0156 2264.7656,176.375 Z " fill="#000000" /><text fill="#000000" font-family="sans-serif" font-size="12" lengthAdjust="spacingAndGlyphs" textLength="78" x="2276" y="185.4102">SplashScreen</text>
        <line style="stroke:#A80036;stroke-width:1.5;" x1="2248" x2="2356" y1="196.5" y2="196.5" />
        <line style="stroke:#A80036;stroke-width:1.5;" x1="2248" x2="2356" y1="204.5" y2="204.5" />
        <!--MD5=[c2d54e5072ce59508e3197faccb3074c]
link GamesActivity to GamesAdapter-->
        <path codeLine="9" d="M2133,212.52 C2133,261.81 2133,377.44 2133,431.15 " fill="none" id="GamesActivity-to-GamesAdapter" style="stroke:#A80036;stroke-width:1.0;stroke-dasharray:7.0,7.0;" />
        <polygon fill="#A80036" points="2133,436.15,2137,427.15,2133,431.15,2129,427.15,2133,436.15" style="stroke:#A80036;stroke-width:1.0;" />
        <!--MD5=[fbbd8b13cf71af252ba309eb4df5b566]
link LibraryActivity to LibraryAdapter-->
        <path codeLine="15" d="M1622,212.52 C1622,261.81 1622,377.44 1622,431.15 " fill="none" id="LibraryActivity-to-LibraryAdapter" style="stroke:#A80036;stroke-width:1.0;stroke-dasharray:7.0,7.0;" />
        <polygon fill="#A80036" points="1622,436.15,1626,427.15,1622,431.15,1618,427.15,1622,436.15" style="stroke:#A80036;stroke-width:1.0;" />
        <!--MD5=[406d1d2b7d4b0e89443ca7146736e8a9]
link QuestManageActivity to CharPDataAdapter-->
        <path codeLine="21" d="M1355.26,212.52 C1340.84,261.81 1307.01,377.44 1291.29,431.15 " fill="none" id="QuestManageActivity-to-CharPDataAdapter" style="stroke:#A80036;stroke-width:1.0;stroke-dasharray:7.0,7.0;" />
        <polygon fill="#A80036" points="1289.83,436.15,1296.2167,428.6526,1291.247,431.355,1288.5447,426.3854,1289.83,436.15" style="stroke:#A80036;stroke-width:1.0;" />
        <!--MD5=[4680f49e9f91cbd400bd37d1f089a017]
link QuestManageActivity to CharPAddDialog-->
        <path codeLine="22" d="M1369.33,212.52 C1385.03,261.81 1421.86,377.44 1438.97,431.15 " fill="none" id="QuestManageActivity-to-CharPAddDialog" style="stroke:#A80036;stroke-width:1.0;stroke-dasharray:7.0,7.0;" />
        <polygon fill="#A80036" points="1440.56,436.15,1441.6417,426.3607,1439.0434,431.3856,1434.0186,428.7873,1440.56,436.15" style="stroke:#A80036;stroke-width:1.0;" />
        <!--MD5=[822e52679b4b0ad8ca2cab24ff4bccee]
link PlayActivity to CharParamsAdapter-->
        <path codeLine="29" d="M1953.36,212.52 C1924.03,262.01 1855.07,378.38 1823.41,431.8 " fill="none" id="PlayActivity-to-CharParamsAdapter" style="stroke:#A80036;stroke-width:1.0;stroke-dasharray:7.0,7.0;" />
        <polygon fill="#A80036" points="1820.83,436.15,1828.8682,430.459,1823.3857,431.8525,1821.9922,426.37,1820.83,436.15" style="stroke:#A80036;stroke-width:1.0;" />
        <!--MD5=[2978e5f152910aef7be4f08d914e318e]
link PlayActivity to LinksAdapter-->
        <path codeLine="30" d="M1967,212.52 C1967,261.81 1967,377.44 1967,431.15 " fill="none" id="PlayActivity-to-LinksAdapter" style="stroke:#A80036;stroke-width:1.0;stroke-dasharray:7.0,7.0;" />
        <polygon fill="#A80036" points="1967,436.15,1971,427.15,1967,431.15,1963,427.15,1967,436.15" style="stroke:#A80036;stroke-width:1.0;" />
        <!--MD5=[b9dfd86a2f32cb2d71475be76464bed2]
link TQStory$$$LEFT to TQStory-->
        <!--MD5=[6c20ce9809655cad7865c6e66051ce1f]
reverse link TQStory to TQQuest-->
        <path codeLine="63" d="M269.9,328.56 C267.25,330.72 264.61,332.87 262,335 C235.27,356.78 205.75,380.43 179.65,401.22 " fill="none" id="TQStory-backto-TQQuest" style="stroke:#A80036;stroke-width:1.0;" />
        <polygon fill="#A80036" points="280.19,320.14,273.0139,320.8497,270.909,327.7467,278.0851,327.037,280.19,320.14" style="stroke:#A80036;stroke-width:1.0;" />
        <!--MD5=[1e8ca176761ef62afb497fba1733130c]
reverse link TQStory to TQCharacter-->
        <path codeLine="64" d="M437,348.41 C437,367.42 437,385.77 437,401.9 " fill="none" id="TQStory-backto-TQCharacter" style="stroke:#A80036;stroke-width:1.0;" />
        <polygon fill="#A80036" points="437,335.17,433,341.17,437,347.17,441,341.17,437,335.17" style="stroke:#A80036;stroke-width:1.0;" />
        <!--MD5=[f8fecb4fb81a3f628e3ad9afdbdc6275]
reverse link TQQuest to TwPassage-->
        <path codeLine="81" d="M106,539.2 C106,554.9 106,571.13 106,585.99 " fill="none" id="TQQuest-backto-TwPassage" style="stroke:#A80036;stroke-width:1.0;" />
        <polygon fill="#A80036" points="106,526.18,102,532.18,106,538.18,110,532.18,106,526.18" style="stroke:#A80036;stroke-width:1.0;" />
        <!--MD5=[f9a186672d74db6dfde672b916f8b68d]
reverse link TwPassage to TwPosition-->
        <path codeLine="89" d="M153.16,714.12 C166.26,733.18 180,753.16 191.35,769.69 " fill="none" id="TwPassage-backto-TwPosition" style="stroke:#A80036;stroke-width:1.0;" />
        <polygon fill="#A80036" points="145.76,703.35,145.8589,710.5604,152.5527,713.2423,152.4538,706.0319,145.76,703.35" style="stroke:#A80036;stroke-width:1.0;" />
        <!--MD5=[bf96f5c28184c4ba9ba8fafc20bc98fd]
reverse link TwPassage to TwLink-->
        <path codeLine="90" d="M99.41,716.47 C97.94,732.29 96.42,748.62 95.09,762.98 " fill="none" id="TwPassage-backto-TwLink" style="stroke:#A80036;stroke-width:1.0;" />
        <polygon fill="#A80036" points="100.63,703.35,96.0937,708.9556,99.5234,715.2989,104.0596,709.6933,100.63,703.35" style="stroke:#A80036;stroke-width:1.0;" />
        <!--MD5=[8fc30395bb18e3e477eb3b167406f40c]
link PlayActivity to TQManager-->
        <path codeLine="104" d="M1974.91,212.55 C1987.38,245.26 2014.85,304.53 2059,335 C2164.28,407.65 2260.09,293.43 2341,392.5 C2393.89,457.26 2353.47,564.96 2329.47,615.58 " fill="none" id="PlayActivity-to-TQManager" style="stroke:#A80036;stroke-width:1.0;" />
        <polygon fill="#A80036" points="2327.21,620.3,2334.6995,613.9041,2329.3658,615.7886,2327.4813,610.4549,2327.21,620.3" style="stroke:#A80036;stroke-width:1.0;" />
        <!--MD5=[fda85b66b9309bc63c22455ac4439318]
link QuestManageActivity to TQManager-->
        <path codeLine="105" d="M1383.04,212.64 C1415.26,246.32 1480.43,307.78 1550,335 C1686.48,388.4 2088.54,306.2 2207,392.5 C2261.57,432.26 2239.25,470.5 2266,532.5 C2278.23,560.85 2292.52,593.12 2302.5,615.54 " fill="none" id="QuestManageActivity-to-TQManager" style="stroke:#A80036;stroke-width:1.0;" />
        <polygon fill="#A80036" points="2304.56,620.16,2304.5285,610.3112,2302.5147,615.5975,2297.2285,613.5836,2304.56,620.16" style="stroke:#A80036;stroke-width:1.0;" />
        <!--MD5=[455dee42191eb917e24148b3e09d339b]
link GamesActivity to TQManager-->
        <path codeLine="106" d="M2142.5,212.75 C2156.78,244.87 2186.8,302.54 2230,335 C2297.82,385.96 2361.86,324.07 2412,392.5 C2448.78,442.69 2433.87,474.25 2412,532.5 C2399.33,566.25 2371.24,596.46 2348.53,616.81 " fill="none" id="GamesActivity-to-TQManager" style="stroke:#A80036;stroke-width:1.0;" />
        <polygon fill="#A80036" points="2344.65,620.25,2354.0517,617.3161,2348.4067,616.9504,2348.7724,611.3054,2344.65,620.25" style="stroke:#A80036;stroke-width:1.0;" />
        <!--MD5=[674228d15416e679da44c1ff5de87e31]
link LibraryActivity to TQManager-->
        <path codeLine="107" d="M1629.94,212.6 C1642.73,245.94 1671.31,306.65 1718,335 C1823.42,399.01 2179.64,308.56 2270,392.5 C2332.25,450.32 2326.46,562.51 2319.66,615.05 " fill="none" id="LibraryActivity-to-TQManager" style="stroke:#A80036;stroke-width:1.0;" />
        <polygon fill="#A80036" points="2318.95,620.25,2324.1218,611.8683,2319.6211,615.2952,2316.1942,610.7946,2318.95,620.25" style="stroke:#A80036;stroke-width:1.0;" />
        <!--MD5=[27b1abd6c8fceb3afdf9c24105e14bbd]
link TQManager to AppDatabase-->
        <path codeLine="108" d="M2315,668.64 C2315,697.66 2315,747.4 2315,778.67 " fill="none" id="TQManager-to-AppDatabase" style="stroke:#A80036;stroke-width:1.0;" />
        <polygon fill="#A80036" points="2315,783.9,2319,774.9,2315,778.9,2311,774.9,2315,783.9" style="stroke:#A80036;stroke-width:1.0;" />
        <!--MD5=[18de7b75e9441f3120b616a276f43857]
link TQManager to DBGamesDao-->
        <path codeLine="109" d="M2296.74,668.72 C2279.99,691.39 2256,727.56 2244,763 C2227.44,811.9 2224.52,872.59 2224.41,907.55 " fill="none" id="TQManager-to-DBGamesDao" style="stroke:#A80036;stroke-width:1.0;" />
        <polygon fill="#A80036" points="2224.42,912.93,2228.42,903.93,2224.42,907.93,2220.42,903.93,2224.42,912.93" style="stroke:#A80036;stroke-width:1.0;" />
        <!--MD5=[a42eb2d24cafac8065e4933d97346bad]
link TQManager to DBQuestsDao-->
        <path codeLine="110" d="M2334.47,668.88 C2351.84,691.39 2376.02,727.18 2386,763 C2399.85,812.68 2388.49,873.23 2379.43,907.92 " fill="none" id="TQManager-to-DBQuestsDao" style="stroke:#A80036;stroke-width:1.0;" />
        <polygon fill="#A80036" points="2378.11,912.85,2384.2911,905.1823,2379.3965,908.0184,2376.5604,903.1238,2378.11,912.85" style="stroke:#A80036;stroke-width:1.0;" />
        <!--MD5=[c6f5b60e8e72475874f8d201cd72a727]
link AppDatabase to DBGamesDao-->
        <path codeLine="112" d="M2298.49,832.29 C2283.21,853.87 2260.46,885.95 2244.33,908.72 " fill="none" id="AppDatabase-to-DBGamesDao" style="stroke:#A80036;stroke-width:1.0;stroke-dasharray:7.0,7.0;" />
        <polygon fill="#A80036" points="2241.4,912.85,2249.8794,907.8401,2244.3008,908.7775,2243.3634,903.1988,2241.4,912.85" style="stroke:#A80036;stroke-width:1.0;" />
        <!--MD5=[f495037889afeb5c0ccad5c986a19273]
link AppDatabase to DBQuestsDao-->
        <path codeLine="113" d="M2325.27,832.29 C2334.7,853.69 2348.7,885.42 2358.72,908.15 " fill="none" id="AppDatabase-to-DBQuestsDao" style="stroke:#A80036;stroke-width:1.0;stroke-dasharray:7.0,7.0;" />
        <polygon fill="#A80036" points="2360.79,912.85,2360.7957,903.0011,2358.762,908.2798,2353.4833,906.246,2360.79,912.85" style="stroke:#A80036;stroke-width:1.0;" />
        <!--MD5=[9704f6016b445298223fbff1aee607b0]
link DBGamesDao to DBGame-->
        <path codeLine="117" d="M2224.35,961 C2223.9,977 2223.29,998.45 2222.81,1015.53 " fill="none" id="DBGamesDao-to-DBGame" style="stroke:#A80036;stroke-width:1.0;stroke-dasharray:7.0,7.0;" />
        <polygon fill="#A80036" points="2222.66,1020.68,2226.9154,1011.7979,2222.8028,1015.682,2218.9187,1011.5694,2222.66,1020.68" style="stroke:#A80036;stroke-width:1.0;" />
        <!--MD5=[f7df9121e8df3508748553ae559a8494]
link DBQuestsDao to DBQuest-->
        <path codeLine="122" d="M2368.83,961 C2367.32,977 2365.3,998.45 2363.69,1015.53 " fill="none" id="DBQuestsDao-to-DBQuest" style="stroke:#A80036;stroke-width:1.0;stroke-dasharray:7.0,7.0;" />
        <polygon fill="#A80036" points="2363.2,1020.68,2368.0073,1012.0841,2363.6578,1015.701,2360.0409,1011.3515,2363.2,1020.68" style="stroke:#A80036;stroke-width:1.0;" />
        <!--MD5=[3315ee75c828034ae198b8a1a70935a2]
link AppDatabase to Room-->
        <path codeLine="125" d="M2357.24,832.11 C2407.16,862.3 2486.99,920.48 2515,997 C2533.33,1047.08 2543.04,1071.63 2515,1117 C2508.08,1128.19 2495.58,1135.35 2483.77,1139.85 " fill="none" id="AppDatabase-Room" style="stroke:#A80036;stroke-width:1.0;" />
        <!--MD5=[8639dfa9bccde9e21752e42b5e104b06]
link DBGamesDao to Room-->
        <path codeLine="126" d="M2281.15,955.5 C2287.17,957.36 2293.21,959.23 2299,961 C2351.83,977.2 2379.96,956.93 2418,997 C2452.72,1033.57 2456.4,1097.32 2455.9,1128.61 " fill="none" id="DBGamesDao-Room" style="stroke:#A80036;stroke-width:1.0;" />
        <!--MD5=[5f3b133c346f94539bc91a6a85f80828]
link DBGame to Room-->
        <path codeLine="127" d="M2242.34,1069.05 C2257.7,1084.98 2280.15,1105.33 2304,1117 C2343.62,1136.38 2394.89,1143.24 2426.34,1145.67 " fill="none" id="DBGame-Room" style="stroke:#A80036;stroke-width:1.0;" />
        <!--MD5=[793928fb89fedc31b3d935e363225383]
link DBQuestsDao to Room-->
        <path codeLine="128" d="M2426.16,953.97 C2447.13,963.03 2468.87,976.73 2481,997 C2508.39,1042.77 2499.64,1067.03 2481,1117 C2479.41,1121.26 2476.91,1125.32 2474.08,1129 " fill="none" id="DBQuestsDao-Room" style="stroke:#A80036;stroke-width:1.0;" />
        <!--MD5=[ef494be9d264b9c6b789d5685be0b029]
link DBQuest to Room-->
        <path codeLine="129" d="M2382.57,1069.17 C2399.48,1087.34 2422.68,1112.27 2438.22,1128.97 " fill="none" id="DBQuest-Room" style="stroke:#A80036;stroke-width:1.0;" />
        <!--MD5=[079d7edb91bedd0795cdbf396671d200]
link Room to database-->
        <path codeLine="133" d="M2455,1167.43 C2455,1184.21 2455,1209.01 2455,1226.96 " fill="none" id="Room-database" style="stroke:#A80036;stroke-width:1.0;" />
        <!--MD5=[aa7a1f4a73632c404959f69fd915e3a8]
link Tools to TQManager-->
        <path codeLine="140" d="M984.78,472.69 C1031.23,488.58 1120.65,517.43 1199,532.5 C1603.06,610.23 2100.53,635.27 2261.83,641.64 " fill="none" id="Tools-to-TQManager" style="stroke:#A80036;stroke-width:1.0;stroke-dasharray:7.0,7.0;" />
        <polygon fill="#A80036" points="2266.96,641.84,2258.1276,637.4825,2261.964,641.6396,2257.8069,645.476,2266.96,641.84" style="stroke:#A80036;stroke-width:1.0;" />
        <!--MD5=[239573e40901dc88e6f54e3a9dc49f16]
link MainActivity to Tools-->
        <path codeLine="141" d="M1098.44,212.52 C1069.3,262.01 1000.77,378.38 969.31,431.8 " fill="none" id="MainActivity-to-Tools" style="stroke:#A80036;stroke-width:1.0;" />
        <polygon fill="#A80036" points="966.75,436.15,974.7601,430.4195,969.2845,431.84,967.864,426.3643,966.75,436.15" style="stroke:#A80036;stroke-width:1.0;" />
        <!--MD5=[d07aeec7d4eaac39eaaa5b6fa7018127]
link GamesActivity to Tools-->
        <path codeLine="142" d="M2124.99,212.55 C2111.97,246.12 2082.75,307.45 2035,335 C1873.71,428.07 1382.62,361.49 1199,392.5 C1123.26,405.29 1037.16,431.53 989.55,447.1 " fill="none" id="GamesActivity-to-Tools" style="stroke:#A80036;stroke-width:1.0;" />
        <polygon fill="#A80036" points="984.79,448.67,994.5887,449.663,989.5405,447.1103,992.0932,442.0622,984.79,448.67" style="stroke:#A80036;stroke-width:1.0;" />
        <!--MD5=[afc2bd7823931ceb5d7490393a86f6da]
link QuestManageActivity to Tools-->
        <path codeLine="143" d="M1335.09,212.53 C1299.59,242.42 1234.63,295.41 1175,335 C1112.01,376.83 1034.03,418.37 989.25,441.31 " fill="none" id="QuestManageActivity-to-Tools" style="stroke:#A80036;stroke-width:1.0;" />
        <polygon fill="#A80036" points="984.76,443.61,994.5943,443.0746,989.2119,441.3339,990.9526,435.9516,984.76,443.61" style="stroke:#A80036;stroke-width:1.0;" />
        <!--MD5=[7db9d575fb43ef03051e59c4caa60594]
link LibraryActivity to Tools-->
        <path codeLine="144" d="M1613.57,212.73 C1600.34,245.65 1571.41,305.19 1526,335 C1402.63,415.97 1343.01,360.3 1199,392.5 C1123.98,409.28 1037.53,434.13 989.69,448.37 " fill="none" id="LibraryActivity-to-Tools" style="stroke:#A80036;stroke-width:1.0;" />
        <polygon fill="#A80036" points="984.61,449.89,994.3781,451.1486,989.4011,448.4598,992.0898,443.4828,984.61,449.89" style="stroke:#A80036;stroke-width:1.0;" />
        <!--MD5=[39aed5e9189b398d2995a590a24cf3b2]
link TQStory to MathExpressionEvaluator-->
        <path codeLine="146" d="M593.75,305.77 C657.47,353.03 725.4,403.43 765.48,433.16 " fill="none" id="TQStory-to-MathExpressionEvaluator" style="stroke:#A80036;stroke-width:1.0;" />
        <polygon fill="#A80036" points="769.75,436.32,764.9157,427.7393,765.738,433.336,760.1413,434.1584,769.75,436.32" style="stroke:#A80036;stroke-width:1.0;" />
        <!--MD5=[65252bfe089663f4f2c5a03147a6891d]
@startuml

together {
  package mainactivity {
    class MainActivity
  }

  package gamesactivity {
    class GamesActivity
    GamesActivity ..> GamesAdapter
    class GamesAdapter
  }

  package libraryactivity {
    class LibraryActivity
    LibraryActivity ..> LibraryAdapter
    class LibraryAdapter
  }

  package questmanageactivity {
    class QuestManageActivity
    QuestManageActivity ..> CharPDataAdapter
    QuestManageActivity ..> CharPAddDialog
    class CharPDataAdapter
    class CharPAddDialog
  }

  package playactivity {
    class PlayActivity
    PlayActivity ..> CharParamsAdapter
    PlayActivity ..> LinksAdapter
    class CharParamsAdapter
    class LinksAdapter
  }
}

package story {
  class TQStory {
    -title : String
    -author : String
    -character : TQCharacter
    -tqquest : TQQuest
    -currentPassage : TwPassage
    -mathExpressionEvaluator : MathExpressionEvaluator
    __
    +getPassageByPid(int pid) : TwPassage
    +getPassageByName(String name) : TwPassage
    ..
    +getCurrentPassagePid() : int
    +getCurrentPassageName() : String
    +processCurrentPassage() : String
    +getCurrentPassageLinks() : TwLink
    +goByLinkNumber(int linkNumber)
    ..
    +getCurrentCharacterProperties() : HashMap<String,String>
    +getCurrentCharacterParameters() : HashMap<String,String>
    ..
    +isEnd() : boolean
  }
  note left of TQStory::processCurrentPassage
    Returns "clean" text
    of the current passage.
  end note
  TQStory *- - TQQuest
  TQStory *- - TQCharacter
  class TQCharacter {
    +properties : HashMap<String, String>
    +parameters : HashMap<String, String>

    +TQCharacter()
    +TQCharacter(HashMap<String,String> properties, HashMap<String,String> parameters)
    +TQCharacter(String propertiesJson, String parametersJson)
  }
  class TQQuest {
    +passages : TwPassage[]
    +name : String
    +startnode : int
    +creator : String
    +creator_version : String
    +ifid : String
  }
  TQQuest *- - TwPassage
  class TwPassage {
    +text : String
    +links : TwLink[]
    +name : String
    +pid : int
    +position : TwPosition
  }
  TwPassage *- - TwPosition
  TwPassage *- - TwLink
  class TwPosition {
    +x : float
    +y : float
  }
  class TwLink {
    +name : String
    +link : String
    +pid : int
  }
}

package tqmanager {
  class TQManager
  PlayActivity - -> TQManager
  QuestManageActivity - -> TQManager
  GamesActivity - -> TQManager
  LibraryActivity - -> TQManager
  TQManager - -> AppDatabase
  TQManager - -> DBGamesDao
  TQManager - -> DBQuestsDao
  class AppDatabase
  AppDatabase ..> DBGamesDao
  AppDatabase ..> DBQuestsDao
  together {
    class DBGame
    interface DBGamesDao
    DBGamesDao ..> DBGame
  }
  together {
    class DBQuest
    interface DBQuestsDao
    DBQuestsDao ..> DBQuest
  }
}
AppDatabase - - Room
DBGamesDao - - Room
DBGame - - Room
DBQuestsDao - - Room
DBQuest - - Room
package Room <<Rectangle>> {

}
Room - - database
database database {

}

package tools {
  class Tools
  Tools ..> TQManager
  MainActivity - -> Tools
  GamesActivity - -> Tools
  QuestManageActivity - -> Tools
  LibraryActivity - -> Tools
  class MathExpressionEvaluator
  TQStory - -> MathExpressionEvaluator
}

class SplashScreen {

}

@enduml

PlantUML version 1.2020.26(Mon Dec 21 20:45:07 MSK 2020)
(GPL source distribution)
Java Runtime: Java(TM) SE Runtime Environment
JVM: Java HotSpot(TM) 64-Bit Server VM
Default Encoding: Cp1251
Language: ru
Country: RU
-->
    </g>
</svg>