<?xml version="1.0" encoding="UTF-8" standalone="no"?><svg xmlns="http://www.w3.org/2000/svg" xmlns:xlink="http://www.w3.org/1999/xlink" contentScriptType="application/ecmascript" contentStyleType="text/css" height="1993.5px" preserveAspectRatio="none" style="width:3132px;height:1993px;" version="1.1" viewBox="0 0 3132 1993" width="3132px" zoomAndPan="magnify"><defs><filter height="300%" id="fopvtuedvy6hv" width="300%" x="-1" y="-1"><feGaussianBlur result="blurOut" stdDeviation="3.0"/><feColorMatrix in="blurOut" result="blurOut2" type="matrix" values="0 0 0 0 0 0 0 0 0 0 0 0 0 0 0 0 0 0 .4 0"/><feOffset dx="6.0" dy="6.0" in="blurOut2" result="blurOut3"/><feBlend in="SourceGraphic" in2="blurOut3" mode="normal"/></filter></defs><g><!--MD5=[d5b1ed220e36a9b6b1af384f72e2be5b]
cluster story--><polygon fill="#FFFFFF" filter="url(#fopvtuedvy6hv)" points="24,549,85.5,549,96,584.4141,1999.5,584.4141,1999.5,1983,24,1983,24,549" style="stroke:#000000;stroke-width:2.25;"/><line style="stroke:#000000;stroke-width:2.25;" x1="24" x2="96" y1="584.4141" y2="584.4141"/><text fill="#000000" font-family="sans-serif" font-size="21" font-weight="bold" lengthAdjust="spacing" textLength="52.5" x="30" y="573.7998">story</text><!--MD5=[dbcec57f23c0b4e0af29ccd09b41b3c2]
cluster tqmanager--><polygon fill="#FFFFFF" filter="url(#fopvtuedvy6hv)" points="2035.5,699.75,2157,699.75,2167.5,735.1641,3106.5,735.1641,3106.5,1264.5,2035.5,1264.5,2035.5,699.75" style="stroke:#000000;stroke-width:2.25;"/><line style="stroke:#000000;stroke-width:2.25;" x1="2035.5" x2="2167.5" y1="735.1641" y2="735.1641"/><text fill="#000000" font-family="sans-serif" font-size="21" font-weight="bold" lengthAdjust="spacing" textLength="112.5" x="2041.5" y="724.5498">tqmanager</text><!--MD5=[c52f45833d539af9e29a9d34b8b7302b]
cluster utils--><polygon fill="#FFFFFF" filter="url(#fopvtuedvy6hv)" points="424.5,280.5,478.5,280.5,489,315.9141,1024.5,315.9141,1024.5,513,424.5,513,424.5,280.5" style="stroke:#000000;stroke-width:2.25;"/><line style="stroke:#000000;stroke-width:2.25;" x1="424.5" x2="489" y1="315.9141" y2="315.9141"/><text fill="#000000" font-family="sans-serif" font-size="21" font-weight="bold" lengthAdjust="spacing" textLength="45" x="430.5" y="305.2998">utils</text><!--MD5=[a65b64adc23078244faca9a369f7e410]
class TQStory--><rect codeLine="3" fill="#FEFECE" filter="url(#fopvtuedvy6hv)" height="410.5547" id="TQStory" style="stroke:#A80036;stroke-width:2.25;" width="409.5" x="518.25" y="609"/><ellipse cx="684.375" cy="633" fill="#ADD1B2" rx="16.5" ry="16.5" style="stroke:#A80036;stroke-width:1.5;"/><path d="M687.375,627.75 Q687.6797,627 688.0313,626.625 Q688.3828,626.25 688.7813,626.25 Q689.4844,626.25 689.9297,626.6719 Q690.375,627.0938 690.375,628.0781 L690.375,630.4219 Q690.375,631.4063 689.9531,631.8281 Q689.5313,632.25 688.875,632.25 Q688.2891,632.25 687.9141,631.9922 Q687.5391,631.7344 687.375,631.0547 Q687.3047,630.5859 687.0469,630.3281 Q686.5781,629.8359 685.7344,629.5547 Q684.8906,629.25 684.0469,629.25 Q682.9922,629.25 682.1016,629.6719 Q681.2344,630.0938 680.5547,631.0313 Q679.875,631.9688 679.875,633.2578 L679.875,634.6406 Q679.875,636.1875 681.1406,637.2188 Q682.4063,638.25 684.6563,638.25 Q685.9922,638.25 686.9297,637.9453 Q687.4688,637.7813 688.0781,637.2422 Q688.4766,636.9375 688.6875,636.8438 Q688.8984,636.75 689.1563,636.75 Q689.6484,636.75 690,637.1484 Q690.375,637.5234 690.375,638.0625 Q690.375,638.5781 689.8594,639.1875 Q689.1094,640.0781 687.9141,640.5703 Q686.3438,641.25 684.4219,641.25 Q682.1719,641.25 680.3672,640.3594 Q678.9141,639.6563 677.8828,638.1328 Q676.875,636.6094 676.875,634.8047 L676.875,633.1641 Q676.875,631.2891 677.7656,629.6484 Q678.6797,628.0078 680.25,627.1406 Q681.8438,626.25 683.625,626.25 Q684.7031,626.25 685.6406,626.625 Q686.5781,627 687.375,627.75 Z " fill="#000000"/><text fill="#000000" font-family="sans-serif" font-size="18" lengthAdjust="spacing" textLength="64.5" x="715.125" y="640.3652">TQStory</text><line style="stroke:#A80036;stroke-width:2.25;" x1="519.75" x2="926.25" y1="657" y2="657"/><rect fill="none" height="9" style="stroke:#C82930;stroke-width:1.5;" width="9" x="530.25" y="669"/><text fill="#000000" font-family="sans-serif" font-size="16.5" lengthAdjust="spacing" textLength="123" x="548.25" y="680.1284">TQQuest tqquest</text><rect fill="none" height="9" style="stroke:#C82930;stroke-width:1.5;" width="9" x="530.25" y="689.7539"/><text fill="#000000" font-family="sans-serif" font-size="16.5" lengthAdjust="spacing" textLength="207" x="548.25" y="700.8823">TwPassage currentPassage</text><rect fill="none" height="9" style="stroke:#C82930;stroke-width:1.5;" width="9" x="530.25" y="710.5078"/><text fill="#000000" font-family="sans-serif" font-size="16.5" lengthAdjust="spacing" textLength="234" x="548.25" y="721.6362">String currentPassageCleanText</text><rect fill="none" height="9" style="stroke:#C82930;stroke-width:1.5;" width="9" x="530.25" y="731.2617"/><text fill="#000000" font-family="sans-serif" font-size="16.5" lengthAdjust="spacing" textLength="370.5" x="548.25" y="742.3901">MathExpressionEvaluator mathExpressionEvaluator</text><line style="stroke:#A80036;stroke-width:2.25;" x1="519.75" x2="926.25" y1="752.0156" y2="752.0156"/><ellipse cx="534.75" cy="768.5156" fill="#84BE84" rx="4.5" ry="4.5" style="stroke:#038048;stroke-width:1.5;"/><text fill="#000000" font-family="sans-serif" font-size="16.5" lengthAdjust="spacing" textLength="174" x="548.25" y="775.144">Story(TQQuest tqquest)</text><line style="stroke:#A80036;stroke-width:1.5;stroke-dasharray:1.0,2.0;" x1="519.75" x2="926.25" y1="784.7695" y2="784.7695"/><ellipse cx="534.75" cy="801.2695" fill="#84BE84" rx="4.5" ry="4.5" style="stroke:#038048;stroke-width:1.5;"/><text fill="#000000" font-family="sans-serif" font-size="16.5" lengthAdjust="spacing" textLength="271.5" x="548.25" y="807.8979">TwPassage getPassageByPid(int pid)</text><ellipse cx="534.75" cy="822.0234" fill="#84BE84" rx="4.5" ry="4.5" style="stroke:#038048;stroke-width:1.5;"/><text fill="#000000" font-family="sans-serif" font-size="16.5" lengthAdjust="spacing" textLength="334.5" x="548.25" y="828.6519">TwPassage getPassageByName(String name)</text><line style="stroke:#A80036;stroke-width:1.5;stroke-dasharray:1.0,2.0;" x1="519.75" x2="926.25" y1="838.2773" y2="838.2773"/><ellipse cx="534.75" cy="854.7773" fill="#84BE84" rx="4.5" ry="4.5" style="stroke:#038048;stroke-width:1.5;"/><text fill="#000000" font-family="sans-serif" font-size="16.5" lengthAdjust="spacing" textLength="193.5" x="548.25" y="861.4058">int getCurrentPassagePid()</text><ellipse cx="534.75" cy="875.5313" fill="#84BE84" rx="4.5" ry="4.5" style="stroke:#038048;stroke-width:1.5;"/><text fill="#000000" font-family="sans-serif" font-size="16.5" lengthAdjust="spacing" textLength="238.5" x="548.25" y="882.1597">String getCurrentPassageName()</text><line style="stroke:#A80036;stroke-width:1.5;stroke-dasharray:1.0,2.0;" x1="519.75" x2="926.25" y1="891.7852" y2="891.7852"/><ellipse cx="534.75" cy="908.2852" fill="#84BE84" rx="4.5" ry="4.5" style="stroke:#038048;stroke-width:1.5;"/><text fill="#000000" font-family="sans-serif" font-size="16.5" lengthAdjust="spacing" textLength="235.5" x="548.25" y="914.9136">String processCurrentPassage()</text><ellipse cx="534.75" cy="929.0391" fill="#84BE84" rx="4.5" ry="4.5" style="stroke:#038048;stroke-width:1.5;"/><text fill="#000000" font-family="sans-serif" font-size="16.5" lengthAdjust="spacing" textLength="255" x="548.25" y="935.6675">TwLink[] getCurrentPassageLinks()</text><ellipse cx="534.75" cy="949.793" fill="#84BE84" rx="4.5" ry="4.5" style="stroke:#038048;stroke-width:1.5;"/><text fill="#000000" font-family="sans-serif" font-size="16.5" lengthAdjust="spacing" textLength="270" x="548.25" y="956.4214">String getCurrentPassageCleanText()</text><ellipse cx="534.75" cy="970.5469" fill="#84BE84" rx="4.5" ry="4.5" style="stroke:#038048;stroke-width:1.5;"/><text fill="#000000" font-family="sans-serif" font-size="16.5" lengthAdjust="spacing" textLength="232.5" x="548.25" y="977.1753">goByLinkNumber(int linkNumber)</text><line style="stroke:#A80036;stroke-width:1.5;stroke-dasharray:1.0,2.0;" x1="519.75" x2="926.25" y1="986.8008" y2="986.8008"/><ellipse cx="534.75" cy="1003.3008" fill="#84BE84" rx="4.5" ry="4.5" style="stroke:#038048;stroke-width:1.5;"/><text fill="#000000" font-family="sans-serif" font-size="16.5" lengthAdjust="spacing" textLength="112.5" x="548.25" y="1009.9292">boolean isEnd()</text><!--MD5=[94a077c37636dc349e828f87cb4f5477]
class TQQuest--><rect codeLine="28" fill="#FEFECE" filter="url(#fopvtuedvy6hv)" height="217.2773" id="TQQuest" style="stroke:#A80036;stroke-width:2.25;" width="292.5" x="578.25" y="1114.5"/><ellipse cx="681.375" cy="1138.5" fill="#ADD1B2" rx="16.5" ry="16.5" style="stroke:#A80036;stroke-width:1.5;"/><path d="M684.375,1133.25 Q684.6797,1132.5 685.0313,1132.125 Q685.3828,1131.75 685.7813,1131.75 Q686.4844,1131.75 686.9297,1132.1719 Q687.375,1132.5938 687.375,1133.5781 L687.375,1135.9219 Q687.375,1136.9063 686.9531,1137.3281 Q686.5313,1137.75 685.875,1137.75 Q685.2891,1137.75 684.9141,1137.4922 Q684.5391,1137.2344 684.375,1136.5547 Q684.3047,1136.0859 684.0469,1135.8281 Q683.5781,1135.3359 682.7344,1135.0547 Q681.8906,1134.75 681.0469,1134.75 Q679.9922,1134.75 679.1016,1135.1719 Q678.2344,1135.5938 677.5547,1136.5313 Q676.875,1137.4688 676.875,1138.7578 L676.875,1140.1406 Q676.875,1141.6875 678.1406,1142.7188 Q679.4063,1143.75 681.6563,1143.75 Q682.9922,1143.75 683.9297,1143.4453 Q684.4688,1143.2813 685.0781,1142.7422 Q685.4766,1142.4375 685.6875,1142.3438 Q685.8984,1142.25 686.1563,1142.25 Q686.6484,1142.25 687,1142.6484 Q687.375,1143.0234 687.375,1143.5625 Q687.375,1144.0781 686.8594,1144.6875 Q686.1094,1145.5781 684.9141,1146.0703 Q683.3438,1146.75 681.4219,1146.75 Q679.1719,1146.75 677.3672,1145.8594 Q675.9141,1145.1563 674.8828,1143.6328 Q673.875,1142.1094 673.875,1140.3047 L673.875,1138.6641 Q673.875,1136.7891 674.7656,1135.1484 Q675.6797,1133.5078 677.25,1132.6406 Q678.8438,1131.75 680.625,1131.75 Q681.7031,1131.75 682.6406,1132.125 Q683.5781,1132.5 684.375,1133.25 Z " fill="#000000"/><text fill="#000000" font-family="sans-serif" font-size="18" lengthAdjust="spacing" textLength="73.5" x="712.125" y="1145.8652">TQQuest</text><line style="stroke:#A80036;stroke-width:2.25;" x1="579.75" x2="869.25" y1="1162.5" y2="1162.5"/><ellipse cx="594.75" cy="1179" rx="4.5" ry="4.5" style="stroke:#038048;stroke-width:1.5;fill:none;"/><text fill="#000000" font-family="sans-serif" font-size="16.5" lengthAdjust="spacing" textLength="70.5" x="608.25" y="1185.6284">String title</text><ellipse cx="594.75" cy="1199.7539" rx="4.5" ry="4.5" style="stroke:#038048;stroke-width:1.5;fill:none;"/><text fill="#000000" font-family="sans-serif" font-size="16.5" lengthAdjust="spacing" textLength="93" x="608.25" y="1206.3823">String author</text><ellipse cx="594.75" cy="1220.5078" rx="4.5" ry="4.5" style="stroke:#038048;stroke-width:1.5;fill:none;"/><text fill="#000000" font-family="sans-serif" font-size="16.5" lengthAdjust="spacing" textLength="168" x="608.25" y="1227.1362">TQCharacter character</text><ellipse cx="594.75" cy="1241.2617" rx="4.5" ry="4.5" style="stroke:#038048;stroke-width:1.5;fill:none;"/><text fill="#000000" font-family="sans-serif" font-size="16.5" lengthAdjust="spacing" textLength="207" x="608.25" y="1247.8901">List&lt;TwPassage&gt; passages</text><ellipse cx="594.75" cy="1262.0156" rx="4.5" ry="4.5" style="stroke:#038048;stroke-width:1.5;fill:none;"/><text fill="#000000" font-family="sans-serif" font-size="16.5" lengthAdjust="spacing" textLength="85.5" x="608.25" y="1268.644">String name</text><ellipse cx="594.75" cy="1282.7695" rx="4.5" ry="4.5" style="stroke:#038048;stroke-width:1.5;fill:none;"/><text fill="#000000" font-family="sans-serif" font-size="16.5" lengthAdjust="spacing" textLength="90" x="608.25" y="1289.3979">int startnode</text><ellipse cx="594.75" cy="1303.5234" rx="4.5" ry="4.5" style="stroke:#038048;stroke-width:1.5;fill:none;"/><text fill="#000000" font-family="sans-serif" font-size="16.5" lengthAdjust="spacing" textLength="253.5" x="608.25" y="1310.1519">String creator, creator_version, ifid</text><line style="stroke:#A80036;stroke-width:2.25;" x1="579.75" x2="869.25" y1="1319.7773" y2="1319.7773"/><!--MD5=[6dab1e00aa7953c4af806a73a2ba0a17]
class TwPassage--><rect codeLine="75" fill="#FEFECE" filter="url(#fopvtuedvy6hv)" height="175.7695" id="TwPassage" style="stroke:#A80036;stroke-width:2.25;" width="178.5" x="212.25" y="1429.5"/><ellipse cx="248.925" cy="1453.5" fill="#ADD1B2" rx="16.5" ry="16.5" style="stroke:#A80036;stroke-width:1.5;"/><path d="M251.925,1448.25 Q252.2297,1447.5 252.5812,1447.125 Q252.9328,1446.75 253.3312,1446.75 Q254.0344,1446.75 254.4797,1447.1719 Q254.925,1447.5938 254.925,1448.5781 L254.925,1450.9219 Q254.925,1451.9063 254.5031,1452.3281 Q254.0812,1452.75 253.425,1452.75 Q252.8391,1452.75 252.4641,1452.4922 Q252.0891,1452.2344 251.925,1451.5547 Q251.8547,1451.0859 251.5969,1450.8281 Q251.1281,1450.3359 250.2844,1450.0547 Q249.4406,1449.75 248.5969,1449.75 Q247.5422,1449.75 246.6516,1450.1719 Q245.7844,1450.5938 245.1047,1451.5313 Q244.425,1452.4688 244.425,1453.7578 L244.425,1455.1406 Q244.425,1456.6875 245.6906,1457.7188 Q246.9562,1458.75 249.2062,1458.75 Q250.5422,1458.75 251.4797,1458.4453 Q252.0187,1458.2813 252.6281,1457.7422 Q253.0266,1457.4375 253.2375,1457.3438 Q253.4484,1457.25 253.7062,1457.25 Q254.1984,1457.25 254.55,1457.6484 Q254.925,1458.0234 254.925,1458.5625 Q254.925,1459.0781 254.4094,1459.6875 Q253.6594,1460.5781 252.4641,1461.0703 Q250.8937,1461.75 248.9719,1461.75 Q246.7219,1461.75 244.9172,1460.8594 Q243.4641,1460.1563 242.4328,1458.6328 Q241.425,1457.1094 241.425,1455.3047 L241.425,1453.6641 Q241.425,1451.7891 242.3156,1450.1484 Q243.2297,1448.5078 244.8,1447.6406 Q246.3937,1446.75 248.175,1446.75 Q249.2531,1446.75 250.1906,1447.125 Q251.1281,1447.5 251.925,1448.25 Z " fill="#000000"/><text fill="#000000" font-family="sans-serif" font-size="18" lengthAdjust="spacing" textLength="99" x="273.075" y="1460.8652">TwPassage</text><line style="stroke:#A80036;stroke-width:2.25;" x1="213.75" x2="389.25" y1="1477.5" y2="1477.5"/><ellipse cx="228.75" cy="1494" rx="4.5" ry="4.5" style="stroke:#038048;stroke-width:1.5;fill:none;"/><text fill="#000000" font-family="sans-serif" font-size="16.5" lengthAdjust="spacing" textLength="73.5" x="242.25" y="1500.6284">String text</text><ellipse cx="228.75" cy="1514.7539" rx="4.5" ry="4.5" style="stroke:#038048;stroke-width:1.5;fill:none;"/><text fill="#000000" font-family="sans-serif" font-size="16.5" lengthAdjust="spacing" textLength="132" x="242.25" y="1521.3823">List&lt;TwLink&gt; links</text><ellipse cx="228.75" cy="1535.5078" rx="4.5" ry="4.5" style="stroke:#038048;stroke-width:1.5;fill:none;"/><text fill="#000000" font-family="sans-serif" font-size="16.5" lengthAdjust="spacing" textLength="85.5" x="242.25" y="1542.1362">String name</text><ellipse cx="228.75" cy="1556.2617" rx="4.5" ry="4.5" style="stroke:#038048;stroke-width:1.5;fill:none;"/><text fill="#000000" font-family="sans-serif" font-size="16.5" lengthAdjust="spacing" textLength="42" x="242.25" y="1562.8901">int pid</text><ellipse cx="228.75" cy="1577.0156" rx="4.5" ry="4.5" style="stroke:#038048;stroke-width:1.5;fill:none;"/><text fill="#000000" font-family="sans-serif" font-size="16.5" lengthAdjust="spacing" textLength="139.5" x="242.25" y="1583.644">TwPosition position</text><line style="stroke:#A80036;stroke-width:2.25;" x1="213.75" x2="389.25" y1="1593.2695" y2="1593.2695"/><!--MD5=[886e4d387024dd8b2c4536c0cc7e7e37]
class TQCharacter--><rect codeLine="41" fill="#FEFECE" filter="url(#fopvtuedvy6hv)" height="134.2617" id="TQCharacter" style="stroke:#A80036;stroke-width:2.25;" width="657" x="468" y="1449.75"/><ellipse cx="737.625" cy="1473.75" fill="#ADD1B2" rx="16.5" ry="16.5" style="stroke:#A80036;stroke-width:1.5;"/><path d="M740.625,1468.5 Q740.9297,1467.75 741.2813,1467.375 Q741.6328,1467 742.0313,1467 Q742.7344,1467 743.1797,1467.4219 Q743.625,1467.8438 743.625,1468.8281 L743.625,1471.1719 Q743.625,1472.1563 743.2031,1472.5781 Q742.7813,1473 742.125,1473 Q741.5391,1473 741.1641,1472.7422 Q740.7891,1472.4844 740.625,1471.8047 Q740.5547,1471.3359 740.2969,1471.0781 Q739.8281,1470.5859 738.9844,1470.3047 Q738.1406,1470 737.2969,1470 Q736.2422,1470 735.3516,1470.4219 Q734.4844,1470.8438 733.8047,1471.7813 Q733.125,1472.7188 733.125,1474.0078 L733.125,1475.3906 Q733.125,1476.9375 734.3906,1477.9688 Q735.6563,1479 737.9063,1479 Q739.2422,1479 740.1797,1478.6953 Q740.7188,1478.5313 741.3281,1477.9922 Q741.7266,1477.6875 741.9375,1477.5938 Q742.1484,1477.5 742.4063,1477.5 Q742.8984,1477.5 743.25,1477.8984 Q743.625,1478.2734 743.625,1478.8125 Q743.625,1479.3281 743.1094,1479.9375 Q742.3594,1480.8281 741.1641,1481.3203 Q739.5938,1482 737.6719,1482 Q735.4219,1482 733.6172,1481.1094 Q732.1641,1480.4063 731.1328,1478.8828 Q730.125,1477.3594 730.125,1475.5547 L730.125,1473.9141 Q730.125,1472.0391 731.0156,1470.3984 Q731.9297,1468.7578 733.5,1467.8906 Q735.0938,1467 736.875,1467 Q737.9531,1467 738.8906,1467.375 Q739.8281,1467.75 740.625,1468.5 Z " fill="#000000"/><text fill="#000000" font-family="sans-serif" font-size="18" lengthAdjust="spacing" textLength="105" x="768.375" y="1481.1152">TQCharacter</text><line style="stroke:#A80036;stroke-width:2.25;" x1="469.5" x2="1123.5" y1="1497.75" y2="1497.75"/><ellipse cx="484.5" cy="1514.25" rx="4.5" ry="4.5" style="stroke:#038048;stroke-width:1.5;fill:none;"/><text fill="#000000" font-family="sans-serif" font-size="16.5" lengthAdjust="spacing" textLength="241.5" x="498" y="1520.8784">TQCharacterProperty[] properties</text><ellipse cx="484.5" cy="1535.0039" rx="4.5" ry="4.5" style="stroke:#038048;stroke-width:1.5;fill:none;"/><text fill="#000000" font-family="sans-serif" font-size="16.5" lengthAdjust="spacing" textLength="262.5" x="498" y="1541.6323">TQCharacterParameter[] parameters</text><line style="stroke:#A80036;stroke-width:2.25;" x1="469.5" x2="1123.5" y1="1551.2578" y2="1551.2578"/><ellipse cx="484.5" cy="1567.7578" fill="#84BE84" rx="4.5" ry="4.5" style="stroke:#038048;stroke-width:1.5;"/><text fill="#000000" font-family="sans-serif" font-size="16.5" lengthAdjust="spacing" textLength="618" x="498" y="1574.3862">TQCharacter(TQCharacterProperty[] properties, TQCharacterParameter[] parameters)</text><!--MD5=[2fd640dc82e375cd627fb262b2d3691a]
class TQCharacterProperty--><rect codeLine="50" fill="#FEFECE" filter="url(#fopvtuedvy6hv)" height="155.0156" id="TQCharacterProperty" style="stroke:#A80036;stroke-width:2.25;" width="427.5" x="417.75" y="1750.5"/><ellipse cx="538.875" cy="1774.5" fill="#ADD1B2" rx="16.5" ry="16.5" style="stroke:#A80036;stroke-width:1.5;"/><path d="M541.875,1769.25 Q542.1797,1768.5 542.5313,1768.125 Q542.8828,1767.75 543.2813,1767.75 Q543.9844,1767.75 544.4297,1768.1719 Q544.875,1768.5938 544.875,1769.5781 L544.875,1771.9219 Q544.875,1772.9063 544.4531,1773.3281 Q544.0313,1773.75 543.375,1773.75 Q542.7891,1773.75 542.4141,1773.4922 Q542.0391,1773.2344 541.875,1772.5547 Q541.8047,1772.0859 541.5469,1771.8281 Q541.0781,1771.3359 540.2344,1771.0547 Q539.3906,1770.75 538.5469,1770.75 Q537.4922,1770.75 536.6016,1771.1719 Q535.7344,1771.5938 535.0547,1772.5313 Q534.375,1773.4688 534.375,1774.7578 L534.375,1776.1406 Q534.375,1777.6875 535.6406,1778.7188 Q536.9063,1779.75 539.1563,1779.75 Q540.4922,1779.75 541.4297,1779.4453 Q541.9688,1779.2813 542.5781,1778.7422 Q542.9766,1778.4375 543.1875,1778.3438 Q543.3984,1778.25 543.6563,1778.25 Q544.1484,1778.25 544.5,1778.6484 Q544.875,1779.0234 544.875,1779.5625 Q544.875,1780.0781 544.3594,1780.6875 Q543.6094,1781.5781 542.4141,1782.0703 Q540.8438,1782.75 538.9219,1782.75 Q536.6719,1782.75 534.8672,1781.8594 Q533.4141,1781.1563 532.3828,1779.6328 Q531.375,1778.1094 531.375,1776.3047 L531.375,1774.6641 Q531.375,1772.7891 532.2656,1771.1484 Q533.1797,1769.5078 534.75,1768.6406 Q536.3438,1767.75 538.125,1767.75 Q539.2031,1767.75 540.1406,1768.125 Q541.0781,1768.5 541.875,1769.25 Z " fill="#000000"/><text fill="#000000" font-family="sans-serif" font-size="18" lengthAdjust="spacing" textLength="172.5" x="569.625" y="1781.8652">TQCharacterProperty</text><line style="stroke:#A80036;stroke-width:2.25;" x1="419.25" x2="843.75" y1="1798.5" y2="1798.5"/><ellipse cx="434.25" cy="1815" rx="4.5" ry="4.5" style="stroke:#038048;stroke-width:1.5;fill:none;"/><text fill="#000000" font-family="sans-serif" font-size="16.5" lengthAdjust="spacing" textLength="127.5" x="447.75" y="1821.6284">String tqKeyword</text><ellipse cx="434.25" cy="1835.7539" rx="4.5" ry="4.5" style="stroke:#038048;stroke-width:1.5;fill:none;"/><text fill="#000000" font-family="sans-serif" font-size="16.5" lengthAdjust="spacing" textLength="85.5" x="447.75" y="1842.3823">String value</text><line style="stroke:#A80036;stroke-width:2.25;" x1="419.25" x2="843.75" y1="1852.0078" y2="1852.0078"/><ellipse cx="434.25" cy="1868.5078" fill="#84BE84" rx="4.5" ry="4.5" style="stroke:#038048;stroke-width:1.5;"/><text fill="#000000" font-family="sans-serif" font-size="16.5" lengthAdjust="spacing" textLength="166.5" x="447.75" y="1875.1362">TQCharacterProperty()</text><ellipse cx="434.25" cy="1889.2617" fill="#84BE84" rx="4.5" ry="4.5" style="stroke:#038048;stroke-width:1.5;"/><text fill="#000000" font-family="sans-serif" font-size="16.5" lengthAdjust="spacing" textLength="388.5" x="447.75" y="1895.8901">TQCharacterProperty(String tqKeyword, String value)</text><!--MD5=[c55939318167f167309c174db0d4610d]
class TQCharacterParameter--><rect codeLine="58" fill="#FEFECE" filter="url(#fopvtuedvy6hv)" height="262.0313" id="TQCharacterParameter" style="stroke:#A80036;stroke-width:2.25;" width="1077" x="898.5" y="1696.5"/><ellipse cx="1334.625" cy="1720.5" fill="#ADD1B2" rx="16.5" ry="16.5" style="stroke:#A80036;stroke-width:1.5;"/><path d="M1337.625,1715.25 Q1337.9297,1714.5 1338.2813,1714.125 Q1338.6328,1713.75 1339.0313,1713.75 Q1339.7344,1713.75 1340.1797,1714.1719 Q1340.625,1714.5938 1340.625,1715.5781 L1340.625,1717.9219 Q1340.625,1718.9063 1340.2031,1719.3281 Q1339.7813,1719.75 1339.125,1719.75 Q1338.5391,1719.75 1338.1641,1719.4922 Q1337.7891,1719.2344 1337.625,1718.5547 Q1337.5547,1718.0859 1337.2969,1717.8281 Q1336.8281,1717.3359 1335.9844,1717.0547 Q1335.1406,1716.75 1334.2969,1716.75 Q1333.2422,1716.75 1332.3516,1717.1719 Q1331.4844,1717.5938 1330.8047,1718.5313 Q1330.125,1719.4688 1330.125,1720.7578 L1330.125,1722.1406 Q1330.125,1723.6875 1331.3906,1724.7188 Q1332.6563,1725.75 1334.9063,1725.75 Q1336.2422,1725.75 1337.1797,1725.4453 Q1337.7188,1725.2813 1338.3281,1724.7422 Q1338.7266,1724.4375 1338.9375,1724.3438 Q1339.1484,1724.25 1339.4063,1724.25 Q1339.8984,1724.25 1340.25,1724.6484 Q1340.625,1725.0234 1340.625,1725.5625 Q1340.625,1726.0781 1340.1094,1726.6875 Q1339.3594,1727.5781 1338.1641,1728.0703 Q1336.5938,1728.75 1334.6719,1728.75 Q1332.4219,1728.75 1330.6172,1727.8594 Q1329.1641,1727.1563 1328.1328,1725.6328 Q1327.125,1724.1094 1327.125,1722.3047 L1327.125,1720.6641 Q1327.125,1718.7891 1328.0156,1717.1484 Q1328.9297,1715.5078 1330.5,1714.6406 Q1332.0938,1713.75 1333.875,1713.75 Q1334.9531,1713.75 1335.8906,1714.125 Q1336.8281,1714.5 1337.625,1715.25 Z " fill="#000000"/><text fill="#000000" font-family="sans-serif" font-size="18" lengthAdjust="spacing" textLength="192" x="1365.375" y="1727.8652">TQCharacterParameter</text><line style="stroke:#A80036;stroke-width:2.25;" x1="900" x2="1974" y1="1744.5" y2="1744.5"/><ellipse cx="915" cy="1761" rx="4.5" ry="4.5" style="stroke:#038048;stroke-width:1.5;fill:none;"/><text fill="#000000" font-family="sans-serif" font-size="16.5" lengthAdjust="spacing" textLength="85.5" x="928.5" y="1767.6284">String name</text><ellipse cx="915" cy="1781.7539" rx="4.5" ry="4.5" style="stroke:#038048;stroke-width:1.5;fill:none;"/><text fill="#000000" font-family="sans-serif" font-size="16.5" lengthAdjust="spacing" textLength="60" x="928.5" y="1788.3823">int value</text><line style="stroke:#A80036;stroke-width:2.25;" x1="900" x2="1974" y1="1798.0078" y2="1798.0078"/><ellipse cx="915" cy="1814.5078" fill="#84BE84" rx="4.5" ry="4.5" style="stroke:#038048;stroke-width:1.5;"/><text fill="#000000" font-family="sans-serif" font-size="16.5" lengthAdjust="spacing" textLength="178.5" x="928.5" y="1821.1362">TQCharacterParameter()</text><ellipse cx="915" cy="1835.2617" fill="#84BE84" rx="4.5" ry="4.5" style="stroke:#038048;stroke-width:1.5;"/><text fill="#000000" font-family="sans-serif" font-size="16.5" lengthAdjust="spacing" textLength="1038" x="928.5" y="1841.8901">TQCharacterParameter(String name, int startValue, String minValue, String minValPassageName, String maxValue, String maxValPassageName)</text><line style="stroke:#A80036;stroke-width:1.5;stroke-dasharray:1.0,2.0;" x1="900" x2="1974" y1="1851.5156" y2="1851.5156"/><ellipse cx="915" cy="1868.0156" fill="#84BE84" rx="4.5" ry="4.5" style="stroke:#038048;stroke-width:1.5;"/><text fill="#000000" font-family="sans-serif" font-size="16.5" lengthAdjust="spacing" textLength="75" x="928.5" y="1874.644">getName()</text><ellipse cx="915" cy="1888.7695" fill="#84BE84" rx="4.5" ry="4.5" style="stroke:#038048;stroke-width:1.5;"/><text fill="#000000" font-family="sans-serif" font-size="16.5" lengthAdjust="spacing" textLength="75" x="928.5" y="1895.3979">setName()</text><line style="stroke:#A80036;stroke-width:1.5;stroke-dasharray:1.0,2.0;" x1="900" x2="1974" y1="1905.0234" y2="1905.0234"/><ellipse cx="915" cy="1921.5234" fill="#84BE84" rx="4.5" ry="4.5" style="stroke:#038048;stroke-width:1.5;"/><text fill="#000000" font-family="sans-serif" font-size="16.5" lengthAdjust="spacing" textLength="76.5" x="928.5" y="1928.1519">getValue()</text><ellipse cx="915" cy="1942.2773" fill="#84BE84" rx="4.5" ry="4.5" style="stroke:#038048;stroke-width:1.5;"/><text fill="#000000" font-family="sans-serif" font-size="16.5" lengthAdjust="spacing" textLength="76.5" x="928.5" y="1948.9058">setValue()</text><!--MD5=[b0082cdfa4dcce96baa042831b0a3d46]
class TwLink--><rect codeLine="86" fill="#FEFECE" filter="url(#fopvtuedvy6hv)" height="134.2617" id="TwLink" style="stroke:#A80036;stroke-width:2.25;" width="124.5" x="240.75" y="1760.25"/><ellipse cx="271.35" cy="1784.25" fill="#ADD1B2" rx="16.5" ry="16.5" style="stroke:#A80036;stroke-width:1.5;"/><path d="M274.35,1779 Q274.6547,1778.25 275.0063,1777.875 Q275.3578,1777.5 275.7563,1777.5 Q276.4594,1777.5 276.9047,1777.9219 Q277.35,1778.3438 277.35,1779.3281 L277.35,1781.6719 Q277.35,1782.6563 276.9281,1783.0781 Q276.5063,1783.5 275.85,1783.5 Q275.2641,1783.5 274.8891,1783.2422 Q274.5141,1782.9844 274.35,1782.3047 Q274.2797,1781.8359 274.0219,1781.5781 Q273.5531,1781.0859 272.7094,1780.8047 Q271.8656,1780.5 271.0219,1780.5 Q269.9672,1780.5 269.0766,1780.9219 Q268.2094,1781.3438 267.5297,1782.2813 Q266.85,1783.2188 266.85,1784.5078 L266.85,1785.8906 Q266.85,1787.4375 268.1156,1788.4688 Q269.3813,1789.5 271.6313,1789.5 Q272.9672,1789.5 273.9047,1789.1953 Q274.4438,1789.0313 275.0531,1788.4922 Q275.4516,1788.1875 275.6625,1788.0938 Q275.8734,1788 276.1313,1788 Q276.6234,1788 276.975,1788.3984 Q277.35,1788.7734 277.35,1789.3125 Q277.35,1789.8281 276.8344,1790.4375 Q276.0844,1791.3281 274.8891,1791.8203 Q273.3188,1792.5 271.3969,1792.5 Q269.1469,1792.5 267.3422,1791.6094 Q265.8891,1790.9063 264.8578,1789.3828 Q263.85,1787.8594 263.85,1786.0547 L263.85,1784.4141 Q263.85,1782.5391 264.7406,1780.8984 Q265.6547,1779.2578 267.225,1778.3906 Q268.8188,1777.5 270.6,1777.5 Q271.6781,1777.5 272.6156,1777.875 Q273.5531,1778.25 274.35,1779 Z " fill="#000000"/><text fill="#000000" font-family="sans-serif" font-size="18" lengthAdjust="spacing" textLength="58.5" x="294.15" y="1791.6152">TwLink</text><line style="stroke:#A80036;stroke-width:2.25;" x1="242.25" x2="363.75" y1="1808.25" y2="1808.25"/><ellipse cx="257.25" cy="1824.75" rx="4.5" ry="4.5" style="stroke:#038048;stroke-width:1.5;fill:none;"/><text fill="#000000" font-family="sans-serif" font-size="16.5" lengthAdjust="spacing" textLength="85.5" x="270.75" y="1831.3784">String name</text><ellipse cx="257.25" cy="1845.5039" rx="4.5" ry="4.5" style="stroke:#038048;stroke-width:1.5;fill:none;"/><text fill="#000000" font-family="sans-serif" font-size="16.5" lengthAdjust="spacing" textLength="69" x="270.75" y="1852.1323">String link</text><ellipse cx="257.25" cy="1866.2578" rx="4.5" ry="4.5" style="stroke:#038048;stroke-width:1.5;fill:none;"/><text fill="#000000" font-family="sans-serif" font-size="16.5" lengthAdjust="spacing" textLength="42" x="270.75" y="1872.8862">int pid</text><line style="stroke:#A80036;stroke-width:2.25;" x1="242.25" x2="363.75" y1="1882.5117" y2="1882.5117"/><!--MD5=[fe85196431279e9b6e8bfad9ac70314f]
class TwPosition--><rect codeLine="94" fill="#FEFECE" filter="url(#fopvtuedvy6hv)" height="92.7539" id="TwPosition" style="stroke:#A80036;stroke-width:2.25;" width="139.5" x="48.75" y="1781.25"/><ellipse cx="71.25" cy="1805.25" fill="#ADD1B2" rx="16.5" ry="16.5" style="stroke:#A80036;stroke-width:1.5;"/><path d="M74.25,1800 Q74.5547,1799.25 74.9063,1798.875 Q75.2578,1798.5 75.6563,1798.5 Q76.3594,1798.5 76.8047,1798.9219 Q77.25,1799.3438 77.25,1800.3281 L77.25,1802.6719 Q77.25,1803.6563 76.8281,1804.0781 Q76.4063,1804.5 75.75,1804.5 Q75.1641,1804.5 74.7891,1804.2422 Q74.4141,1803.9844 74.25,1803.3047 Q74.1797,1802.8359 73.9219,1802.5781 Q73.4531,1802.0859 72.6094,1801.8047 Q71.7656,1801.5 70.9219,1801.5 Q69.8672,1801.5 68.9766,1801.9219 Q68.1094,1802.3438 67.4297,1803.2813 Q66.75,1804.2188 66.75,1805.5078 L66.75,1806.8906 Q66.75,1808.4375 68.0156,1809.4688 Q69.2813,1810.5 71.5313,1810.5 Q72.8672,1810.5 73.8047,1810.1953 Q74.3438,1810.0313 74.9531,1809.4922 Q75.3516,1809.1875 75.5625,1809.0938 Q75.7734,1809 76.0313,1809 Q76.5234,1809 76.875,1809.3984 Q77.25,1809.7734 77.25,1810.3125 Q77.25,1810.8281 76.7344,1811.4375 Q75.9844,1812.3281 74.7891,1812.8203 Q73.2188,1813.5 71.2969,1813.5 Q69.0469,1813.5 67.2422,1812.6094 Q65.7891,1811.9063 64.7578,1810.3828 Q63.75,1808.8594 63.75,1807.0547 L63.75,1805.4141 Q63.75,1803.5391 64.6406,1801.8984 Q65.5547,1800.2578 67.125,1799.3906 Q68.7188,1798.5 70.5,1798.5 Q71.5781,1798.5 72.5156,1798.875 Q73.4531,1799.25 74.25,1800 Z " fill="#000000"/><text fill="#000000" font-family="sans-serif" font-size="18" lengthAdjust="spacing" textLength="91.5" x="92.25" y="1812.6152">TwPosition</text><line style="stroke:#A80036;stroke-width:2.25;" x1="50.25" x2="186.75" y1="1829.25" y2="1829.25"/><ellipse cx="65.25" cy="1845.75" rx="4.5" ry="4.5" style="stroke:#038048;stroke-width:1.5;fill:none;"/><text fill="#000000" font-family="sans-serif" font-size="16.5" lengthAdjust="spacing" textLength="63" x="78.75" y="1852.3784">float x, y</text><line style="stroke:#A80036;stroke-width:2.25;" x1="50.25" x2="186.75" y1="1862.0039" y2="1862.0039"/><!--MD5=[b51a5a65ccb90c6d6d2650764e5090ad]
class TQManager--><rect codeLine="107" fill="#FEFECE" filter="url(#fopvtuedvy6hv)" height="113.5078" id="TQManager" style="stroke:#A80036;stroke-width:2.25;" width="358.5" x="2225.25" y="753.75"/><ellipse cx="2350.125" cy="777.75" fill="#ADD1B2" rx="16.5" ry="16.5" style="stroke:#A80036;stroke-width:1.5;"/><path d="M2353.125,772.5 Q2353.4297,771.75 2353.7813,771.375 Q2354.1328,771 2354.5313,771 Q2355.2344,771 2355.6797,771.4219 Q2356.125,771.8438 2356.125,772.8281 L2356.125,775.1719 Q2356.125,776.1563 2355.7031,776.5781 Q2355.2813,777 2354.625,777 Q2354.0391,777 2353.6641,776.7422 Q2353.2891,776.4844 2353.125,775.8047 Q2353.0547,775.3359 2352.7969,775.0781 Q2352.3281,774.5859 2351.4844,774.3047 Q2350.6406,774 2349.7969,774 Q2348.7422,774 2347.8516,774.4219 Q2346.9844,774.8438 2346.3047,775.7813 Q2345.625,776.7188 2345.625,778.0078 L2345.625,779.3906 Q2345.625,780.9375 2346.8906,781.9688 Q2348.1563,783 2350.4063,783 Q2351.7422,783 2352.6797,782.6953 Q2353.2188,782.5313 2353.8281,781.9922 Q2354.2266,781.6875 2354.4375,781.5938 Q2354.6484,781.5 2354.9063,781.5 Q2355.3984,781.5 2355.75,781.8984 Q2356.125,782.2734 2356.125,782.8125 Q2356.125,783.3281 2355.6094,783.9375 Q2354.8594,784.8281 2353.6641,785.3203 Q2352.0938,786 2350.1719,786 Q2347.9219,786 2346.1172,785.1094 Q2344.6641,784.4063 2343.6328,782.8828 Q2342.625,781.3594 2342.625,779.5547 L2342.625,777.9141 Q2342.625,776.0391 2343.5156,774.3984 Q2344.4297,772.7578 2346,771.8906 Q2347.5938,771 2349.375,771 Q2350.4531,771 2351.3906,771.375 Q2352.3281,771.75 2353.125,772.5 Z " fill="#000000"/><text fill="#000000" font-family="sans-serif" font-size="18" lengthAdjust="spacing" textLength="96" x="2380.875" y="785.1152">TQManager</text><line style="stroke:#A80036;stroke-width:2.25;" x1="2226.75" x2="2582.25" y1="801.75" y2="801.75"/><line style="stroke:#A80036;stroke-width:2.25;" x1="2226.75" x2="2582.25" y1="813.75" y2="813.75"/><ellipse cx="2241.75" cy="830.25" fill="#84BE84" rx="4.5" ry="4.5" style="stroke:#038048;stroke-width:1.5;"/><text fill="#000000" font-family="sans-serif" font-size="16.5" lengthAdjust="spacing" text-decoration="underline" textLength="319.5" x="2255.25" y="836.8784">void addQuest(String title, String author, file)</text><ellipse cx="2241.75" cy="851.0039" fill="#84BE84" rx="4.5" ry="4.5" style="stroke:#038048;stroke-width:1.5;"/><text fill="#000000" font-family="sans-serif" font-size="16.5" lengthAdjust="spacing" text-decoration="underline" textLength="261" x="2255.25" y="857.6323">TQQuest getQuest([some identifier])</text><path d="M2059.5,1201.5 L2059.5,1241.0273 A0,0 0 0 0 2059.5,1241.0273 L3082.5,1241.0273 A0,0 0 0 0 3082.5,1241.0273 L3082.5,1216.5 L3067.5,1201.5 L2569.575,1201.5 L2427.3,868.02 L2557.575,1201.5 L2059.5,1201.5 A0,0 0 0 0 2059.5,1201.5 " fill="#FBFB77" filter="url(#fopvtuedvy6hv)" style="stroke:#A80036;stroke-width:1.5;"/><path d="M3067.5,1201.5 L3067.5,1216.5 L3082.5,1216.5 L3067.5,1201.5 " fill="#FBFB77" style="stroke:#A80036;stroke-width:1.5;"/><text fill="#000000" font-family="sans-serif" font-size="19.5" lengthAdjust="spacing" textLength="991.5" x="2068.5" y="1229.2427">Умеет управлять хранящимися квестами (json, знает где их искать), добавляет новые квесты в "библиотеку".</text><!--MD5=[a14c15983673cdc294675f282256a1fb]
class MathExpressionEvaluator--><rect codeLine="115" fill="#FEFECE" filter="url(#fopvtuedvy6hv)" height="155.0156" id="MathExpressionEvaluator" style="stroke:#A80036;stroke-width:2.25;" width="550.5" x="449.25" y="334.5"/><ellipse cx="613.875" cy="358.5" fill="#ADD1B2" rx="16.5" ry="16.5" style="stroke:#A80036;stroke-width:1.5;"/><path d="M616.875,353.25 Q617.1797,352.5 617.5313,352.125 Q617.8828,351.75 618.2813,351.75 Q618.9844,351.75 619.4297,352.1719 Q619.875,352.5938 619.875,353.5781 L619.875,355.9219 Q619.875,356.9063 619.4531,357.3281 Q619.0313,357.75 618.375,357.75 Q617.7891,357.75 617.4141,357.4922 Q617.0391,357.2344 616.875,356.5547 Q616.8047,356.0859 616.5469,355.8281 Q616.0781,355.3359 615.2344,355.0547 Q614.3906,354.75 613.5469,354.75 Q612.4922,354.75 611.6016,355.1719 Q610.7344,355.5938 610.0547,356.5313 Q609.375,357.4688 609.375,358.7578 L609.375,360.1406 Q609.375,361.6875 610.6406,362.7188 Q611.9063,363.75 614.1563,363.75 Q615.4922,363.75 616.4297,363.4453 Q616.9688,363.2813 617.5781,362.7422 Q617.9766,362.4375 618.1875,362.3438 Q618.3984,362.25 618.6563,362.25 Q619.1484,362.25 619.5,362.6484 Q619.875,363.0234 619.875,363.5625 Q619.875,364.0781 619.3594,364.6875 Q618.6094,365.5781 617.4141,366.0703 Q615.8438,366.75 613.9219,366.75 Q611.6719,366.75 609.8672,365.8594 Q608.4141,365.1563 607.3828,363.6328 Q606.375,362.1094 606.375,360.3047 L606.375,358.6641 Q606.375,356.7891 607.2656,355.1484 Q608.1797,353.5078 609.75,352.6406 Q611.3438,351.75 613.125,351.75 Q614.2031,351.75 615.1406,352.125 Q616.0781,352.5 616.875,353.25 Z " fill="#000000"/><text fill="#000000" font-family="sans-serif" font-size="18" lengthAdjust="spacing" textLength="208.5" x="644.625" y="365.8652">MathExpressionEvaluator</text><line style="stroke:#A80036;stroke-width:2.25;" x1="450.75" x2="998.25" y1="382.5" y2="382.5"/><rect fill="none" height="9" style="stroke:#C82930;stroke-width:1.5;" width="9" x="461.25" y="394.5"/><text fill="#000000" font-family="sans-serif" font-size="16.5" lengthAdjust="spacing" textLength="471" x="479.25" y="405.6284">final com.fathzer.soft.javaluator.DoubleEvaluator doubleEvaluator</text><rect fill="none" height="9" style="stroke:#C82930;stroke-width:1.5;" width="9" x="461.25" y="415.2539"/><text fill="#000000" font-family="sans-serif" font-size="16.5" lengthAdjust="spacing" textLength="511.5" x="479.25" y="426.3823">final com.fathzer.soft.javaluator.StaticVariableSet&lt;Double&gt; variableSet</text><line style="stroke:#A80036;stroke-width:2.25;" x1="450.75" x2="998.25" y1="436.0078" y2="436.0078"/><ellipse cx="465.75" cy="452.5078" fill="#84BE84" rx="4.5" ry="4.5" style="stroke:#038048;stroke-width:1.5;"/><text fill="#000000" font-family="sans-serif" font-size="16.5" lengthAdjust="spacing" textLength="186" x="479.25" y="459.1362">double evaluate(Strint ex)</text><ellipse cx="465.75" cy="473.2617" fill="#84BE84" rx="4.5" ry="4.5" style="stroke:#038048;stroke-width:1.5;"/><text fill="#000000" font-family="sans-serif" font-size="16.5" lengthAdjust="spacing" textLength="315" x="479.25" y="479.8901">void setVariable(String name, double value)</text><!--MD5=[134c270b0e89de66451b70565dcb7313]
class GamesActivity--><rect fill="#FEFECE" filter="url(#fopvtuedvy6hv)" height="72" id="GamesActivity" style="stroke:#A80036;stroke-width:2.25;" width="162" x="1906.5" y="10.5"/><ellipse cx="1929" cy="34.5" fill="#ADD1B2" rx="16.5" ry="16.5" style="stroke:#A80036;stroke-width:1.5;"/><path d="M1932,29.25 Q1932.3047,28.5 1932.6563,28.125 Q1933.0078,27.75 1933.4063,27.75 Q1934.1094,27.75 1934.5547,28.1719 Q1935,28.5938 1935,29.5781 L1935,31.9219 Q1935,32.9063 1934.5781,33.3281 Q1934.1563,33.75 1933.5,33.75 Q1932.9141,33.75 1932.5391,33.4922 Q1932.1641,33.2344 1932,32.5547 Q1931.9297,32.0859 1931.6719,31.8281 Q1931.2031,31.3359 1930.3594,31.0547 Q1929.5156,30.75 1928.6719,30.75 Q1927.6172,30.75 1926.7266,31.1719 Q1925.8594,31.5938 1925.1797,32.5313 Q1924.5,33.4688 1924.5,34.7578 L1924.5,36.1406 Q1924.5,37.6875 1925.7656,38.7188 Q1927.0313,39.75 1929.2813,39.75 Q1930.6172,39.75 1931.5547,39.4453 Q1932.0938,39.2813 1932.7031,38.7422 Q1933.1016,38.4375 1933.3125,38.3438 Q1933.5234,38.25 1933.7813,38.25 Q1934.2734,38.25 1934.625,38.6484 Q1935,39.0234 1935,39.5625 Q1935,40.0781 1934.4844,40.6875 Q1933.7344,41.5781 1932.5391,42.0703 Q1930.9688,42.75 1929.0469,42.75 Q1926.7969,42.75 1924.9922,41.8594 Q1923.5391,41.1563 1922.5078,39.6328 Q1921.5,38.1094 1921.5,36.3047 L1921.5,34.6641 Q1921.5,32.7891 1922.3906,31.1484 Q1923.3047,29.5078 1924.875,28.6406 Q1926.4688,27.75 1928.25,27.75 Q1929.3281,27.75 1930.2656,28.125 Q1931.2031,28.5 1932,29.25 Z " fill="#000000"/><text fill="#000000" font-family="sans-serif" font-size="18" lengthAdjust="spacing" textLength="114" x="1950" y="41.8652">GamesActivity</text><line style="stroke:#A80036;stroke-width:2.25;" x1="1908" x2="2067" y1="58.5" y2="58.5"/><line style="stroke:#A80036;stroke-width:2.25;" x1="1908" x2="2067" y1="70.5" y2="70.5"/><!--MD5=[45dd4569e34e7361ee400c0f63bf8a03]
class ManagerActivity--><rect fill="#FEFECE" filter="url(#fopvtuedvy6hv)" height="72" id="ManagerActivity" style="stroke:#A80036;stroke-width:2.25;" width="172.5" x="2033.25" y="172.5"/><ellipse cx="2055.75" cy="196.5" fill="#ADD1B2" rx="16.5" ry="16.5" style="stroke:#A80036;stroke-width:1.5;"/><path d="M2058.75,191.25 Q2059.0547,190.5 2059.4063,190.125 Q2059.7578,189.75 2060.1563,189.75 Q2060.8594,189.75 2061.3047,190.1719 Q2061.75,190.5938 2061.75,191.5781 L2061.75,193.9219 Q2061.75,194.9063 2061.3281,195.3281 Q2060.9063,195.75 2060.25,195.75 Q2059.6641,195.75 2059.2891,195.4922 Q2058.9141,195.2344 2058.75,194.5547 Q2058.6797,194.0859 2058.4219,193.8281 Q2057.9531,193.3359 2057.1094,193.0547 Q2056.2656,192.75 2055.4219,192.75 Q2054.3672,192.75 2053.4766,193.1719 Q2052.6094,193.5938 2051.9297,194.5313 Q2051.25,195.4688 2051.25,196.7578 L2051.25,198.1406 Q2051.25,199.6875 2052.5156,200.7188 Q2053.7813,201.75 2056.0313,201.75 Q2057.3672,201.75 2058.3047,201.4453 Q2058.8438,201.2813 2059.4531,200.7422 Q2059.8516,200.4375 2060.0625,200.3438 Q2060.2734,200.25 2060.5313,200.25 Q2061.0234,200.25 2061.375,200.6484 Q2061.75,201.0234 2061.75,201.5625 Q2061.75,202.0781 2061.2344,202.6875 Q2060.4844,203.5781 2059.2891,204.0703 Q2057.7188,204.75 2055.7969,204.75 Q2053.5469,204.75 2051.7422,203.8594 Q2050.2891,203.1563 2049.2578,201.6328 Q2048.25,200.1094 2048.25,198.3047 L2048.25,196.6641 Q2048.25,194.7891 2049.1406,193.1484 Q2050.0547,191.5078 2051.625,190.6406 Q2053.2188,189.75 2055,189.75 Q2056.0781,189.75 2057.0156,190.125 Q2057.9531,190.5 2058.75,191.25 Z " fill="#000000"/><text fill="#000000" font-family="sans-serif" font-size="18" lengthAdjust="spacing" textLength="124.5" x="2076.75" y="203.8652">ManagerActivity</text><line style="stroke:#A80036;stroke-width:2.25;" x1="2034.75" x2="2204.25" y1="220.5" y2="220.5"/><line style="stroke:#A80036;stroke-width:2.25;" x1="2034.75" x2="2204.25" y1="232.5" y2="232.5"/><!--MD5=[bb5ceb834fa242de0c41830e5ec59898]
class PlayActivity--><rect fill="#FEFECE" filter="url(#fopvtuedvy6hv)" height="72" id="PlayActivity" style="stroke:#A80036;stroke-width:2.25;" width="135" x="1867.5" y="375.75"/><ellipse cx="1890" cy="399.75" fill="#ADD1B2" rx="16.5" ry="16.5" style="stroke:#A80036;stroke-width:1.5;"/><path d="M1893,394.5 Q1893.3047,393.75 1893.6563,393.375 Q1894.0078,393 1894.4063,393 Q1895.1094,393 1895.5547,393.4219 Q1896,393.8438 1896,394.8281 L1896,397.1719 Q1896,398.1563 1895.5781,398.5781 Q1895.1563,399 1894.5,399 Q1893.9141,399 1893.5391,398.7422 Q1893.1641,398.4844 1893,397.8047 Q1892.9297,397.3359 1892.6719,397.0781 Q1892.2031,396.5859 1891.3594,396.3047 Q1890.5156,396 1889.6719,396 Q1888.6172,396 1887.7266,396.4219 Q1886.8594,396.8438 1886.1797,397.7813 Q1885.5,398.7188 1885.5,400.0078 L1885.5,401.3906 Q1885.5,402.9375 1886.7656,403.9688 Q1888.0313,405 1890.2813,405 Q1891.6172,405 1892.5547,404.6953 Q1893.0938,404.5313 1893.7031,403.9922 Q1894.1016,403.6875 1894.3125,403.5938 Q1894.5234,403.5 1894.7813,403.5 Q1895.2734,403.5 1895.625,403.8984 Q1896,404.2734 1896,404.8125 Q1896,405.3281 1895.4844,405.9375 Q1894.7344,406.8281 1893.5391,407.3203 Q1891.9688,408 1890.0469,408 Q1887.7969,408 1885.9922,407.1094 Q1884.5391,406.4063 1883.5078,404.8828 Q1882.5,403.3594 1882.5,401.5547 L1882.5,399.9141 Q1882.5,398.0391 1883.3906,396.3984 Q1884.3047,394.7578 1885.875,393.8906 Q1887.4688,393 1889.25,393 Q1890.3281,393 1891.2656,393.375 Q1892.2031,393.75 1893,394.5 Z " fill="#000000"/><text fill="#000000" font-family="sans-serif" font-size="18" lengthAdjust="spacing" textLength="87" x="1911" y="407.1152">PlayActivity</text><line style="stroke:#A80036;stroke-width:2.25;" x1="1869" x2="2001" y1="423.75" y2="423.75"/><line style="stroke:#A80036;stroke-width:2.25;" x1="1869" x2="2001" y1="435.75" y2="435.75"/><!--MD5=[b038f74214102a615b1d9ad560618bc1]
class ManageQuestActivity--><rect fill="#FEFECE" filter="url(#fopvtuedvy6hv)" height="72" id="ManageQuestActivity" style="stroke:#A80036;stroke-width:2.25;" width="216" x="2055" y="375.75"/><ellipse cx="2077.5" cy="399.75" fill="#ADD1B2" rx="16.5" ry="16.5" style="stroke:#A80036;stroke-width:1.5;"/><path d="M2080.5,394.5 Q2080.8047,393.75 2081.1563,393.375 Q2081.5078,393 2081.9063,393 Q2082.6094,393 2083.0547,393.4219 Q2083.5,393.8438 2083.5,394.8281 L2083.5,397.1719 Q2083.5,398.1563 2083.0781,398.5781 Q2082.6563,399 2082,399 Q2081.4141,399 2081.0391,398.7422 Q2080.6641,398.4844 2080.5,397.8047 Q2080.4297,397.3359 2080.1719,397.0781 Q2079.7031,396.5859 2078.8594,396.3047 Q2078.0156,396 2077.1719,396 Q2076.1172,396 2075.2266,396.4219 Q2074.3594,396.8438 2073.6797,397.7813 Q2073,398.7188 2073,400.0078 L2073,401.3906 Q2073,402.9375 2074.2656,403.9688 Q2075.5313,405 2077.7813,405 Q2079.1172,405 2080.0547,404.6953 Q2080.5938,404.5313 2081.2031,403.9922 Q2081.6016,403.6875 2081.8125,403.5938 Q2082.0234,403.5 2082.2813,403.5 Q2082.7734,403.5 2083.125,403.8984 Q2083.5,404.2734 2083.5,404.8125 Q2083.5,405.3281 2082.9844,405.9375 Q2082.2344,406.8281 2081.0391,407.3203 Q2079.4688,408 2077.5469,408 Q2075.2969,408 2073.4922,407.1094 Q2072.0391,406.4063 2071.0078,404.8828 Q2070,403.3594 2070,401.5547 L2070,399.9141 Q2070,398.0391 2070.8906,396.3984 Q2071.8047,394.7578 2073.375,393.8906 Q2074.9688,393 2076.75,393 Q2077.8281,393 2078.7656,393.375 Q2079.7031,393.75 2080.5,394.5 Z " fill="#000000"/><text fill="#000000" font-family="sans-serif" font-size="18" lengthAdjust="spacing" textLength="168" x="2098.5" y="407.1152">ManageQuestActivity</text><line style="stroke:#A80036;stroke-width:2.25;" x1="2056.5" x2="2269.5" y1="423.75" y2="423.75"/><line style="stroke:#A80036;stroke-width:2.25;" x1="2056.5" x2="2269.5" y1="435.75" y2="435.75"/><!--MD5=[09a1c4250b0891a3ea876bbf4174533e]
class ShareActivity--><rect fill="#FEFECE" filter="url(#fopvtuedvy6hv)" height="72" id="ShareActivity" style="stroke:#A80036;stroke-width:2.25;" width="150" x="2121" y="10.5"/><ellipse cx="2143.5" cy="34.5" fill="#ADD1B2" rx="16.5" ry="16.5" style="stroke:#A80036;stroke-width:1.5;"/><path d="M2146.5,29.25 Q2146.8047,28.5 2147.1563,28.125 Q2147.5078,27.75 2147.9063,27.75 Q2148.6094,27.75 2149.0547,28.1719 Q2149.5,28.5938 2149.5,29.5781 L2149.5,31.9219 Q2149.5,32.9063 2149.0781,33.3281 Q2148.6563,33.75 2148,33.75 Q2147.4141,33.75 2147.0391,33.4922 Q2146.6641,33.2344 2146.5,32.5547 Q2146.4297,32.0859 2146.1719,31.8281 Q2145.7031,31.3359 2144.8594,31.0547 Q2144.0156,30.75 2143.1719,30.75 Q2142.1172,30.75 2141.2266,31.1719 Q2140.3594,31.5938 2139.6797,32.5313 Q2139,33.4688 2139,34.7578 L2139,36.1406 Q2139,37.6875 2140.2656,38.7188 Q2141.5313,39.75 2143.7813,39.75 Q2145.1172,39.75 2146.0547,39.4453 Q2146.5938,39.2813 2147.2031,38.7422 Q2147.6016,38.4375 2147.8125,38.3438 Q2148.0234,38.25 2148.2813,38.25 Q2148.7734,38.25 2149.125,38.6484 Q2149.5,39.0234 2149.5,39.5625 Q2149.5,40.0781 2148.9844,40.6875 Q2148.2344,41.5781 2147.0391,42.0703 Q2145.4688,42.75 2143.5469,42.75 Q2141.2969,42.75 2139.4922,41.8594 Q2138.0391,41.1563 2137.0078,39.6328 Q2136,38.1094 2136,36.3047 L2136,34.6641 Q2136,32.7891 2136.8906,31.1484 Q2137.8047,29.5078 2139.375,28.6406 Q2140.9688,27.75 2142.75,27.75 Q2143.8281,27.75 2144.7656,28.125 Q2145.7031,28.5 2146.5,29.25 Z " fill="#000000"/><text fill="#000000" font-family="sans-serif" font-size="18" lengthAdjust="spacing" textLength="102" x="2164.5" y="41.8652">ShareActivity</text><line style="stroke:#A80036;stroke-width:2.25;" x1="2122.5" x2="2269.5" y1="58.5" y2="58.5"/><line style="stroke:#A80036;stroke-width:2.25;" x1="2122.5" x2="2269.5" y1="70.5" y2="70.5"/><!--MD5=[6c20ce9809655cad7865c6e66051ce1f]
reverse link TQStory to TQQuest--><path codeLine="24" d="M949.605,674.01 C1074.975,691.35 985.395,883.38 928.5,1018.5 C914.61,1051.485 892.395,1081.83 867.63,1108.38 " fill="none" id="TQStory-backto-TQQuest" style="stroke:#A80036;stroke-width:1.5;"/><polygon fill="#FFFFFF" points="930,672.75,938.592,679.3209,947.9621,673.9171,939.3701,667.3462,930,672.75" style="stroke:#A80036;stroke-width:1.5;"/><!--MD5=[bad8de41d83fed82b091e69bb17dcbf1]
reverse link TQStory to TwPassage--><path codeLine="25" d="M497.82,693.03 C219.645,715.35 258.51,1214.715 287.07,1423.26 " fill="none" id="TQStory-backto-TwPassage" style="stroke:#A80036;stroke-width:1.5;stroke-dasharray:7.0,7.0;"/><polygon fill="#FFFFFF" points="517.5,692.25,508.2699,686.6105,499.5141,692.9615,508.7442,698.6011,517.5,692.25" style="stroke:#A80036;stroke-width:1.5;"/><!--MD5=[2ddf84ec1af096f7139501a709656b09]
reverse link TQQuest to TQCharacter--><path codeLine="37" d="M892.635,1220.685 C954.39,1240.32 891.555,1363.26 842.475,1443.465 " fill="none" id="TQQuest-backto-TQCharacter" style="stroke:#A80036;stroke-width:1.5;"/><polygon fill="#FFFFFF" points="873,1218,881.099,1225.1698,890.8323,1220.4514,882.7333,1213.2816,873,1218" style="stroke:#A80036;stroke-width:1.5;"/><!--MD5=[f8fecb4fb81a3f628e3ad9afdbdc6275]
reverse link TQQuest to TwPassage--><path codeLine="38" d="M557.82,1240.185 C461.025,1251.93 388.005,1348.23 345.15,1423.245 " fill="none" id="TQQuest-backto-TwPassage" style="stroke:#A80036;stroke-width:1.5;"/><polygon fill="#FFFFFF" points="577.5,1239,568.1541,1233.5545,559.5329,1240.0871,568.8788,1245.5326,577.5,1239" style="stroke:#A80036;stroke-width:1.5;"/><!--MD5=[2228a28a69403f033973eedbd1bf2e05]
reverse link TQCharacter to TQCharacterProperty--><path codeLine="47" d="M450.45,1524.66 C448.08,1539.225 461.31,1565.31 468,1586.25 C487.335,1646.76 527.25,1705.845 562.8,1750.245 " fill="none" id="TQCharacter-backto-TQCharacterProperty" style="stroke:#A80036;stroke-width:1.5;"/><polygon fill="#FFFFFF" points="466.5,1513.5,455.6855,1513.7175,451.7269,1523.7838,462.5414,1523.5663,466.5,1513.5" style="stroke:#A80036;stroke-width:1.5;"/><!--MD5=[bfc3706618e28b240995db7b885d46bd]
reverse link TQCharacter to TQCharacterParameter--><path codeLine="48" d="M1146.465,1535.58 C1238.775,1545.615 1313.535,1623.525 1364.085,1696.155 " fill="none" id="TQCharacter-backto-TQCharacterParameter" style="stroke:#A80036;stroke-width:1.5;"/><polygon fill="#FFFFFF" points="1126.5,1534.5,1135.1569,1540.9852,1144.4728,1535.4886,1135.816,1529.0034,1126.5,1534.5" style="stroke:#A80036;stroke-width:1.5;"/><!--MD5=[bf96f5c28184c4ba9ba8fafc20bc98fd]
reverse link TwPassage to TwLink--><path codeLine="82" d="M409.17,1523.085 C423.735,1560.27 371.73,1682.565 335.415,1759.995 " fill="none" id="TwPassage-backto-TwLink" style="stroke:#A80036;stroke-width:1.5;"/><polygon fill="#FFFFFF" points="393,1512,397.032,1522.0371,407.8478,1522.1757,403.8158,1512.1386,393,1512" style="stroke:#A80036;stroke-width:1.5;"/><!--MD5=[f9a186672d74db6dfde672b916f8b68d]
reverse link TwPassage to TwPosition--><path codeLine="83" d="M191.97,1575.99 C122.64,1594.695 114.855,1714.185 116.07,1781.07 " fill="none" id="TwPassage-backto-TwPosition" style="stroke:#A80036;stroke-width:1.5;"/><polygon fill="#FFFFFF" points="211.5,1573.5,201.8141,1568.6851,193.6442,1575.774,203.3301,1580.5889,211.5,1573.5" style="stroke:#A80036;stroke-width:1.5;"/><!--MD5=[67da77d2dbca7824eb838dfc1ded96c4]
reverse link MathExpressionEvaluator to TQStory--><path codeLine="122" d="M843.675,494.505 C877.515,524.31 910.14,561.12 928.5,603 C982.185,725.415 1063.665,903.75 930,903.75 " fill="none" id="MathExpressionEvaluator-backto-TQStory" style="stroke:#A80036;stroke-width:1.5;stroke-dasharray:7.0,7.0;"/><polygon fill="#A80036" points="837.795,489.405,844.0614,502.7834,843.4605,494.3194,851.9245,493.7185,837.795,489.405" style="stroke:#A80036;stroke-width:1.5;"/><!--MD5=[6d5544fde2baddb46808497b299398c6]
link MathExpressionEvaluator to TQStory--><path codeLine="123" d="M837.09,489.03 C873.165,519.75 908.835,558.54 928.5,603 C948.24,647.595 977.025,709.74 949.245,726.78 " fill="none" id="MathExpressionEvaluator-to-TQStory" style="stroke:#A80036;stroke-width:1.5;"/><polygon fill="#FFFFFF" points="930,731.25,940.125,735.0559,947.5323,727.1736,937.4074,723.3677,930,731.25" style="stroke:#A80036;stroke-width:1.5;"/><!--MD5=[455dee42191eb917e24148b3e09d339b]
link GamesActivity to TQManager--><path codeLine="127" d="M2068.62,80.625 C2175.51,125.475 2354.16,207.555 2389.5,268.5 C2477.73,420.63 2444.91,639.525 2420.925,746.115 " fill="none" id="GamesActivity-to-TQManager" style="stroke:#A80036;stroke-width:1.5;"/><polygon fill="#A80036" points="2419.215,753.6,2428.0742,741.7778,2420.8874,746.2888,2416.3763,739.102,2419.215,753.6" style="stroke:#A80036;stroke-width:1.5;"/><!--MD5=[f39cf10fd5f6b2841182b3fd390e4928]
link GamesActivity to ManagerActivity--><path codeLine="128" d="M2016.135,82.5 C2036.415,106.92 2063.7,139.785 2085.135,165.615 " fill="none" id="GamesActivity-to-ManagerActivity" style="stroke:#A80036;stroke-width:1.5;"/><polygon fill="#A80036" points="2090.46,172.02,2086.432,157.8064,2085.6607,166.2566,2077.2106,165.4853,2090.46,172.02" style="stroke:#A80036;stroke-width:1.5;"/><!--MD5=[0c1f17fb9636ebc23b26c4bc82749037]
link GamesActivity to PlayActivity--><path codeLine="129" d="M1982.46,82.74 C1972.785,149.535 1951.605,295.71 1941.12,368.025 " fill="none" id="GamesActivity-to-PlayActivity" style="stroke:#A80036;stroke-width:1.5;"/><polygon fill="#A80036" points="1940.025,375.615,1947.9295,363.1342,1941.1187,368.1952,1936.0577,361.3844,1940.025,375.615" style="stroke:#A80036;stroke-width:1.5;"/><!--MD5=[ad079b17dd082c9cf7c3d9b2d73cf606]
link ManagerActivity to TQManager--><path codeLine="131" d="M2206.095,219.6 C2239.245,227.58 2274.66,242.115 2298,268.5 C2417.955,404.1 2418.765,634.65 2411.025,745.725 " fill="none" id="ManagerActivity-to-TQManager" style="stroke:#A80036;stroke-width:1.5;"/><polygon fill="#A80036" points="2410.455,753.51,2417.4414,740.4931,2411.0122,746.0307,2405.4745,739.6016,2410.455,753.51" style="stroke:#A80036;stroke-width:1.5;"/><!--MD5=[341dd51d67cc18f4103eedf78b3b8cfd]
link ManagerActivity to ManageQuestActivity--><path codeLine="132" d="M2127.075,244.875 C2134.485,278.985 2145.78,330.975 2153.715,367.545 " fill="none" id="ManagerActivity-to-ManageQuestActivity" style="stroke:#A80036;stroke-width:1.5;"/><polygon fill="#A80036" points="2155.365,375.09,2158.3743,360.6265,2153.7789,367.7596,2146.6457,363.1642,2155.365,375.09" style="stroke:#A80036;stroke-width:1.5;"/><!--MD5=[f44a54213392986c1c19b387bcdd6718]
link ManagerActivity to PlayActivity--><path codeLine="133" d="M2058.81,244.545 C2048.46,251.775 2038.245,259.86 2029.5,268.5 C1999.575,298.08 1973.73,338.55 1956.675,368.67 " fill="none" id="ManagerActivity-to-PlayActivity" style="stroke:#A80036;stroke-width:1.5;"/><polygon fill="#A80036" points="1952.955,375.33,1964.7782,366.4722,1956.6137,368.7829,1954.3029,360.6183,1952.955,375.33" style="stroke:#A80036;stroke-width:1.5;"/><!--MD5=[1a3d06505aeb295d2f2a0a733279a230]
link PlayActivity to TQStory--><path codeLine="135" d="M1867.245,435.39 C1693.92,492.015 1228.38,644.13 947.4,735.93 " fill="none" id="PlayActivity-to-TQStory" style="stroke:#A80036;stroke-width:1.5;"/><polygon fill="#A80036" points="939.96,738.36,954.6567,739.8626,947.0879,736.0269,950.9236,728.458,939.96,738.36" style="stroke:#A80036;stroke-width:1.5;"/><!--MD5=[8fc30395bb18e3e477eb3b167406f40c]
link PlayActivity to TQManager--><path codeLine="136" d="M1961.295,448.23 C1979.325,471.18 2004.42,501.225 2029.5,525 C2119.74,610.56 2235.255,694.86 2314.08,749.16 " fill="none" id="PlayActivity-to-TQManager" style="stroke:#A80036;stroke-width:1.5;"/><polygon fill="#A80036" points="2320.635,753.675,2312.8893,741.0951,2314.4478,749.436,2306.1069,750.9946,2320.635,753.675" style="stroke:#A80036;stroke-width:1.5;"/><!--MD5=[5b7e16c2e00969f8667b8f8ab049866b]
link ManageQuestActivity to TQManager--><path codeLine="138" d="M2184.435,448.395 C2225.385,515.55 2315.235,662.88 2366.565,747.045 " fill="none" id="ManageQuestActivity-to-TQManager" style="stroke:#A80036;stroke-width:1.5;"/><polygon fill="#A80036" points="2370.495,753.495,2368.5791,738.8465,2366.5859,747.0943,2358.338,745.1011,2370.495,753.495" style="stroke:#A80036;stroke-width:1.5;"/><!--MD5=[51c12c2c8f4d30e31f597816a917aa6e]
link ShareActivity to TQManager--><path codeLine="140" d="M2271.135,55.965 C2342.55,67.965 2446.215,97.935 2496,172.5 C2616.09,352.365 2502.15,624.45 2439.525,746.325 " fill="none" id="ShareActivity-to-TQManager" style="stroke:#A80036;stroke-width:1.5;"/><polygon fill="#A80036" points="2435.835,753.435,2447.3697,744.2046,2439.283,746.7746,2436.7131,738.6878,2435.835,753.435" style="stroke:#A80036;stroke-width:1.5;"/><!--MD5=[690964b9b4c1f83e775900cca42436e8]
@startuml

package story {
    class TQStory {
        - TQQuest tqquest
        - TwPassage currentPassage
        - String currentPassageCleanText
        - MathExpressionEvaluator mathExpressionEvaluator
        __
        + Story(TQQuest tqquest)
        ..
        + TwPassage getPassageByPid(int pid)
        + TwPassage getPassageByName(String name)
        ..
        + int getCurrentPassagePid()
        + String getCurrentPassageName()
        ..
        + String processCurrentPassage()
        + TwLink[] getCurrentPassageLinks()
        + String getCurrentPassageCleanText()
        + goByLinkNumber(int linkNumber)
        ..
        + boolean isEnd()
    }
    TQStory::tqquest o- - TQQuest
    TQStory::currentPassage o.. TwPassage

    'TQQuest \===============
    class TQQuest {
        + String title
        + String author
        + TQCharacter character
        + List<TwPassage> passages
        + String name
        + int startnode
        + String creator, creator_version, ifid
    }
    TQQuest::character o- - TQCharacter
    TQQuest::passages o- - TwPassage

    'Character \===============
    class TQCharacter {
        + TQCharacterProperty[] properties
        + TQCharacterParameter[] parameters

        + TQCharacter(TQCharacterProperty[] properties, TQCharacterParameter[] parameters)
    }
    TQCharacter::properties o- - TQCharacterProperty
    TQCharacter::parameters o- - TQCharacterParameter

    class TQCharacterProperty {
        + String tqKeyword
        + String value

        + TQCharacterProperty()
        + TQCharacterProperty(String tqKeyword, String value)
    }

    class TQCharacterParameter {
        + String name
        + int value
        __
        + TQCharacterParameter()
        + TQCharacterParameter(String name, int startValue, String minValue, String minValPassageName, String maxValue, String maxValPassageName)
        ..
        + getName()
        + setName()
        ..
        + getValue()
        + setValue()
    }

    'Character /===============

    'TwPassage \===============
    class TwPassage {
        + String text
        + List<TwLink> links
        + String name
        + int pid
        + TwPosition position
    }
    TwPassage::links o- - TwLink
    TwPassage::position o- - TwPosition

    'Link \===============
    class TwLink {
        + String name
        + String link
        + int pid
    }
    'Link /===============

    'TwPosition \===============
    class TwPosition {
        + float x, y
    }
    'TwPosition /===============

    'TwPassage /===============

    'TQQuest /===============
}

package tqmanager {
    'TQManager \===============
    note bottom of TQManager : Умеет управлять хранящимися квестами (json, знает где их искать), добавляет новые квесты в "библиотеку".
    class TQManager {
        + {static} void addQuest(String title, String author, file)
        + {static} TQQuest getQuest([some identifier])
    }
    'TQManager /===============
}

package utils {
    class MathExpressionEvaluator {
        - final com.fathzer.soft.javaluator.DoubleEvaluator doubleEvaluator
        - final com.fathzer.soft.javaluator.StaticVariableSet<Double> variableSet

        + double evaluate(Strint ex)
        + void setVariable(String name, double value)
    }
    MathExpressionEvaluator <.. TQStory::processCurrentPassage
        MathExpressionEvaluator - -o TQStory::mathExpressionEvaluator
}

together {
    GamesActivity - -> TQManager
    GamesActivity - -> ManagerActivity
    GamesActivity - -> PlayActivity

    ManagerActivity - -> TQManager
    ManagerActivity - -> ManageQuestActivity
    ManagerActivity - -> PlayActivity

    PlayActivity - -> TQStory
    PlayActivity - -> TQManager

    ManageQuestActivity - -> TQManager

    ShareActivity - -> TQManager
}

@enduml

@startuml

package story {
    class TQStory {
        - TQQuest tqquest
        - TwPassage currentPassage
        - String currentPassageCleanText
        - MathExpressionEvaluator mathExpressionEvaluator
        __
        + Story(TQQuest tqquest)
        ..
        + TwPassage getPassageByPid(int pid)
        + TwPassage getPassageByName(String name)
        ..
        + int getCurrentPassagePid()
        + String getCurrentPassageName()
        ..
        + String processCurrentPassage()
        + TwLink[] getCurrentPassageLinks()
        + String getCurrentPassageCleanText()
        + goByLinkNumber(int linkNumber)
        ..
        + boolean isEnd()
    }
    TQStory::tqquest o- - TQQuest
    TQStory::currentPassage o.. TwPassage

    class TQQuest {
        + String title
        + String author
        + TQCharacter character
        + List<TwPassage> passages
        + String name
        + int startnode
        + String creator, creator_version, ifid
    }
    TQQuest::character o- - TQCharacter
    TQQuest::passages o- - TwPassage

    class TQCharacter {
        + TQCharacterProperty[] properties
        + TQCharacterParameter[] parameters

        + TQCharacter(TQCharacterProperty[] properties, TQCharacterParameter[] parameters)
    }
    TQCharacter::properties o- - TQCharacterProperty
    TQCharacter::parameters o- - TQCharacterParameter

    class TQCharacterProperty {
        + String tqKeyword
        + String value

        + TQCharacterProperty()
        + TQCharacterProperty(String tqKeyword, String value)
    }

    class TQCharacterParameter {
        + String name
        + int value
        __
        + TQCharacterParameter()
        + TQCharacterParameter(String name, int startValue, String minValue, String minValPassageName, String maxValue, String maxValPassageName)
        ..
        + getName()
        + setName()
        ..
        + getValue()
        + setValue()
    }


    class TwPassage {
        + String text
        + List<TwLink> links
        + String name
        + int pid
        + TwPosition position
    }
    TwPassage::links o- - TwLink
    TwPassage::position o- - TwPosition

    class TwLink {
        + String name
        + String link
        + int pid
    }

    class TwPosition {
        + float x, y
    }


}

package tqmanager {
    note bottom of TQManager : Умеет управлять хранящимися квестами (json, знает где их искать), добавляет новые квесты в "библиотеку".
    class TQManager {
        + {static} void addQuest(String title, String author, file)
        + {static} TQQuest getQuest([some identifier])
    }
}

package utils {
    class MathExpressionEvaluator {
        - final com.fathzer.soft.javaluator.DoubleEvaluator doubleEvaluator
        - final com.fathzer.soft.javaluator.StaticVariableSet<Double> variableSet

        + double evaluate(Strint ex)
        + void setVariable(String name, double value)
    }
    MathExpressionEvaluator <.. TQStory::processCurrentPassage
        MathExpressionEvaluator - -o TQStory::mathExpressionEvaluator
}

together {
    GamesActivity - -> TQManager
    GamesActivity - -> ManagerActivity
    GamesActivity - -> PlayActivity

    ManagerActivity - -> TQManager
    ManagerActivity - -> ManageQuestActivity
    ManagerActivity - -> PlayActivity

    PlayActivity - -> TQStory
    PlayActivity - -> TQManager

    ManageQuestActivity - -> TQManager

    ShareActivity - -> TQManager
}

@enduml

PlantUML version 1.2021.2(Sun Mar 07 14:10:27 MSK 2021)
(GPL source distribution)
Java Runtime: OpenJDK Runtime Environment
JVM: OpenJDK 64-Bit Server VM
Default Encoding: Cp1251
Language: ru
Country: RU
--></g></svg>